<?xml version="1.0" standalone="no"?>
<!DOCTYPE svg PUBLIC "-//W3C//DTD SVG 1.1//EN" "http://www.w3.org/Graphics/SVG/1.1/DTD/svg11.dtd" >
<svg>
<metadata>
Created by FontForge 20090914 at Wed Apr  6 17:27:34 2016
 By www-data
&#194;&#169; 2014 Apple Inc. All rights reserved.
</metadata>
<defs>
<font id="SFUIDisplay-Medium" horiz-adv-x="0" >
  <font-face 
    font-family="SF UI Display"
    font-weight="500"
    font-stretch="normal"
    units-per-em="2048"
    panose-1="0 0 6 0 0 0 0 0 0 0"
    ascent="1638"
    descent="-410"
    x-height="1086"
    cap-height="1443"
    bbox="-544 -898 2592 2144"
    underline-thickness="50"
    underline-position="-25"
    unicode-range="U+0020-U+FB02"
  />
<missing-glyph horiz-adv-x="1293" 
d="M120 0v1365h1053v-1365h-1053zM501 313c0 -31.333 11.168 -57.001 33.501 -77.001s51.166 -30 86.499 -30c36.667 0 66.167 9.83301 88.5 29.5s33.5 45.5 33.5 77.5c0 32.667 -11.167 58.834 -33.5 78.501s-51.833 29.5 -88.5 29.5c-36 0 -65 -10 -87 -30
s-33 -46 -33 -78zM339.001 887.999l169 -0.000976562c0.666992 39.333 12.167 70.833 34.5 94.5s52.5 35.5 90.5 35.5c36 0 65 -10 87 -30s33 -46.667 33 -80c0 -25.333 -6.83301 -47.166 -20.5 -65.499s-41.167 -42.5 -82.5 -72.5c-46 -32 -78 -65.333 -96 -100
s-25.333 -75 -22 -121l1 -18h166v15c0 32 6.33301 57.333 19 76s42 44.334 88 77.001c48.667 34.667 83 68.667 103 102s30 72 30 116c0 75.333 -27 135.833 -81 181.5s-125.667 68.5 -215 68.5c-95.333 0 -170.5 -25.333 -225.5 -76s-81.167 -118.334 -78.5 -203.001z" />
    <glyph glyph-name=".notdef" horiz-adv-x="1293" 
d="M120 0v1365h1053v-1365h-1053zM501 313c0 -31.333 11.168 -57.001 33.501 -77.001s51.166 -30 86.499 -30c36.667 0 66.167 9.83301 88.5 29.5s33.5 45.5 33.5 77.5c0 32.667 -11.167 58.834 -33.5 78.501s-51.833 29.5 -88.5 29.5c-36 0 -65 -10 -87 -30
s-33 -46 -33 -78zM339.001 887.999l169 -0.000976562c0.666992 39.333 12.167 70.833 34.5 94.5s52.5 35.5 90.5 35.5c36 0 65 -10 87 -30s33 -46.667 33 -80c0 -25.333 -6.83301 -47.166 -20.5 -65.499s-41.167 -42.5 -82.5 -72.5c-46 -32 -78 -65.333 -96 -100
s-25.333 -75 -22 -121l1 -18h166v15c0 32 6.33301 57.333 19 76s42 44.334 88 77.001c48.667 34.667 83 68.667 103 102s30 72 30 116c0 75.333 -27 135.833 -81 181.5s-125.667 68.5 -215 68.5c-95.333 0 -170.5 -25.333 -225.5 -76s-81.167 -118.334 -78.5 -203.001z" />
    <glyph glyph-name="space" unicode=" " horiz-adv-x="472" 
 />
    <glyph glyph-name="exclam" unicode="!" horiz-adv-x="583" 
d="M180 1443h223l-16 -965h-191zM291 -15c-36.667 0 -67.667 12.333 -93 37s-38 55.334 -38 92.001s12.667 67.334 38 92.001s56.333 37 93 37c37.333 0 68.666 -12.333 93.999 -37s38 -55.334 38 -92.001s-12.667 -67.334 -38 -92.001s-56.666 -37 -93.999 -37z" />
    <glyph glyph-name="quotedbl" unicode="&#x22;" horiz-adv-x="851" 
d="M318 910h-193v533h193v-533zM725 910h-192v533h192v-533z" />
    <glyph glyph-name="numbersign" unicode="#" horiz-adv-x="1229" 
d="M1195 887h-229l-64 -314h216l-33 -170h-217l-81 -403h-172l82 403h-282l-81 -403h-171l81 403h-212l32 170h215l63 314h-203l34 168h203l80 388h171l-78 -388h280l80 388h171l-79 -388h226zM509 894l-67 -330h293l67 330h-293z" />
    <glyph glyph-name="dollar" unicode="$" horiz-adv-x="1270" 
d="M707 -137l-136.996 -0.00488281v132c-142.667 9.33301 -256.334 50.5 -341.001 123.5s-127.334 167.167 -128.001 282.5h212c5.33301 -61.333 30.666 -112 75.999 -152s105.666 -64.333 180.999 -73v473l-89 23c-112 28 -197.833 74.833 -257.5 140.5
s-89.5 146.834 -89.5 243.501c0 114 38.667 206.833 116 278.5s184 113.834 320 126.501v139h137v-139c130 -10.667 234.5 -52.5 313.5 -125.5s120.167 -164.833 123.5 -275.5h-209c-2 56.667 -24 105.167 -66 145.5s-96 64.833 -162 73.5v-447l93 -21
c124.667 -31.333 217.334 -79.166 278.001 -143.499s91 -148.166 91 -251.499c0 -121.333 -40.333 -218.666 -121 -291.999s-194.334 -116 -341.001 -128v-133zM957.004 395.995c0 59.333 -20.167 107.5 -60.5 144.5s-103.5 64.5 -189.5 82.5v-450
c79.333 4.66699 140.833 26.5 184.5 65.5s65.5 91.5 65.5 157.5zM348.004 1071c0 -54 19 -98.668 57 -134.001s93 -60.666 165 -75.999v418c-64 -3.33301 -117 -24.5 -159 -63.5s-63 -87.167 -63 -144.5z" />
    <glyph glyph-name="percent" unicode="%" horiz-adv-x="1549" 
d="M1500 347c0 -110.667 -28.167 -199.167 -84.5 -265.5s-131.833 -99.5 -226.5 -99.5c-95.333 0 -171.333 33.167 -228 99.5s-85 154.833 -85 265.5s28.333 199 85 265s132.667 99 228 99c94.667 0 170.167 -32.833 226.5 -98.5s84.5 -154.167 84.5 -265.5zM1189 123
c39.333 0 70.5 20.001 93.5 60.001s34.5 94.667 34.5 164c0 70 -11.167 124.5 -33.5 163.5s-53.833 58.5 -94.5 58.5c-40 0 -71.667 -19.833 -95 -59.5s-35 -93.834 -35 -162.501s11.667 -123.167 35 -163.5s55 -60.5 95 -60.5zM672 1105
c0 -110.667 -28.167 -199.167 -84.5 -265.5s-131.833 -99.5 -226.5 -99.5c-95.333 0 -171.333 33.167 -228 99.5s-85 154.833 -85 265.5s28.333 199 85 265s132.667 99 228 99c94.667 0 170.167 -32.833 226.5 -98.5s84.5 -154.167 84.5 -265.5zM361 881.001
c39.333 0 70.5 20.001 93.5 60.001s34.5 94.667 34.5 164c0 70 -11.167 124.5 -33.5 163.5s-53.833 58.5 -94.5 58.5c-40 0 -71.667 -19.833 -95 -59.5s-35 -93.834 -35 -162.501s11.667 -123.167 35 -163.5s55 -60.5 95 -60.5zM345 0.00195312h-204l1055 1443h202z" />
    <glyph glyph-name="ampersand" unicode="&#x26;" horiz-adv-x="1394" 
d="M1149 0l-124.999 136c-58.667 -51.333 -127.834 -91 -207.501 -119s-162.5 -42 -248.5 -42c-146.667 0 -265.167 37.5 -355.5 112.5s-135.5 173.167 -135.5 294.5c0 83.333 22.667 157.166 68 221.499s115 121.833 209 172.5l23.5 12.5l23.5 12c6 3 10 4.83301 12 5.5
c-65.333 68.667 -111.5 128.334 -138.5 179.001s-40.5 102.334 -40.5 155.001c0 93.333 36.167 170.833 108.5 232.5s162.833 92.5 271.5 92.5c110.667 0 201.334 -30.333 272.001 -91s106 -138.667 106 -234c0 -73.333 -23.833 -139.333 -71.5 -198
s-124.834 -116.334 -231.501 -173.001l328 -353c41.333 76.667 62 191 62 343v55h194v-61c0 -200.667 -40 -360.667 -120 -480l259 -273h-263zM477.001 659c-66.667 -41.333 -114.667 -82.333 -144 -123s-44 -86.667 -44 -138c0 -74.667 27.667 -135 83 -181
s127.666 -69 216.999 -69c60 0 118.333 11 175 33s102.334 51.333 137.001 88l-379 414c-12 -6 -27 -14 -45 -24zM579.001 882c78.667 40.667 134.667 79.8311 168 117.498s50 80.834 50 129.501c0 52 -16.833 94.333 -50.5 127s-77.5 49 -131.5 49
c-52.667 0 -96.167 -16.667 -130.5 -50s-51.5 -75.666 -51.5 -126.999c0 -37.333 11 -74.333 33 -111s59.667 -81.667 113 -135z" />
    <glyph glyph-name="quotesingle" unicode="'" horiz-adv-x="443" 
d="M318 910h-193v533h193v-533z" />
    <glyph glyph-name="parenleft" unicode="(" horiz-adv-x="663" 
d="M627 -277l-196.998 -0.00390625c-34 42.667 -65.667 90 -95 142s-57.833 113.833 -85.5 185.5s-49.5 154.834 -65.5 249.501s-24 194.334 -24 299.001c0 105.333 7.5 202 22.5 290s37 165.833 66 233.5s57.833 124.834 86.5 171.501s63.667 96 105 148h190
c-26.667 -31.333 -53.334 -71.166 -80.001 -119.499s-53.167 -107.333 -79.5 -177s-47.833 -152.167 -64.5 -247.5s-25 -194.333 -25 -297c0 -82.667 5.5 -162.834 16.5 -240.501s24 -144.667 39 -201s34.667 -114.166 59 -173.499s45.666 -106.5 63.999 -141.5
s40.833 -75.5 67.5 -121.5z" />
    <glyph glyph-name="parenright" unicode=")" horiz-adv-x="663" 
d="M35 -277c34 58 62.335 110.668 85.002 158.001s47.834 108.333 75.501 183s48.667 157.334 63 248.001s21.5 187 21.5 289c0 102.667 -8.16699 201.5 -24.5 296.5s-37.5 177.333 -63.5 247s-52.333 129 -79 178s-53.334 88.833 -80.001 119.5h190
c41.333 -52.667 76.166 -102 104.499 -148s57.166 -103.167 86.499 -171.5s51.5 -146.333 66.5 -234s22.5 -184.167 22.5 -289.5c0 -104.667 -8 -204.334 -24 -299.001s-38 -177.834 -66 -249.501s-56.667 -133.5 -86 -185.5s-61 -99.333 -95 -142h-197z" />
    <glyph glyph-name="asterisk" unicode="*" horiz-adv-x="990" 
d="M790 854l-240 167l24 -290h-158l24 291l-239 -168l-78 137l264 124l-264 124l78 138l240 -170l-25 294h158l-25 -294l241 170l77 -138l-263 -124l263 -124z" />
    <glyph glyph-name="plus" unicode="+" horiz-adv-x="1270" 
d="M734 475v-451h-198v451h-420v195h420v442h198v-442h420v-195h-420z" />
    <glyph glyph-name="comma" unicode="," horiz-adv-x="552" 
d="M261 -262h-166l94 488h217z" />
    <glyph glyph-name="hyphen" unicode="-" horiz-adv-x="888" 
d="M772 475h-656v195h656v-195z" />
    <glyph glyph-name="period" unicode="." horiz-adv-x="538" 
d="M269 -11c-36.667 0 -67.667 12.667 -93 38s-38 56.333 -38 93s12.667 67.667 38 93s56.333 38 93 38s67.667 -12.5 93 -37.5s38 -56.167 38 -93.5c0 -36.667 -12.667 -67.667 -38 -93s-56.333 -38 -93 -38z" />
    <glyph glyph-name="slash" unicode="/" horiz-adv-x="625" 
d="M189 -316h-189l431 1760h194z" />
    <glyph glyph-name="zero" unicode="0" horiz-adv-x="1275" 
d="M638 -27c-172 0 -306.832 67.1689 -404.499 201.502s-146.5 317.166 -146.5 548.499c0 229.333 49 411.166 147 545.499s232.667 201.5 404 201.5s305.666 -66.833 402.999 -200.5s146 -315.5 146 -545.5c0 -231.333 -48.5 -414.333 -145.5 -549s-231.5 -202 -403.5 -202
zM638.001 161.002c102.667 0 182.165 49.833 238.498 149.5s84.5 237.167 84.5 412.5c0 173.333 -28.5 309.833 -85.5 409.5s-136.167 149.5 -237.5 149.5s-180.666 -50 -237.999 -150s-86 -236.333 -86 -409c0 -175.333 28.333 -312.833 85 -412.5
s136.334 -149.5 239.001 -149.5z" />
    <glyph glyph-name="one" unicode="1" horiz-adv-x="935" 
d="M477 0v1221h-5l-377 -268v220l380 270h221v-1443h-219z" />
    <glyph glyph-name="two" unicode="2" horiz-adv-x="1186" 
d="M100 1020c0 130 46.834 237.498 140.501 322.498s212.167 127.5 355.5 127.5c137.333 0 251.666 -38.667 342.999 -116s137 -173.333 137 -288c0 -80.667 -22.333 -157.167 -67 -229.5s-122.667 -165.5 -234 -279.5l-361 -363v-5h685v-189h-987v152l521 531
c88 92 147 162.833 177 212.5s45 102.834 45 159.501c0 64 -25.667 118.333 -77 163s-114.333 67 -189 67c-78.667 0 -144.5 -25.167 -197.5 -75.5s-79.5 -113.166 -79.5 -188.499v-3h-212v2z" />
    <glyph glyph-name="three" unicode="3" horiz-adv-x="1240" 
d="M426 653l0.000976562 176.001h174c77.333 0 140.5 22 189.5 66s73.5 100 73.5 168c0 68.667 -22.833 123 -68.5 163s-110.5 60 -194.5 60c-78 0 -141.333 -20.833 -190 -62.5s-76.334 -98.167 -83.001 -169.5h-211c8.66699 126.667 57.5 227.667 146.5 303
s204.833 113 347.5 113c137.333 0 250.333 -35.167 339 -105.5s133 -160.833 133 -271.5c0 -89.333 -27 -164.5 -81 -225.5s-126 -99.5 -216 -115.5v-4c109.333 -7.33301 196.166 -42.333 260.499 -105s96.5 -144.334 96.5 -245.001c0 -124.667 -50.333 -226.667 -151 -306
s-227 -119 -379 -119c-154 0 -278.167 38.5 -372.5 115.5s-145.166 178.5 -152.499 304.5h215c7.33301 -70 38.5 -126.333 93.5 -169s127.167 -64 216.5 -64c88 0 160.333 22.5 217 67.5s85 102.833 85 173.5c0 78 -27.5 139.5 -82.5 184.5s-130.167 67.5 -225.5 67.5h-180z
" />
    <glyph glyph-name="four" unicode="4" horiz-adv-x="1271" 
d="M798 0v284.999h-722v196c116 218.667 320.333 539.334 613 962.001h324v-970h198v-188h-198v-285h-215zM285 474.999v-5h515v800h-4c-238.667 -344.667 -409 -609.667 -511 -795z" />
    <glyph glyph-name="five" unicode="5" horiz-adv-x="1228" 
d="M629 -27c-144 0 -263.668 39.833 -359.001 119.5s-146.333 182.5 -153 308.5h214c8 -71.333 39.833 -129.333 95.5 -174s123.834 -67 204.501 -67c90.667 0 164.667 28.667 222 86s86 131.333 86 222s-28.5 165.167 -85.5 223.5s-130.5 87.5 -220.5 87.5
c-62.667 0 -119.5 -13.5 -170.5 -40.5s-90.5 -64.167 -118.5 -111.5h-205l76 816h859v-189h-679l-40 -443h5c32 46 76.167 81.833 132.5 107.5s119.5 38.5 189.5 38.5c138.667 0 252.667 -45.5 342 -136.5s134 -206.5 134 -346.5c0 -148 -49.167 -268.5 -147.5 -361.5
s-225.5 -139.5 -381.5 -139.5z" />
    <glyph glyph-name="six" unicode="6" horiz-adv-x="1259" 
d="M655 -28c-106.667 0 -201.166 26.334 -283.499 79.001s-147.166 127.667 -194.499 225c-59.333 115.333 -89 257.333 -89 426c0 241.333 51 429.833 153 565.5s243.333 203.5 424 203.5c127.333 0 236.5 -35 327.5 -105s147.5 -162.667 169.5 -278h-224
c-17.333 59.333 -51 106.666 -101 141.999s-108 53 -174 53c-114 0 -202.333 -49.5 -265 -148.5s-94.334 -239.167 -95.001 -420.5h4c32 70.667 83.667 127.334 155 170.001s151.666 64 240.999 64c137.333 0 251.5 -45.333 342.5 -136s136.5 -204.334 136.5 -341.001
c0 -144.667 -49.667 -264 -149 -358s-225.333 -141 -378 -141zM653.001 161.001c85.333 0 157.667 29.3311 217 87.998s89 130.334 89 215.001c0 87.333 -28.5 159.333 -85.5 216s-129.833 85 -218.5 85c-88 0 -161.167 -28.167 -219.5 -84.5s-87.5 -127.166 -87.5 -212.499
c0 -86 29.333 -158.667 88 -218s131 -89 217 -89z" />
    <glyph glyph-name="seven" unicode="7" horiz-adv-x="1139" 
d="M192 0l641 1249v5h-761v189h982v-194l-627 -1249h-235z" />
    <glyph glyph-name="eight" unicode="8" horiz-adv-x="1266" 
d="M633 -27c-160.667 0 -291.833 39.0029 -393.5 117.003s-152.5 178 -152.5 300c0 91.333 29.5 171 88.5 239s136.5 112 232.5 132v5c-80 22 -143.833 62.167 -191.5 120.5s-71.5 126.166 -71.5 203.499c0 109.333 46 200 138 272s208.667 108 350 108
c142 0 258.667 -35.833 350 -107.5s137 -162.834 137 -273.501c0 -76 -23.667 -143 -71 -201s-111 -98.667 -191 -122v-5c96 -20 173.5 -64 232.5 -132s88.5 -147.667 88.5 -239c0 -122.667 -51 -222.834 -153 -300.501s-233 -116.5 -393 -116.5zM633.001 153.003
c92 0 167.333 23.832 226 71.499s88 108.167 88 181.5c0 74.667 -29.333 135.834 -88 183.501s-134 71.5 -226 71.5s-167.5 -24 -226.5 -72s-88.5 -109 -88.5 -183c0 -73.333 29.5 -133.833 88.5 -181.5s134.5 -71.5 226.5 -71.5zM633.001 841.002
c77.333 0 141 21.168 191 63.501s75 96.166 75 161.499c0 66 -24.833 120.167 -74.5 162.5s-113.5 63.5 -191.5 63.5s-141.833 -21.167 -191.5 -63.5s-74.5 -96.5 -74.5 -162.5s24.833 -120 74.5 -162s113.5 -63 191.5 -63z" />
    <glyph glyph-name="nine" unicode="9" horiz-adv-x="1260" 
d="M596 -27c-128 0 -237.833 35.165 -329.5 105.498s-148.167 162.833 -169.5 277.5h225c17.333 -59.333 51.166 -107 101.499 -143s108.833 -54 175.5 -54c112.667 0 200.334 50 263.001 150s94 240.667 94 422h-2h-1h-1c-29.333 -71.333 -79.666 -128.5 -150.999 -171.5
s-153 -64.5 -245 -64.5c-137.333 0 -251.5 45.333 -342.5 136s-136.5 204.334 -136.5 341.001c0 144.667 49.667 264 149 358s225.333 141 378 141c106.667 0 201.5 -26.167 284.5 -78.5s147.833 -127.166 194.5 -224.499c59.333 -115.333 89 -257.333 89 -426
c0 -241.333 -50.833 -429.833 -152.5 -565.5s-242.834 -203.5 -423.501 -203.5zM604 677.998c88.667 0 162.333 28.168 221 84.501s88 127.166 88 212.499s-29.5 157.5 -88.5 216.5s-131.5 88.5 -217.5 88.5s-158.667 -29.167 -218 -87.5s-89 -129.5 -89 -213.5
c0 -86.667 28.833 -158.5 86.5 -215.5s130.167 -85.5 217.5 -85.5z" />
    <glyph glyph-name="colon" unicode=":" horiz-adv-x="538" 
d="M269 -11c-36.667 0 -67.667 12.667 -93 38s-38 56.333 -38 93s12.667 67.667 38 93s56.333 38 93 38s67.667 -12.5 93 -37.5s38 -56.167 38 -93.5c0 -36.667 -12.667 -67.667 -38 -93s-56.333 -38 -93 -38zM269 718c-36.667 0 -67.667 12.667 -93 38s-38 56.333 -38 93
s12.667 67.667 38 93s56.333 38 93 38s67.667 -12.667 93 -38s38 -56.333 38 -93s-12.667 -67.667 -38 -93s-56.333 -38 -93 -38z" />
    <glyph glyph-name="semicolon" unicode=";" horiz-adv-x="538" 
d="M269 718c-36.667 0 -67.667 12.667 -93 38s-38 56.333 -38 93s12.667 67.667 38 93s56.333 38 93 38s67.667 -12.667 93 -38s38 -56.333 38 -93s-12.667 -67.667 -38 -93s-56.333 -38 -93 -38zM225 -262h-166l93 488h219z" />
    <glyph glyph-name="less" unicode="&#x3c;" horiz-adv-x="1270" 
d="M1088 953l-689 -371v-9l689 -353v-224l-906 490v172l906 519v-224z" />
    <glyph glyph-name="equal" unicode="=" horiz-adv-x="1270" 
d="M1136 272h-1002v189h1002v-189zM1136 685h-1002v189h1002v-189z" />
    <glyph glyph-name="greater" unicode="&#x3e;" horiz-adv-x="1270" 
d="M182 954v224l906 -519v-172l-906 -490v224l689 353v9z" />
    <glyph glyph-name="question" unicode="?" horiz-adv-x="1035" 
d="M55 1056c4.66699 118 46.5 214 125.5 288s188.5 111 328.5 111c130.667 0 237 -34.833 319 -104.5s123 -158.5 123 -266.5c0 -144.667 -70 -259 -210 -343c-64 -38 -107.667 -73.167 -131 -105.5s-35 -74.5 -35 -126.5v-61h-207l-1 80
c-2.66699 69.333 11.5 128.333 42.5 177s81.167 94 150.5 136c61.333 36.667 104 72 128 106s36 76.667 36 128c0 57.333 -20.667 104.333 -62 141s-96 55 -164 55c-68.667 0 -124 -19.333 -166 -58s-65.333 -91 -70 -157h-207zM473 -15c-36.667 0 -67.667 12.333 -93 37
s-38 55.334 -38 92.001s12.667 67.334 38 92.001s56.333 37 93 37c37.333 0 68.666 -12.333 93.999 -37s38 -55.334 38 -92.001s-12.667 -67.334 -38 -92.001s-56.666 -37 -93.999 -37z" />
    <glyph glyph-name="at" unicode="@" horiz-adv-x="1798" 
d="M890 863c-61.333 0 -109.499 -23.167 -144.499 -69.5s-52.5 -110.833 -52.5 -193.5c0 -81.333 17.5 -145.5 52.5 -192.5s82.833 -70.5 143.5 -70.5c63.333 0 113.666 23.667 150.999 71s56 111.333 56 192s-18.5 144.667 -55.5 192s-87.167 71 -150.5 71zM925.001 1440
c154.667 0 292.831 -30.498 414.498 -91.498s216.834 -147.667 285.501 -260s103 -241.166 103 -386.499c0 -160.667 -34.167 -288.834 -102.5 -384.501s-161.5 -143.5 -279.5 -143.5c-59.333 0 -110.5 15.167 -153.5 45.5s-68.5 69.833 -76.5 118.5h-10
c-20.667 -50.667 -52.667 -89.5 -96 -116.5s-94.333 -40.5 -153 -40.5c-104 0 -188 39 -252 117s-96 180.333 -96 307c0 121.333 32 220.166 96 296.499s146.667 114.5 248 114.5c53.333 0 102 -12.833 146 -38.5s75.333 -59.834 94 -102.501h11v121h169v-568
c0 -34 9 -61 27 -81s44.667 -30 80 -30c56.667 0 102.834 33.667 138.501 101s53.5 160.333 53.5 279c0 181.333 -60.667 327.5 -182 438.5s-280 166.5 -476 166.5c-128 0 -242.667 -29.667 -344 -89s-180.333 -142.5 -237 -249.5s-85 -228.167 -85 -363.5
c0 -144 30.333 -268.5 91 -373.5s143.334 -183.833 248.001 -236.5s225 -79 361 -79c140 0 244.333 14.333 313 43v-138c-89.333 -29.333 -196 -44 -320 -44c-123.333 0 -237 18.833 -341 56.5s-193.667 91.5 -269 161.5s-134 157.667 -176 263s-63 223 -63 353
c0 164 35.167 309.333 105.5 436s168.666 224.667 294.999 294s270.5 104 432.5 104z" />
    <glyph glyph-name="A" unicode="A" horiz-adv-x="1336" 
d="M1073 0l-132 390h-550l-132 -390h-233l521 1443h242l521 -1443h-237zM663 1203l-215 -633h436l-215 633h-6z" />
    <glyph glyph-name="B" unicode="B" horiz-adv-x="1279" 
d="M726 0l-592.999 -0.00195312v1443h591c127.333 0 229.666 -32.833 306.999 -98.5s116 -152.834 116 -261.501c0 -76.667 -24.667 -145.167 -74 -205.5s-110 -96.5 -182 -108.5v-8c98 -11.333 177.167 -49.166 237.5 -113.499s90.5 -144.166 90.5 -239.499
c0 -127.333 -43.667 -227.166 -131 -299.499s-208 -108.5 -362 -108.5zM357.001 1260l-0.000976562 -431h265c97.333 0 172 19.333 224 58s78 93.667 78 165c0 66.667 -22.167 118 -66.5 154s-107.166 54 -188.499 54h-312zM357 182.998h323.999
c100.667 0 177.334 20.333 230.001 61s79 100 79 178s-27.167 136.833 -81.5 176.5s-134.5 59.5 -240.5 59.5h-311v-475z" />
    <glyph glyph-name="C" unicode="C" horiz-adv-x="1424" 
d="M742 -24c-202.667 0 -363.502 67 -482.502 201s-178.5 315.667 -178.5 545c0 228 59.667 409.167 179 543.5s280 201.5 482 201.5c164 0 302.333 -46.167 415 -138.5s178.334 -213.5 197.001 -363.5h-222c-20 92.667 -65.5 166.834 -136.5 222.501
s-155.5 83.5 -253.5 83.5c-131.333 0 -236.166 -49.833 -314.499 -149.5s-117.5 -232.834 -117.5 -399.501c0 -168.667 39 -302.5 117 -401.5s183.333 -148.5 316 -148.5c100 0 184.167 24.333 252.5 73s113.833 116.667 136.5 204h223
c-27.333 -149.333 -94.833 -265.5 -202.5 -348.5s-244.5 -124.5 -410.5 -124.5z" />
    <glyph glyph-name="D" unicode="D" horiz-adv-x="1413" 
d="M133 1443h517c215.333 0 383 -63 503 -189s180 -302.667 180 -530c0 -228 -60 -405.667 -180 -533s-287.667 -191 -503 -191h-517v1443zM357 1250v-1056h272c153.333 0 271 45.5 353 136.5s123 221.5 123 391.5s-41 300.5 -123 391.5s-199.667 136.5 -353 136.5h-272z
" />
    <glyph glyph-name="E" unicode="E" horiz-adv-x="1146" 
d="M1049 194v-194h-916v1443h916v-193h-692v-422h655v-186h-655v-448h692z" />
    <glyph glyph-name="F" unicode="F" horiz-adv-x="1096" 
d="M357 0h-224v1443h901v-193h-677v-457h620v-189h-620v-604z" />
    <glyph glyph-name="G" unicode="G" horiz-adv-x="1462" 
d="M1376 600c0 -195.333 -54.834 -348.164 -164.501 -458.497s-262.167 -165.5 -457.5 -165.5c-206.667 0 -370.5 67.5 -491.5 202.5s-181.5 318.167 -181.5 549.5c0 227.333 60.167 407.333 180.5 540s283.5 199 489.5 199c160.667 0 296.834 -43.667 408.501 -131
s180.167 -203 205.5 -347h-230c-26.667 89.333 -73.667 158.666 -141 207.999s-148 74 -242 74c-138 0 -246.167 -47.833 -324.5 -143.5s-117.5 -228.167 -117.5 -397.5c0 -172.667 40 -308.834 120 -408.501s188.667 -149.5 326 -149.5c116.667 0 212 34.167 286 102.5
s111.667 157.166 113 266.499v25h-373v181h594v-147z" />
    <glyph glyph-name="H" unicode="H" horiz-adv-x="1454" 
d="M1322 0h-224v639h-741v-639h-224v1443h224v-610h741v610h224v-1443z" />
    <glyph glyph-name="I" unicode="I" horiz-adv-x="490" 
d="M357 0h-224v1443h224v-1443z" />
    <glyph glyph-name="J" unicode="J" horiz-adv-x="1060" 
d="M38 370h219.999c1.33301 -60 21.833 -108.667 61.5 -146s90.834 -56 153.501 -56c73.333 0 129.5 21.5 168.5 64.5s58.5 105.833 58.5 188.5v1022h224v-1023c0 -142.667 -39.667 -253.667 -119 -333s-189.333 -119 -330 -119c-130 0 -235.333 37 -316 111
s-121 171 -121 291z" />
    <glyph glyph-name="K" unicode="K" horiz-adv-x="1293" 
d="M357 0h-224v1443h224v-687h9l603 687h266l-572 -639l620 -804h-278l-500 650l-148 -169v-481z" />
    <glyph glyph-name="L" unicode="L" horiz-adv-x="1088" 
d="M1029 194v-194h-896v1443h224v-1249h672z" />
    <glyph glyph-name="M" unicode="M" horiz-adv-x="1726" 
d="M1593 1443v-1443h-205v1062h-7l-435 -1051h-166l-436 1051h-7v-1062h-204v1443h259l467 -1139h8l466 1139h260z" />
    <glyph glyph-name="N" unicode="N" horiz-adv-x="1443" 
d="M351 0h-218v1443h203l748 -1064h8v1064h218v-1443h-202l-748 1063h-9v-1063z" />
    <glyph glyph-name="O" unicode="O" horiz-adv-x="1513" 
d="M757 1467c207.333 0 371.833 -67 493.5 -201s182.5 -315.667 182.5 -545s-60.667 -410.833 -182 -544.5s-286 -200.5 -494 -200.5s-372.667 66.833 -494 200.5s-182 315.167 -182 544.5s60.667 411 182 545s286 201 494 201zM757 1270
c-137.333 0 -246.166 -49.333 -326.499 -148s-120.5 -232.334 -120.5 -401.001c0 -168 40.167 -301.333 120.5 -400s189.166 -148 326.499 -148c136.667 0 245.167 49.333 325.5 148s120.5 232 120.5 400c0 168.667 -40.167 302.334 -120.5 401.001s-188.833 148 -325.5 148
z" />
    <glyph glyph-name="P" unicode="P" horiz-adv-x="1237" 
d="M133 1443h565c140 0 254.333 -44 343 -132s133 -202 133 -342c0 -140.667 -45 -255.167 -135 -343.5s-206 -132.5 -348 -132.5h-334v-493h-224v1443zM357 1254v-573h282c97.333 0 172.666 25.167 225.999 75.5s80 120.833 80 211.5c0 91.333 -26.667 161.833 -80 211.5
s-128.666 74.5 -225.999 74.5h-282z" />
    <glyph glyph-name="Q" unicode="Q" horiz-adv-x="1513" 
d="M1370 -153h-234l-123 172c-76 -28.667 -161.333 -43 -256 -43c-208 0 -372.667 66.667 -494 200s-182 315 -182 545c0 229.333 60.667 411 182 545s286 201 494 201c207.333 0 371.833 -67.167 493.5 -201.5s182.5 -315.833 182.5 -544.5c0 -134 -21.667 -253 -65 -357
s-105.333 -187.333 -186 -250zM757 172c46.667 0 91.667 6.66797 135 20.001l-172 243h227l102 -138c102.667 95.333 154 236.666 154 423.999c0 168.667 -40.167 302.5 -120.5 401.5s-188.833 148.5 -325.5 148.5s-245.334 -49.5 -326.001 -148.5
s-121 -232.833 -121 -401.5c0 -168 40.333 -301.5 121 -400.5s189.334 -148.5 326.001 -148.5z" />
    <glyph glyph-name="R" unicode="R" horiz-adv-x="1265" 
d="M357 1255v-519h322c86.667 0 153.834 22.667 201.501 68s71.5 109.333 71.5 192c0 80.667 -24.833 144 -74.5 190s-117.834 69 -204.501 69h-316zM357 555v-554.999h-224v1443h567c148 0 265.333 -39.833 352 -119.5s130 -186.834 130 -321.501
c0 -98 -24.833 -183.833 -74.5 -257.5s-118.167 -125.167 -205.5 -154.5l324 -590h-259l-294 555h-316z" />
    <glyph glyph-name="S" unicode="S" horiz-adv-x="1244" 
d="M69 402l221.002 -0.000976562c8 -71.333 43.667 -128.666 107 -171.999s142.666 -65 237.999 -65c90.667 0 165.5 21 224.5 63s88.5 95.333 88.5 160c0 56 -21 101.833 -63 137.5s-109.667 64.834 -203 87.501l-187 45c-132.667 32 -230.5 79.667 -293.5 143
s-94.5 145.333 -94.5 246c0 124 48.833 225 146.5 303s223.834 117 378.501 117c152 0 276 -38.833 372 -116.5s145.667 -178.834 149 -303.501h-218c-6.66699 71.333 -37.5 127.666 -92.5 168.999s-126.167 62 -213.5 62c-86.667 0 -157.167 -20 -211.5 -60
s-81.5 -92 -81.5 -156c0 -50.667 20.333 -92.167 61 -124.5s107.667 -60.166 201 -83.499l159 -39c148 -34.667 254.833 -83.5 320.5 -146.5s98.5 -147.5 98.5 -253.5c0 -134.667 -50 -241.5 -150 -320.5s-235.667 -118.5 -407 -118.5
c-160.667 0 -290.834 38.5 -390.501 115.5s-152.834 180.5 -159.501 310.5z" />
    <glyph glyph-name="T" unicode="T" horiz-adv-x="1222" 
d="M723 0h-224v1250h-450v193h1123v-193h-449v-1250z" />
    <glyph glyph-name="U" unicode="U" horiz-adv-x="1434" 
d="M357 1443l-0.000976562 -917c0 -105.333 31.833 -190.166 95.5 -254.499s151.834 -96.5 264.501 -96.5s201 32.167 265 96.5s96 149.166 96 254.499v917h223v-936c0 -158 -52.667 -286 -158 -384s-247.333 -147 -426 -147s-320.667 49 -426 147s-158 226 -158 384v936
h224z" />
    <glyph glyph-name="V" unicode="V" horiz-adv-x="1327" 
d="M786 0h-245l-515 1443h243l393 -1191h6l394 1191h239z" />
    <glyph glyph-name="W" unicode="W" horiz-adv-x="1923" 
d="M956 1088l-311 -1088h-212l-389 1443h233l267 -1130h8l305 1130h208l306 -1130h8l267 1130h233l-390 -1443h-211l-312 1088h-10z" />
    <glyph glyph-name="X" unicode="X" horiz-adv-x="1337" 
d="M44 0l479 723v7l-474 713h267l356 -558h8l360 558h253l-489 -721v-6l480 -716h-262l-359 550h-7l-364 -550h-248z" />
    <glyph glyph-name="Y" unicode="Y" horiz-adv-x="1293" 
d="M758 0h-224v591l-508 852h250l368 -637h7l368 637h248l-509 -852v-591z" />
    <glyph glyph-name="Z" unicode="Z" horiz-adv-x="1273" 
d="M95 0v153l790 1089v8h-766v193h1041v-153l-787 -1089v-7h806v-194h-1084z" />
    <glyph glyph-name="bracketleft" unicode="[" horiz-adv-x="697" 
d="M184 1444h496v-164h-287v-1356h300v-164h-509v1684z" />
    <glyph glyph-name="backslash" unicode="\" horiz-adv-x="625" 
d="M436 -316l-436 1760h193l432 -1760h-189z" />
    <glyph glyph-name="bracketright" unicode="]" horiz-adv-x="697" 
d="M512 1444v-1684h-508v164h301v1356h-288v164h495z" />
    <glyph glyph-name="asciicircum" unicode="^" horiz-adv-x="926" 
d="M454 1258l-207 -440h-199l308 622h215l307 -622h-201l-206 440h-17z" />
    <glyph glyph-name="underscore" unicode="_" horiz-adv-x="838" 
d="M890 -267h-941v160h941v-160z" />
    <glyph glyph-name="grave" unicode="`" horiz-adv-x="1007" 
d="M722 1255h-178l-262 303h225z" />
    <glyph glyph-name="a" unicode="a" horiz-adv-x="1092" 
d="M488 162c80.667 0 148 23.168 202 69.501s81 105.166 81 176.499v85l-264 -18c-150 -9.33301 -225 -62.666 -225 -159.999c0 -46.667 18.667 -83.834 56 -111.501s87.333 -41.5 150 -41.5zM430 -10.999c-108.667 0 -196.999 29.501 -264.999 88.501
s-102 136.833 -102 233.5c0 94.667 35.5 169 106.5 223s173.833 85.333 308.5 94l293 17v84c0 62 -19.833 109.5 -59.5 142.5s-95.834 49.5 -168.501 49.5c-58.667 0 -108.167 -14 -148.5 -42s-65.166 -65.667 -74.499 -113h-203c3.33301 96 45.666 175.667 126.999 239
s183 95 305 95c132.667 0 238.5 -32.333 317.5 -97s118.5 -150.667 118.5 -258v-745h-207v181h-5c-30 -58.667 -76 -105.334 -138 -140.001s-130.333 -52 -205 -52z" />
    <glyph glyph-name="b" unicode="b" horiz-adv-x="1201" 
d="M683 -11c-78.667 0 -148.169 16.832 -208.502 50.499s-107.166 81.834 -140.499 144.501h-5v-184h-209v1508h217v-602h4c33.333 61.333 79.833 108.5 139.5 141.5s127.834 49.5 204.501 49.5c137.333 0 247.333 -50.333 330 -151s124 -235 124 -403
s-41.5 -302.333 -124.5 -403s-193.5 -151 -331.5 -151zM627.998 912.999c-87.333 0 -157.833 -34.167 -211.5 -102.5s-80.5 -157.5 -80.5 -267.5c0 -110.667 26.833 -200 80.5 -268s124.167 -102 211.5 -102s157.333 33.5 210 100.5s79 156.833 79 269.5
s-26.333 202.5 -79 269.5s-122.667 100.5 -210 100.5z" />
    <glyph glyph-name="c" unicode="c" horiz-adv-x="1089" 
d="M1039 715l-206.999 -0.00195312c-10.667 60 -38.5 108.667 -83.5 146s-103.5 56 -175.5 56c-88 0 -158.5 -34 -211.5 -102s-79.5 -158.667 -79.5 -272c0 -116 26.667 -207.333 80 -274s124 -100 212 -100c70.667 0 128.5 16.833 173.5 50.5s73.833 82.167 86.5 145.5h207
c-12.667 -114 -61.334 -205.5 -146.001 -274.5s-192 -103.5 -322 -103.5c-154.667 0 -278.5 50 -371.5 150s-139.5 235.333 -139.5 406c0 168.667 46.333 303.667 139 405s216 152 370 152c67.333 0 129.666 -10.167 186.999 -30.5s105.5 -48.166 144.5 -83.499
s70.333 -76.166 94 -122.499s37.834 -95.833 42.501 -148.5z" />
    <glyph glyph-name="d" unicode="d" horiz-adv-x="1200" 
d="M520 -11c-136.667 0 -247.166 50.668 -331.499 152.001s-126.5 235.666 -126.5 402.999c0 166 42.167 299.667 126.5 401s194.166 152 329.499 152c77.333 0 145.833 -16.833 205.5 -50.5s105.167 -80.5 136.5 -140.5h5v602h216v-1508h-210v184h-4
c-32 -62 -78.167 -110 -138.5 -144s-129.833 -51 -208.5 -51zM575.001 913.001c-87.333 0 -157.665 -33.667 -210.998 -101s-80 -157 -80 -269c0 -112.667 26.5 -202.5 79.5 -269.5s123.5 -100.5 211.5 -100.5c87.333 0 157.666 34 210.999 102s80 157.333 80 268
s-26.833 200 -80.5 268s-123.834 102 -210.501 102z" />
    <glyph glyph-name="e" unicode="e" horiz-adv-x="1113" 
d="M563 923c-78 0 -142.833 -26 -194.5 -78s-80.5 -119.667 -86.5 -203h551c-2.66699 84.667 -28.667 152.667 -78 204s-113.333 77 -192 77zM832 318h207.001c-15.333 -97.333 -66.333 -176.833 -153 -238.5s-191 -92.5 -313 -92.5c-157.333 0 -281.833 49.5 -373.5 148.5
s-137.5 233.5 -137.5 403.5s45.667 306 137 408s213 153 365 153c149.333 0 267.666 -48.167 354.999 -144.5s131 -226.833 131 -391.5v-76h-769v-13c0 -94 27 -169.5 81 -226.5s125.667 -85.5 215 -85.5c63.333 0 118 14 164 42s76.333 65.667 91 113z" />
    <glyph glyph-name="f" unicode="f" horiz-adv-x="667" 
d="M176 0l0.00195312 915.001h-150v171h150v100c0 102 24.667 176.167 74 222.5s128.666 69.5 237.999 69.5c34.667 0 71.334 -3.33301 110.001 -10v-165c-23.333 5.33301 -50.333 8 -81 8c-44.667 0 -76.834 -10.333 -96.501 -31s-29.834 -54.334 -30.501 -101.001v-93h209
v-171h-207v-915h-216z" />
    <glyph glyph-name="g" unicode="g" horiz-adv-x="1192" 
d="M572 183c88 0 158.833 33.1689 212.5 99.502s80.5 154.166 80.5 263.499c0 110 -26.833 198.667 -80.5 266s-124.5 101 -212.5 101c-87.333 0 -157.166 -33.333 -209.499 -100s-78.5 -155.667 -78.5 -267c0 -110.667 26.167 -198.834 78.5 -264.501
s122.166 -98.5 209.499 -98.5zM573 -390.998c-130.667 0 -238.669 28 -324.002 84s-133.333 130.333 -144 223h219c12 -42 41.333 -75.333 88 -100s103.334 -37 170.001 -37c86 0 154.667 21 206 63s77 98.333 77 169v179h-5c-31.333 -58.667 -77.5 -104.5 -138.5 -137.5
s-129.833 -49.5 -206.5 -49.5c-136 0 -245.5 49.5 -328.5 148.5s-124.5 230.833 -124.5 395.5c0 167.333 41.5 300.833 124.5 400.5s194.167 149.5 333.5 149.5c76.667 0 145.334 -16.833 206.001 -50.5s107.667 -80.5 141 -140.5h4v180h210v-1058
c0 -129.333 -45.5 -231.5 -136.5 -306.5s-214.833 -112.5 -371.5 -112.5z" />
    <glyph glyph-name="h" unicode="h" horiz-adv-x="1195" 
d="M120 0v1508h215v-605h5c66 130 183.667 195 353 195c119.333 0 215.166 -36.667 287.499 -110s108.5 -171.333 108.5 -294v-694h-216v652c0 81.333 -22.667 145 -68 191s-107.666 69 -186.999 69c-84 0 -151.833 -26.667 -203.5 -80s-77.5 -123.333 -77.5 -210v-622h-217
z" />
    <glyph glyph-name="i" unicode="i" horiz-adv-x="455" 
d="M119 0v1086h217v-1086h-217zM228 1241c-35.333 0 -65.333 12.167 -90 36.5s-37 53.833 -37 88.5c0 35.333 12.333 65 37 89s54.667 36 90 36s65.333 -12 90 -36s37 -53.667 37 -89c0 -34.667 -12.333 -64.167 -37 -88.5s-54.667 -36.5 -90 -36.5z" />
    <glyph glyph-name="j" unicode="j" horiz-adv-x="455" 
d="M336 1086l0.000976562 -1151c0 -110.667 -29 -192.5 -87 -245.5s-146.667 -79.5 -266 -79.5c-28.667 0 -44.667 0.333008 -48 1v172c0.666992 0 5.66699 -0.166992 15 -0.5s14.666 -0.5 15.999 -0.5c56 0 95.5 11.667 118.5 35s34.5 63 34.5 119v1150h217zM228.001 1241
c-35.333 0 -65.333 12.167 -90 36.5s-37 53.833 -37 88.5c0 35.333 12.333 65 37 89s54.667 36 90 36s65.333 -12 90 -36s37 -53.667 37 -89c0 -34.667 -12.333 -64.167 -37 -88.5s-54.667 -36.5 -90 -36.5z" />
    <glyph glyph-name="k" unicode="k" horiz-adv-x="1062" 
d="M338 617l447 469h255l-454 -468l470 -618h-250l-375 486l-94 -92v-394h-217v1508h217v-891h1z" />
    <glyph glyph-name="l" unicode="l" horiz-adv-x="457" 
d="M120 0v1508h217v-1508h-217z" />
    <glyph glyph-name="m" unicode="m" horiz-adv-x="1740" 
d="M111 0l0.00195312 1086h207v-184h4c24.667 60.667 64.5 108.5 119.5 143.5s118.167 52.5 189.5 52.5c75.333 0 139.333 -18.333 192 -55s90 -88.667 112 -156h5c28.667 65.333 73.167 116.833 133.5 154.5s129.166 56.5 206.499 56.5
c107.333 0 193.166 -32.5 257.499 -97.5s96.5 -151.833 96.5 -260.5v-740h-216v688c0 71.333 -18.5 126.5 -55.5 165.5s-89.167 58.5 -156.5 58.5c-66.667 0 -121.167 -22.333 -163.5 -67s-63.5 -101.667 -63.5 -171v-674h-213v706c0 62.667 -18.833 112.667 -56.5 150
s-88.167 56 -151.5 56c-66.667 0 -121.667 -23.167 -165 -69.5s-65 -105.166 -65 -176.499v-666h-217z" />
    <glyph glyph-name="n" unicode="n" horiz-adv-x="1168" 
d="M111 0v1086h207v-183h4c67.333 130 185 195 353 195c120 0 214.5 -35.833 283.5 -107.5s103.5 -169.834 103.5 -294.501v-696h-217v655c0 82.667 -21 146.167 -63 190.5s-102.667 66.5 -182 66.5c-82 0 -147.833 -26.167 -197.5 -78.5s-74.5 -121.166 -74.5 -206.499
v-627h-217z" />
    <glyph glyph-name="o" unicode="o" horiz-adv-x="1152" 
d="M576 -13c-157.333 0 -282.335 50 -375.002 150s-139 235.333 -139 406c0 170 46.5 305.333 139.5 406s217.833 151 374.5 151s281.334 -50.167 374.001 -150.5s139 -235.833 139 -406.5s-46.167 -306 -138.5 -406s-217.166 -150 -374.499 -150zM575.998 167
c92 0 163.833 33 215.5 99s77.5 158.333 77.5 277s-25.833 211.167 -77.5 277.5s-123.5 99.5 -215.5 99.5s-164 -33.333 -216 -100s-78 -159 -78 -277s26 -210.167 78 -276.5s124 -99.5 216 -99.5z" />
    <glyph glyph-name="p" unicode="p" horiz-adv-x="1192" 
d="M671 1097c138.667 0 249.834 -50.333 333.501 -151s125.5 -235 125.5 -403c0 -167.333 -41.5 -301.5 -124.5 -402.5s-192.833 -151.5 -329.5 -151.5c-78 0 -146.667 16.5 -206 49.5s-105.333 79.5 -138 139.5h-4v-533h-217v1441h209v-180h5
c30.667 58.667 77.167 105.167 139.5 139.5s131.166 51.5 206.499 51.5zM616 173c88 0 158.667 33.667 212 101s80 157 80 269s-26.667 201.667 -80 269s-124 101 -212 101c-86 0 -155.667 -34 -209 -102s-80.333 -157.333 -81 -268
c0.666992 -111.333 27.5 -200.833 80.5 -268.5s122.833 -101.5 209.5 -101.5z" />
    <glyph glyph-name="q" unicode="q" horiz-adv-x="1192" 
d="M520 1097c78.667 0 148.167 -16.668 208.5 -50.001s106.5 -80.333 138.5 -141h4v180h210v-1441h-216v533h-5c-31.333 -59.333 -77.333 -105.666 -138 -138.999s-129.667 -50 -207 -50c-136 0 -245.5 50.5 -328.5 151.5s-124.5 235.5 -124.5 403.5
c0 167.333 41.833 301.333 125.5 402s194.5 151 332.5 151zM572 172.999c87.333 0 158 34 212 102s81 157.333 81 268c0 110 -27 199.167 -81 267.5s-124.667 102.5 -212 102.5s-157.166 -33.5 -209.499 -100.5s-78.5 -156.833 -78.5 -269.5s26.167 -202.5 78.5 -269.5
s122.166 -100.5 209.499 -100.5z" />
    <glyph glyph-name="r" unicode="r" horiz-adv-x="688" 
d="M111 0v1086h207v-183h4c16.667 60.667 48.5 108.167 95.5 142.5s102.5 51.5 166.5 51.5c30 0 54 -2.66699 72 -8v-203c-24 9.33301 -55.667 14 -95 14c-71.333 0 -128 -22.833 -170 -68.5s-63 -106.834 -63 -183.501v-648h-217z" />
    <glyph glyph-name="s" unicode="s" horiz-adv-x="1018" 
d="M93 777c0 95.333 38.999 172.831 116.999 232.498s179.333 89.5 304 89.5c118.667 0 216.834 -30.167 294.501 -90.5s117.834 -137.833 120.501 -232.5h-204c-4.66699 48 -26.334 86 -65.001 114s-89 42 -151 42c-61.333 0 -110.833 -13.167 -148.5 -39.5
s-56.5 -60.833 -56.5 -103.5c0 -65.333 56.333 -111.666 169 -138.999l180 -43c109.333 -26.667 186.666 -62 231.999 -106s68 -106 68 -186c0 -96.667 -41.667 -175.5 -125 -236.5s-190.666 -91.5 -321.999 -91.5c-126 0 -229.167 29.833 -309.5 89.5
s-124.5 138.834 -132.5 237.501h214c8.66699 -52 33.5 -91.833 74.5 -119.5s95.833 -41.5 164.5 -41.5c67.333 0 120.833 13 160.5 39s59.5 61 59.5 105c0 34.667 -11.833 62 -35.5 82s-64.167 37.333 -121.5 52l-194 48c-195.333 48 -293 147.333 -293 298z" />
    <glyph glyph-name="t" unicode="t" horiz-adv-x="672" 
d="M176 1330l216 -0.000976562v-244h208v-171h-208v-607c0 -47.333 10.833 -82.166 32.5 -104.499s55.167 -33.5 100.5 -33.5c26 0 50.667 1.66699 74 5v-171c-29.333 -7.33301 -70 -11 -122 -11c-108.667 0 -186 22.5 -232 67.5s-69 120.167 -69 225.5v629h-150v171h150
v244z" />
    <glyph glyph-name="u" unicode="u" horiz-adv-x="1168" 
d="M1057 1086l-0.000976562 -1086h-207v186h-4c-31.333 -64.667 -77 -113.834 -137 -147.501s-131.333 -50.5 -214 -50.5c-118.667 0 -213.167 36 -283.5 108s-105.5 170 -105.5 294v696h217v-655c0 -83.333 21.333 -146.833 64 -190.5s103.334 -65.5 182.001 -65.5
c81.333 0 146.833 26 196.5 78s74.5 121 74.5 207v626h217z" />
    <glyph glyph-name="v" unicode="v" horiz-adv-x="1052" 
d="M1033 1086l-391 -1086h-231l-392 1086h229l277 -872h5l278 872h225z" />
    <glyph glyph-name="w" unicode="w" horiz-adv-x="1563" 
d="M1537 1086l-299 -1086h-224l-231 818h-5l-229 -818h-223l-300 1086h216l202 -860h4l230 860h208l231 -860h4l202 860h214z" />
    <glyph glyph-name="x" unicode="x" horiz-adv-x="1032" 
d="M515 403h-5l-244 -403h-235l361 542l-357 544h243l241 -395h5l239 395h238l-358 -536l354 -550h-239z" />
    <glyph glyph-name="y" unicode="y" horiz-adv-x="1066" 
d="M220 -395c-36 0 -65.334 2.00098 -88.001 6.00098v176c13.333 -3.33301 36.333 -5 69 -5c52 0 93.167 12.167 123.5 36.5s54.833 65.166 73.5 122.499l17 56l-394 1089h233l279 -888h5l279 888h228l-407 -1136c-46.667 -130 -100.167 -220 -160.5 -270
s-146.166 -75 -257.499 -75z" />
    <glyph glyph-name="z" unicode="z" horiz-adv-x="1015" 
d="M89 0v141l584 769v3h-581v173h828v-149l-570 -760v-4h576v-173h-837z" />
    <glyph glyph-name="braceleft" unicode="{" horiz-adv-x="771" 
d="M329 599c126 -12 189 -92.3359 189 -241.003v-309c0 -78.667 17.333 -134.667 52 -168s93 -50 175 -50h45v-166h-76c-137.333 0 -238.5 29.333 -303.5 88s-97.5 150.334 -97.5 275.001v266c0 78.667 -12.667 133.334 -38 164.001s-71 46 -137 46v219
c65.333 0 110.833 15.333 136.5 46s38.5 85.667 38.5 165v232c0 122 32.333 211.667 97 269s166 86 304 86h76v-167h-45c-82.667 0 -141.167 -16.667 -175.5 -50s-51.5 -89.666 -51.5 -168.999v-276c0 -143.333 -63 -221 -189 -233v-27z" />
    <glyph glyph-name="bar" unicode="|" horiz-adv-x="503" 
d="M347 -314h-192v1757h192v-1757z" />
    <glyph glyph-name="braceright" unicode="}" horiz-adv-x="771" 
d="M443 599v27.0029c-64.667 6 -112.5 28.167 -143.5 66.5s-46.5 93.833 -46.5 166.5v276c0 79.333 -17.167 135.666 -51.5 168.999s-92.833 50 -175.5 50h-45v167h76c138 0 239.333 -28.667 304 -86s97 -147 97 -269v-232c0 -79.333 12.833 -134.333 38.5 -165
s71.167 -46 136.5 -46v-219c-66 0 -111.667 -15.333 -137 -46s-38 -85.334 -38 -164.001v-266c0 -124.667 -32.333 -216.334 -97 -275.001s-166 -88 -304 -88h-76v166h45c82 0 140.333 16.667 175 50s52 89.333 52 168v309c0 148.667 63.333 229 190 241z" />
    <glyph glyph-name="asciitilde" unicode="~" horiz-adv-x="1225" 
d="M567 632c-34.667 34.667 -63.167 59 -85.5 73s-44.833 21 -67.5 21c-82 0 -126 -59.667 -132 -179h-184c-2.66699 114.667 23.833 205.5 79.5 272.5s132.5 100.5 230.5 100.5c83.333 0 167.333 -42.333 252 -127c33.333 -34 61.166 -58 83.499 -72s44.833 -21 67.5 -21
c82.667 0 126.667 59.667 132 179h184c2.66699 -115.333 -23.666 -206.333 -78.999 -273s-132.333 -100 -231 -100c-44 0 -85.667 10 -125 30s-81 52 -125 96z" />
    <glyph glyph-name="nonbreakingspace" unicode="&#xa0;" horiz-adv-x="472" 
 />
    <glyph glyph-name="exclamdown" unicode="&#xa1;" horiz-adv-x="583" 
d="M180 -335l16 965h191l16 -965h-223zM291 866c-36.667 0 -67.667 12.5 -93 37.5s-38 55.5 -38 91.5c0 36.667 12.667 67.5 38 92.5s56.333 37.5 93 37.5c37.333 0 68.666 -12.5 93.999 -37.5s38 -55.833 38 -92.5c0 -36 -12.667 -66.5 -38 -91.5
s-56.666 -37.5 -93.999 -37.5z" />
    <glyph glyph-name="cent" unicode="&#xa2;" horiz-adv-x="1270" 
d="M1156 539c-10.667 -102 -53.3291 -187.832 -127.996 -257.499s-168.334 -111.167 -281.001 -124.5v-174h-198v177c-132.667 22 -238.334 83 -317.001 183s-118 224.667 -118 374c0 147.333 39.333 270.666 118 369.999s184.334 159.666 317.001 180.999v177h198v-174
c112 -14 206.5 -57.5 283.5 -130.5s118.833 -158.833 125.5 -257.5h-209c-12.667 64.667 -45.334 116.167 -98.001 154.5s-117.334 57.5 -194.001 57.5c-94.667 0 -171.834 -35 -231.501 -105s-89.5 -161 -89.5 -273c0 -113.333 30 -205.666 90 -276.999s137 -107 231 -107
c168.667 0 266 68.667 292 206h209z" />
    <glyph glyph-name="sterling" unicode="&#xa3;" horiz-adv-x="1270" 
d="M425 188l759.999 0.00195312v-188h-1084v181c88.667 17.333 161.834 58.166 219.501 122.499s86.5 137.166 86.5 218.499c0 36 -5.66699 77.333 -17 124h-288v167h231c-40.667 106.667 -61 192 -61 256c0 128.667 46.833 229 140.5 301s224.167 108 391.5 108
c60 0 118.333 -4.83301 175 -14.5s102 -22.167 136 -37.5v-187c-28.667 14.667 -70.667 27.167 -126 37.5s-110.333 15.5 -165 15.5c-102 0 -181.667 -20.833 -239 -62.5s-86 -99.5 -86 -173.5c0 -60.667 18.333 -141.667 55 -243h450v-167h-396
c9.33301 -43.333 14 -81 14 -113c0 -75.333 -18.667 -142.333 -56 -201s-84.333 -105 -141 -139v-5z" />
    <glyph glyph-name="currency" unicode="&#xa4;" horiz-adv-x="1279" 
d="M387 653c0 -69.333 25 -128.833 75 -178.5s109.667 -74.5 179 -74.5s128.666 24.833 177.999 74.5s74 109.167 74 178.5s-24.667 129 -74 179s-108.666 75 -177.999 75s-129 -25 -179 -75s-75 -109.667 -75 -179zM1149 1036l-161 -162c42.667 -68 64 -141.667 64 -221
c0 -80 -21.667 -153.667 -65 -221l162 -162l-128 -127l-161 161c-67.333 -42 -140.333 -63 -219 -63c-80 0 -153.667 21.667 -221 65l-162 -163l-128 127l162 163c-42.667 68 -64 141.333 -64 220c0 79.333 21.333 153 64 221l-162 162l128 127l162 -161
c68 42.667 141.667 64 221 64c78.667 0 152 -21.333 220 -64l160 161z" />
    <glyph glyph-name="yen" unicode="&#xa5;" horiz-adv-x="1270" 
d="M1022 248h-274v-248h-224v248h-275v147h275v155h-275v147h213l-447 746h249l368 -635h7l367 635h249l-445 -746h212v-147h-274v-155h274v-147z" />
    <glyph glyph-name="brokenbar" unicode="&#xa6;" horiz-adv-x="504" 
d="M348 774h-192v669h192v-669zM348 -314h-192v669h192v-669z" />
    <glyph glyph-name="section" unicode="&#xa7;" horiz-adv-x="990" 
d="M435 418l92 -24.999c53.333 2 98.333 19.667 135 53s55 73.666 55 120.999c0 38.667 -13.833 71.5 -41.5 98.5s-67.167 46.833 -118.5 59.5l-92 24c-52.667 -2 -97.667 -20 -135 -54s-56 -74 -56 -120c0 -37.333 14.167 -69.833 42.5 -97.5s67.833 -47.5 118.5 -59.5z
M498 -266.999c-118 0 -215.835 28.832 -293.502 86.499s-119.5 132.5 -125.5 224.5h204c6 -42.667 29.5 -77.167 70.5 -103.5s91.5 -39.5 151.5 -39.5c62 0 112.333 13.5 151 40.5s58 62.5 58 106.5c0 34.667 -14.167 63.667 -42.5 87s-74.166 43.666 -137.499 60.999
l-153 46c-108.667 30.667 -187.834 69.334 -237.501 116.001s-74.5 105.334 -74.5 176.001c0 63.333 19.5 118.166 58.5 164.499s93.167 79.5 162.5 99.5v17c-143.333 59.333 -215 150.333 -215 273c0 96 38.167 173.5 114.5 232.5s176.5 88.5 300.5 88.5
c115.333 0 209.833 -27.167 283.5 -81.5s115.5 -127.833 125.5 -220.5h-201c-6 40.667 -28.167 73.334 -66.5 98.001s-86.5 37 -144.5 37c-61.333 0 -110.833 -13.5 -148.5 -40.5s-56.5 -62.5 -56.5 -106.5c0 -34.667 13.833 -63.667 41.5 -87s72.834 -44 135.501 -62
l152 -45c107.333 -31.333 185.833 -69.833 235.5 -115.5s74.5 -102.5 74.5 -170.5c0 -67.333 -22.667 -127 -68 -179s-104.666 -86 -177.999 -102v-17c162 -44.667 243 -131.334 243 -260.001c0 -95.333 -39 -173.166 -117 -233.499s-179 -90.5 -303 -90.5z" />
    <glyph glyph-name="dieresis" unicode="&#xa8;" horiz-adv-x="1006" 
d="M302 1260c-33.333 0 -61.833 11.667 -85.5 35s-35.5 51.333 -35.5 84s11.833 60.667 35.5 84s52.167 35 85.5 35s61.666 -11.5 84.999 -34.5s35 -51.167 35 -84.5c0 -32.667 -11.667 -60.667 -35 -84s-51.666 -35 -84.999 -35zM705 1260
c-33.333 0 -61.833 11.667 -85.5 35s-35.5 51.333 -35.5 84s11.833 60.667 35.5 84s52.167 35 85.5 35s61.666 -11.5 84.999 -34.5s35 -51.167 35 -84.5c0 -32.667 -11.667 -60.667 -35 -84s-51.666 -35 -84.999 -35z" />
    <glyph glyph-name="copyright" unicode="&#xa9;" horiz-adv-x="1703" 
d="M851 -158c-145.333 0 -278.5 34.667 -399.5 104s-216.5 164.666 -286.5 285.999s-105 255.666 -105 402.999s35 281.666 105 402.999s165.5 216.5 286.5 285.5s254.167 103.5 399.5 103.5c146.667 0 280.5 -34.5 401.5 -103.5s216.333 -164.167 286 -285.5
s104.5 -255.666 104.5 -402.999s-34.833 -281.666 -104.5 -402.999s-165.167 -216.666 -286.5 -285.999s-255 -104 -401 -104zM851 -9c88.667 0 172.667 16.501 252 49.501s147.5 78 204.5 135s102.167 125.333 135.5 205s50 164.5 50 254.5s-16.667 175 -50 255
s-78.5 148.167 -135.5 204.5s-125.167 101 -204.5 134s-163.333 49.5 -252 49.5c-118 0 -226 -27.833 -324 -83.5s-175.5 -132.834 -232.5 -231.501s-85.5 -208 -85.5 -328s28.5 -229.333 85.5 -328s134.5 -176 232.5 -232s206 -84 324 -84zM1225 765.001l-156 0.000976562
c-10.667 43.333 -33.5 78.5 -68.5 105.5s-79.167 40.5 -132.5 40.5c-69.333 0 -124.5 -24.5 -165.5 -73.5s-61.5 -116.167 -61.5 -201.5c0 -86 20.5 -153.833 61.5 -203.5s96.167 -74.5 165.5 -74.5c52.667 0 96.667 12.167 132 36.5s58.333 59.166 69 104.499h156
c-11.333 -83.333 -48.5 -150.5 -111.5 -201.5s-144.5 -76.5 -244.5 -76.5c-120 0 -215.167 37.167 -285.5 111.5s-105.5 175.5 -105.5 303.5c0 126 35.167 226.167 105.5 300.5s164.833 111.5 283.5 111.5c100 0 181.833 -26.5 245.5 -79.5s101.167 -120.833 112.5 -203.5z
" />
    <glyph glyph-name="ordfeminine" unicode="&#xaa;" horiz-adv-x="914" 
d="M290 854c0 -36.667 13 -65.833 39 -87.5s61.667 -32.5 107 -32.5c55.333 0 101.5 16.667 138.5 50s55.5 75.333 55.5 126v77l-185 -13c-103.333 -8 -155 -48 -155 -120zM370 586.001c-80.667 0 -145.999 23.835 -195.999 71.502s-75 110.167 -75 187.5
c0 75.333 27.333 135 82 179s134 69.333 238 76l209 13v69c0 39.333 -14 70 -42 92s-66.667 33 -116 33c-42.667 0 -77.5 -7.83301 -104.5 -23.5s-43.833 -38.167 -50.5 -67.5h-185c6.66699 75.333 41 135.166 103 179.499s143 66.5 243 66.5
c105.333 0 188.166 -25.333 248.499 -76s90.5 -120.334 90.5 -209.001v-571h-181v107h-13c-26 -40 -61 -71.167 -105 -93.5s-92.667 -33.5 -146 -33.5z" />
    <glyph glyph-name="guillemotleft" unicode="&#xab;" horiz-adv-x="1322" 
d="M845 572v-13l349 -412h-229l-348 414v8l349 415h228zM355 572v-13l349 -412h-229l-348 414v8l349 415h228z" />
    <glyph glyph-name="logicalnot" unicode="&#xac;" horiz-adv-x="1270" 
d="M1126 673v-569h-186v385h-796v184h982z" />
    <glyph glyph-name="registered" unicode="&#xae;" horiz-adv-x="1093" 
d="M546 632c-125.333 0 -232.167 43.334 -320.5 130.001s-132.5 192.334 -132.5 317.001c0 124 44 229.5 132 316.5s195 130.5 321 130.5c126.667 0 234 -43.333 322 -130s132 -192.334 132 -317.001s-44 -230.334 -132 -317.001s-195.333 -130 -322 -130zM545.999 736.001
c96 0 177.167 33.333 243.5 100s99.5 147.667 99.5 243s-33.167 176.166 -99.5 242.499s-147.5 99.5 -243.5 99.5c-95.333 0 -176.166 -33.167 -242.499 -99.5s-99.5 -147.166 -99.5 -242.499s33.167 -176.333 99.5 -243s147.166 -100 242.499 -100zM464.999 881.001h-98
v420h211c45.333 0 82 -12 110 -36s42 -55.333 42 -94c0 -32.667 -8.5 -60.167 -25.5 -82.5s-40.167 -36.5 -69.5 -42.5l116 -165h-121l-98 151h-67v-151zM464.999 1221v-115.001h93c21.333 0 37.833 5.33301 49.5 16s17.5 25.334 17.5 44.001c0 36.667 -21.667 55 -65 55
h-95z" />
    <glyph glyph-name="macron" unicode="&#xaf;" horiz-adv-x="1000" 
d="M823 1431v-119h-646v119h646z" />
    <glyph glyph-name="degree" unicode="&#xb0;" horiz-adv-x="728" 
d="M363 845c-80.667 0 -149.167 28.167 -205.5 84.5s-84.5 125.166 -84.5 206.499s28 150.166 84 206.499s124.667 84.5 206 84.5s150.333 -28.167 207 -84.5s85 -125.166 85 -206.499s-28.333 -150.166 -85 -206.499s-125.667 -84.5 -207 -84.5zM364 988
c41.333 0 76.333 14.5 105 43.5s43 63.833 43 104.5c0 41.333 -14.333 76.5 -43 105.5s-63.667 43.5 -105 43.5c-40 0 -74.833 -14.5 -104.5 -43.5s-44.5 -64.167 -44.5 -105.5c0 -40 14.833 -74.667 44.5 -104s64.5 -44 104.5 -44z" />
    <glyph glyph-name="plusminus" unicode="&#xb1;" horiz-adv-x="1270" 
d="M1140 99h-1010v173h1010v-173zM727 658v-272h-184v272h-413v165h413v272h184v-272h413v-165h-413z" />
    <glyph glyph-name="two.sups" unicode="&#xb2;" horiz-adv-x="635" 
d="M40 1591c0 69.333 25.167 125.335 75.5 168.002s116.5 64 198.5 64c78.667 0 142.5 -18.833 191.5 -56.5s73.5 -87.167 73.5 -148.5c0 -36 -9.5 -70 -28.5 -102s-52.167 -69.333 -99.5 -112l-158 -144v-3h294v-143h-536v124l273 247c28 27.333 47.333 49.666 58 66.999
s16 35 16 53c0 23.333 -8.5 42.333 -25.5 57s-39.167 22 -66.5 22s-50 -8.83301 -68 -26.5s-27 -39.834 -27 -66.501v-4h-171v4z" />
    <glyph glyph-name="three.sups" unicode="&#xb3;" horiz-adv-x="662" 
d="M239 1404l-0.000976562 125.999h85c28 0 50.333 7.33301 67 22s25 33.667 25 57s-8.33301 41.833 -25 55.5s-39.667 20.5 -69 20.5c-28.667 0 -52 -7.83301 -70 -23.5s-27.667 -36.5 -29 -62.5h-168c0.666992 67.333 25.834 121.5 75.501 162.5s115.5 61.5 197.5 61.5
c78.667 0 142 -17.167 190 -51.5s72 -79.833 72 -136.5c0 -40.667 -13 -75.5 -39 -104.5s-61 -47.5 -105 -55.5v-4c52.667 -4.66699 94 -21.834 124 -51.501s45 -67.5 45 -113.5c0 -63.333 -26.5 -114.166 -79.5 -152.499s-123.5 -57.5 -211.5 -57.5
c-82.667 0 -149.667 20.667 -201 62s-78.333 96.333 -81 165h177c2 -25.333 12.5 -45.166 31.5 -59.499s43.833 -21.5 74.5 -21.5c30 0 54.333 7.5 73 22.5s28 34.167 28 57.5c0 25.333 -9.16699 45.333 -27.5 60s-43.5 22 -75.5 22h-84z" />
    <glyph glyph-name="acute" unicode="&#xb4;" horiz-adv-x="1007" 
d="M462 1255h-178l215 303h225z" />
    <glyph glyph-name="paragraph" unicode="&#xb6;" horiz-adv-x="1299" 
d="M824 -233l-216 0.000976562v765h-20c-140 0 -257 42.833 -351 128.5s-141 192.5 -141 320.5c0 133.333 46.833 243.666 140.5 330.999s211.167 131 352.5 131h235v-1676zM979 -232.999v1676h216v-1676h-216z" />
    <glyph glyph-name="periodcentered" unicode="&#xb7;" horiz-adv-x="560" 
d="M280 482c-36.667 0 -67.667 12.667 -93 38s-38 56.333 -38 93s12.667 67.667 38 93s56.333 38 93 38c37.333 0 68.5 -12.667 93.5 -38s37.5 -56.333 37.5 -93s-12.667 -67.667 -38 -93s-56.333 -38 -93 -38z" />
    <glyph glyph-name="cedilla" unicode="&#xb8;" horiz-adv-x="1007" 
d="M364 -229l0.000976562 82.998l63 155l122 -9l-51 -132c64.667 0 114.167 -13.167 148.5 -39.5s51.5 -64.5 51.5 -114.5c0 -53.333 -20.833 -96.5 -62.5 -129.5s-96.167 -49.833 -163.5 -50.5c-56.667 -1.33301 -105 4.33398 -145 17.001v105
c24.667 -9.33301 64 -14 118 -14c76.667 0 115 22 115 66c0 22.667 -10.833 38.834 -32.5 48.501s-57.834 14.5 -108.501 14.5h-55z" />
    <glyph glyph-name="one.sups" unicode="&#xb9;" horiz-adv-x="516" 
d="M243 1114v533h-3l-176 -119v159l176 118h183v-691h-180z" />
    <glyph glyph-name="ordmasculine" unicode="&#xba;" horiz-adv-x="981" 
d="M286 1018c0 -89.333 17.833 -158.5 53.5 -207.5s86.167 -73.5 151.5 -73.5s115.666 24.5 150.999 73.5s53 118.5 53 208.5c0 89.333 -17.667 158.333 -53 207s-85.666 73 -150.999 73s-115.833 -24.5 -151.5 -73.5s-53.5 -118.167 -53.5 -207.5zM491 579
c-126 0 -224.833 38.999 -296.5 116.999s-107.5 185.333 -107.5 322s36 244.334 108 323.001s170.667 118 296 118s223.833 -39.167 295.5 -117.5s107.5 -185.833 107.5 -322.5c0 -137.333 -35.833 -245 -107.5 -323s-170.167 -117 -295.5 -117z" />
    <glyph glyph-name="guillemotright" unicode="&#xbb;" horiz-adv-x="1321" 
d="M476 572l-349 412h228l349 -415v-8l-347 -414h-230l349 412v13zM966 572l-349 412h228l349 -415v-8l-347 -414h-230l349 412v13z" />
    <glyph glyph-name="onequarter" unicode="&#xbc;" horiz-adv-x="1521" 
d="M1225 0v108h-341v156c54 104 140.333 246.333 259 427h259v-438h85v-145h-85v-108h-177zM1041 249v-2.99902h189v320h-3c-83.333 -132.667 -145.333 -238.334 -186 -317.001zM253 753.001v533h-3l-176 -119v159l176 118h183v-691h-180zM303 0.000976562h-204l1055 1443
h202z" />
    <glyph glyph-name="onehalf" unicode="&#xbd;" horiz-adv-x="1520" 
d="M939 477c0 69.333 25.167 125.335 75.5 168.002s116.5 64 198.5 64c78.667 0 142.5 -18.833 191.5 -56.5s73.5 -87.167 73.5 -148.5c0 -36 -9.5 -70 -28.5 -102s-52.167 -69.333 -99.5 -112l-158 -144v-3h294v-143h-536v124l273 247c28 27.333 47.333 49.666 58 66.999
s16 35 16 53c0 23.333 -8.5 42.333 -25.5 57s-39.167 22 -66.5 22s-50 -8.83301 -68 -26.5s-27 -39.834 -27 -66.501v-4h-171v4zM253 753.002v533h-3l-176 -119v159l176 118h183v-691h-180zM303 0.00195312h-204l1055 1443h202z" />
    <glyph glyph-name="threequarters" unicode="&#xbe;" horiz-adv-x="1623" 
d="M239 1043l-0.000976562 125.999h85c28 0 50.333 7.33301 67 22s25 33.667 25 57s-8.33301 41.833 -25 55.5s-39.667 20.5 -69 20.5c-28.667 0 -52 -7.83301 -70 -23.5s-27.667 -36.5 -29 -62.5h-168c0.666992 67.333 25.834 121.5 75.501 162.5s115.5 61.5 197.5 61.5
c78.667 0 142 -17.167 190 -51.5s72 -79.833 72 -136.5c0 -40.667 -13 -75.5 -39 -104.5s-61 -47.5 -105 -55.5v-4c52.667 -4.66699 94 -21.834 124 -51.501s45 -67.5 45 -113.5c0 -63.333 -26.5 -114.166 -79.5 -152.499s-123.5 -57.5 -211.5 -57.5
c-82.667 0 -149.667 20.667 -201 62s-78.333 96.333 -81 165h177c2 -25.333 12.5 -45.166 31.5 -59.499s43.833 -21.5 74.5 -21.5c30 0 54.333 7.5 73 22.5s28 34.167 28 57.5c0 25.333 -9.16699 45.333 -27.5 60s-43.5 22 -75.5 22h-84zM1328 -0.000976562v108h-341v156
c54 104 140.333 246.333 259 427h259v-438h85v-145h-85v-108h-177zM1144 248.999v-2.99902h189v320h-3c-83.333 -132.667 -145.333 -238.334 -186 -317.001zM410.999 0h-204l1055 1443h202z" />
    <glyph glyph-name="questiondown" unicode="&#xbf;" horiz-adv-x="1035" 
d="M980 49c-4.66699 -118 -46.5029 -214.001 -125.503 -288.001s-188.167 -111 -327.5 -111c-132 0 -239 34.833 -321 104.5s-123 158.834 -123 267.501c0 144 70.333 258 211 342c64 38 107.5 73.167 130.5 105.5s34.5 74.166 34.5 125.499v61h207l1 -80
c2.66699 -69.333 -11.166 -128.333 -41.499 -177s-80.5 -94 -150.5 -136c-60.667 -36.667 -103.167 -72 -127.5 -106s-36.5 -76 -36.5 -126c0 -58 20.667 -105.5 62 -142.5s96 -55.5 164 -55.5c68.667 0 123.834 19.333 165.501 58s64.834 91.334 69.501 158.001h208z
M550.997 865.999c-36.667 0 -67.8301 12.5 -93.4971 37.5s-38.5 55.5 -38.5 91.5c0 36.667 12.667 67.5 38 92.5s56.666 37.5 93.999 37.5s68.666 -12.5 93.999 -37.5s38 -55.833 38 -92.5c0 -36 -12.833 -66.5 -38.5 -91.5s-56.834 -37.5 -93.501 -37.5z" />
    <glyph glyph-name="Agrave" unicode="&#xc0;" horiz-adv-x="1336" 
d="M1073 0l-132 390h-550l-132 -390h-233l521 1443h242l521 -1443h-237zM663 1203l-215 -633h436l-215 633h-6zM581 1553l-280 303h225l231 -303h-176z" />
    <glyph glyph-name="Aacute" unicode="&#xc1;" horiz-adv-x="1336" 
d="M1073 0l-132 390h-550l-132 -390h-233l521 1443h242l521 -1443h-237zM663 1203l-215 -633h436l-215 633h-6zM756 1551h-176l231 303h225z" />
    <glyph glyph-name="Acircumflex" unicode="&#xc2;" horiz-adv-x="1336" 
d="M1073 0l-132 390h-550l-132 -390h-233l521 1443h242l521 -1443h-237zM663 1203l-215 -633h436l-215 633h-6zM582 1853h172l286 -306h-188l-182 200h-4l-182 -200h-188z" />
    <glyph glyph-name="Atilde" unicode="&#xc3;" horiz-adv-x="1336" 
d="M1073 0l-132 390h-550l-132 -390h-233l521 1443h242l521 -1443h-237zM663 1203l-215 -633h436l-215 633h-6zM801 1537c-30 0 -58.165 7.66699 -84.498 23s-47.333 32 -63 50s-33 34.667 -52 50s-36.833 23 -53.5 23c-22 0 -38.833 -11.5 -50.5 -34.5
s-17.834 -54.833 -18.501 -95.5h-129c0 80 17.167 142.833 51.5 188.5s80.833 68.5 139.5 68.5c31.333 0 60.666 -7.66699 87.999 -23s49 -32 65 -50s33.167 -34.667 51.5 -50s35.5 -23 51.5 -23c42 0 63 44 63 132h130c0 -78.667 -17.5 -141.5 -52.5 -188.5
s-80.5 -70.5 -136.5 -70.5z" />
    <glyph glyph-name="Adieresis" unicode="&#xc4;" horiz-adv-x="1336" 
d="M1073 0l-132 390h-550l-132 -390h-233l521 1443h242l521 -1443h-237zM663 1203l-215 -633h436l-215 633h-6zM467 1576c-33.333 0 -61.833 11.667 -85.5 35s-35.5 51.333 -35.5 84s11.833 60.667 35.5 84s52.167 35 85.5 35s61.666 -11.5 84.999 -34.5
s35 -51.167 35 -84.5c0 -32.667 -11.667 -60.667 -35 -84s-51.666 -35 -84.999 -35zM870 1576c-33.333 0 -61.833 11.667 -85.5 35s-35.5 51.333 -35.5 84s11.833 60.667 35.5 84s52.167 35 85.5 35s61.666 -11.5 84.999 -34.5s35 -51.167 35 -84.5
c0 -32.667 -11.667 -60.667 -35 -84s-51.666 -35 -84.999 -35z" />
    <glyph glyph-name="Aring" unicode="&#xc5;" horiz-adv-x="1336" 
d="M1073 0l-132 390h-550l-132 -390h-233l521 1443h242l521 -1443h-237zM663 1203l-215 -633h436l-215 633h-6zM668 1509c-56.667 0 -105.334 20.167 -146.001 60.5s-61 88.5 -61 144.5c0 56.667 20.333 105.167 61 145.5s89.334 60.5 146.001 60.5
s105.334 -20.167 146.001 -60.5s61 -88.833 61 -145.5c0 -56 -20.333 -104.167 -61 -144.5s-89.334 -60.5 -146.001 -60.5zM668 1604c30.667 0 56.834 10.833 78.501 32.5s32.5 47.5 32.5 77.5c0 30.667 -10.833 56.834 -32.5 78.501s-47.834 32.5 -78.501 32.5
s-56.834 -10.833 -78.501 -32.5s-32.5 -47.834 -32.5 -78.501c0 -30 10.833 -55.833 32.5 -77.5s47.834 -32.5 78.501 -32.5z" />
    <glyph glyph-name="AE" unicode="&#xc6;" horiz-adv-x="1997" 
d="M812 1263l-298 -656h449v656h-151zM963 0v428h-527l-196 -428h-227l661 1443h1189v-193h-685v-430h648v-186h-648v-441h685v-193h-900z" />
    <glyph glyph-name="Ccedilla" unicode="&#xc7;" horiz-adv-x="1424" 
d="M1132 449l222.998 -0.000976562c-25.333 -138.667 -86 -249 -182 -331s-218 -128.667 -366 -140l-43 -110c64.667 0 114.167 -13.167 148.5 -39.5s51.5 -64.5 51.5 -114.5c0 -53.333 -20.833 -96.5 -62.5 -129.5s-96.167 -49.833 -163.5 -50.5
c-56.667 -1.33301 -105 4.33398 -145 17.001v105c24.667 -9.33301 64 -14 118 -14c76.667 0 115 22 115 66c0 22.667 -10.833 38.834 -32.5 48.501s-57.834 14.5 -108.501 14.5h-55v83l51 124c-185.333 14 -331.666 87.167 -438.999 219.5s-161 307.166 -161 524.499
c0 228 59.667 409.167 179 543.5s280 201.5 482 201.5c164 0 302.333 -46.167 415 -138.5s178.334 -213.5 197.001 -363.5h-222c-20 92.667 -65.5 166.834 -136.5 222.501s-155.5 83.5 -253.5 83.5c-131.333 0 -236.166 -49.833 -314.499 -149.5
s-117.5 -232.834 -117.5 -399.501c0 -168.667 39 -302.5 117 -401.5s183.333 -148.5 316 -148.5c100 0 184.167 24.333 252.5 73s113.833 116.667 136.5 204z" />
    <glyph glyph-name="Egrave" unicode="&#xc8;" horiz-adv-x="1146" 
d="M504 1553l-280 303h225l231 -303h-176zM1049 194v-194h-916v1443h916v-193h-692v-422h655v-186h-655v-448h692z" />
    <glyph glyph-name="Eacute" unicode="&#xc9;" horiz-adv-x="1146" 
d="M679 1551h-176l231 303h225zM1049 194v-194h-916v1443h916v-193h-692v-422h655v-186h-655v-448h692z" />
    <glyph glyph-name="Ecircumflex" unicode="&#xca;" horiz-adv-x="1146" 
d="M505 1853h172l286 -306h-188l-182 200h-4l-182 -200h-188zM1049 194v-194h-916v1443h916v-193h-692v-422h655v-186h-655v-448h692z" />
    <glyph glyph-name="Edieresis" unicode="&#xcb;" horiz-adv-x="1146" 
d="M390 1576c-33.333 0 -61.833 11.667 -85.5 35s-35.5 51.333 -35.5 84s11.833 60.667 35.5 84s52.167 35 85.5 35s61.666 -11.5 84.999 -34.5s35 -51.167 35 -84.5c0 -32.667 -11.667 -60.667 -35 -84s-51.666 -35 -84.999 -35zM793 1576
c-33.333 0 -61.833 11.667 -85.5 35s-35.5 51.333 -35.5 84s11.833 60.667 35.5 84s52.167 35 85.5 35s61.666 -11.5 84.999 -34.5s35 -51.167 35 -84.5c0 -32.667 -11.667 -60.667 -35 -84s-51.666 -35 -84.999 -35zM1049 194v-194h-916v1443h916v-193h-692v-422h655v-186
h-655v-448h692z" />
    <glyph glyph-name="Igrave" unicode="&#xcc;" horiz-adv-x="490" 
d="M357 0h-224v1443h224v-1443zM158 1553l-280 303h225l231 -303h-176z" />
    <glyph glyph-name="Iacute" unicode="&#xcd;" horiz-adv-x="490" 
d="M357 0h-224v1443h224v-1443zM333 1551h-176l231 303h225z" />
    <glyph glyph-name="Icircumflex" unicode="&#xce;" horiz-adv-x="490" 
d="M357 0h-224v1443h224v-1443zM159 1853h172l286 -306h-188l-182 200h-4l-182 -200h-188z" />
    <glyph glyph-name="Idieresis" unicode="&#xcf;" horiz-adv-x="490" 
d="M357 0h-224v1443h224v-1443zM44 1576c-33.333 0 -61.833 11.667 -85.5 35s-35.5 51.333 -35.5 84s11.833 60.667 35.5 84s52.167 35 85.5 35s61.666 -11.5 84.999 -34.5s35 -51.167 35 -84.5c0 -32.667 -11.667 -60.667 -35 -84s-51.666 -35 -84.999 -35zM447 1576
c-33.333 0 -61.833 11.667 -85.5 35s-35.5 51.333 -35.5 84s11.833 60.667 35.5 84s52.167 35 85.5 35s61.666 -11.5 84.999 -34.5s35 -51.167 35 -84.5c0 -32.667 -11.667 -60.667 -35 -84s-51.666 -35 -84.999 -35z" />
    <glyph glyph-name="Eth" unicode="&#xd0;" horiz-adv-x="1462" 
d="M357 194h272c153.333 0 271 45.5 353 136.5s123 221.5 123 391.5s-41 300.5 -123 391.5s-199.667 136.5 -353 136.5h-272v-418h272v-184h-272v-454zM133 1443h517c215.333 0 383 -63 503 -189s180 -302.667 180 -530c0 -228 -60 -405.667 -180 -533
s-287.667 -191 -503 -191h-517v648h-114v184h114v611z" />
    <glyph glyph-name="Ntilde" unicode="&#xd1;" horiz-adv-x="1443" 
d="M855 1537c-30 0 -58.165 7.66699 -84.498 23s-47.333 32 -63 50s-33 34.667 -52 50s-36.833 23 -53.5 23c-22 0 -38.833 -11.5 -50.5 -34.5s-17.834 -54.833 -18.501 -95.5h-129c0 80 17.167 142.833 51.5 188.5s80.833 68.5 139.5 68.5
c31.333 0 60.666 -7.66699 87.999 -23s49 -32 65 -50s33.167 -34.667 51.5 -50s35.5 -23 51.5 -23c42 0 63 44 63 132h130c0 -78.667 -17.5 -141.5 -52.5 -188.5s-80.5 -70.5 -136.5 -70.5zM351.002 0h-218v1443h203l748 -1064h8v1064h218v-1443h-202l-748 1063h-9v-1063z
" />
    <glyph glyph-name="Ograve" unicode="&#xd2;" horiz-adv-x="1513" 
d="M670 1553l-280 303h225l231 -303h-176zM757 1467c207.333 0 371.833 -67 493.5 -201s182.5 -315.667 182.5 -545s-60.667 -410.833 -182 -544.5s-286 -200.5 -494 -200.5s-372.667 66.833 -494 200.5s-182 315.167 -182 544.5s60.667 411 182 545s286 201 494 201z
M757 1270c-137.333 0 -246.166 -49.333 -326.499 -148s-120.5 -232.334 -120.5 -401.001c0 -168 40.167 -301.333 120.5 -400s189.166 -148 326.499 -148c136.667 0 245.167 49.333 325.5 148s120.5 232 120.5 400c0 168.667 -40.167 302.334 -120.5 401.001
s-188.833 148 -325.5 148z" />
    <glyph glyph-name="Oacute" unicode="&#xd3;" horiz-adv-x="1513" 
d="M845 1551h-176l231 303h225zM757 1467c207.333 0 371.833 -67 493.5 -201s182.5 -315.667 182.5 -545s-60.667 -410.833 -182 -544.5s-286 -200.5 -494 -200.5s-372.667 66.833 -494 200.5s-182 315.167 -182 544.5s60.667 411 182 545s286 201 494 201zM757 1270
c-137.333 0 -246.166 -49.333 -326.499 -148s-120.5 -232.334 -120.5 -401.001c0 -168 40.167 -301.333 120.5 -400s189.166 -148 326.499 -148c136.667 0 245.167 49.333 325.5 148s120.5 232 120.5 400c0 168.667 -40.167 302.334 -120.5 401.001s-188.833 148 -325.5 148
z" />
    <glyph glyph-name="Ocircumflex" unicode="&#xd4;" horiz-adv-x="1513" 
d="M671 1853h172l286 -306h-188l-182 200h-4l-182 -200h-188zM757 1467c207.333 0 371.833 -67 493.5 -201s182.5 -315.667 182.5 -545s-60.667 -410.833 -182 -544.5s-286 -200.5 -494 -200.5s-372.667 66.833 -494 200.5s-182 315.167 -182 544.5s60.667 411 182 545
s286 201 494 201zM757 1270c-137.333 0 -246.166 -49.333 -326.499 -148s-120.5 -232.334 -120.5 -401.001c0 -168 40.167 -301.333 120.5 -400s189.166 -148 326.499 -148c136.667 0 245.167 49.333 325.5 148s120.5 232 120.5 400
c0 168.667 -40.167 302.334 -120.5 401.001s-188.833 148 -325.5 148z" />
    <glyph glyph-name="Otilde" unicode="&#xd5;" horiz-adv-x="1513" 
d="M757 1467c207.333 0 371.833 -67 493.5 -201s182.5 -315.667 182.5 -545s-60.667 -410.833 -182 -544.5s-286 -200.5 -494 -200.5s-372.667 66.833 -494 200.5s-182 315.167 -182 544.5s60.667 411 182 545s286 201 494 201zM757 1270
c-137.333 0 -246.166 -49.333 -326.499 -148s-120.5 -232.334 -120.5 -401.001c0 -168 40.167 -301.333 120.5 -400s189.166 -148 326.499 -148c136.667 0 245.167 49.333 325.5 148s120.5 232 120.5 400c0 168.667 -40.167 302.334 -120.5 401.001s-188.833 148 -325.5 148
zM890 1537c-30 0 -58.165 7.66699 -84.498 23s-47.333 32 -63 50s-33 34.667 -52 50s-36.833 23 -53.5 23c-22 0 -38.833 -11.5 -50.5 -34.5s-17.834 -54.833 -18.501 -95.5h-129c0 80 17.167 142.833 51.5 188.5s80.833 68.5 139.5 68.5
c31.333 0 60.666 -7.66699 87.999 -23s49 -32 65 -50s33.167 -34.667 51.5 -50s35.5 -23 51.5 -23c42 0 63 44 63 132h130c0 -78.667 -17.5 -141.5 -52.5 -188.5s-80.5 -70.5 -136.5 -70.5z" />
    <glyph glyph-name="Odieresis" unicode="&#xd6;" horiz-adv-x="1513" 
d="M556 1576c-33.333 0 -61.833 11.667 -85.5 35s-35.5 51.333 -35.5 84s11.833 60.667 35.5 84s52.167 35 85.5 35s61.666 -11.5 84.999 -34.5s35 -51.167 35 -84.5c0 -32.667 -11.667 -60.667 -35 -84s-51.666 -35 -84.999 -35zM959 1576
c-33.333 0 -61.833 11.667 -85.5 35s-35.5 51.333 -35.5 84s11.833 60.667 35.5 84s52.167 35 85.5 35s61.666 -11.5 84.999 -34.5s35 -51.167 35 -84.5c0 -32.667 -11.667 -60.667 -35 -84s-51.666 -35 -84.999 -35zM757 1467c207.333 0 371.833 -67 493.5 -201
s182.5 -315.667 182.5 -545s-60.667 -410.833 -182 -544.5s-286 -200.5 -494 -200.5s-372.667 66.833 -494 200.5s-182 315.167 -182 544.5s60.667 411 182 545s286 201 494 201zM757 1270c-137.333 0 -246.166 -49.333 -326.499 -148s-120.5 -232.334 -120.5 -401.001
c0 -168 40.167 -301.333 120.5 -400s189.166 -148 326.499 -148c136.667 0 245.167 49.333 325.5 148s120.5 232 120.5 400c0 168.667 -40.167 302.334 -120.5 401.001s-188.833 148 -325.5 148z" />
    <glyph glyph-name="multiply" unicode="&#xd7;" horiz-adv-x="1271" 
d="M636 451l-307 -306l-130 130l306 306l-306 307l130 130l307 -306l306 306l129 -130l-305 -307l305 -306l-129 -130z" />
    <glyph glyph-name="Oslash" unicode="&#xd8;" horiz-adv-x="1513" 
d="M1114 1078l-605 -830c69.333 -50 152 -75 248 -75c136.667 0 245.167 49.333 325.5 148s120.5 232 120.5 400c0 144 -29.667 263 -89 357zM420 335l613.999 838.001c-74.667 64.667 -167 97 -277 97c-137.333 0 -246.166 -49.333 -326.499 -148
s-120.5 -232.334 -120.5 -401.001c0 -160 36.667 -288.667 110 -386zM1370 1429l-119.001 -163c121.333 -134 182 -315.667 182 -545s-60.667 -410.833 -182 -544.5s-286 -200.5 -494 -200.5c-143.333 0 -268 33 -374 99l-94 -129l-101 73l98 134
c-136.667 134.667 -205 324 -205 568c0 229.333 60.667 411 182 545s286 201 494 201c158.667 0 293.334 -40 404.001 -120l108 147z" />
    <glyph glyph-name="Ugrave" unicode="&#xd9;" horiz-adv-x="1434" 
d="M630 1553l-280 303h225l231 -303h-176zM357 1443l-0.000976562 -917c0 -105.333 31.833 -190.166 95.5 -254.499s151.834 -96.5 264.501 -96.5s201 32.167 265 96.5s96 149.166 96 254.499v917h223v-936c0 -158 -52.667 -286 -158 -384s-247.333 -147 -426 -147
s-320.667 49 -426 147s-158 226 -158 384v936h224z" />
    <glyph glyph-name="Uacute" unicode="&#xda;" horiz-adv-x="1434" 
d="M805 1551h-176l231 303h225zM357 1443l-0.000976562 -917c0 -105.333 31.833 -190.166 95.5 -254.499s151.834 -96.5 264.501 -96.5s201 32.167 265 96.5s96 149.166 96 254.499v917h223v-936c0 -158 -52.667 -286 -158 -384s-247.333 -147 -426 -147
s-320.667 49 -426 147s-158 226 -158 384v936h224z" />
    <glyph glyph-name="Ucircumflex" unicode="&#xdb;" horiz-adv-x="1434" 
d="M631 1853h172l286 -306h-188l-182 200h-4l-182 -200h-188zM357 1443l-0.000976562 -917c0 -105.333 31.833 -190.166 95.5 -254.499s151.834 -96.5 264.501 -96.5s201 32.167 265 96.5s96 149.166 96 254.499v917h223v-936c0 -158 -52.667 -286 -158 -384
s-247.333 -147 -426 -147s-320.667 49 -426 147s-158 226 -158 384v936h224z" />
    <glyph glyph-name="Udieresis" unicode="&#xdc;" horiz-adv-x="1434" 
d="M516 1576c-33.333 0 -61.833 11.667 -85.5 35s-35.5 51.333 -35.5 84s11.833 60.667 35.5 84s52.167 35 85.5 35s61.666 -11.5 84.999 -34.5s35 -51.167 35 -84.5c0 -32.667 -11.667 -60.667 -35 -84s-51.666 -35 -84.999 -35zM919 1576
c-33.333 0 -61.833 11.667 -85.5 35s-35.5 51.333 -35.5 84s11.833 60.667 35.5 84s52.167 35 85.5 35s61.666 -11.5 84.999 -34.5s35 -51.167 35 -84.5c0 -32.667 -11.667 -60.667 -35 -84s-51.666 -35 -84.999 -35zM357 1443l-0.000976562 -917
c0 -105.333 31.833 -190.166 95.5 -254.499s151.834 -96.5 264.501 -96.5s201 32.167 265 96.5s96 149.166 96 254.499v917h223v-936c0 -158 -52.667 -286 -158 -384s-247.333 -147 -426 -147s-320.667 49 -426 147s-158 226 -158 384v936h224z" />
    <glyph glyph-name="Yacute" unicode="&#xdd;" horiz-adv-x="1293" 
d="M758 0h-224v591l-508 852h250l368 -637h7l368 637h248l-509 -852v-591zM734 1551h-176l231 303h225z" />
    <glyph glyph-name="Thorn" unicode="&#xde;" horiz-adv-x="1267" 
d="M157 1443h223.998v-255h350c80.667 0 154 -16.667 220 -50s119.333 -83 160 -149s61 -143 61 -231s-20.667 -165.167 -62 -231.5s-95.666 -116.333 -162.999 -150s-141.666 -50.5 -222.999 -50.5h-343v-326h-224v1443zM380.998 999v-485h287
c83.333 0 150 20.833 200 62.5s75 102.167 75 181.5c0 78.667 -25 138.5 -75 179.5s-116.667 61.5 -200 61.5h-287z" />
    <glyph glyph-name="germandbls" unicode="&#xdf;" horiz-adv-x="1282" 
d="M384 0h-214.004v1094c0 120.667 40.5 217 121.5 289s189.833 108 326.5 108c130.667 0 237.167 -35 319.5 -105s123.5 -160.333 123.5 -271c0 -83.333 -20.167 -155.5 -60.5 -216.5s-95.166 -101.833 -164.499 -122.5v-7
c104.667 -12.667 186.834 -51.834 246.501 -117.501s89.5 -149.5 89.5 -251.5c0 -125.333 -42.333 -225.666 -127 -300.999s-197.667 -113 -339 -113c-65.333 0 -117.666 4.66699 -156.999 14v181c35.333 -10 79 -15 131 -15c84.667 0 151.834 21.833 201.501 65.5
s74.5 102.5 74.5 176.5c0 78.667 -27.833 139.834 -83.5 183.501s-133.167 65.5 -232.5 65.5h-65v195h50c70.667 0 126.167 21.167 166.5 63.5s60.5 101.166 60.5 176.499c0 64.667 -21.167 117 -63.5 157s-97.833 60 -166.5 60c-75.333 0 -133.833 -21.667 -175.5 -65
s-62.5 -104 -62.5 -182v-1062z" />
    <glyph glyph-name="agrave" unicode="&#xe0;" horiz-adv-x="1092" 
d="M488 162c80.667 0 148 23.168 202 69.501s81 105.166 81 176.499v85l-264 -18c-150 -9.33301 -225 -62.666 -225 -159.999c0 -46.667 18.667 -83.834 56 -111.501s87.333 -41.5 150 -41.5zM430 -10.999c-108.667 0 -196.999 29.501 -264.999 88.501
s-102 136.833 -102 233.5c0 94.667 35.5 169 106.5 223s173.833 85.333 308.5 94l293 17v84c0 62 -19.833 109.5 -59.5 142.5s-95.834 49.5 -168.501 49.5c-58.667 0 -108.167 -14 -148.5 -42s-65.166 -65.667 -74.499 -113h-203c3.33301 96 45.666 175.667 126.999 239
s183 95 305 95c132.667 0 238.5 -32.333 317.5 -97s118.5 -150.667 118.5 -258v-745h-207v181h-5c-30 -58.667 -76 -105.334 -138 -140.001s-130.333 -52 -205 -52zM630.001 1255h-178l-262 303h225z" />
    <glyph glyph-name="aacute" unicode="&#xe1;" horiz-adv-x="1092" 
d="M488 162c80.667 0 148 23.168 202 69.501s81 105.166 81 176.499v85l-264 -18c-150 -9.33301 -225 -62.666 -225 -159.999c0 -46.667 18.667 -83.834 56 -111.501s87.333 -41.5 150 -41.5zM430 -10.999c-108.667 0 -196.999 29.501 -264.999 88.501
s-102 136.833 -102 233.5c0 94.667 35.5 169 106.5 223s173.833 85.333 308.5 94l293 17v84c0 62 -19.833 109.5 -59.5 142.5s-95.834 49.5 -168.501 49.5c-58.667 0 -108.167 -14 -148.5 -42s-65.166 -65.667 -74.499 -113h-203c3.33301 96 45.666 175.667 126.999 239
s183 95 305 95c132.667 0 238.5 -32.333 317.5 -97s118.5 -150.667 118.5 -258v-745h-207v181h-5c-30 -58.667 -76 -105.334 -138 -140.001s-130.333 -52 -205 -52zM632.001 1255h-178l215 303h225z" />
    <glyph glyph-name="acircumflex" unicode="&#xe2;" horiz-adv-x="1092" 
d="M488 162c80.667 0 148 23.168 202 69.501s81 105.166 81 176.499v85l-264 -18c-150 -9.33301 -225 -62.666 -225 -159.999c0 -46.667 18.667 -83.834 56 -111.501s87.333 -41.5 150 -41.5zM430 -10.999c-108.667 0 -196.999 29.501 -264.999 88.501
s-102 136.833 -102 233.5c0 94.667 35.5 169 106.5 223s173.833 85.333 308.5 94l293 17v84c0 62 -19.833 109.5 -59.5 142.5s-95.834 49.5 -168.501 49.5c-58.667 0 -108.167 -14 -148.5 -42s-65.166 -65.667 -74.499 -113h-203c3.33301 96 45.666 175.667 126.999 239
s183 95 305 95c132.667 0 238.5 -32.333 317.5 -97s118.5 -150.667 118.5 -258v-745h-207v181h-5c-30 -58.667 -76 -105.334 -138 -140.001s-130.333 -52 -205 -52zM624.001 1558l273 -307h-185l-164 194h-6l-164 -194h-185l273 307h158z" />
    <glyph glyph-name="atilde" unicode="&#xe3;" horiz-adv-x="1092" 
d="M488 162c80.667 0 148 23.168 202 69.501s81 105.166 81 176.499v85l-264 -18c-150 -9.33301 -225 -62.666 -225 -159.999c0 -46.667 18.667 -83.834 56 -111.501s87.333 -41.5 150 -41.5zM430 -10.999c-108.667 0 -196.999 29.501 -264.999 88.501
s-102 136.833 -102 233.5c0 94.667 35.5 169 106.5 223s173.833 85.333 308.5 94l293 17v84c0 62 -19.833 109.5 -59.5 142.5s-95.834 49.5 -168.501 49.5c-58.667 0 -108.167 -14 -148.5 -42s-65.166 -65.667 -74.499 -113h-203c3.33301 96 45.666 175.667 126.999 239
s183 95 305 95c132.667 0 238.5 -32.333 317.5 -97s118.5 -150.667 118.5 -258v-745h-207v181h-5c-30 -58.667 -76 -105.334 -138 -140.001s-130.333 -52 -205 -52zM681.001 1258c-30 0 -58.165 7.66699 -84.498 23s-47.333 32 -63 50s-33 34.667 -52 50
s-36.833 23 -53.5 23c-22 0 -38.833 -11.5 -50.5 -34.5s-17.834 -54.833 -18.501 -95.5h-129c0 80 17.167 142.833 51.5 188.5s80.833 68.5 139.5 68.5c31.333 0 60.666 -7.66699 87.999 -23s49 -32 65 -50s33.167 -34.667 51.5 -50s35.5 -23 51.5 -23c42 0 63 44 63 132
h130c0 -78.667 -17.5 -141.5 -52.5 -188.5s-80.5 -70.5 -136.5 -70.5z" />
    <glyph glyph-name="adieresis" unicode="&#xe4;" horiz-adv-x="1092" 
d="M488 162c80.667 0 148 23.168 202 69.501s81 105.166 81 176.499v85l-264 -18c-150 -9.33301 -225 -62.666 -225 -159.999c0 -46.667 18.667 -83.834 56 -111.501s87.333 -41.5 150 -41.5zM430 -10.999c-108.667 0 -196.999 29.501 -264.999 88.501
s-102 136.833 -102 233.5c0 94.667 35.5 169 106.5 223s173.833 85.333 308.5 94l293 17v84c0 62 -19.833 109.5 -59.5 142.5s-95.834 49.5 -168.501 49.5c-58.667 0 -108.167 -14 -148.5 -42s-65.166 -65.667 -74.499 -113h-203c3.33301 96 45.666 175.667 126.999 239
s183 95 305 95c132.667 0 238.5 -32.333 317.5 -97s118.5 -150.667 118.5 -258v-745h-207v181h-5c-30 -58.667 -76 -105.334 -138 -140.001s-130.333 -52 -205 -52zM344.001 1260c-33.333 0 -61.833 11.667 -85.5 35s-35.5 51.333 -35.5 84s11.833 60.667 35.5 84
s52.167 35 85.5 35s61.666 -11.5 84.999 -34.5s35 -51.167 35 -84.5c0 -32.667 -11.667 -60.667 -35 -84s-51.666 -35 -84.999 -35zM747.001 1260c-33.333 0 -61.833 11.667 -85.5 35s-35.5 51.333 -35.5 84s11.833 60.667 35.5 84s52.167 35 85.5 35
s61.666 -11.5 84.999 -34.5s35 -51.167 35 -84.5c0 -32.667 -11.667 -60.667 -35 -84s-51.666 -35 -84.999 -35z" />
    <glyph glyph-name="aring" unicode="&#xe5;" horiz-adv-x="1092" 
d="M488 162c80.667 0 148 23.168 202 69.501s81 105.166 81 176.499v85l-264 -18c-150 -9.33301 -225 -62.666 -225 -159.999c0 -46.667 18.667 -83.834 56 -111.501s87.333 -41.5 150 -41.5zM430 -10.999c-108.667 0 -196.999 29.501 -264.999 88.501
s-102 136.833 -102 233.5c0 94.667 35.5 169 106.5 223s173.833 85.333 308.5 94l293 17v84c0 62 -19.833 109.5 -59.5 142.5s-95.834 49.5 -168.501 49.5c-58.667 0 -108.167 -14 -148.5 -42s-65.166 -65.667 -74.499 -113h-203c3.33301 96 45.666 175.667 126.999 239
s183 95 305 95c132.667 0 238.5 -32.333 317.5 -97s118.5 -150.667 118.5 -258v-745h-207v181h-5c-30 -58.667 -76 -105.334 -138 -140.001s-130.333 -52 -205 -52zM545.001 1193c-56.667 0 -105.334 20.167 -146.001 60.5s-61 88.5 -61 144.5
c0 56.667 20.333 105.167 61 145.5s89.334 60.5 146.001 60.5s105.334 -20.167 146.001 -60.5s61 -88.833 61 -145.5c0 -56 -20.333 -104.167 -61 -144.5s-89.334 -60.5 -146.001 -60.5zM545.001 1288c30.667 0 56.834 10.833 78.501 32.5s32.5 47.5 32.5 77.5
c0 30.667 -10.833 56.834 -32.5 78.501s-47.834 32.5 -78.501 32.5s-56.834 -10.833 -78.501 -32.5s-32.5 -47.834 -32.5 -78.501c0 -30 10.833 -55.833 32.5 -77.5s47.834 -32.5 78.501 -32.5z" />
    <glyph glyph-name="ae" unicode="&#xe6;" horiz-adv-x="1796" 
d="M1269 -13c-89.333 0 -168.334 18.835 -237.001 56.502s-120.667 91.167 -156 160.5h-9c-87.333 -143.333 -222.666 -215 -405.999 -215c-120.667 0 -217.167 29 -289.5 87s-108.5 135 -108.5 231c0 95.333 35.667 170.5 107 225.5s173.666 85.833 306.999 92.5l293 15v74
c0 61.333 -21.5 111.166 -64.5 149.499s-99.167 57.5 -168.5 57.5c-64.667 0 -116.834 -14 -156.501 -42s-61.834 -65.667 -66.501 -113h-206c6 98.667 47.833 179 125.5 241s176.834 93 297.501 93c88.667 0 165.5 -17.333 230.5 -52s111.167 -83 138.5 -145h8
c37.333 64 86.833 112.833 148.5 146.5s132.834 50.5 213.501 50.5c142 0 254.833 -48.333 338.5 -145s125.5 -227 125.5 -391v-75h-755v-14c0 -94.667 26.667 -170.334 80 -227.001s124.666 -85 213.999 -85c60.667 0 112.334 13.667 155.001 41s71.667 65.333 87 114h207
c-16 -99.333 -65.667 -179.333 -149 -240s-184.666 -91 -303.999 -91zM1258 923.002c-78 0 -142.334 -25.667 -193.001 -77s-79 -119.333 -85 -204h536c-2 86.667 -26.167 155.167 -72.5 205.5s-108.166 75.5 -185.499 75.5zM479.998 162.002
c81.333 0 149.999 23.6689 205.999 71.002s84 105.666 84 174.999v80l-266 -15c-71.333 -4 -126.166 -19.667 -164.499 -47s-57.5 -64.333 -57.5 -111s18 -83.834 54 -111.501s84 -41.5 144 -41.5z" />
    <glyph glyph-name="ccedilla" unicode="&#xe7;" horiz-adv-x="1089" 
d="M834 365l207.002 -0.00292969c-11.333 -103.333 -52.833 -188.5 -124.5 -255.5s-163.5 -106.5 -275.5 -118.5l-47 -123c64.667 0 114.167 -13.167 148.5 -39.5s51.5 -64.5 51.5 -114.5c0 -53.333 -20.833 -96.5 -62.5 -129.5s-96.167 -49.833 -163.5 -50.5
c-56.667 -1.33301 -105 4.33398 -145 17.001v105c24.667 -9.33301 64 -14 118 -14c76.667 0 115 22 115 66c0 22.667 -10.833 38.834 -32.5 48.501s-57.834 14.5 -108.501 14.5h-55v83l55 136c-138.667 12.667 -248.834 68.167 -330.501 166.5
s-122.5 227.166 -122.5 386.499c0 168.667 46.333 303.667 139 405s216 152 370 152c67.333 0 129.666 -10.167 186.999 -30.5s105.5 -48.166 144.5 -83.499s70.333 -76.166 94 -122.499s37.834 -95.833 42.501 -148.5h-207c-10.667 60 -38.5 108.667 -83.5 146
s-103.5 56 -175.5 56c-88 0 -158.5 -34 -211.5 -102s-79.5 -158.667 -79.5 -272c0 -116 26.667 -207.333 80 -274s124 -100 212 -100c70.667 0 128.5 16.833 173.5 50.5s73.833 82.167 86.5 145.5z" />
    <glyph glyph-name="egrave" unicode="&#xe8;" horiz-adv-x="1113" 
d="M649 1255h-178l-262 303h225zM563 923c-78 0 -142.833 -26 -194.5 -78s-80.5 -119.667 -86.5 -203h551c-2.66699 84.667 -28.667 152.667 -78 204s-113.333 77 -192 77zM832 318h207.001c-15.333 -97.333 -66.333 -176.833 -153 -238.5s-191 -92.5 -313 -92.5
c-157.333 0 -281.833 49.5 -373.5 148.5s-137.5 233.5 -137.5 403.5s45.667 306 137 408s213 153 365 153c149.333 0 267.666 -48.167 354.999 -144.5s131 -226.833 131 -391.5v-76h-769v-13c0 -94 27 -169.5 81 -226.5s125.667 -85.5 215 -85.5c63.333 0 118 14 164 42
s76.333 65.667 91 113z" />
    <glyph glyph-name="eacute" unicode="&#xe9;" horiz-adv-x="1113" 
d="M651 1255h-178l215 303h225zM563 923c-78 0 -142.833 -26 -194.5 -78s-80.5 -119.667 -86.5 -203h551c-2.66699 84.667 -28.667 152.667 -78 204s-113.333 77 -192 77zM832 318h207.001c-15.333 -97.333 -66.333 -176.833 -153 -238.5s-191 -92.5 -313 -92.5
c-157.333 0 -281.833 49.5 -373.5 148.5s-137.5 233.5 -137.5 403.5s45.667 306 137 408s213 153 365 153c149.333 0 267.666 -48.167 354.999 -144.5s131 -226.833 131 -391.5v-76h-769v-13c0 -94 27 -169.5 81 -226.5s125.667 -85.5 215 -85.5c63.333 0 118 14 164 42
s76.333 65.667 91 113z" />
    <glyph glyph-name="ecircumflex" unicode="&#xea;" horiz-adv-x="1113" 
d="M643 1558l273 -307h-185l-164 194h-6l-164 -194h-185l273 307h158zM563 923c-78 0 -142.833 -26 -194.5 -78s-80.5 -119.667 -86.5 -203h551c-2.66699 84.667 -28.667 152.667 -78 204s-113.333 77 -192 77zM832 318h207.001
c-15.333 -97.333 -66.333 -176.833 -153 -238.5s-191 -92.5 -313 -92.5c-157.333 0 -281.833 49.5 -373.5 148.5s-137.5 233.5 -137.5 403.5s45.667 306 137 408s213 153 365 153c149.333 0 267.666 -48.167 354.999 -144.5s131 -226.833 131 -391.5v-76h-769v-13
c0 -94 27 -169.5 81 -226.5s125.667 -85.5 215 -85.5c63.333 0 118 14 164 42s76.333 65.667 91 113z" />
    <glyph glyph-name="edieresis" unicode="&#xeb;" horiz-adv-x="1113" 
d="M563 923c-78 0 -142.833 -26 -194.5 -78s-80.5 -119.667 -86.5 -203h551c-2.66699 84.667 -28.667 152.667 -78 204s-113.333 77 -192 77zM832 318h207.001c-15.333 -97.333 -66.333 -176.833 -153 -238.5s-191 -92.5 -313 -92.5c-157.333 0 -281.833 49.5 -373.5 148.5
s-137.5 233.5 -137.5 403.5s45.667 306 137 408s213 153 365 153c149.333 0 267.666 -48.167 354.999 -144.5s131 -226.833 131 -391.5v-76h-769v-13c0 -94 27 -169.5 81 -226.5s125.667 -85.5 215 -85.5c63.333 0 118 14 164 42s76.333 65.667 91 113zM363.001 1260
c-33.333 0 -61.833 11.667 -85.5 35s-35.5 51.333 -35.5 84s11.833 60.667 35.5 84s52.167 35 85.5 35s61.666 -11.5 84.999 -34.5s35 -51.167 35 -84.5c0 -32.667 -11.667 -60.667 -35 -84s-51.666 -35 -84.999 -35zM766.001 1260c-33.333 0 -61.833 11.667 -85.5 35
s-35.5 51.333 -35.5 84s11.833 60.667 35.5 84s52.167 35 85.5 35s61.666 -11.5 84.999 -34.5s35 -51.167 35 -84.5c0 -32.667 -11.667 -60.667 -35 -84s-51.666 -35 -84.999 -35z" />
    <glyph glyph-name="igrave" unicode="&#xec;" horiz-adv-x="455" 
d="M313 1255h-178l-262 303h225zM119 0v1086h217v-1086h-217z" />
    <glyph glyph-name="iacute" unicode="&#xed;" horiz-adv-x="455" 
d="M315 1255h-178l215 303h225zM119 0v1086h217v-1086h-217z" />
    <glyph glyph-name="icircumflex" unicode="&#xee;" horiz-adv-x="455" 
d="M307 1558l273 -307h-185l-164 194h-6l-164 -194h-185l273 307h158zM119 0v1086h217v-1086h-217z" />
    <glyph glyph-name="idieresis" unicode="&#xef;" horiz-adv-x="455" 
d="M119 0v1086h217v-1086h-217zM27 1260c-33.333 0 -61.833 11.667 -85.5 35s-35.5 51.333 -35.5 84s11.833 60.667 35.5 84s52.167 35 85.5 35s61.666 -11.5 84.999 -34.5s35 -51.167 35 -84.5c0 -32.667 -11.667 -60.667 -35 -84s-51.666 -35 -84.999 -35zM430 1260
c-33.333 0 -61.833 11.667 -85.5 35s-35.5 51.333 -35.5 84s11.833 60.667 35.5 84s52.167 35 85.5 35s61.666 -11.5 84.999 -34.5s35 -51.167 35 -84.5c0 -32.667 -11.667 -60.667 -35 -84s-51.666 -35 -84.999 -35z" />
    <glyph glyph-name="eth" unicode="&#xf0;" horiz-adv-x="1181" 
d="M593 -18c-156.667 0 -281 48.8301 -373 146.497s-138 229.834 -138 396.501c0 160.667 43 289.334 129 386.001s199.667 145 341 145c59.333 0 116.5 -14.667 171.5 -44s94.833 -66.333 119.5 -111h15c-14 52.667 -37.667 109.334 -71 170.001s-69 113.334 -107 158.001
l-280 -92l-42 123l229 75c-46.667 49.333 -118 112 -214 188h262c50.667 -41.333 96 -84 136 -128l255 84l43 -122l-203 -65c154.667 -203.333 232 -440 232 -710c0 -184.667 -45.5 -330.834 -136.5 -438.501s-213.833 -161.5 -368.5 -161.5zM595 882.997
c-88.667 0 -159.332 -32.5 -211.999 -97.5s-79 -152.167 -79 -261.5s26.167 -196.333 78.5 -261s123.166 -97 212.499 -97s160.5 32.333 213.5 97s79.5 151.667 79.5 261c0 108.667 -26.667 195.667 -80 261s-124.333 98 -213 98z" />
    <glyph glyph-name="ntilde" unicode="&#xf1;" horiz-adv-x="1168" 
d="M722 1258c-30 0 -58.165 7.66699 -84.498 23s-47.333 32 -63 50s-33 34.667 -52 50s-36.833 23 -53.5 23c-22 0 -38.833 -11.5 -50.5 -34.5s-17.834 -54.833 -18.501 -95.5h-129c0 80 17.167 142.833 51.5 188.5s80.833 68.5 139.5 68.5
c31.333 0 60.666 -7.66699 87.999 -23s49 -32 65 -50s33.167 -34.667 51.5 -50s35.5 -23 51.5 -23c42 0 63 44 63 132h130c0 -78.667 -17.5 -141.5 -52.5 -188.5s-80.5 -70.5 -136.5 -70.5zM111.002 0v1086h207v-183h4c67.333 130 185 195 353 195
c120 0 214.5 -35.833 283.5 -107.5s103.5 -169.834 103.5 -294.501v-696h-217v655c0 82.667 -21 146.167 -63 190.5s-102.667 66.5 -182 66.5c-82 0 -147.833 -26.167 -197.5 -78.5s-74.5 -121.166 -74.5 -206.499v-627h-217z" />
    <glyph glyph-name="ograve" unicode="&#xf2;" horiz-adv-x="1152" 
d="M661 1255h-178l-262 303h225zM576 -13c-157.333 0 -282.335 50 -375.002 150s-139 235.333 -139 406c0 170 46.5 305.333 139.5 406s217.833 151 374.5 151s281.334 -50.167 374.001 -150.5s139 -235.833 139 -406.5s-46.167 -306 -138.5 -406
s-217.166 -150 -374.499 -150zM575.998 167c92 0 163.833 33 215.5 99s77.5 158.333 77.5 277s-25.833 211.167 -77.5 277.5s-123.5 99.5 -215.5 99.5s-164 -33.333 -216 -100s-78 -159 -78 -277s26 -210.167 78 -276.5s124 -99.5 216 -99.5z" />
    <glyph glyph-name="oacute" unicode="&#xf3;" horiz-adv-x="1152" 
d="M663 1255h-178l215 303h225zM576 -13c-157.333 0 -282.335 50 -375.002 150s-139 235.333 -139 406c0 170 46.5 305.333 139.5 406s217.833 151 374.5 151s281.334 -50.167 374.001 -150.5s139 -235.833 139 -406.5s-46.167 -306 -138.5 -406
s-217.166 -150 -374.499 -150zM575.998 167c92 0 163.833 33 215.5 99s77.5 158.333 77.5 277s-25.833 211.167 -77.5 277.5s-123.5 99.5 -215.5 99.5s-164 -33.333 -216 -100s-78 -159 -78 -277s26 -210.167 78 -276.5s124 -99.5 216 -99.5z" />
    <glyph glyph-name="ocircumflex" unicode="&#xf4;" horiz-adv-x="1152" 
d="M655 1558l273 -307h-185l-164 194h-6l-164 -194h-185l273 307h158zM576 -13c-157.333 0 -282.335 50 -375.002 150s-139 235.333 -139 406c0 170 46.5 305.333 139.5 406s217.833 151 374.5 151s281.334 -50.167 374.001 -150.5s139 -235.833 139 -406.5
s-46.167 -306 -138.5 -406s-217.166 -150 -374.499 -150zM575.998 167c92 0 163.833 33 215.5 99s77.5 158.333 77.5 277s-25.833 211.167 -77.5 277.5s-123.5 99.5 -215.5 99.5s-164 -33.333 -216 -100s-78 -159 -78 -277s26 -210.167 78 -276.5s124 -99.5 216 -99.5z" />
    <glyph glyph-name="otilde" unicode="&#xf5;" horiz-adv-x="1152" 
d="M712 1258c-30 0 -58.165 7.66699 -84.498 23s-47.333 32 -63 50s-33 34.667 -52 50s-36.833 23 -53.5 23c-22 0 -38.833 -11.5 -50.5 -34.5s-17.834 -54.833 -18.501 -95.5h-129c0 80 17.167 142.833 51.5 188.5s80.833 68.5 139.5 68.5
c31.333 0 60.666 -7.66699 87.999 -23s49 -32 65 -50s33.167 -34.667 51.5 -50s35.5 -23 51.5 -23c42 0 63 44 63 132h130c0 -78.667 -17.5 -141.5 -52.5 -188.5s-80.5 -70.5 -136.5 -70.5zM576.002 -13c-157.333 0 -282.335 50 -375.002 150s-139 235.333 -139 406
c0 170 46.5 305.333 139.5 406s217.833 151 374.5 151s281.334 -50.167 374.001 -150.5s139 -235.833 139 -406.5s-46.167 -306 -138.5 -406s-217.166 -150 -374.499 -150zM576 167c92 0 163.833 33 215.5 99s77.5 158.333 77.5 277s-25.833 211.167 -77.5 277.5
s-123.5 99.5 -215.5 99.5s-164 -33.333 -216 -100s-78 -159 -78 -277s26 -210.167 78 -276.5s124 -99.5 216 -99.5z" />
    <glyph glyph-name="odieresis" unicode="&#xf6;" horiz-adv-x="1152" 
d="M375 1260c-33.333 0 -61.833 11.667 -85.5 35s-35.5 51.333 -35.5 84s11.833 60.667 35.5 84s52.167 35 85.5 35s61.666 -11.5 84.999 -34.5s35 -51.167 35 -84.5c0 -32.667 -11.667 -60.667 -35 -84s-51.666 -35 -84.999 -35zM778 1260
c-33.333 0 -61.833 11.667 -85.5 35s-35.5 51.333 -35.5 84s11.833 60.667 35.5 84s52.167 35 85.5 35s61.666 -11.5 84.999 -34.5s35 -51.167 35 -84.5c0 -32.667 -11.667 -60.667 -35 -84s-51.666 -35 -84.999 -35zM576 -13c-157.333 0 -282.335 50 -375.002 150
s-139 235.333 -139 406c0 170 46.5 305.333 139.5 406s217.833 151 374.5 151s281.334 -50.167 374.001 -150.5s139 -235.833 139 -406.5s-46.167 -306 -138.5 -406s-217.166 -150 -374.499 -150zM575.998 167c92 0 163.833 33 215.5 99s77.5 158.333 77.5 277
s-25.833 211.167 -77.5 277.5s-123.5 99.5 -215.5 99.5s-164 -33.333 -216 -100s-78 -159 -78 -277s26 -210.167 78 -276.5s124 -99.5 216 -99.5z" />
    <glyph glyph-name="divide" unicode="&#xf7;" horiz-adv-x="1270" 
d="M636 805c-41.333 0 -75 12.667 -101 38s-39 58.333 -39 99c0 40 13.167 72.833 39.5 98.5s59.833 38.5 100.5 38.5s74.167 -12.833 100.5 -38.5s39.5 -58.5 39.5 -98.5s-13.167 -72.833 -39.5 -98.5s-59.833 -38.5 -100.5 -38.5zM636 68c-41.333 0 -75 12.667 -101 38
s-39 58.333 -39 99c0 40 13.167 72.833 39.5 98.5s59.833 38.5 100.5 38.5s74.167 -12.833 100.5 -38.5s39.5 -58.5 39.5 -98.5s-13.167 -72.833 -39.5 -98.5s-59.833 -38.5 -100.5 -38.5zM1155 487h-1039v173h1039v-173z" />
    <glyph glyph-name="oslash" unicode="&#xf8;" horiz-adv-x="1152" 
d="M814 787l-384 -582.999c42 -24.667 90.667 -37 146 -37c92 0 163.833 33 215.5 99s77.5 158.333 77.5 277c0 99.333 -18.333 180.666 -55 243.999zM341 293.001l389 585c-44.667 28 -96 42 -154 42c-92 0 -164 -33.333 -216 -100s-78 -159 -78 -277
c0 -102.667 19.667 -186 59 -250zM1003 1074l-70.001 -107c104 -100 156 -241.333 156 -424c0 -170.667 -46.167 -306 -138.5 -406s-217.166 -150 -374.499 -150c-94 0 -178 19 -252 57l-61 -93l-104 67l64 97c-107.333 100 -161 242.667 -161 428
c0 170 46.5 305.333 139.5 406s217.833 151 374.5 151c100 0 186.667 -20.667 260 -62l65 98z" />
    <glyph glyph-name="ugrave" unicode="&#xf9;" horiz-adv-x="1168" 
d="M667 1255h-178l-262 303h225zM1057 1086l-0.000976562 -1086h-207v186h-4c-31.333 -64.667 -77 -113.834 -137 -147.501s-131.333 -50.5 -214 -50.5c-118.667 0 -213.167 36 -283.5 108s-105.5 170 -105.5 294v696h217v-655c0 -83.333 21.333 -146.833 64 -190.5
s103.334 -65.5 182.001 -65.5c81.333 0 146.833 26 196.5 78s74.5 121 74.5 207v626h217z" />
    <glyph glyph-name="uacute" unicode="&#xfa;" horiz-adv-x="1168" 
d="M669 1255h-178l215 303h225zM1057 1086l-0.000976562 -1086h-207v186h-4c-31.333 -64.667 -77 -113.834 -137 -147.501s-131.333 -50.5 -214 -50.5c-118.667 0 -213.167 36 -283.5 108s-105.5 170 -105.5 294v696h217v-655c0 -83.333 21.333 -146.833 64 -190.5
s103.334 -65.5 182.001 -65.5c81.333 0 146.833 26 196.5 78s74.5 121 74.5 207v626h217z" />
    <glyph glyph-name="ucircumflex" unicode="&#xfb;" horiz-adv-x="1168" 
d="M661 1558l273 -307h-185l-164 194h-6l-164 -194h-185l273 307h158zM1057 1086l-0.000976562 -1086h-207v186h-4c-31.333 -64.667 -77 -113.834 -137 -147.501s-131.333 -50.5 -214 -50.5c-118.667 0 -213.167 36 -283.5 108s-105.5 170 -105.5 294v696h217v-655
c0 -83.333 21.333 -146.833 64 -190.5s103.334 -65.5 182.001 -65.5c81.333 0 146.833 26 196.5 78s74.5 121 74.5 207v626h217z" />
    <glyph glyph-name="udieresis" unicode="&#xfc;" horiz-adv-x="1168" 
d="M1057 1086l-0.000976562 -1086h-207v186h-4c-31.333 -64.667 -77 -113.834 -137 -147.501s-131.333 -50.5 -214 -50.5c-118.667 0 -213.167 36 -283.5 108s-105.5 170 -105.5 294v696h217v-655c0 -83.333 21.333 -146.833 64 -190.5s103.334 -65.5 182.001 -65.5
c81.333 0 146.833 26 196.5 78s74.5 121 74.5 207v626h217zM380.999 1260c-33.333 0 -61.833 11.667 -85.5 35s-35.5 51.333 -35.5 84s11.833 60.667 35.5 84s52.167 35 85.5 35s61.666 -11.5 84.999 -34.5s35 -51.167 35 -84.5c0 -32.667 -11.667 -60.667 -35 -84
s-51.666 -35 -84.999 -35zM783.999 1260c-33.333 0 -61.833 11.667 -85.5 35s-35.5 51.333 -35.5 84s11.833 60.667 35.5 84s52.167 35 85.5 35s61.666 -11.5 84.999 -34.5s35 -51.167 35 -84.5c0 -32.667 -11.667 -60.667 -35 -84s-51.666 -35 -84.999 -35z" />
    <glyph glyph-name="yacute" unicode="&#xfd;" horiz-adv-x="1066" 
d="M220 -395c-36 0 -65.334 2.00098 -88.001 6.00098v176c13.333 -3.33301 36.333 -5 69 -5c52 0 93.167 12.167 123.5 36.5s54.833 65.166 73.5 122.499l17 56l-394 1089h233l279 -888h5l279 888h228l-407 -1136c-46.667 -130 -100.167 -220 -160.5 -270
s-146.166 -75 -257.499 -75zM620.999 1255h-178l215 303h225z" />
    <glyph glyph-name="thorn" unicode="&#xfe;" horiz-adv-x="1201" 
d="M686 1105c138.667 0 248.498 -50.501 329.498 -151.501s121.5 -237.833 121.5 -410.5c0 -171.333 -40.667 -307.666 -122 -408.999s-190.666 -152 -327.999 -152c-77.333 0 -145.666 16 -204.999 48s-103 76.667 -131 134h-16v-519h-215v1861h209v-600h16
c33.333 62 80 110.667 140 146s127 53 201 53zM623.998 165.999c91.333 0 162.835 33.334 214.502 100.001s77.5 159 77.5 277s-25.833 210.5 -77.5 277.5s-122.834 100.5 -213.501 100.5s-162.334 -33.833 -215.001 -101.5s-79 -159.834 -79 -276.501
c0 -116 26.333 -207.833 79 -275.5s124 -101.5 214 -101.5z" />
    <glyph glyph-name="ydieresis" unicode="&#xff;" horiz-adv-x="1066" 
d="M220 -395c-36 0 -65.334 2.00098 -88.001 6.00098v176c13.333 -3.33301 36.333 -5 69 -5c52 0 93.167 12.167 123.5 36.5s54.833 65.166 73.5 122.499l17 56l-394 1089h233l279 -888h5l279 888h228l-407 -1136c-46.667 -130 -100.167 -220 -160.5 -270
s-146.166 -75 -257.499 -75zM332.999 1260c-33.333 0 -61.833 11.667 -85.5 35s-35.5 51.333 -35.5 84s11.833 60.667 35.5 84s52.167 35 85.5 35s61.666 -11.5 84.999 -34.5s35 -51.167 35 -84.5c0 -32.667 -11.667 -60.667 -35 -84s-51.666 -35 -84.999 -35zM735.999 1260
c-33.333 0 -61.833 11.667 -85.5 35s-35.5 51.333 -35.5 84s11.833 60.667 35.5 84s52.167 35 85.5 35s61.666 -11.5 84.999 -34.5s35 -51.167 35 -84.5c0 -32.667 -11.667 -60.667 -35 -84s-51.666 -35 -84.999 -35z" />
    <glyph glyph-name="Amacron" unicode="&#x100;" horiz-adv-x="1336" 
d="M1073 0l-132 390h-550l-132 -390h-233l521 1443h242l521 -1443h-237zM663 1203l-215 -633h436l-215 633h-6zM995 1755v-119h-654v119h654z" />
    <glyph glyph-name="amacron" unicode="&#x101;" horiz-adv-x="1092" 
d="M488 162c80.667 0 148 23.168 202 69.501s81 105.166 81 176.499v85l-264 -18c-150 -9.33301 -225 -62.666 -225 -159.999c0 -46.667 18.667 -83.834 56 -111.501s87.333 -41.5 150 -41.5zM430 -10.999c-108.667 0 -196.999 29.501 -264.999 88.501
s-102 136.833 -102 233.5c0 94.667 35.5 169 106.5 223s173.833 85.333 308.5 94l293 17v84c0 62 -19.833 109.5 -59.5 142.5s-95.834 49.5 -168.501 49.5c-58.667 0 -108.167 -14 -148.5 -42s-65.166 -65.667 -74.499 -113h-203c3.33301 96 45.666 175.667 126.999 239
s183 95 305 95c132.667 0 238.5 -32.333 317.5 -97s118.5 -150.667 118.5 -258v-745h-207v181h-5c-30 -58.667 -76 -105.334 -138 -140.001s-130.333 -52 -205 -52zM868.001 1431v-119h-646v119h646z" />
    <glyph glyph-name="Abreve" unicode="&#x102;" horiz-adv-x="1336" 
d="M1073 0l-132 390h-550l-132 -390h-233l521 1443h242l521 -1443h-237zM663 1203l-215 -633h436l-215 633h-6zM343 1853h140.004c0 -53.333 17.5 -98 52.5 -134s79.167 -54 132.5 -54s97.5 18 132.5 54s52.5 80.667 52.5 134h140
c-0.666992 -89.333 -30.834 -162.666 -90.501 -219.999s-137.834 -86 -234.501 -86s-174.834 28.667 -234.501 86s-89.834 130.666 -90.501 219.999z" />
    <glyph glyph-name="abreve" unicode="&#x103;" horiz-adv-x="1092" 
d="M488 162c80.667 0 148 23.168 202 69.501s81 105.166 81 176.499v85l-264 -18c-150 -9.33301 -225 -62.666 -225 -159.999c0 -46.667 18.667 -83.834 56 -111.501s87.333 -41.5 150 -41.5zM430 -10.999c-108.667 0 -196.999 29.501 -264.999 88.501
s-102 136.833 -102 233.5c0 94.667 35.5 169 106.5 223s173.833 85.333 308.5 94l293 17v84c0 62 -19.833 109.5 -59.5 142.5s-95.834 49.5 -168.501 49.5c-58.667 0 -108.167 -14 -148.5 -42s-65.166 -65.667 -74.499 -113h-203c3.33301 96 45.666 175.667 126.999 239
s183 95 305 95c132.667 0 238.5 -32.333 317.5 -97s118.5 -150.667 118.5 -258v-745h-207v181h-5c-30 -58.667 -76 -105.334 -138 -140.001s-130.333 -52 -205 -52zM209.001 1557h143c0.666992 -54.667 19.167 -100.5 55.5 -137.5s81.833 -55.5 136.5 -55.5
s100.167 18.5 136.5 55.5s54.833 82.833 55.5 137.5h143c-0.666992 -92.667 -31.667 -168.167 -93 -226.5s-142 -87.5 -242 -87.5s-180.667 29.167 -242 87.5s-92.333 133.833 -93 226.5z" />
    <glyph glyph-name="Aogonek" unicode="&#x104;" horiz-adv-x="1336" 
d="M1195 -440c-70.667 0 -128.5 21.167 -173.5 63.5s-67.5 96.5 -67.5 162.5c0 92.667 46.667 170 140 232h-26l-127 372h-550l-132 -390h-233l521 1443h242l517 -1432h-20c-104.667 -48 -157 -111.333 -157 -190c0 -34 11 -61.667 33 -83s50.667 -32 86 -32
c15.333 0 33 1.33301 53 4v-136c-28 -9.33301 -63.333 -14 -106 -14zM659 1192l-211 -622h436l-211 622h-14z" />
    <glyph glyph-name="aogonek" unicode="&#x105;" horiz-adv-x="1092" 
d="M885 -440c-70.667 0 -127.833 20.1689 -171.5 60.502s-65.5 92.833 -65.5 157.5c0 98 52 178.333 156 241h-26v162h-5c-30 -58.667 -76 -105.334 -138 -140.001s-130.333 -52 -205 -52c-109.333 0 -197.833 29.667 -265.5 89s-101.5 137 -101.5 233
c0 94.667 35.5 169 106.5 223s173.833 85.333 308.5 94l293 17v84c0 61.333 -19.667 108.666 -59 141.999s-95.666 50 -168.999 50c-58.667 0 -108.167 -14 -148.5 -42s-65.166 -65.667 -74.499 -113h-203c3.33301 96.667 45.666 176.5 126.999 239.5s183 94.5 305 94.5
c132 0 237.667 -32.333 317 -97s119 -150.667 119 -258v-729h-10c-104 -48.667 -156 -113.667 -156 -195c0 -34.667 10.667 -62.5 32 -83.5s49.666 -31.5 84.999 -31.5c14 0 30.333 1.33301 49 4v-136c-28 -9.33301 -61.333 -14 -100 -14zM488.001 162.002
c81.333 0 148.833 23.332 202.5 69.999s80.5 105.334 80.5 176.001v85l-264 -18c-150 -9.33301 -225 -62.666 -225 -159.999c0 -46.667 18.667 -83.834 56 -111.501s87.333 -41.5 150 -41.5z" />
    <glyph glyph-name="Cacute" unicode="&#x106;" horiz-adv-x="1424" 
d="M826 1553h-176l231 303h225zM742 -24c-202.667 0 -363.502 67 -482.502 201s-178.5 315.667 -178.5 545c0 228 59.667 409.167 179 543.5s280 201.5 482 201.5c164 0 302.333 -46.167 415 -138.5s178.334 -213.5 197.001 -363.5h-222
c-20 92.667 -65.5 166.834 -136.5 222.501s-155.5 83.5 -253.5 83.5c-131.333 0 -236.166 -49.833 -314.499 -149.5s-117.5 -232.834 -117.5 -399.501c0 -168.667 39 -302.5 117 -401.5s183.333 -148.5 316 -148.5c100 0 184.167 24.333 252.5 73s113.833 116.667 136.5 204
h223c-27.333 -149.333 -94.833 -265.5 -202.5 -348.5s-244.5 -124.5 -410.5 -124.5z" />
    <glyph glyph-name="cacute" unicode="&#x107;" horiz-adv-x="1089" 
d="M1039 715l-206.999 -0.00195312c-10.667 60 -38.5 108.667 -83.5 146s-103.5 56 -175.5 56c-88 0 -158.5 -34 -211.5 -102s-79.5 -158.667 -79.5 -272c0 -116 26.667 -207.333 80 -274s124 -100 212 -100c70.667 0 128.5 16.833 173.5 50.5s73.833 82.167 86.5 145.5h207
c-12.667 -114 -61.334 -205.5 -146.001 -274.5s-192 -103.5 -322 -103.5c-154.667 0 -278.5 50 -371.5 150s-139.5 235.333 -139.5 406c0 168.667 46.333 303.667 139 405s216 152 370 152c67.333 0 129.666 -10.167 186.999 -30.5s105.5 -48.166 144.5 -83.499
s70.333 -76.166 94 -122.499s37.834 -95.833 42.501 -148.5zM653.001 1255h-178l215 303h225z" />
    <glyph glyph-name="Ccircumflex" unicode="&#x108;" horiz-adv-x="1424" 
d="M742 -24c-202.667 0 -363.502 67 -482.502 201s-178.5 315.667 -178.5 545c0 228 59.667 409.167 179 543.5s280 201.5 482 201.5c164 0 302.333 -46.167 415 -138.5s178.334 -213.5 197.001 -363.5h-222c-20 92.667 -65.5 166.834 -136.5 222.501
s-155.5 83.5 -253.5 83.5c-131.333 0 -236.166 -49.833 -314.499 -149.5s-117.5 -232.834 -117.5 -399.501c0 -168.667 39 -302.5 117 -401.5s183.333 -148.5 316 -148.5c100 0 184.167 24.333 252.5 73s113.833 116.667 136.5 204h223
c-27.333 -149.333 -94.833 -265.5 -202.5 -348.5s-244.5 -124.5 -410.5 -124.5zM651.998 1855h172l286 -306h-188l-182 200h-4l-182 -200h-188z" />
    <glyph glyph-name="ccircumflex" unicode="&#x109;" horiz-adv-x="1089" 
d="M645 1558l273 -307h-185l-164 194h-6l-164 -194h-185l273 307h158zM1039 715l-206.999 -0.00195312c-10.667 60 -38.5 108.667 -83.5 146s-103.5 56 -175.5 56c-88 0 -158.5 -34 -211.5 -102s-79.5 -158.667 -79.5 -272c0 -116 26.667 -207.333 80 -274
s124 -100 212 -100c70.667 0 128.5 16.833 173.5 50.5s73.833 82.167 86.5 145.5h207c-12.667 -114 -61.334 -205.5 -146.001 -274.5s-192 -103.5 -322 -103.5c-154.667 0 -278.5 50 -371.5 150s-139.5 235.333 -139.5 406c0 168.667 46.333 303.667 139 405
s216 152 370 152c67.333 0 129.666 -10.167 186.999 -30.5s105.5 -48.166 144.5 -83.499s70.333 -76.166 94 -122.499s37.834 -95.833 42.501 -148.5z" />
    <glyph glyph-name="Cdotaccent" unicode="&#x10a;" horiz-adv-x="1424" 
d="M738 1578c-36.667 0 -67.667 12.833 -93 38.5s-38 56.5 -38 92.5c0 36.667 12.667 67.667 38 93s56.333 38 93 38s67.667 -12.667 93 -38s38 -56.333 38 -93c0 -36 -12.667 -66.833 -38 -92.5s-56.333 -38.5 -93 -38.5zM742 -24c-202.667 0 -363.502 67 -482.502 201
s-178.5 315.667 -178.5 545c0 228 59.667 409.167 179 543.5s280 201.5 482 201.5c164 0 302.333 -46.167 415 -138.5s178.334 -213.5 197.001 -363.5h-222c-20 92.667 -65.5 166.834 -136.5 222.501s-155.5 83.5 -253.5 83.5c-131.333 0 -236.166 -49.833 -314.499 -149.5
s-117.5 -232.834 -117.5 -399.501c0 -168.667 39 -302.5 117 -401.5s183.333 -148.5 316 -148.5c100 0 184.167 24.333 252.5 73s113.833 116.667 136.5 204h223c-27.333 -149.333 -94.833 -265.5 -202.5 -348.5s-244.5 -124.5 -410.5 -124.5z" />
    <glyph glyph-name="cdotaccent" unicode="&#x10b;" horiz-adv-x="1089" 
d="M1039 715l-206.999 -0.00195312c-10.667 60 -38.5 108.667 -83.5 146s-103.5 56 -175.5 56c-88 0 -158.5 -34 -211.5 -102s-79.5 -158.667 -79.5 -272c0 -116 26.667 -207.333 80 -274s124 -100 212 -100c70.667 0 128.5 16.833 173.5 50.5s73.833 82.167 86.5 145.5h207
c-12.667 -114 -61.334 -205.5 -146.001 -274.5s-192 -103.5 -322 -103.5c-154.667 0 -278.5 50 -371.5 150s-139.5 235.333 -139.5 406c0 168.667 46.333 303.667 139 405s216 152 370 152c67.333 0 129.666 -10.167 186.999 -30.5s105.5 -48.166 144.5 -83.499
s70.333 -76.166 94 -122.499s37.834 -95.833 42.501 -148.5zM566.001 1262c-36.667 0 -68.167 13 -94.5 39s-39.5 57 -39.5 93c0 36.667 13.167 68 39.5 94s57.833 39 94.5 39s68 -13 94 -39s39 -57.333 39 -94c0 -36 -13 -67 -39 -93s-57.333 -39 -94 -39z" />
    <glyph glyph-name="Ccaron" unicode="&#x10c;" horiz-adv-x="1424" 
d="M742 -24c-202.667 0 -363.502 67 -482.502 201s-178.5 315.667 -178.5 545c0 228 59.667 409.167 179 543.5s280 201.5 482 201.5c164 0 302.333 -46.167 415 -138.5s178.334 -213.5 197.001 -363.5h-222c-20 92.667 -65.5 166.834 -136.5 222.501
s-155.5 83.5 -253.5 83.5c-131.333 0 -236.166 -49.833 -314.499 -149.5s-117.5 -232.834 -117.5 -399.501c0 -168.667 39 -302.5 117 -401.5s183.333 -148.5 316 -148.5c100 0 184.167 24.333 252.5 73s113.833 116.667 136.5 204h223
c-27.333 -149.333 -94.833 -265.5 -202.5 -348.5s-244.5 -124.5 -410.5 -124.5zM651.998 1549l-286 306h188l182 -199h4l182 199h188l-286 -306h-172z" />
    <glyph glyph-name="ccaron" unicode="&#x10d;" horiz-adv-x="1089" 
d="M645 1251h-158l-273 307h185l164 -194h6l164 194h185zM1039 715l-206.999 -0.00195312c-10.667 60 -38.5 108.667 -83.5 146s-103.5 56 -175.5 56c-88 0 -158.5 -34 -211.5 -102s-79.5 -158.667 -79.5 -272c0 -116 26.667 -207.333 80 -274s124 -100 212 -100
c70.667 0 128.5 16.833 173.5 50.5s73.833 82.167 86.5 145.5h207c-12.667 -114 -61.334 -205.5 -146.001 -274.5s-192 -103.5 -322 -103.5c-154.667 0 -278.5 50 -371.5 150s-139.5 235.333 -139.5 406c0 168.667 46.333 303.667 139 405s216 152 370 152
c67.333 0 129.666 -10.167 186.999 -30.5s105.5 -48.166 144.5 -83.499s70.333 -76.166 94 -122.499s37.834 -95.833 42.501 -148.5z" />
    <glyph glyph-name="Dcaron" unicode="&#x10e;" horiz-adv-x="1413" 
d="M498 1547l-286 306h188l182 -199h4l182 199h188l-286 -306h-172zM133 1443h517c215.333 0 383 -63 503 -189s180 -302.667 180 -530c0 -228 -60 -405.667 -180 -533s-287.667 -191 -503 -191h-517v1443zM357 1250v-1056h272c153.333 0 271 45.5 353 136.5
s123 221.5 123 391.5s-41 300.5 -123 391.5s-199.667 136.5 -353 136.5h-272z" />
    <glyph glyph-name="dcaron" unicode="&#x10f;" horiz-adv-x="1358" 
d="M1232 1506h168l-34 -493h-134v493zM520 -11c-136.667 0 -247.166 50.668 -331.499 152.001s-126.5 235.666 -126.5 402.999c0 166 42.167 299.667 126.5 401s194.166 152 329.499 152c77.333 0 145.833 -16.833 205.5 -50.5s105.167 -80.5 136.5 -140.5h5v602h216v-1508
h-210v184h-4c-32 -62 -78.167 -110 -138.5 -144s-129.833 -51 -208.5 -51zM575.001 913.001c-87.333 0 -157.665 -33.667 -210.998 -101s-80 -157 -80 -269c0 -112.667 26.5 -202.5 79.5 -269.5s123.5 -100.5 211.5 -100.5c87.333 0 157.666 34 210.999 102
s80 157.333 80 268s-26.833 200 -80.5 268s-123.834 102 -210.501 102z" />
    <glyph glyph-name="Dcroat" unicode="&#x110;" horiz-adv-x="1526" 
d="M426 194h272c153.333 0 271 45.5 353 136.5s123 221.5 123 391.5s-41 300.5 -123 391.5s-199.667 136.5 -353 136.5h-272v-418h273v-184h-273v-454zM202 1443h517c215.333 0 383 -63 503 -189s180 -302.667 180 -530c0 -228 -60 -405.667 -180 -533
s-287.667 -191 -503 -191h-517v648h-114v184h114v611z" />
    <glyph glyph-name="dcroat" unicode="&#x111;" horiz-adv-x="1241" 
d="M595 166c90.667 0 162.167 33.5 214.5 100.5s78.5 159.167 78.5 276.5c0 116 -26.167 208 -78.5 276s-123.833 102 -214.5 102s-161.834 -33.5 -213.501 -100.5s-77.5 -159.5 -77.5 -277.5s25.833 -210.333 77.5 -277s122.834 -100 213.501 -100zM1213 1411v-133.001
h-114v-1278h-208v172h-17c-32 -59.333 -77.833 -105.833 -137.5 -139.5s-127.5 -50.5 -203.5 -50.5c-138 0 -247.667 50.5 -329 151.5s-122 237.833 -122 410.5c0 170.667 41 306.834 123 408.501s191.667 152.5 329 152.5c75.333 0 142.5 -17 201.5 -51
s103.5 -80.667 133.5 -140h16v364h-247v133h247v150h214v-150h114z" />
    <glyph glyph-name="Emacron" unicode="&#x112;" horiz-adv-x="1146" 
d="M1049 194v-194h-916v1443h916v-193h-692v-422h655v-186h-655v-448h692zM918 1755v-119h-654v119h654z" />
    <glyph glyph-name="emacron" unicode="&#x113;" horiz-adv-x="1113" 
d="M563 923c-78 0 -142.833 -26 -194.5 -78s-80.5 -119.667 -86.5 -203h551c-2.66699 84.667 -28.667 152.667 -78 204s-113.333 77 -192 77zM832 318h207.001c-15.333 -97.333 -66.333 -176.833 -153 -238.5s-191 -92.5 -313 -92.5c-157.333 0 -281.833 49.5 -373.5 148.5
s-137.5 233.5 -137.5 403.5s45.667 306 137 408s213 153 365 153c149.333 0 267.666 -48.167 354.999 -144.5s131 -226.833 131 -391.5v-76h-769v-13c0 -94 27 -169.5 81 -226.5s125.667 -85.5 215 -85.5c63.333 0 118 14 164 42s76.333 65.667 91 113zM887.001 1431v-119
h-646v119h646z" />
    <glyph glyph-name="Ebreve" unicode="&#x114;" horiz-adv-x="1146" 
d="M1049 194v-194h-916v1443h916v-193h-692v-422h655v-186h-655v-448h692zM266 1853h140.004c0 -53.333 17.5 -98 52.5 -134s79.167 -54 132.5 -54s97.5 18 132.5 54s52.5 80.667 52.5 134h140c-0.666992 -89.333 -30.834 -162.666 -90.501 -219.999
s-137.834 -86 -234.501 -86s-174.834 28.667 -234.501 86s-89.834 130.666 -90.501 219.999z" />
    <glyph glyph-name="ebreve" unicode="&#x115;" horiz-adv-x="1113" 
d="M563 923c-78 0 -142.833 -26 -194.5 -78s-80.5 -119.667 -86.5 -203h551c-2.66699 84.667 -28.667 152.667 -78 204s-113.333 77 -192 77zM832 318h207.001c-15.333 -97.333 -66.333 -176.833 -153 -238.5s-191 -92.5 -313 -92.5c-157.333 0 -281.833 49.5 -373.5 148.5
s-137.5 233.5 -137.5 403.5s45.667 306 137 408s213 153 365 153c149.333 0 267.666 -48.167 354.999 -144.5s131 -226.833 131 -391.5v-76h-769v-13c0 -94 27 -169.5 81 -226.5s125.667 -85.5 215 -85.5c63.333 0 118 14 164 42s76.333 65.667 91 113zM228.001 1557h143
c0.666992 -54.667 19.167 -100.5 55.5 -137.5s81.833 -55.5 136.5 -55.5s100.167 18.5 136.5 55.5s54.833 82.833 55.5 137.5h143c-0.666992 -92.667 -31.667 -168.167 -93 -226.5s-142 -87.5 -242 -87.5s-180.667 29.167 -242 87.5s-92.333 133.833 -93 226.5z" />
    <glyph glyph-name="Edotaccent" unicode="&#x116;" horiz-adv-x="1146" 
d="M591 1576c-36.667 0 -67.667 12.833 -93 38.5s-38 56.5 -38 92.5c0 36.667 12.667 67.667 38 93s56.333 38 93 38s67.667 -12.667 93 -38s38 -56.333 38 -93c0 -36 -12.667 -66.833 -38 -92.5s-56.333 -38.5 -93 -38.5zM1049 194v-194h-916v1443h916v-193h-692v-422h655
v-186h-655v-448h692z" />
    <glyph glyph-name="edotaccent" unicode="&#x117;" horiz-adv-x="1113" 
d="M564 1262c-36.667 0 -68.167 13 -94.5 39s-39.5 57 -39.5 93c0 36.667 13.167 68 39.5 94s57.833 39 94.5 39s68 -13 94 -39s39 -57.333 39 -94c0 -36 -13 -67 -39 -93s-57.333 -39 -94 -39zM563 923c-78 0 -142.833 -26 -194.5 -78s-80.5 -119.667 -86.5 -203h551
c-2.66699 84.667 -28.667 152.667 -78 204s-113.333 77 -192 77zM832 318h207.001c-15.333 -97.333 -66.333 -176.833 -153 -238.5s-191 -92.5 -313 -92.5c-157.333 0 -281.833 49.5 -373.5 148.5s-137.5 233.5 -137.5 403.5s45.667 306 137 408s213 153 365 153
c149.333 0 267.666 -48.167 354.999 -144.5s131 -226.833 131 -391.5v-76h-769v-13c0 -94 27 -169.5 81 -226.5s125.667 -85.5 215 -85.5c63.333 0 118 14 164 42s76.333 65.667 91 113z" />
    <glyph glyph-name="Eogonek" unicode="&#x118;" horiz-adv-x="1146" 
d="M807 0l-674 -0.000976562v1443h916v-193h-692v-422h655v-186h-655v-448h692v-159c-129.333 -59.333 -194 -132.666 -194 -219.999c0 -32.667 11 -59 33 -79s51 -30 87 -30c31.333 0 56 3 74 9v-134c-24.667 -14 -67 -21 -127 -21c-74 0 -133.333 19.667 -178 59
s-67 91.333 -67 156c0 88 43.333 163 130 225z" />
    <glyph glyph-name="eogonek" unicode="&#x119;" horiz-adv-x="1113" 
d="M757 -440c-68 0 -123.832 20.167 -167.499 60.5s-65.5 91.833 -65.5 154.5c0 40.667 8.5 77.667 25.5 111s44.5 67.333 82.5 102v2c-14.667 -2 -34.334 -3 -59.001 -3c-157.333 0 -281.833 49.5 -373.5 148.5s-137.5 233.5 -137.5 403.5s45.667 306 137 408
s213 153 365 153c149.333 0 267.666 -48.167 354.999 -144.5s131 -226.833 131 -391.5v-76h-769v-13c0 -94 27 -169.5 81 -226.5s125.667 -85.5 215 -85.5c63.333 0 117.833 14 163.5 42s76.167 65.667 91.5 113h207c-7.33301 -48.667 -26.666 -95.167 -57.999 -139.5
s-75.666 -90.833 -132.999 -139.5c-52.667 -44 -91.334 -83.167 -116.001 -117.5s-37 -69.166 -37 -104.499c0 -30.667 10.833 -55.834 32.5 -75.501s49.167 -29.5 82.5 -29.5c30 0 55 3 75 9v-141c-25.333 -13.333 -68 -20 -128 -20zM563.001 923
c-78 0 -142.833 -26 -194.5 -78s-80.5 -119.667 -86.5 -203h551c-2.66699 84.667 -28.667 152.667 -78 204s-113.333 77 -192 77z" />
    <glyph glyph-name="Ecaron" unicode="&#x11a;" horiz-adv-x="1146" 
d="M505 1547l-286 306h188l182 -199h4l182 199h188l-286 -306h-172zM1049 194v-194h-916v1443h916v-193h-692v-422h655v-186h-655v-448h692z" />
    <glyph glyph-name="ecaron" unicode="&#x11b;" horiz-adv-x="1113" 
d="M643 1251h-158l-273 307h185l164 -194h6l164 194h185zM563 923c-78 0 -142.833 -26 -194.5 -78s-80.5 -119.667 -86.5 -203h551c-2.66699 84.667 -28.667 152.667 -78 204s-113.333 77 -192 77zM832 318h207.001c-15.333 -97.333 -66.333 -176.833 -153 -238.5
s-191 -92.5 -313 -92.5c-157.333 0 -281.833 49.5 -373.5 148.5s-137.5 233.5 -137.5 403.5s45.667 306 137 408s213 153 365 153c149.333 0 267.666 -48.167 354.999 -144.5s131 -226.833 131 -391.5v-76h-769v-13c0 -94 27 -169.5 81 -226.5s125.667 -85.5 215 -85.5
c63.333 0 118 14 164 42s76.333 65.667 91 113z" />
    <glyph glyph-name="Gcircumflex" unicode="&#x11c;" horiz-adv-x="1462" 
d="M661 1853h172l286 -306h-188l-182 200h-4l-182 -200h-188zM1376 600c0 -195.333 -54.834 -348.164 -164.501 -458.497s-262.167 -165.5 -457.5 -165.5c-206.667 0 -370.5 67.5 -491.5 202.5s-181.5 318.167 -181.5 549.5c0 227.333 60.167 407.333 180.5 540
s283.5 199 489.5 199c160.667 0 296.834 -43.667 408.501 -131s180.167 -203 205.5 -347h-230c-26.667 89.333 -73.667 158.666 -141 207.999s-148 74 -242 74c-138 0 -246.167 -47.833 -324.5 -143.5s-117.5 -228.167 -117.5 -397.5c0 -172.667 40 -308.834 120 -408.501
s188.667 -149.5 326 -149.5c116.667 0 212 34.167 286 102.5s111.667 157.166 113 266.499v25h-373v181h594v-147z" />
    <glyph glyph-name="gcircumflex" unicode="&#x11d;" horiz-adv-x="1192" 
d="M653 1558l273 -307h-185l-164 194h-6l-164 -194h-185l273 307h158zM572 183c88 0 158.833 33.1689 212.5 99.502s80.5 154.166 80.5 263.499c0 110 -26.833 198.667 -80.5 266s-124.5 101 -212.5 101c-87.333 0 -157.166 -33.333 -209.499 -100
s-78.5 -155.667 -78.5 -267c0 -110.667 26.167 -198.834 78.5 -264.501s122.166 -98.5 209.499 -98.5zM573 -390.998c-130.667 0 -238.669 28 -324.002 84s-133.333 130.333 -144 223h219c12 -42 41.333 -75.333 88 -100s103.334 -37 170.001 -37c86 0 154.667 21 206 63
s77 98.333 77 169v179h-5c-31.333 -58.667 -77.5 -104.5 -138.5 -137.5s-129.833 -49.5 -206.5 -49.5c-136 0 -245.5 49.5 -328.5 148.5s-124.5 230.833 -124.5 395.5c0 167.333 41.5 300.833 124.5 400.5s194.167 149.5 333.5 149.5
c76.667 0 145.334 -16.833 206.001 -50.5s107.667 -80.5 141 -140.5h4v180h210v-1058c0 -129.333 -45.5 -231.5 -136.5 -306.5s-214.833 -112.5 -371.5 -112.5z" />
    <glyph glyph-name="Gbreve" unicode="&#x11e;" horiz-adv-x="1462" 
d="M1376 600c0 -195.333 -54.834 -348.164 -164.501 -458.497s-262.167 -165.5 -457.5 -165.5c-206.667 0 -370.5 67.5 -491.5 202.5s-181.5 318.167 -181.5 549.5c0 227.333 60.167 407.333 180.5 540s283.5 199 489.5 199c160.667 0 296.834 -43.667 408.501 -131
s180.167 -203 205.5 -347h-230c-26.667 89.333 -73.667 158.666 -141 207.999s-148 74 -242 74c-138 0 -246.167 -47.833 -324.5 -143.5s-117.5 -228.167 -117.5 -397.5c0 -172.667 40 -308.834 120 -408.501s188.667 -149.5 326 -149.5c116.667 0 212 34.167 286 102.5
s111.667 157.166 113 266.499v25h-373v181h594v-147zM421.999 1853h140.004c0 -53.333 17.5 -98 52.5 -134s79.167 -54 132.5 -54s97.5 18 132.5 54s52.5 80.667 52.5 134h140c-0.666992 -89.333 -30.834 -162.666 -90.501 -219.999s-137.834 -86 -234.501 -86
s-174.834 28.667 -234.501 86s-89.834 130.666 -90.501 219.999z" />
    <glyph glyph-name="gbreve" unicode="&#x11f;" horiz-adv-x="1192" 
d="M238 1557h143c0.666992 -54.667 19.167 -100.5 55.5 -137.5s81.833 -55.5 136.5 -55.5s100.167 18.5 136.5 55.5s54.833 82.833 55.5 137.5h143c-0.666992 -92.667 -31.667 -168.167 -93 -226.5s-142 -87.5 -242 -87.5s-180.667 29.167 -242 87.5
s-92.333 133.833 -93 226.5zM572 183c88 0 158.833 33.1689 212.5 99.502s80.5 154.166 80.5 263.499c0 110 -26.833 198.667 -80.5 266s-124.5 101 -212.5 101c-87.333 0 -157.166 -33.333 -209.499 -100s-78.5 -155.667 -78.5 -267
c0 -110.667 26.167 -198.834 78.5 -264.501s122.166 -98.5 209.499 -98.5zM573 -390.998c-130.667 0 -238.669 28 -324.002 84s-133.333 130.333 -144 223h219c12 -42 41.333 -75.333 88 -100s103.334 -37 170.001 -37c86 0 154.667 21 206 63s77 98.333 77 169v179h-5
c-31.333 -58.667 -77.5 -104.5 -138.5 -137.5s-129.833 -49.5 -206.5 -49.5c-136 0 -245.5 49.5 -328.5 148.5s-124.5 230.833 -124.5 395.5c0 167.333 41.5 300.833 124.5 400.5s194.167 149.5 333.5 149.5c76.667 0 145.334 -16.833 206.001 -50.5
s107.667 -80.5 141 -140.5h4v180h210v-1058c0 -129.333 -45.5 -231.5 -136.5 -306.5s-214.833 -112.5 -371.5 -112.5z" />
    <glyph glyph-name="Gdotaccent" unicode="&#x120;" horiz-adv-x="1462" 
d="M747 1576c-36.667 0 -67.667 12.833 -93 38.5s-38 56.5 -38 92.5c0 36.667 12.667 67.667 38 93s56.333 38 93 38s67.667 -12.667 93 -38s38 -56.333 38 -93c0 -36 -12.667 -66.833 -38 -92.5s-56.333 -38.5 -93 -38.5zM1376 600
c0 -195.333 -54.834 -348.164 -164.501 -458.497s-262.167 -165.5 -457.5 -165.5c-206.667 0 -370.5 67.5 -491.5 202.5s-181.5 318.167 -181.5 549.5c0 227.333 60.167 407.333 180.5 540s283.5 199 489.5 199c160.667 0 296.834 -43.667 408.501 -131
s180.167 -203 205.5 -347h-230c-26.667 89.333 -73.667 158.666 -141 207.999s-148 74 -242 74c-138 0 -246.167 -47.833 -324.5 -143.5s-117.5 -228.167 -117.5 -397.5c0 -172.667 40 -308.834 120 -408.501s188.667 -149.5 326 -149.5c116.667 0 212 34.167 286 102.5
s111.667 157.166 113 266.499v25h-373v181h594v-147z" />
    <glyph glyph-name="gdotaccent" unicode="&#x121;" horiz-adv-x="1192" 
d="M574 1262c-36.667 0 -68.167 13 -94.5 39s-39.5 57 -39.5 93c0 36.667 13.167 68 39.5 94s57.833 39 94.5 39s68 -13 94 -39s39 -57.333 39 -94c0 -36 -13 -67 -39 -93s-57.333 -39 -94 -39zM572 183c88 0 158.833 33.1689 212.5 99.502s80.5 154.166 80.5 263.499
c0 110 -26.833 198.667 -80.5 266s-124.5 101 -212.5 101c-87.333 0 -157.166 -33.333 -209.499 -100s-78.5 -155.667 -78.5 -267c0 -110.667 26.167 -198.834 78.5 -264.501s122.166 -98.5 209.499 -98.5zM573 -390.998c-130.667 0 -238.669 28 -324.002 84
s-133.333 130.333 -144 223h219c12 -42 41.333 -75.333 88 -100s103.334 -37 170.001 -37c86 0 154.667 21 206 63s77 98.333 77 169v179h-5c-31.333 -58.667 -77.5 -104.5 -138.5 -137.5s-129.833 -49.5 -206.5 -49.5c-136 0 -245.5 49.5 -328.5 148.5
s-124.5 230.833 -124.5 395.5c0 167.333 41.5 300.833 124.5 400.5s194.167 149.5 333.5 149.5c76.667 0 145.334 -16.833 206.001 -50.5s107.667 -80.5 141 -140.5h4v180h210v-1058c0 -129.333 -45.5 -231.5 -136.5 -306.5s-214.833 -112.5 -371.5 -112.5z" />
    <glyph glyph-name="Gcommaaccent" unicode="&#x122;" horiz-adv-x="1462" 
d="M730 -526h-159l102 360h190zM1376 600c0 -195.333 -54.834 -348.164 -164.501 -458.497s-262.167 -165.5 -457.5 -165.5c-206.667 0 -370.5 67.5 -491.5 202.5s-181.5 318.167 -181.5 549.5c0 227.333 60.167 407.333 180.5 540s283.5 199 489.5 199
c160.667 0 296.834 -43.667 408.501 -131s180.167 -203 205.5 -347h-230c-26.667 89.333 -73.667 158.666 -141 207.999s-148 74 -242 74c-138 0 -246.167 -47.833 -324.5 -143.5s-117.5 -228.167 -117.5 -397.5c0 -172.667 40 -308.834 120 -408.501
s188.667 -149.5 326 -149.5c116.667 0 212 34.167 286 102.5s111.667 157.166 113 266.499v25h-373v181h594v-147z" />
    <glyph glyph-name="gcommaaccent" unicode="&#x123;" horiz-adv-x="1192" 
d="M559 -898h-159l102 360h190zM572 183c88 0 158.833 33.1689 212.5 99.502s80.5 154.166 80.5 263.499c0 110 -26.833 198.667 -80.5 266s-124.5 101 -212.5 101c-87.333 0 -157.166 -33.333 -209.499 -100s-78.5 -155.667 -78.5 -267
c0 -110.667 26.167 -198.834 78.5 -264.501s122.166 -98.5 209.499 -98.5zM573 -390.998c-130.667 0 -238.669 28 -324.002 84s-133.333 130.333 -144 223h219c12 -42 41.333 -75.333 88 -100s103.334 -37 170.001 -37c86 0 154.667 21 206 63s77 98.333 77 169v179h-5
c-31.333 -58.667 -77.5 -104.5 -138.5 -137.5s-129.833 -49.5 -206.5 -49.5c-136 0 -245.5 49.5 -328.5 148.5s-124.5 230.833 -124.5 395.5c0 167.333 41.5 300.833 124.5 400.5s194.167 149.5 333.5 149.5c76.667 0 145.334 -16.833 206.001 -50.5
s107.667 -80.5 141 -140.5h4v180h210v-1058c0 -129.333 -45.5 -231.5 -136.5 -306.5s-214.833 -112.5 -371.5 -112.5z" />
    <glyph glyph-name="Hcircumflex" unicode="&#x124;" horiz-adv-x="1454" 
d="M1322 0h-224v639h-741v-639h-224v1443h224v-610h741v610h224v-1443zM641 1853h172l286 -306h-188l-182 200h-4l-182 -200h-188z" />
    <glyph glyph-name="hcircumflex" unicode="&#x125;" horiz-adv-x="1195" 
d="M120 0v1508h215v-605h5c66 130 183.667 195 353 195c119.333 0 215.166 -36.667 287.499 -110s108.5 -171.333 108.5 -294v-694h-216v652c0 81.333 -22.667 145 -68 191s-107.666 69 -186.999 69c-84 0 -151.833 -26.667 -203.5 -80s-77.5 -123.333 -77.5 -210v-622h-217
zM143 1918h172l286 -306h-188l-182 200h-4l-182 -200h-188z" />
    <glyph glyph-name="Hbar" unicode="&#x126;" horiz-adv-x="1470" 
d="M1105 833v234h-741v-234h741zM1454 1234v-167h-125v-1067h-224v639h-741v-639h-224v1067h-124v167h124v209h224v-209h741v209h224v-209h125z" />
    <glyph glyph-name="hbar" unicode="&#x127;" horiz-adv-x="1235" 
d="M354 909l6.99902 0.000976562c32 61.333 78.167 108.166 138.5 140.499s131.5 48.5 213.5 48.5c118.667 0 214.167 -36.667 286.5 -110s108.5 -171.333 108.5 -294v-694h-216v652c0 81.333 -22.667 145 -68 191s-107.666 69 -186.999 69
c-84 0 -151.833 -26.5 -203.5 -79.5s-77.5 -123.167 -77.5 -210.5v-622h-216v1245h-111v134h111v177h214v-177h250v-134h-250v-336z" />
    <glyph glyph-name="Itilde" unicode="&#x128;" horiz-adv-x="490" 
d="M357 0h-224v1443h224v-1443zM378 1537c-30 0 -58.165 7.66699 -84.498 23s-47.333 32 -63 50s-33 34.667 -52 50s-36.833 23 -53.5 23c-22 0 -38.833 -11.5 -50.5 -34.5s-17.834 -54.833 -18.501 -95.5h-129c0 80 17.167 142.833 51.5 188.5s80.833 68.5 139.5 68.5
c31.333 0 60.666 -7.66699 87.999 -23s49 -32 65 -50s33.167 -34.667 51.5 -50s35.5 -23 51.5 -23c42 0 63 44 63 132h130c0 -78.667 -17.5 -141.5 -52.5 -188.5s-80.5 -70.5 -136.5 -70.5z" />
    <glyph glyph-name="itilde" unicode="&#x129;" horiz-adv-x="455" 
d="M119 0v1086h217v-1086h-217zM364 1258c-30 0 -58.165 7.66699 -84.498 23s-47.333 32 -63 50s-33 34.667 -52 50s-36.833 23 -53.5 23c-22 0 -38.833 -11.5 -50.5 -34.5s-17.834 -54.833 -18.501 -95.5h-129c0 80 17.167 142.833 51.5 188.5s80.833 68.5 139.5 68.5
c31.333 0 60.666 -7.66699 87.999 -23s49 -32 65 -50s33.167 -34.667 51.5 -50s35.5 -23 51.5 -23c42 0 63 44 63 132h130c0 -78.667 -17.5 -141.5 -52.5 -188.5s-80.5 -70.5 -136.5 -70.5z" />
    <glyph glyph-name="Imacron" unicode="&#x12a;" horiz-adv-x="490" 
d="M357 0h-224v1443h224v-1443zM572 1755v-119h-654v119h654z" />
    <glyph glyph-name="imacron" unicode="&#x12b;" horiz-adv-x="455" 
d="M119 0v1086h217v-1086h-217zM551 1431v-119h-646v119h646z" />
    <glyph glyph-name="Ibreve" unicode="&#x12c;" horiz-adv-x="490" 
d="M357 0h-224v1443h224v-1443zM-80 1853h140.004c0 -53.333 17.5 -98 52.5 -134s79.167 -54 132.5 -54s97.5 18 132.5 54s52.5 80.667 52.5 134h140c-0.666992 -89.333 -30.834 -162.666 -90.501 -219.999s-137.834 -86 -234.501 -86s-174.834 28.667 -234.501 86
s-89.834 130.666 -90.501 219.999z" />
    <glyph glyph-name="ibreve" unicode="&#x12d;" horiz-adv-x="455" 
d="M119 0v1086h217v-1086h-217zM-108 1557h143c0.666992 -54.667 19.167 -100.5 55.5 -137.5s81.833 -55.5 136.5 -55.5s100.167 18.5 136.5 55.5s54.833 82.833 55.5 137.5h143c-0.666992 -92.667 -31.667 -168.167 -93 -226.5s-142 -87.5 -242 -87.5
s-180.667 29.167 -242 87.5s-92.333 133.833 -93 226.5z" />
    <glyph glyph-name="Iogonek" unicode="&#x12e;" horiz-adv-x="490" 
d="M244 -440c-70.667 0 -127.832 20.167 -171.499 60.5s-65.5 92.833 -65.5 157.5c0 50.667 11.5 95 34.5 133s60.5 74 112.5 108h-21v1424h224v-1432h-20c-106 -50.667 -159 -114 -159 -190c0 -34.667 10.667 -62.5 32 -83.5s49.666 -31.5 84.999 -31.5
c14 0 30.333 1.33301 49 4v-136c-30 -9.33301 -63.333 -14 -100 -14z" />
    <glyph glyph-name="iogonek" unicode="&#x12f;" horiz-adv-x="455" 
d="M228 1241c-35.333 0 -65.333 12.167 -90 36.5s-37 53.833 -37 88.5c0 35.333 12.333 65 37 89s54.667 36 90 36s65.333 -12 90 -36s37 -53.667 37 -89c0 -34.667 -12.333 -64.167 -37 -88.5s-54.667 -36.5 -90 -36.5zM234 -440
c-70.667 0 -127.831 20.168 -171.498 60.501s-65.5 92.833 -65.5 157.5c0 101.333 50 181.666 150 240.999h-28v1067h217v-1070h-11c-50 -23.333 -88.5 -51.833 -115.5 -85.5s-40.5 -70.167 -40.5 -109.5c0 -34.667 10.667 -62.5 32 -83.5s49.666 -31.5 84.999 -31.5
c19.333 0 35.666 1.33301 48.999 4v-136c-29.333 -9.33301 -63 -14 -101 -14z" />
    <glyph glyph-name="Idotaccent" unicode="&#x130;" horiz-adv-x="490" 
d="M357 0h-224v1443h224v-1443zM245 1576c-36.667 0 -67.667 12.833 -93 38.5s-38 56.5 -38 92.5c0 36.667 12.667 67.667 38 93s56.333 38 93 38s67.667 -12.667 93 -38s38 -56.333 38 -93c0 -36 -12.667 -66.833 -38 -92.5s-56.333 -38.5 -93 -38.5z" />
    <glyph glyph-name="dotlessi" unicode="&#x131;" horiz-adv-x="455" 
d="M119 0v1086h217v-1086h-217z" />
    <glyph glyph-name="u0132" unicode="&#x132;" horiz-adv-x="1550" 
d="M357 0h-224v1443h224v-1443zM528 370h219.999c1.33301 -60 21.833 -108.667 61.5 -146s90.834 -56 153.501 -56c73.333 0 129.5 21.5 168.5 64.5s58.5 105.833 58.5 188.5v1022h224v-1023c0 -142.667 -39.667 -253.667 -119 -333s-189.333 -119 -330 -119
c-130 0 -235.333 37 -316 111s-121 171 -121 291z" />
    <glyph glyph-name="u0133" unicode="&#x133;" horiz-adv-x="910" 
d="M119 0v1086h217v-1086h-217zM228 1241c-35.333 0 -65.333 12.167 -90 36.5s-37 53.833 -37 88.5c0 35.333 12.333 65 37 89s54.667 36 90 36s65.333 -12 90 -36s37 -53.667 37 -89c0 -34.667 -12.333 -64.167 -37 -88.5s-54.667 -36.5 -90 -36.5zM791 1086
l0.000976562 -1151c0 -110.667 -29 -192.5 -87 -245.5s-146.667 -79.5 -266 -79.5c-28.667 0 -44.667 0.333008 -48 1v172c0.666992 0 5.66699 -0.166992 15 -0.5s14.666 -0.5 15.999 -0.5c56 0 95.5 11.667 118.5 35s34.5 63 34.5 119v1150h217zM683.001 1241
c-35.333 0 -65.333 12.167 -90 36.5s-37 53.833 -37 88.5c0 35.333 12.333 65 37 89s54.667 36 90 36s65.333 -12 90 -36s37 -53.667 37 -89c0 -34.667 -12.333 -64.167 -37 -88.5s-54.667 -36.5 -90 -36.5z" />
    <glyph glyph-name="Jcircumflex" unicode="&#x134;" horiz-adv-x="1060" 
d="M38 370h219.999c1.33301 -60 21.833 -108.667 61.5 -146s90.834 -56 153.501 -56c73.333 0 129.5 21.5 168.5 64.5s58.5 105.833 58.5 188.5v1022h224v-1023c0 -142.667 -39.667 -253.667 -119 -333s-189.333 -119 -330 -119c-130 0 -235.333 37 -316 111
s-121 171 -121 291zM726.999 1853h172l286 -306h-188l-182 200h-4l-182 -200h-188z" />
    <glyph glyph-name="jcircumflex" unicode="&#x135;" horiz-adv-x="454" 
d="M334 1086v-1151c0 -110.667 -28.667 -192.5 -86 -245.5s-146 -79.5 -266 -79.5c-28 0 -43.667 0.333008 -47 1v172c0.666992 0 5.5 -0.166992 14.5 -0.5s14.167 -0.5 15.5 -0.5c56.667 0 96.5 11.667 119.5 35s34.5 63 34.5 119v1150h215zM306 1558l273 -307h-185
l-164 194h-6l-164 -194h-185l273 307h158z" />
    <glyph glyph-name="Kcommaaccent" unicode="&#x136;" horiz-adv-x="1293" 
d="M357 0h-224v1443h224v-687h9l603 687h266l-572 -639l620 -804h-278l-500 650l-148 -169v-481zM612 -526h-159l102 360h190z" />
    <glyph glyph-name="kcommaaccent" unicode="&#x137;" horiz-adv-x="1062" 
d="M338 617l447 469h255l-454 -468l470 -618h-250l-375 486l-94 -92v-394h-217v1508h217v-891h1zM549 -526h-159l102 360h190z" />
    <glyph glyph-name="Lacute" unicode="&#x139;" horiz-adv-x="1088" 
d="M333 1551h-176l231 303h225zM1029 194v-194h-896v1443h224v-1249h672z" />
    <glyph glyph-name="lacute" unicode="&#x13a;" horiz-adv-x="457" 
d="M317 1616h-176l231 303h225zM120 0v1508h217v-1508h-217z" />
    <glyph glyph-name="Lcommaaccent" unicode="&#x13b;" horiz-adv-x="1088" 
d="M560 -526h-159l102 360h190zM1029 194v-194h-896v1443h224v-1249h672z" />
    <glyph glyph-name="lcommaaccent" unicode="&#x13c;" horiz-adv-x="457" 
d="M212 -526h-159l102 360h190zM120 0v1508h217v-1508h-217z" />
    <glyph glyph-name="Lcaron" unicode="&#x13d;" horiz-adv-x="1088" 
d="M620 1443h197l-50 -493h-147v493zM1029 194v-194h-896v1443h224v-1249h672z" />
    <glyph glyph-name="lcaron" unicode="&#x13e;" horiz-adv-x="619" 
d="M488 1506h168l-34 -493h-134v493zM120 0v1508h217v-1508h-217z" />
    <glyph glyph-name="Lslash" unicode="&#x141;" horiz-adv-x="1093" 
d="M363 194h672v-194h-896v677l-113 -54v164l113 53v603h224v-496l320 151v-163l-320 -152v-589z" />
    <glyph glyph-name="lslash" unicode="&#x142;" horiz-adv-x="497" 
d="M477 1025v-163l-140 -69v-793h-217v685l-107 -53v163l107 53v660h217v-552z" />
    <glyph glyph-name="Nacute" unicode="&#x143;" horiz-adv-x="1443" 
d="M810 1551h-176l231 303h225zM351 0h-218v1443h203l748 -1064h8v1064h218v-1443h-202l-748 1063h-9v-1063z" />
    <glyph glyph-name="nacute" unicode="&#x144;" horiz-adv-x="1168" 
d="M673 1255h-178l215 303h225zM111 0v1086h207v-183h4c67.333 130 185 195 353 195c120 0 214.5 -35.833 283.5 -107.5s103.5 -169.834 103.5 -294.501v-696h-217v655c0 82.667 -21 146.167 -63 190.5s-102.667 66.5 -182 66.5c-82 0 -147.833 -26.167 -197.5 -78.5
s-74.5 -121.166 -74.5 -206.499v-627h-217z" />
    <glyph glyph-name="Ncommaaccent" unicode="&#x145;" horiz-adv-x="1443" 
d="M705 -526h-159l102 360h190zM351 0h-218v1443h203l748 -1064h8v1064h218v-1443h-202l-748 1063h-9v-1063z" />
    <glyph glyph-name="ncommaaccent" unicode="&#x146;" horiz-adv-x="1168" 
d="M569 -526h-159l102 360h190zM111 0v1086h207v-183h4c67.333 130 185 195 353 195c120 0 214.5 -35.833 283.5 -107.5s103.5 -169.834 103.5 -294.501v-696h-217v655c0 82.667 -21 146.167 -63 190.5s-102.667 66.5 -182 66.5c-82 0 -147.833 -26.167 -197.5 -78.5
s-74.5 -121.166 -74.5 -206.499v-627h-217z" />
    <glyph glyph-name="Ncaron" unicode="&#x147;" horiz-adv-x="1443" 
d="M636 1547l-286 306h188l182 -199h4l182 199h188l-286 -306h-172zM351 0h-218v1443h203l748 -1064h8v1064h218v-1443h-202l-748 1063h-9v-1063z" />
    <glyph glyph-name="ncaron" unicode="&#x148;" horiz-adv-x="1168" 
d="M665 1251h-158l-273 307h185l164 -194h6l164 194h185zM111 0v1086h207v-183h4c67.333 130 185 195 353 195c120 0 214.5 -35.833 283.5 -107.5s103.5 -169.834 103.5 -294.501v-696h-217v655c0 82.667 -21 146.167 -63 190.5s-102.667 66.5 -182 66.5
c-82 0 -147.833 -26.167 -197.5 -78.5s-74.5 -121.166 -74.5 -206.499v-627h-217z" />
    <glyph glyph-name="Omacron" unicode="&#x14c;" horiz-adv-x="1513" 
d="M757 1467c207.333 0 371.833 -67 493.5 -201s182.5 -315.667 182.5 -545s-60.667 -410.833 -182 -544.5s-286 -200.5 -494 -200.5s-372.667 66.833 -494 200.5s-182 315.167 -182 544.5s60.667 411 182 545s286 201 494 201zM757 1270
c-137.333 0 -246.166 -49.333 -326.499 -148s-120.5 -232.334 -120.5 -401.001c0 -168 40.167 -301.333 120.5 -400s189.166 -148 326.499 -148c136.667 0 245.167 49.333 325.5 148s120.5 232 120.5 400c0 168.667 -40.167 302.334 -120.5 401.001s-188.833 148 -325.5 148
zM1084 1755v-119h-654v119h654z" />
    <glyph glyph-name="omacron" unicode="&#x14d;" horiz-adv-x="1152" 
d="M899 1431v-119h-646v119h646zM576 -13c-157.333 0 -282.335 50 -375.002 150s-139 235.333 -139 406c0 170 46.5 305.333 139.5 406s217.833 151 374.5 151s281.334 -50.167 374.001 -150.5s139 -235.833 139 -406.5s-46.167 -306 -138.5 -406
s-217.166 -150 -374.499 -150zM575.998 167c92 0 163.833 33 215.5 99s77.5 158.333 77.5 277s-25.833 211.167 -77.5 277.5s-123.5 99.5 -215.5 99.5s-164 -33.333 -216 -100s-78 -159 -78 -277s26 -210.167 78 -276.5s124 -99.5 216 -99.5z" />
    <glyph glyph-name="Obreve" unicode="&#x14e;" horiz-adv-x="1513" 
d="M757 1467c207.333 0 371.833 -67 493.5 -201s182.5 -315.667 182.5 -545s-60.667 -410.833 -182 -544.5s-286 -200.5 -494 -200.5s-372.667 66.833 -494 200.5s-182 315.167 -182 544.5s60.667 411 182 545s286 201 494 201zM757 1270
c-137.333 0 -246.166 -49.333 -326.499 -148s-120.5 -232.334 -120.5 -401.001c0 -168 40.167 -301.333 120.5 -400s189.166 -148 326.499 -148c136.667 0 245.167 49.333 325.5 148s120.5 232 120.5 400c0 168.667 -40.167 302.334 -120.5 401.001s-188.833 148 -325.5 148
zM432 1853h140.004c0 -53.333 17.5 -98 52.5 -134s79.167 -54 132.5 -54s97.5 18 132.5 54s52.5 80.667 52.5 134h140c-0.666992 -89.333 -30.834 -162.666 -90.501 -219.999s-137.834 -86 -234.501 -86s-174.834 28.667 -234.501 86s-89.834 130.666 -90.501 219.999z" />
    <glyph glyph-name="obreve" unicode="&#x14f;" horiz-adv-x="1152" 
d="M240 1557h143c0.666992 -54.667 19.167 -100.5 55.5 -137.5s81.833 -55.5 136.5 -55.5s100.167 18.5 136.5 55.5s54.833 82.833 55.5 137.5h143c-0.666992 -92.667 -31.667 -168.167 -93 -226.5s-142 -87.5 -242 -87.5s-180.667 29.167 -242 87.5
s-92.333 133.833 -93 226.5zM576 -13c-157.333 0 -282.335 50 -375.002 150s-139 235.333 -139 406c0 170 46.5 305.333 139.5 406s217.833 151 374.5 151s281.334 -50.167 374.001 -150.5s139 -235.833 139 -406.5s-46.167 -306 -138.5 -406s-217.166 -150 -374.499 -150z
M575.998 167c92 0 163.833 33 215.5 99s77.5 158.333 77.5 277s-25.833 211.167 -77.5 277.5s-123.5 99.5 -215.5 99.5s-164 -33.333 -216 -100s-78 -159 -78 -277s26 -210.167 78 -276.5s124 -99.5 216 -99.5z" />
    <glyph glyph-name="Ohungarumlaut" unicode="&#x150;" horiz-adv-x="1513" 
d="M1010 1551h-168l231 303h217zM670 1551h-169l231 303h217zM757 1467c207.333 0 371.833 -67 493.5 -201s182.5 -315.667 182.5 -545s-60.667 -410.833 -182 -544.5s-286 -200.5 -494 -200.5s-372.667 66.833 -494 200.5s-182 315.167 -182 544.5s60.667 411 182 545
s286 201 494 201zM757 1270c-137.333 0 -246.166 -49.333 -326.499 -148s-120.5 -232.334 -120.5 -401.001c0 -168 40.167 -301.333 120.5 -400s189.166 -148 326.499 -148c136.667 0 245.167 49.333 325.5 148s120.5 232 120.5 400
c0 168.667 -40.167 302.334 -120.5 401.001s-188.833 148 -325.5 148z" />
    <glyph glyph-name="ohungarumlaut" unicode="&#x151;" horiz-adv-x="1152" 
d="M660 1255l194 303h215l-247 -303h-162zM325 1255l194 303h215l-247 -303h-162zM576 -13c-157.333 0 -282.335 50 -375.002 150s-139 235.333 -139 406c0 170 46.5 305.333 139.5 406s217.833 151 374.5 151s281.334 -50.167 374.001 -150.5s139 -235.833 139 -406.5
s-46.167 -306 -138.5 -406s-217.166 -150 -374.499 -150zM575.998 167c92 0 163.833 33 215.5 99s77.5 158.333 77.5 277s-25.833 211.167 -77.5 277.5s-123.5 99.5 -215.5 99.5s-164 -33.333 -216 -100s-78 -159 -78 -277s26 -210.167 78 -276.5s124 -99.5 216 -99.5z" />
    <glyph glyph-name="OE" unicode="&#x152;" horiz-adv-x="2216" 
d="M764 1271c-138.667 0 -248.667 -49.5 -330 -148.5s-122 -232.833 -122 -401.5c0 -168 40.667 -301.5 122 -400.5s191.333 -148.5 330 -148.5s248.667 49.5 330 148.5s122 232.5 122 400.5s-40.833 301.667 -122.5 401s-191.5 149 -329.5 149zM1230 0
l-0.000976562 231.001c-44.667 -80.667 -110 -143.834 -196 -189.501s-181.667 -68.5 -287 -68.5c-202 0 -363.333 67.667 -484 203s-181 317 -181 545s60.5 409.833 181.5 545.5s282.5 203.5 484.5 203.5c106.667 0 201.834 -22.167 285.501 -66.5
s149.167 -107.5 196.5 -189.5v229h889v-193h-676v-422h638v-186h-638v-448h676v-194h-889z" />
    <glyph glyph-name="oe" unicode="&#x153;" horiz-adv-x="1916" 
d="M1385 -13c-88 0 -167.499 18.166 -238.499 54.499s-125.833 86.833 -164.5 151.5h-10c-46.667 -70.667 -102.334 -122.667 -167.001 -156s-142.334 -50 -233.001 -50c-155.333 0 -279.166 50.167 -371.499 150.5s-138.5 235.166 -138.5 404.499
c0 170 46.167 305.5 138.5 406.5s215.833 151.5 370.5 151.5c90.667 0 168.5 -17.167 233.5 -51.5s120.833 -87.166 167.5 -158.499h10c38.667 65.333 92.667 116.666 162 153.999s146.333 56 231 56c146.667 0 263.167 -48.5 349.5 -145.5s129.5 -227.167 129.5 -390.5v-76
h-765v-16c0 -93.333 27 -168.166 81 -224.499s125.667 -84.5 215 -84.5c62.667 0 116.5 13.667 161.5 41s74.833 64 89.5 110h207c-15.333 -95.333 -66 -173.666 -152 -234.999s-188 -92 -306 -92zM1636 641.999c-2.66699 84.667 -28.333 152.667 -77 204
s-112.334 77 -191.001 77c-78 0 -142.667 -26 -194 -78s-79.666 -119.667 -84.999 -203h547zM280.002 542.999c0 -117.333 25.833 -209 77.5 -275s123.167 -99 214.5 -99c92.667 0 164.667 33 216 99s77 157.667 77 275s-25.833 209 -77.5 275s-123.5 99 -215.5 99
c-91.333 0 -162.833 -33 -214.5 -99s-77.5 -157.667 -77.5 -275z" />
    <glyph glyph-name="Racute" unicode="&#x154;" horiz-adv-x="1265" 
d="M652 1551h-176l231 303h225zM357 1255v-519h322c86.667 0 153.834 22.667 201.501 68s71.5 109.333 71.5 192c0 80.667 -24.833 144 -74.5 190s-117.834 69 -204.501 69h-316zM357 555v-554.999h-224v1443h567c148 0 265.333 -39.833 352 -119.5
s130 -186.834 130 -321.501c0 -98 -24.833 -183.833 -74.5 -257.5s-118.167 -125.167 -205.5 -154.5l324 -590h-259l-294 555h-316z" />
    <glyph glyph-name="racute" unicode="&#x155;" horiz-adv-x="688" 
d="M466 1255h-178l215 303h225zM111 0v1086h207v-183h4c16.667 60.667 48.5 108.167 95.5 142.5s102.5 51.5 166.5 51.5c30 0 54 -2.66699 72 -8v-203c-24 9.33301 -55.667 14 -95 14c-71.333 0 -128 -22.833 -170 -68.5s-63 -106.834 -63 -183.501v-648h-217z" />
    <glyph glyph-name="Rcommaaccent" unicode="&#x156;" horiz-adv-x="1265" 
d="M357 1255v-519h322c86.667 0 153.834 22.667 201.501 68s71.5 109.333 71.5 192c0 80.667 -24.833 144 -74.5 190s-117.834 69 -204.501 69h-316zM357 555v-554.999h-224v1443h567c148 0 265.333 -39.833 352 -119.5s130 -186.834 130 -321.501
c0 -98 -24.833 -183.833 -74.5 -257.5s-118.167 -125.167 -205.5 -154.5l324 -590h-259l-294 555h-316zM547 -525.999h-159l102 360h190z" />
    <glyph glyph-name="rcommaaccent" unicode="&#x157;" horiz-adv-x="688" 
d="M111 0v1086h207v-183h4c16.667 60.667 48.5 108.167 95.5 142.5s102.5 51.5 166.5 51.5c30 0 54 -2.66699 72 -8v-203c-24 9.33301 -55.667 14 -95 14c-71.333 0 -128 -22.833 -170 -68.5s-63 -106.834 -63 -183.501v-648h-217zM203 -525.999h-159l102 360h190z" />
    <glyph glyph-name="Rcaron" unicode="&#x158;" horiz-adv-x="1265" 
d="M357 1255v-519h322c86.667 0 153.834 22.667 201.501 68s71.5 109.333 71.5 192c0 80.667 -24.833 144 -74.5 190s-117.834 69 -204.501 69h-316zM357 555v-554.999h-224v1443h567c148 0 265.333 -39.833 352 -119.5s130 -186.834 130 -321.501
c0 -98 -24.833 -183.833 -74.5 -257.5s-118.167 -125.167 -205.5 -154.5l324 -590h-259l-294 555h-316zM478 1547l-286 306h188l182 -199h4l182 199h188l-286 -306h-172z" />
    <glyph glyph-name="rcaron" unicode="&#x159;" horiz-adv-x="688" 
d="M458 1251h-158l-273 307h185l164 -194h6l164 194h185zM111 0v1086h207v-183h4c16.667 60.667 48.5 108.167 95.5 142.5s102.5 51.5 166.5 51.5c30 0 54 -2.66699 72 -8v-203c-24 9.33301 -55.667 14 -95 14c-71.333 0 -128 -22.833 -170 -68.5s-63 -106.834 -63 -183.501
v-648h-217z" />
    <glyph glyph-name="Sacute" unicode="&#x15a;" horiz-adv-x="1244" 
d="M721 1551h-176l231 303h225zM69 402l221.002 -0.000976562c8 -71.333 43.667 -128.666 107 -171.999s142.666 -65 237.999 -65c90.667 0 165.5 21 224.5 63s88.5 95.333 88.5 160c0 56 -21 101.833 -63 137.5s-109.667 64.834 -203 87.501l-187 45
c-132.667 32 -230.5 79.667 -293.5 143s-94.5 145.333 -94.5 246c0 124 48.833 225 146.5 303s223.834 117 378.501 117c152 0 276 -38.833 372 -116.5s145.667 -178.834 149 -303.501h-218c-6.66699 71.333 -37.5 127.666 -92.5 168.999s-126.167 62 -213.5 62
c-86.667 0 -157.167 -20 -211.5 -60s-81.5 -92 -81.5 -156c0 -50.667 20.333 -92.167 61 -124.5s107.667 -60.166 201 -83.499l159 -39c148 -34.667 254.833 -83.5 320.5 -146.5s98.5 -147.5 98.5 -253.5c0 -134.667 -50 -241.5 -150 -320.5s-235.667 -118.5 -407 -118.5
c-160.667 0 -290.834 38.5 -390.501 115.5s-152.834 180.5 -159.501 310.5z" />
    <glyph glyph-name="sacute" unicode="&#x15b;" horiz-adv-x="1018" 
d="M93 777c0 95.333 38.999 172.831 116.999 232.498s179.333 89.5 304 89.5c118.667 0 216.834 -30.167 294.501 -90.5s117.834 -137.833 120.501 -232.5h-204c-4.66699 48 -26.334 86 -65.001 114s-89 42 -151 42c-61.333 0 -110.833 -13.167 -148.5 -39.5
s-56.5 -60.833 -56.5 -103.5c0 -65.333 56.333 -111.666 169 -138.999l180 -43c109.333 -26.667 186.666 -62 231.999 -106s68 -106 68 -186c0 -96.667 -41.667 -175.5 -125 -236.5s-190.666 -91.5 -321.999 -91.5c-126 0 -229.167 29.833 -309.5 89.5
s-124.5 138.834 -132.5 237.501h214c8.66699 -52 33.5 -91.833 74.5 -119.5s95.833 -41.5 164.5 -41.5c67.333 0 120.833 13 160.5 39s59.5 61 59.5 105c0 34.667 -11.833 62 -35.5 82s-64.167 37.333 -121.5 52l-194 48c-195.333 48 -293 147.333 -293 298zM601.999 1255
h-178l215 303h225z" />
    <glyph glyph-name="Scircumflex" unicode="&#x15c;" horiz-adv-x="1244" 
d="M69 402l221.002 -0.000976562c8 -71.333 43.667 -128.666 107 -171.999s142.666 -65 237.999 -65c90.667 0 165.5 21 224.5 63s88.5 95.333 88.5 160c0 56 -21 101.833 -63 137.5s-109.667 64.834 -203 87.501l-187 45c-132.667 32 -230.5 79.667 -293.5 143
s-94.5 145.333 -94.5 246c0 124 48.833 225 146.5 303s223.834 117 378.501 117c152 0 276 -38.833 372 -116.5s145.667 -178.834 149 -303.501h-218c-6.66699 71.333 -37.5 127.666 -92.5 168.999s-126.167 62 -213.5 62c-86.667 0 -157.167 -20 -211.5 -60
s-81.5 -92 -81.5 -156c0 -50.667 20.333 -92.167 61 -124.5s107.667 -60.166 201 -83.499l159 -39c148 -34.667 254.833 -83.5 320.5 -146.5s98.5 -147.5 98.5 -253.5c0 -134.667 -50 -241.5 -150 -320.5s-235.667 -118.5 -407 -118.5
c-160.667 0 -290.834 38.5 -390.501 115.5s-152.834 180.5 -159.501 310.5zM547.002 1853h172l286 -306h-188l-182 200h-4l-182 -200h-188z" />
    <glyph glyph-name="scircumflex" unicode="&#x15d;" horiz-adv-x="1018" 
d="M594 1558l273 -307h-185l-164 194h-6l-164 -194h-185l273 307h158zM93 777c0 95.333 38.999 172.831 116.999 232.498s179.333 89.5 304 89.5c118.667 0 216.834 -30.167 294.501 -90.5s117.834 -137.833 120.501 -232.5h-204c-4.66699 48 -26.334 86 -65.001 114
s-89 42 -151 42c-61.333 0 -110.833 -13.167 -148.5 -39.5s-56.5 -60.833 -56.5 -103.5c0 -65.333 56.333 -111.666 169 -138.999l180 -43c109.333 -26.667 186.666 -62 231.999 -106s68 -106 68 -186c0 -96.667 -41.667 -175.5 -125 -236.5s-190.666 -91.5 -321.999 -91.5
c-126 0 -229.167 29.833 -309.5 89.5s-124.5 138.834 -132.5 237.501h214c8.66699 -52 33.5 -91.833 74.5 -119.5s95.833 -41.5 164.5 -41.5c67.333 0 120.833 13 160.5 39s59.5 61 59.5 105c0 34.667 -11.833 62 -35.5 82s-64.167 37.333 -121.5 52l-194 48
c-195.333 48 -293 147.333 -293 298z" />
    <glyph glyph-name="Scedilla" unicode="&#x15e;" horiz-adv-x="1244" 
d="M598 854l159.003 -39.0049c148 -34.667 254.833 -83.5 320.5 -146.5s98.5 -147.5 98.5 -253.5c0 -125.333 -43.5 -226.666 -130.5 -303.999s-205.833 -121.666 -356.5 -132.999l-43 -110c64.667 0 114.167 -13.167 148.5 -39.5s51.5 -64.5 51.5 -114.5
c0 -53.333 -20.833 -96.5 -62.5 -129.5s-96.167 -49.833 -163.5 -50.5c-56.667 -1.33301 -105 4.33398 -145 17.001v105c24.667 -9.33301 64 -14 118 -14c76.667 0 115 22 115 66c0 22.667 -10.833 38.834 -32.5 48.501s-57.834 14.5 -108.501 14.5h-55v83l50 124
c-144.667 9.33301 -261.334 51.833 -350.001 127.5s-136.334 174.5 -143.001 296.5h221c8 -71.333 43.667 -128.666 107 -171.999s142.666 -65 237.999 -65c90.667 0 165.5 21 224.5 63s88.5 95.333 88.5 160c0 56 -21 101.833 -63 137.5s-109.667 64.834 -203 87.501
l-187 45c-132.667 32 -230.5 79.667 -293.5 143s-94.5 145.333 -94.5 246c0 124 48.833 225 146.5 303s223.834 117 378.501 117c152 0 276 -38.833 372 -116.5s145.667 -178.834 149 -303.501h-218c-6.66699 71.333 -37.5 127.666 -92.5 168.999s-126.167 62 -213.5 62
c-86.667 0 -157.167 -20 -211.5 -60s-81.5 -92 -81.5 -156c0 -50.667 20.333 -92.167 61 -124.5s107.667 -60.166 201 -83.499z" />
    <glyph glyph-name="scedilla" unicode="&#x15f;" horiz-adv-x="1018" 
d="M473 650l180.002 -43.002c109.333 -26.667 186.666 -62 231.999 -106s68 -106 68 -186c0 -87.333 -34.333 -160.333 -103 -219s-159.334 -93.667 -272.001 -105l-47 -123c64.667 0 114.167 -13.167 148.5 -39.5s51.5 -64.5 51.5 -114.5
c0 -53.333 -20.833 -96.5 -62.5 -129.5s-96.167 -49.833 -163.5 -50.5c-56.667 -1.33301 -105 4.33398 -145 17.001v105c24.667 -9.33301 64 -14 118 -14c76.667 0 115 22 115 66c0 22.667 -10.833 38.834 -32.5 48.501s-57.834 14.5 -108.501 14.5h-55v83l55 135
c-111.333 8.66699 -202 42.167 -272 100.5s-108.667 133.166 -116 224.499h214c8.66699 -52 33.5 -91.833 74.5 -119.5s95.833 -41.5 164.5 -41.5c67.333 0 120.833 13 160.5 39s59.5 61 59.5 105c0 34.667 -11.833 62 -35.5 82s-64.167 37.333 -121.5 52l-194 48
c-195.333 48 -293 147.333 -293 298c0 95.333 39 172.833 117 232.5s179.333 89.5 304 89.5c118.667 0 216.834 -30.167 294.501 -90.5s117.834 -137.833 120.501 -232.5h-204c-4.66699 48 -26.334 86 -65.001 114s-89 42 -151 42c-61.333 0 -110.833 -13.167 -148.5 -39.5
s-56.5 -60.833 -56.5 -103.5c0 -65.333 56.333 -111.666 169 -138.999z" />
    <glyph glyph-name="Scaron" unicode="&#x160;" horiz-adv-x="1244" 
d="M69 402l221.002 -0.000976562c8 -71.333 43.667 -128.666 107 -171.999s142.666 -65 237.999 -65c90.667 0 165.5 21 224.5 63s88.5 95.333 88.5 160c0 56 -21 101.833 -63 137.5s-109.667 64.834 -203 87.501l-187 45c-132.667 32 -230.5 79.667 -293.5 143
s-94.5 145.333 -94.5 246c0 124 48.833 225 146.5 303s223.834 117 378.501 117c152 0 276 -38.833 372 -116.5s145.667 -178.834 149 -303.501h-218c-6.66699 71.333 -37.5 127.666 -92.5 168.999s-126.167 62 -213.5 62c-86.667 0 -157.167 -20 -211.5 -60
s-81.5 -92 -81.5 -156c0 -50.667 20.333 -92.167 61 -124.5s107.667 -60.166 201 -83.499l159 -39c148 -34.667 254.833 -83.5 320.5 -146.5s98.5 -147.5 98.5 -253.5c0 -134.667 -50 -241.5 -150 -320.5s-235.667 -118.5 -407 -118.5
c-160.667 0 -290.834 38.5 -390.501 115.5s-152.834 180.5 -159.501 310.5zM547.002 1547l-286 306h188l182 -199h4l182 199h188l-286 -306h-172z" />
    <glyph glyph-name="scaron" unicode="&#x161;" horiz-adv-x="1018" 
d="M594 1251h-158l-273 307h185l164 -194h6l164 194h185zM93 777c0 95.333 38.999 172.831 116.999 232.498s179.333 89.5 304 89.5c118.667 0 216.834 -30.167 294.501 -90.5s117.834 -137.833 120.501 -232.5h-204c-4.66699 48 -26.334 86 -65.001 114s-89 42 -151 42
c-61.333 0 -110.833 -13.167 -148.5 -39.5s-56.5 -60.833 -56.5 -103.5c0 -65.333 56.333 -111.666 169 -138.999l180 -43c109.333 -26.667 186.666 -62 231.999 -106s68 -106 68 -186c0 -96.667 -41.667 -175.5 -125 -236.5s-190.666 -91.5 -321.999 -91.5
c-126 0 -229.167 29.833 -309.5 89.5s-124.5 138.834 -132.5 237.501h214c8.66699 -52 33.5 -91.833 74.5 -119.5s95.833 -41.5 164.5 -41.5c67.333 0 120.833 13 160.5 39s59.5 61 59.5 105c0 34.667 -11.833 62 -35.5 82s-64.167 37.333 -121.5 52l-194 48
c-195.333 48 -293 147.333 -293 298z" />
    <glyph glyph-name="Tcedilla" unicode="&#x162;" horiz-adv-x="1222" 
d="M723 0l-34.999 -0.00195312l-51 -132c64.667 0 114.167 -13.167 148.5 -39.5s51.5 -64.5 51.5 -114.5c0 -53.333 -20.833 -96.5 -62.5 -129.5s-96.167 -49.833 -163.5 -50.5c-56.667 -1.33301 -105 4.33398 -145 17.001v105c24.667 -9.33301 64 -14 118 -14
c76.667 0 115 22 115 66c0 22.667 -10.833 38.834 -32.5 48.501s-57.834 14.5 -108.501 14.5h-55v83l59 146h-63v1250h-450v193h1123v-193h-449v-1250z" />
    <glyph glyph-name="tcedilla" unicode="&#x163;" horiz-adv-x="672" 
d="M465 -7l-47.999 -125.002c64.667 0 114.167 -13.167 148.5 -39.5s51.5 -64.5 51.5 -114.5c0 -53.333 -20.833 -96.5 -62.5 -129.5s-96.167 -49.833 -163.5 -50.5c-56.667 -1.33301 -105 4.33398 -145 17.001v105c24.667 -9.33301 64 -14 118 -14c76.667 0 115 22 115 66
c0 22.667 -10.833 38.834 -32.5 48.501s-57.834 14.5 -108.501 14.5h-55v83l62 153c-59.333 16 -102.333 46.167 -129 90.5s-40 107.166 -40 188.499v629h-150v171h150v244h216v-244h208v-171h-208v-607c0 -47.333 10.833 -82.166 32.5 -104.499s55.167 -33.5 100.5 -33.5
c26 0 50.667 1.66699 74 5v-171c-29.333 -7.33301 -70 -11 -122 -11h-12z" />
    <glyph glyph-name="Tcaron" unicode="&#x164;" horiz-adv-x="1222" 
d="M525 1547l-286 306h188l182 -199h4l182 199h188l-286 -306h-172zM723 0h-224v1250h-450v193h1123v-193h-449v-1250z" />
    <glyph glyph-name="tcaron" unicode="&#x165;" horiz-adv-x="763" 
d="M542 1729h168l-34 -494h-134v494zM176 1330l216 -0.000976562v-244h208v-171h-208v-607c0 -47.333 10.833 -82.166 32.5 -104.499s55.167 -33.5 100.5 -33.5c26 0 50.667 1.66699 74 5v-171c-29.333 -7.33301 -70 -11 -122 -11c-108.667 0 -186 22.5 -232 67.5
s-69 120.167 -69 225.5v629h-150v171h150v244z" />
    <glyph glyph-name="Tbar" unicode="&#x166;" horiz-adv-x="1267" 
d="M1176 1250h-449v-454h316v-168h-316v-628h-224v628h-278v168h278v454h-450v193h1123v-193z" />
    <glyph glyph-name="tbar" unicode="&#x167;" horiz-adv-x="692" 
d="M611 494l-219 -0.000976562v-186c0 -47.333 10.833 -82.166 32.5 -104.499s55.167 -33.5 100.5 -33.5c26 0 50.667 1.66699 74 5v-171c-29.333 -7.33301 -70 -11 -122 -11c-108.667 0 -186 22.5 -232 67.5s-69 120.167 -69 225.5v208h-146v150h146v271h-150v171h150v244
h216v-244h208v-171h-208v-271h219v-150z" />
    <glyph glyph-name="Utilde" unicode="&#x168;" horiz-adv-x="1434" 
d="M357 1443l-0.000976562 -917c0 -105.333 31.833 -190.166 95.5 -254.499s151.834 -96.5 264.501 -96.5s201 32.167 265 96.5s96 149.166 96 254.499v917h223v-936c0 -158 -52.667 -286 -158 -384s-247.333 -147 -426 -147s-320.667 49 -426 147s-158 226 -158 384v936
h224zM849.999 1537c-30 0 -58.165 7.66699 -84.498 23s-47.333 32 -63 50s-33 34.667 -52 50s-36.833 23 -53.5 23c-22 0 -38.833 -11.5 -50.5 -34.5s-17.834 -54.833 -18.501 -95.5h-129c0 80 17.167 142.833 51.5 188.5s80.833 68.5 139.5 68.5
c31.333 0 60.666 -7.66699 87.999 -23s49 -32 65 -50s33.167 -34.667 51.5 -50s35.5 -23 51.5 -23c42 0 63 44 63 132h130c0 -78.667 -17.5 -141.5 -52.5 -188.5s-80.5 -70.5 -136.5 -70.5z" />
    <glyph glyph-name="utilde" unicode="&#x169;" horiz-adv-x="1168" 
d="M1057 1086l-0.000976562 -1086h-207v186h-4c-31.333 -64.667 -77 -113.834 -137 -147.501s-131.333 -50.5 -214 -50.5c-118.667 0 -213.167 36 -283.5 108s-105.5 170 -105.5 294v696h217v-655c0 -83.333 21.333 -146.833 64 -190.5s103.334 -65.5 182.001 -65.5
c81.333 0 146.833 26 196.5 78s74.5 121 74.5 207v626h217zM717.999 1258c-30 0 -58.165 7.66699 -84.498 23s-47.333 32 -63 50s-33 34.667 -52 50s-36.833 23 -53.5 23c-22 0 -38.833 -11.5 -50.5 -34.5s-17.834 -54.833 -18.501 -95.5h-129
c0 80 17.167 142.833 51.5 188.5s80.833 68.5 139.5 68.5c31.333 0 60.666 -7.66699 87.999 -23s49 -32 65 -50s33.167 -34.667 51.5 -50s35.5 -23 51.5 -23c42 0 63 44 63 132h130c0 -78.667 -17.5 -141.5 -52.5 -188.5s-80.5 -70.5 -136.5 -70.5z" />
    <glyph glyph-name="Umacron" unicode="&#x16a;" horiz-adv-x="1434" 
d="M357 1443l-0.000976562 -917c0 -105.333 31.833 -190.166 95.5 -254.499s151.834 -96.5 264.501 -96.5s201 32.167 265 96.5s96 149.166 96 254.499v917h223v-936c0 -158 -52.667 -286 -158 -384s-247.333 -147 -426 -147s-320.667 49 -426 147s-158 226 -158 384v936
h224zM1044 1755v-119h-654v119h654z" />
    <glyph glyph-name="umacron" unicode="&#x16b;" horiz-adv-x="1168" 
d="M1057 1086l-0.000976562 -1086h-207v186h-4c-31.333 -64.667 -77 -113.834 -137 -147.501s-131.333 -50.5 -214 -50.5c-118.667 0 -213.167 36 -283.5 108s-105.5 170 -105.5 294v696h217v-655c0 -83.333 21.333 -146.833 64 -190.5s103.334 -65.5 182.001 -65.5
c81.333 0 146.833 26 196.5 78s74.5 121 74.5 207v626h217zM904.999 1431v-119h-646v119h646z" />
    <glyph glyph-name="Ubreve" unicode="&#x16c;" horiz-adv-x="1434" 
d="M357 1443l-0.000976562 -917c0 -105.333 31.833 -190.166 95.5 -254.499s151.834 -96.5 264.501 -96.5s201 32.167 265 96.5s96 149.166 96 254.499v917h223v-936c0 -158 -52.667 -286 -158 -384s-247.333 -147 -426 -147s-320.667 49 -426 147s-158 226 -158 384v936
h224zM391.999 1853h140.004c0 -53.333 17.5 -98 52.5 -134s79.167 -54 132.5 -54s97.5 18 132.5 54s52.5 80.667 52.5 134h140c-0.666992 -89.333 -30.834 -162.666 -90.501 -219.999s-137.834 -86 -234.501 -86s-174.834 28.667 -234.501 86
s-89.834 130.666 -90.501 219.999z" />
    <glyph glyph-name="ubreve" unicode="&#x16d;" horiz-adv-x="1168" 
d="M1057 1086l-0.000976562 -1086h-207v186h-4c-31.333 -64.667 -77 -113.834 -137 -147.501s-131.333 -50.5 -214 -50.5c-118.667 0 -213.167 36 -283.5 108s-105.5 170 -105.5 294v696h217v-655c0 -83.333 21.333 -146.833 64 -190.5s103.334 -65.5 182.001 -65.5
c81.333 0 146.833 26 196.5 78s74.5 121 74.5 207v626h217zM245.999 1557h143c0.666992 -54.667 19.167 -100.5 55.5 -137.5s81.833 -55.5 136.5 -55.5s100.167 18.5 136.5 55.5s54.833 82.833 55.5 137.5h143c-0.666992 -92.667 -31.667 -168.167 -93 -226.5
s-142 -87.5 -242 -87.5s-180.667 29.167 -242 87.5s-92.333 133.833 -93 226.5z" />
    <glyph glyph-name="Uring" unicode="&#x16e;" horiz-adv-x="1434" 
d="M717 1509c-56.667 0 -105.334 20.167 -146.001 60.5s-61 88.5 -61 144.5c0 56.667 20.333 105.167 61 145.5s89.334 60.5 146.001 60.5s105.334 -20.167 146.001 -60.5s61 -88.833 61 -145.5c0 -56 -20.333 -104.167 -61 -144.5s-89.334 -60.5 -146.001 -60.5zM717 1604
c30.667 0 56.834 10.833 78.501 32.5s32.5 47.5 32.5 77.5c0 30.667 -10.833 56.834 -32.5 78.501s-47.834 32.5 -78.501 32.5s-56.834 -10.833 -78.501 -32.5s-32.5 -47.834 -32.5 -78.501c0 -30 10.833 -55.833 32.5 -77.5s47.834 -32.5 78.501 -32.5zM357 1443
l-0.000976562 -917c0 -105.333 31.833 -190.166 95.5 -254.499s151.834 -96.5 264.501 -96.5s201 32.167 265 96.5s96 149.166 96 254.499v917h223v-936c0 -158 -52.667 -286 -158 -384s-247.333 -147 -426 -147s-320.667 49 -426 147s-158 226 -158 384v936h224z" />
    <glyph glyph-name="uring" unicode="&#x16f;" horiz-adv-x="1168" 
d="M1057 1086l-0.000976562 -1086h-207v186h-4c-31.333 -64.667 -77 -113.834 -137 -147.501s-131.333 -50.5 -214 -50.5c-118.667 0 -213.167 36 -283.5 108s-105.5 170 -105.5 294v696h217v-655c0 -83.333 21.333 -146.833 64 -190.5s103.334 -65.5 182.001 -65.5
c81.333 0 146.833 26 196.5 78s74.5 121 74.5 207v626h217zM581.999 1193c-56.667 0 -105.334 20.167 -146.001 60.5s-61 88.5 -61 144.5c0 56.667 20.333 105.167 61 145.5s89.334 60.5 146.001 60.5s105.334 -20.167 146.001 -60.5s61 -88.833 61 -145.5
c0 -56 -20.333 -104.167 -61 -144.5s-89.334 -60.5 -146.001 -60.5zM581.999 1288c30.667 0 56.834 10.833 78.501 32.5s32.5 47.5 32.5 77.5c0 30.667 -10.833 56.834 -32.5 78.501s-47.834 32.5 -78.501 32.5s-56.834 -10.833 -78.501 -32.5s-32.5 -47.834 -32.5 -78.501
c0 -30 10.833 -55.833 32.5 -77.5s47.834 -32.5 78.501 -32.5z" />
    <glyph glyph-name="Uhungarumlaut" unicode="&#x170;" horiz-adv-x="1434" 
d="M357 1443l-0.000976562 -917c0 -105.333 31.833 -190.166 95.5 -254.499s151.834 -96.5 264.501 -96.5s201 32.167 265 96.5s96 149.166 96 254.499v917h223v-936c0 -158 -52.667 -286 -158 -384s-247.333 -147 -426 -147s-320.667 49 -426 147s-158 226 -158 384v936
h224zM969.999 1551h-168l231 303h217zM629.999 1551h-169l231 303h217z" />
    <glyph glyph-name="uhungarumlaut" unicode="&#x171;" horiz-adv-x="1168" 
d="M666 1255l194 303h215l-247 -303h-162zM331 1255l194 303h215l-247 -303h-162zM1057 1086l-0.000976562 -1086h-207v186h-4c-31.333 -64.667 -77 -113.834 -137 -147.501s-131.333 -50.5 -214 -50.5c-118.667 0 -213.167 36 -283.5 108s-105.5 170 -105.5 294v696h217
v-655c0 -83.333 21.333 -146.833 64 -190.5s103.334 -65.5 182.001 -65.5c81.333 0 146.833 26 196.5 78s74.5 121 74.5 207v626h217z" />
    <glyph glyph-name="Uogonek" unicode="&#x172;" horiz-adv-x="1434" 
d="M963 -440c-70 0 -127.666 19.499 -172.999 58.499s-68 88.833 -68 149.5c0 84 36 158 108 222v3c-35.333 -11.333 -73 -17 -113 -17c-176 0 -317.333 48.333 -424 145s-160 225.334 -160 386.001v936h224v-917c0 -107.333 32.5 -192.666 97.5 -255.999
s152.5 -95 262.5 -95c110.667 0 198.5 31.667 263.5 95s97.5 148.666 97.5 255.999v917h223v-936c0 -52.667 -5.5 -101.334 -16.5 -146.001s-27 -84.334 -48 -119.001s-42 -64 -63 -88s-46.167 -49 -75.5 -75l-49.5 -42l-49.5 -41.5
c-11.333 -9.66699 -24.833 -22.667 -40.5 -39s-27.334 -30.666 -35.001 -42.999s-14.5 -27.166 -20.5 -44.499s-9 -35 -9 -53c0 -31.333 11.667 -57.5 35 -78.5s52.333 -31.5 87 -31.5c22 0 44.333 2.33301 67 7v-135c-32.667 -12 -72.667 -18 -120 -18z" />
    <glyph glyph-name="uogonek" unicode="&#x173;" horiz-adv-x="1168" 
d="M1057 -426c-29.333 -9.33301 -62.665 -13.9971 -99.998 -13.9971c-70.667 0 -128 20 -172 60s-66 92.667 -66 158c0 97.333 52.333 177.666 157 240.999h-26v167h-4c-31.333 -64.667 -77 -113.834 -137 -147.501s-131.333 -50.5 -214 -50.5
c-119.333 0 -214 36.167 -284 108.5s-105 170.166 -105 293.499v696h217v-655c0 -82.667 21.167 -146 63.5 -190s103.166 -66 182.499 -66c81.333 0 146.833 26 196.5 78s74.5 121 74.5 207v626h217v-1070h-10c-104 -48.667 -156 -113.667 -156 -195
c0 -34.667 10.667 -62.5 32 -83.5s49.666 -31.5 84.999 -31.5c14 0 30.333 1.33301 49 4v-136z" />
    <glyph glyph-name="Wcircumflex" unicode="&#x174;" horiz-adv-x="1923" 
d="M875 1853h172l286 -306h-188l-182 200h-4l-182 -200h-188zM956 1088l-311 -1088h-212l-389 1443h233l267 -1130h8l305 1130h208l306 -1130h8l267 1130h233l-390 -1443h-211l-312 1088h-10z" />
    <glyph glyph-name="wcircumflex" unicode="&#x175;" horiz-adv-x="1563" 
d="M861 1558l273 -307h-185l-164 194h-6l-164 -194h-185l273 307h158zM1537 1086l-299 -1086h-224l-231 818h-5l-229 -818h-223l-300 1086h216l202 -860h4l230 860h208l231 -860h4l202 860h214z" />
    <glyph glyph-name="Ycircumflex" unicode="&#x176;" horiz-adv-x="1293" 
d="M758 0h-224v591l-508 852h250l368 -637h7l368 637h248l-509 -852v-591zM560 1853h172l286 -306h-188l-182 200h-4l-182 -200h-188z" />
    <glyph glyph-name="ycircumflex" unicode="&#x177;" horiz-adv-x="1066" 
d="M220 -395c-36 0 -65.334 2.00098 -88.001 6.00098v176c13.333 -3.33301 36.333 -5 69 -5c52 0 93.167 12.167 123.5 36.5s54.833 65.166 73.5 122.499l17 56l-394 1089h233l279 -888h5l279 888h228l-407 -1136c-46.667 -130 -100.167 -220 -160.5 -270
s-146.166 -75 -257.499 -75zM612.999 1558l273 -307h-185l-164 194h-6l-164 -194h-185l273 307h158z" />
    <glyph glyph-name="Ydieresis" unicode="&#x178;" horiz-adv-x="1293" 
d="M758 0h-224v591l-508 852h250l368 -637h7l368 637h248l-509 -852v-591zM445 1576c-33.333 0 -61.833 11.667 -85.5 35s-35.5 51.333 -35.5 84s11.833 60.667 35.5 84s52.167 35 85.5 35s61.666 -11.5 84.999 -34.5s35 -51.167 35 -84.5
c0 -32.667 -11.667 -60.667 -35 -84s-51.666 -35 -84.999 -35zM848 1576c-33.333 0 -61.833 11.667 -85.5 35s-35.5 51.333 -35.5 84s11.833 60.667 35.5 84s52.167 35 85.5 35s61.666 -11.5 84.999 -34.5s35 -51.167 35 -84.5c0 -32.667 -11.667 -60.667 -35 -84
s-51.666 -35 -84.999 -35z" />
    <glyph glyph-name="Zacute" unicode="&#x179;" horiz-adv-x="1273" 
d="M725 1551h-176l231 303h225zM95 0v153l790 1089v8h-766v193h1041v-153l-787 -1089v-7h806v-194h-1084z" />
    <glyph glyph-name="zacute" unicode="&#x17a;" horiz-adv-x="1015" 
d="M594 1255h-178l215 303h225zM89 0v141l584 769v3h-581v173h828v-149l-570 -760v-4h576v-173h-837z" />
    <glyph glyph-name="Zdotaccent" unicode="&#x17b;" horiz-adv-x="1273" 
d="M637 1576c-36.667 0 -67.667 12.833 -93 38.5s-38 56.5 -38 92.5c0 36.667 12.667 67.667 38 93s56.333 38 93 38s67.667 -12.667 93 -38s38 -56.333 38 -93c0 -36 -12.667 -66.833 -38 -92.5s-56.333 -38.5 -93 -38.5zM95 0v153l790 1089v8h-766v193h1041v-153
l-787 -1089v-7h806v-194h-1084z" />
    <glyph glyph-name="zdotaccent" unicode="&#x17c;" horiz-adv-x="1015" 
d="M507 1262c-36.667 0 -68.167 13 -94.5 39s-39.5 57 -39.5 93c0 36.667 13.167 68 39.5 94s57.833 39 94.5 39s68 -13 94 -39s39 -57.333 39 -94c0 -36 -13 -67 -39 -93s-57.333 -39 -94 -39zM89 0v141l584 769v3h-581v173h828v-149l-570 -760v-4h576v-173h-837z" />
    <glyph glyph-name="Zcaron" unicode="&#x17d;" horiz-adv-x="1273" 
d="M95 0v153l790 1089v8h-766v193h1041v-153l-787 -1089v-7h806v-194h-1084zM551 1547l-286 306h188l182 -199h4l182 199h188l-286 -306h-172z" />
    <glyph glyph-name="zcaron" unicode="&#x17e;" horiz-adv-x="1015" 
d="M586 1251h-158l-273 307h185l164 -194h6l164 194h185zM89 0v141l584 769v3h-581v173h828v-149l-570 -760v-4h576v-173h-837z" />
    <glyph glyph-name="florin" unicode="&#x192;" horiz-adv-x="1270" 
d="M1224 1425l0.00195312 -184.001c-55.333 26 -116.333 39 -183 39c-74 0 -130.667 -16.5 -170 -49.5s-64.333 -85.167 -75 -156.5l-30 -201h362v-167h-386l-52 -349c-18.667 -129.333 -63 -225.166 -133 -287.499s-167.333 -93.5 -292 -93.5
c-82.667 0 -155 14.667 -217 44v193c24.667 -14.667 55 -26.667 91 -36s70 -14 102 -14c71.333 0 125.166 17 161.499 51s60.166 90 71.499 168l48 324h-330v167h355l32 219c36.667 248 182 372 436 372c82 0 151.667 -13 209 -39z" />
    <glyph glyph-name="Ohorn" unicode="&#x1a0;" horiz-adv-x="1555" 
d="M757 1270c-137.333 0 -246.166 -49.333 -326.499 -148s-120.5 -232.334 -120.5 -401.001c0 -168 40.167 -301.333 120.5 -400s189.166 -148 326.499 -148c136.667 0 245.167 49.333 325.5 148s120.5 232 120.5 400c0 168.667 -40.167 302.334 -120.5 401.001
s-188.833 148 -325.5 148zM1433 720c0 -228.667 -60.834 -409.834 -182.501 -543.501s-286.167 -200.5 -493.5 -200.5c-208 0 -372.667 66.833 -494 200.5s-182 315.167 -182 544.5c0 228.667 60.5 410.167 181.5 544.5s284.833 201.5 491.5 201.5
c53.333 0 103.5 -5.5 150.5 -16.5s86.5 -24.167 118.5 -39.5s61.833 -30.666 89.5 -45.999s54.834 -28.5 81.501 -39.5s52 -16.5 76 -16.5c68 0 102 52.333 102 157v165h185v-228c0 -76 -15.333 -135.833 -46 -179.5s-72.667 -65.5 -126 -65.5
c-25.333 0 -45.333 3.66699 -60 11l-3 -4c74 -138.667 111 -287 111 -445z" />
    <glyph glyph-name="ohorn" unicode="&#x1a1;" horiz-adv-x="1279" 
d="M576 167c92 0 163.833 33.167 215.5 99.5s77.5 158.5 77.5 276.5c0 118.667 -25.833 211.167 -77.5 277.5s-123.5 99.5 -215.5 99.5s-164 -33.333 -216 -100s-78 -159 -78 -277s26 -210.167 78 -276.5s124 -99.5 216 -99.5zM1089 541
c0 -170 -46.1689 -304.833 -138.502 -404.5s-217.5 -149.5 -375.5 -149.5c-156.667 0 -281.334 50.167 -374.001 150.5s-139 235.166 -139 404.499s46.333 304.666 139 405.999s216.334 152 371.001 152c57.333 0 110.5 -7.66699 159.5 -23s87.333 -32.166 115 -50.499
s56.334 -35.166 86.001 -50.499s55.5 -23 77.5 -23c36 0 62.333 12.5 79 37.5s25 64.833 25 119.5v152h181v-203c0 -79.333 -22 -143.5 -66 -192.5s-102 -73.5 -174 -73.5c-3.33301 0 -5.66602 0.333008 -6.99902 1l-2 -1c-1.33301 -0.666992 -2.33301 -1 -3 -1
c30.667 -72 46 -155.667 46 -251z" />
    <glyph glyph-name="Uhorn" unicode="&#x1af;" horiz-adv-x="1658" 
d="M1302 1354c26.667 -24 58.333 -35.333 95 -34s63 13.833 79 37.5s24 62.834 24 117.501v153h181v-204c0 -81.333 -23 -146.5 -69 -195.5s-107.667 -73.5 -185 -73.5c-22 0 -45 3.16699 -69 9.5s-43 15.166 -57 26.499v-684c0 -160.667 -53.333 -289.334 -160 -386.001
s-248 -145 -424 -145s-317.333 48.333 -424 145s-160 225.334 -160 386.001v936h224v-917c0 -107.333 32.5 -192.666 97.5 -255.999s152.5 -95 262.5 -95c110.667 0 198.5 31.667 263.5 95s97.5 148.666 97.5 255.999v917h224v-89z" />
    <glyph glyph-name="uhorn" unicode="&#x1b0;" horiz-adv-x="1441" 
d="M846 186c-31.333 -64.667 -77 -113.832 -137 -147.499s-131.333 -50.5 -214 -50.5c-119.333 0 -214 36.167 -284 108.5s-105 170.166 -105 293.499v696h217v-655c0 -82.667 21.167 -146 63.5 -190s103.166 -66 182.499 -66c81.333 0 146.833 26 196.5 78
s74.5 121 74.5 207v626h217v-82c26.667 -19.333 56.334 -28 89.001 -26c36.667 1.33301 62.834 13.833 78.501 37.5s23.5 62.834 23.5 117.501v152h181v-202c0 -82.667 -22.333 -148.334 -67 -197.001s-105.334 -73 -182.001 -73c-53.333 0 -94.333 10.333 -123 31v-844
h-207v186h-4z" />
    <glyph glyph-name="u01C4" unicode="&#x1c4;" horiz-adv-x="2686" 
d="M133 1443h517c215.333 0 383 -63 503 -189s180 -302.667 180 -530c0 -228 -60 -405.667 -180 -533s-287.667 -191 -503 -191h-517v1443zM357 1250v-1056h272c153.333 0 271 45.5 353 136.5s123 221.5 123 391.5s-41 300.5 -123 391.5s-199.667 136.5 -353 136.5h-272z
M1508 0v153l790 1089v8h-766v193h1041v-153l-787 -1089v-7h806v-194h-1084zM1964 1547l-286 306h188l182 -199h4l182 199h188l-286 -306h-172z" />
    <glyph glyph-name="u01C5" unicode="&#x1c5;" horiz-adv-x="2428" 
d="M133 1443h517c215.333 0 383 -63 503 -189s180 -302.667 180 -530c0 -228 -60 -405.667 -180 -533s-287.667 -191 -503 -191h-517v1443zM357 1250v-1056h272c153.333 0 271 45.5 353 136.5s123 221.5 123 391.5s-41 300.5 -123 391.5s-199.667 136.5 -353 136.5h-272z
M1999 1251h-158l-273 307h185l164 -194h6l164 194h185zM1502 0v141l584 769v3h-581v173h828v-149l-570 -760v-4h576v-173h-837z" />
    <glyph glyph-name="u01C6" unicode="&#x1c6;" horiz-adv-x="2215" 
d="M520 -11c-136.667 0 -247.166 50.668 -331.499 152.001s-126.5 235.666 -126.5 402.999c0 166 42.167 299.667 126.5 401s194.166 152 329.499 152c77.333 0 145.833 -16.833 205.5 -50.5s105.167 -80.5 136.5 -140.5h5v602h216v-1508h-210v184h-4
c-32 -62 -78.167 -110 -138.5 -144s-129.833 -51 -208.5 -51zM575.001 913.001c-87.333 0 -157.665 -33.667 -210.998 -101s-80 -157 -80 -269c0 -112.667 26.5 -202.5 79.5 -269.5s123.5 -100.5 211.5 -100.5c87.333 0 157.666 34 210.999 102s80 157.333 80 268
s-26.833 200 -80.5 268s-123.834 102 -210.501 102zM1786 1251h-158l-273 307h185l164 -194h6l164 194h185zM1289 0.000976562v141l584 769v3h-581v173h828v-149l-570 -760v-4h576v-173h-837z" />
    <glyph glyph-name="u01C7" unicode="&#x1c7;" horiz-adv-x="2148" 
d="M1126 370h219.999c1.33301 -60 21.833 -108.667 61.5 -146s90.834 -56 153.501 -56c73.333 0 129.5 21.5 168.5 64.5s58.5 105.833 58.5 188.5v1022h224v-1023c0 -142.667 -39.667 -253.667 -119 -333s-189.333 -119 -330 -119c-130 0 -235.333 37 -316 111
s-121 171 -121 291zM1029 194v-194h-896v1443h224v-1249h672z" />
    <glyph glyph-name="u01C8" unicode="&#x1c8;" horiz-adv-x="1543" 
d="M1424 1086l0.000976562 -1151c0 -110.667 -29 -192.5 -87 -245.5s-146.667 -79.5 -266 -79.5c-28.667 0 -44.667 0.333008 -48 1v172c0.666992 0 5.66699 -0.166992 15 -0.5s14.666 -0.5 15.999 -0.5c56 0 95.5 11.667 118.5 35s34.5 63 34.5 119v1150h217zM1316 1241
c-35.333 0 -65.333 12.167 -90 36.5s-37 53.833 -37 88.5c0 35.333 12.333 65 37 89s54.667 36 90 36s65.333 -12 90 -36s37 -53.667 37 -89c0 -34.667 -12.333 -64.167 -37 -88.5s-54.667 -36.5 -90 -36.5zM1029 194v-194h-896v1443h224v-1249h672z" />
    <glyph glyph-name="u01C9" unicode="&#x1c9;" horiz-adv-x="912" 
d="M793 1086l0.000976562 -1151c0 -110.667 -29 -192.5 -87 -245.5s-146.667 -79.5 -266 -79.5c-28.667 0 -44.667 0.333008 -48 1v172c0.666992 0 5.66699 -0.166992 15 -0.5s14.666 -0.5 15.999 -0.5c56 0 95.5 11.667 118.5 35s34.5 63 34.5 119v1150h217zM685.001 1241
c-35.333 0 -65.333 12.167 -90 36.5s-37 53.833 -37 88.5c0 35.333 12.333 65 37 89s54.667 36 90 36s65.333 -12 90 -36s37 -53.667 37 -89c0 -34.667 -12.333 -64.167 -37 -88.5s-54.667 -36.5 -90 -36.5zM120.001 0v1508h217v-1508h-217z" />
    <glyph glyph-name="u01CA" unicode="&#x1ca;" horiz-adv-x="2503" 
d="M1481 370h219.999c1.33301 -60 21.833 -108.667 61.5 -146s90.834 -56 153.501 -56c73.333 0 129.5 21.5 168.5 64.5s58.5 105.833 58.5 188.5v1022h224v-1023c0 -142.667 -39.667 -253.667 -119 -333s-189.333 -119 -330 -119c-130 0 -235.333 37 -316 111
s-121 171 -121 291zM350.999 0h-218v1443h203l748 -1064h8v1064h218v-1443h-202l-748 1063h-9v-1063z" />
    <glyph glyph-name="u01CB" unicode="&#x1cb;" horiz-adv-x="1898" 
d="M1779 1086l0.000976562 -1151c0 -110.667 -29 -192.5 -87 -245.5s-146.667 -79.5 -266 -79.5c-28.667 0 -44.667 0.333008 -48 1v172c0.666992 0 5.66699 -0.166992 15 -0.5s14.666 -0.5 15.999 -0.5c56 0 95.5 11.667 118.5 35s34.5 63 34.5 119v1150h217zM1671 1241
c-35.333 0 -65.333 12.167 -90 36.5s-37 53.833 -37 88.5c0 35.333 12.333 65 37 89s54.667 36 90 36s65.333 -12 90 -36s37 -53.667 37 -89c0 -34.667 -12.333 -64.167 -37 -88.5s-54.667 -36.5 -90 -36.5zM351.001 0h-218v1443h203l748 -1064h8v1064h218v-1443h-202
l-748 1063h-9v-1063z" />
    <glyph glyph-name="u01CC" unicode="&#x1cc;" horiz-adv-x="1623" 
d="M1504 1086l0.000976562 -1151c0 -110.667 -29 -192.5 -87 -245.5s-146.667 -79.5 -266 -79.5c-28.667 0 -44.667 0.333008 -48 1v172c0.666992 0 5.66699 -0.166992 15 -0.5s14.666 -0.5 15.999 -0.5c56 0 95.5 11.667 118.5 35s34.5 63 34.5 119v1150h217zM1396 1241
c-35.333 0 -65.333 12.167 -90 36.5s-37 53.833 -37 88.5c0 35.333 12.333 65 37 89s54.667 36 90 36s65.333 -12 90 -36s37 -53.667 37 -89c0 -34.667 -12.333 -64.167 -37 -88.5s-54.667 -36.5 -90 -36.5zM111.001 0v1086h207v-183h4c67.333 130 185 195 353 195
c120 0 214.5 -35.833 283.5 -107.5s103.5 -169.834 103.5 -294.501v-696h-217v655c0 82.667 -21 146.167 -63 190.5s-102.667 66.5 -182 66.5c-82 0 -147.833 -26.167 -197.5 -78.5s-74.5 -121.166 -74.5 -206.499v-627h-217z" />
    <glyph glyph-name="Acaron" unicode="&#x1cd;" horiz-adv-x="1336" 
d="M1073 0l-132 390h-550l-132 -390h-233l521 1443h242l521 -1443h-237zM663 1203l-215 -633h436l-215 633h-6zM582 1547l-286 306h188l182 -199h4l182 199h188l-286 -306h-172z" />
    <glyph glyph-name="acaron" unicode="&#x1ce;" horiz-adv-x="1092" 
d="M488 162c80.667 0 148 23.168 202 69.501s81 105.166 81 176.499v85l-264 -18c-150 -9.33301 -225 -62.666 -225 -159.999c0 -46.667 18.667 -83.834 56 -111.501s87.333 -41.5 150 -41.5zM430 -10.999c-108.667 0 -196.999 29.501 -264.999 88.501
s-102 136.833 -102 233.5c0 94.667 35.5 169 106.5 223s173.833 85.333 308.5 94l293 17v84c0 62 -19.833 109.5 -59.5 142.5s-95.834 49.5 -168.501 49.5c-58.667 0 -108.167 -14 -148.5 -42s-65.166 -65.667 -74.499 -113h-203c3.33301 96 45.666 175.667 126.999 239
s183 95 305 95c132.667 0 238.5 -32.333 317.5 -97s118.5 -150.667 118.5 -258v-745h-207v181h-5c-30 -58.667 -76 -105.334 -138 -140.001s-130.333 -52 -205 -52zM624.001 1251h-158l-273 307h185l164 -194h6l164 194h185z" />
    <glyph glyph-name="Icaron" unicode="&#x1cf;" horiz-adv-x="490" 
d="M357 0h-224v1443h224v-1443zM159 1547l-286 306h188l182 -199h4l182 199h188l-286 -306h-172z" />
    <glyph glyph-name="icaron" unicode="&#x1d0;" horiz-adv-x="455" 
d="M307 1251h-158l-273 307h185l164 -194h6l164 194h185zM119 0v1086h217v-1086h-217z" />
    <glyph glyph-name="Ocaron" unicode="&#x1d1;" horiz-adv-x="1513" 
d="M671 1547l-286 306h188l182 -199h4l182 199h188l-286 -306h-172zM757 1467c207.333 0 371.833 -67 493.5 -201s182.5 -315.667 182.5 -545s-60.667 -410.833 -182 -544.5s-286 -200.5 -494 -200.5s-372.667 66.833 -494 200.5s-182 315.167 -182 544.5
s60.667 411 182 545s286 201 494 201zM757 1270c-137.333 0 -246.166 -49.333 -326.499 -148s-120.5 -232.334 -120.5 -401.001c0 -168 40.167 -301.333 120.5 -400s189.166 -148 326.499 -148c136.667 0 245.167 49.333 325.5 148s120.5 232 120.5 400
c0 168.667 -40.167 302.334 -120.5 401.001s-188.833 148 -325.5 148z" />
    <glyph glyph-name="ocaron" unicode="&#x1d2;" horiz-adv-x="1152" 
d="M655 1251h-158l-273 307h185l164 -194h6l164 194h185zM576 -13c-157.333 0 -282.335 50 -375.002 150s-139 235.333 -139 406c0 170 46.5 305.333 139.5 406s217.833 151 374.5 151s281.334 -50.167 374.001 -150.5s139 -235.833 139 -406.5s-46.167 -306 -138.5 -406
s-217.166 -150 -374.499 -150zM575.998 167c92 0 163.833 33 215.5 99s77.5 158.333 77.5 277s-25.833 211.167 -77.5 277.5s-123.5 99.5 -215.5 99.5s-164 -33.333 -216 -100s-78 -159 -78 -277s26 -210.167 78 -276.5s124 -99.5 216 -99.5z" />
    <glyph glyph-name="Ucaron" unicode="&#x1d3;" horiz-adv-x="1434" 
d="M631 1547l-286 306h188l182 -199h4l182 199h188l-286 -306h-172zM357 1443l-0.000976562 -917c0 -105.333 31.833 -190.166 95.5 -254.499s151.834 -96.5 264.501 -96.5s201 32.167 265 96.5s96 149.166 96 254.499v917h223v-936c0 -158 -52.667 -286 -158 -384
s-247.333 -147 -426 -147s-320.667 49 -426 147s-158 226 -158 384v936h224z" />
    <glyph glyph-name="ucaron" unicode="&#x1d4;" horiz-adv-x="1168" 
d="M661 1251h-158l-273 307h185l164 -194h6l164 194h185zM1057 1086l-0.000976562 -1086h-207v186h-4c-31.333 -64.667 -77 -113.834 -137 -147.501s-131.333 -50.5 -214 -50.5c-118.667 0 -213.167 36 -283.5 108s-105.5 170 -105.5 294v696h217v-655
c0 -83.333 21.333 -146.833 64 -190.5s103.334 -65.5 182.001 -65.5c81.333 0 146.833 26 196.5 78s74.5 121 74.5 207v626h217z" />
    <glyph glyph-name="Udieresismacron" unicode="&#x1d5;" horiz-adv-x="1434" 
d="M357 1443l-0.000976562 -917c0 -105.333 31.833 -190.166 95.5 -254.499s151.834 -96.5 264.501 -96.5s201 32.167 265 96.5s96 149.166 96 254.499v917h223v-936c0 -158 -52.667 -286 -158 -384s-247.333 -147 -426 -147s-320.667 49 -426 147s-158 226 -158 384v936
h224zM524.999 1798c30 0 55.5 -10.668 76.5 -32.001s31.5 -46.666 31.5 -75.999c0 -30 -10.5 -55.5 -31.5 -76.5s-46.5 -31.5 -76.5 -31.5c-30.667 0 -56.667 10.5 -78 31.5s-32 46.5 -32 76.5s10.667 55.5 32 76.5s47.333 31.5 78 31.5zM389.999 2042h654v-119h-654v119z
M908.999 1798c30.667 0 56.667 -10.499 78 -31.499s32 -46.5 32 -76.5s-10.667 -55.5 -32 -76.5s-47.333 -31.5 -78 -31.5c-30 0 -55.5 10.5 -76.5 31.5s-31.5 46.5 -31.5 76.5c0 29.333 10.5 54.666 31.5 75.999s46.5 32 76.5 32z" />
    <glyph glyph-name="udieresismacron" unicode="&#x1d6;" horiz-adv-x="1168" 
d="M1057 1086l-0.000976562 -1086h-207v186h-4c-31.333 -64.667 -77 -113.834 -137 -147.501s-131.333 -50.5 -214 -50.5c-118.667 0 -213.167 36 -283.5 108s-105.5 170 -105.5 294v696h217v-655c0 -83.333 21.333 -146.833 64 -190.5s103.334 -65.5 182.001 -65.5
c81.333 0 146.833 26 196.5 78s74.5 121 74.5 207v626h217zM382.999 1260c-32 0 -59.168 11 -81.501 33s-33.5 48.667 -33.5 80s11.167 58 33.5 80s49.5 33 81.5 33c32.667 0 59.834 -11 81.501 -33s32.5 -48.667 32.5 -80s-11 -58 -33 -80s-49 -33 -81 -33zM780.998 1260
c-32 0 -59 11 -81 33s-33 48.667 -33 80s11 58 33 80s49 33 81 33c32.667 0 60 -11 82 -33s33 -48.667 33 -80s-11.167 -58 -33.5 -80s-49.5 -33 -81.5 -33zM904.998 1777v-119h-646v119h646z" />
    <glyph glyph-name="Udieresisacute" unicode="&#x1d7;" horiz-adv-x="1434" 
d="M633 1863l188 218h212l-237 -218h-163zM525 1582c-30.667 0 -56.667 10.499 -78 31.499s-32 46.5 -32 76.5s10.667 55.5 32 76.5s47.333 31.5 78 31.5c30 0 55.5 -10.667 76.5 -32s31.5 -46.666 31.5 -75.999c0 -30 -10.5 -55.5 -31.5 -76.5s-46.5 -31.5 -76.5 -31.5z
M909 1582c-30 0 -55.5 10.501 -76.5 31.501s-31.5 46.5 -31.5 76.5c0 29.333 10.5 54.666 31.5 75.999s46.5 32 76.5 32c30.667 0 56.667 -10.5 78 -31.5s32 -46.5 32 -76.5s-10.667 -55.5 -32 -76.5s-47.333 -31.5 -78 -31.5zM357 1443l-0.000976562 -917
c0 -105.333 31.833 -190.166 95.5 -254.499s151.834 -96.5 264.501 -96.5s201 32.167 265 96.5s96 149.166 96 254.499v917h223v-936c0 -158 -52.667 -286 -158 -384s-247.333 -147 -426 -147s-320.667 49 -426 147s-158 226 -158 384v936h224z" />
    <glyph glyph-name="udieresisacute" unicode="&#x1d8;" horiz-adv-x="1168" 
d="M495 1603l168 261h212l-206 -261h-174zM381 1260c-33.333 0 -61.833 11.667 -85.5 35s-35.5 51.333 -35.5 84s11.833 60.667 35.5 84s52.167 35 85.5 35s61.666 -11.5 84.999 -34.5s35 -51.167 35 -84.5c0 -32.667 -11.667 -60.667 -35 -84s-51.666 -35 -84.999 -35z
M784 1260c-33.333 0 -61.833 11.667 -85.5 35s-35.5 51.333 -35.5 84s11.833 60.667 35.5 84s52.167 35 85.5 35s61.666 -11.5 84.999 -34.5s35 -51.167 35 -84.5c0 -32.667 -11.667 -60.667 -35 -84s-51.666 -35 -84.999 -35zM1057 1086l-0.000976562 -1086h-207v186h-4
c-31.333 -64.667 -77 -113.834 -137 -147.501s-131.333 -50.5 -214 -50.5c-118.667 0 -213.167 36 -283.5 108s-105.5 170 -105.5 294v696h217v-655c0 -83.333 21.333 -146.833 64 -190.5s103.334 -65.5 182.001 -65.5c81.333 0 146.833 26 196.5 78s74.5 121 74.5 207v626
h217z" />
    <glyph glyph-name="Udieresiscaron" unicode="&#x1d9;" horiz-adv-x="1434" 
d="M628 1863l-263 222h198l146 -125h16l146 125h198l-263 -222h-178zM525 1798c30 0 55.5 -10.668 76.5 -32.001s31.5 -46.666 31.5 -75.999c0 -30 -10.5 -55.5 -31.5 -76.5s-46.5 -31.5 -76.5 -31.5c-30.667 0 -56.667 10.5 -78 31.5s-32 46.5 -32 76.5
s10.667 55.5 32 76.5s47.333 31.5 78 31.5zM909 1798c30.667 0 56.667 -10.499 78 -31.499s32 -46.5 32 -76.5s-10.667 -55.5 -32 -76.5s-47.333 -31.5 -78 -31.5c-30 0 -55.5 10.5 -76.5 31.5s-31.5 46.5 -31.5 76.5c0 29.333 10.5 54.666 31.5 75.999s46.5 32 76.5 32z
M357 1443l-0.000976562 -917c0 -105.333 31.833 -190.166 95.5 -254.499s151.834 -96.5 264.501 -96.5s201 32.167 265 96.5s96 149.166 96 254.499v917h223v-936c0 -158 -52.667 -286 -158 -384s-247.333 -147 -426 -147s-320.667 49 -426 147s-158 226 -158 384v936h224z
" />
    <glyph glyph-name="udieresiscaron" unicode="&#x1da;" horiz-adv-x="1168" 
d="M383 1260c-32.667 0 -60.667 11.5 -84 34.5s-35 50.5 -35 82.5c0 32.667 11.5 60.334 34.5 83.001s51.167 34 84.5 34c32.667 0 60.5 -11.333 83.5 -34s34.5 -50.334 34.5 -83.001c0 -32 -11.5 -59.5 -34.5 -82.5s-50.833 -34.5 -83.5 -34.5zM781 1260
c-32.667 0 -60.5 11.5 -83.5 34.5s-34.5 50.5 -34.5 82.5c0 32.667 11.5 60.334 34.5 83.001s50.833 34 83.5 34c33.333 0 61.5 -11.333 84.5 -34s34.5 -50.334 34.5 -83.001c0 -32 -11.667 -59.5 -35 -82.5s-51.333 -34.5 -84 -34.5zM680 1596h-196l-260 271h183l172 -180
h6l172 180h183zM1057 1086l-0.000976562 -1086h-207v186h-4c-31.333 -64.667 -77 -113.834 -137 -147.501s-131.333 -50.5 -214 -50.5c-118.667 0 -213.167 36 -283.5 108s-105.5 170 -105.5 294v696h217v-655c0 -83.333 21.333 -146.833 64 -190.5
s103.334 -65.5 182.001 -65.5c81.333 0 146.833 26 196.5 78s74.5 121 74.5 207v626h217z" />
    <glyph glyph-name="Udieresisgrave" unicode="&#x1db;" horiz-adv-x="1434" 
d="M801 1863h-163l-237 218h212zM525 1582c-30.667 0 -56.667 10.499 -78 31.499s-32 46.5 -32 76.5s10.667 55.5 32 76.5s47.333 31.5 78 31.5c30 0 55.5 -10.667 76.5 -32s31.5 -46.666 31.5 -75.999c0 -30 -10.5 -55.5 -31.5 -76.5s-46.5 -31.5 -76.5 -31.5zM909 1582
c-30 0 -55.5 10.501 -76.5 31.501s-31.5 46.5 -31.5 76.5c0 29.333 10.5 54.666 31.5 75.999s46.5 32 76.5 32c30.667 0 56.667 -10.5 78 -31.5s32 -46.5 32 -76.5s-10.667 -55.5 -32 -76.5s-47.333 -31.5 -78 -31.5zM357 1443l-0.000976562 -917
c0 -105.333 31.833 -190.166 95.5 -254.499s151.834 -96.5 264.501 -96.5s201 32.167 265 96.5s96 149.166 96 254.499v917h223v-936c0 -158 -52.667 -286 -158 -384s-247.333 -147 -426 -147s-320.667 49 -426 147s-158 226 -158 384v936h224z" />
    <glyph glyph-name="udieresisgrave" unicode="&#x1dc;" horiz-adv-x="1168" 
d="M671 1607h-174l-207 260h216zM381 1260c-33.333 0 -61.833 11.667 -85.5 35s-35.5 51.333 -35.5 84s11.833 60.667 35.5 84s52.167 35 85.5 35s61.666 -11.5 84.999 -34.5s35 -51.167 35 -84.5c0 -32.667 -11.667 -60.667 -35 -84s-51.666 -35 -84.999 -35zM784 1260
c-33.333 0 -61.833 11.667 -85.5 35s-35.5 51.333 -35.5 84s11.833 60.667 35.5 84s52.167 35 85.5 35s61.666 -11.5 84.999 -34.5s35 -51.167 35 -84.5c0 -32.667 -11.667 -60.667 -35 -84s-51.666 -35 -84.999 -35zM1057 1086l-0.000976562 -1086h-207v186h-4
c-31.333 -64.667 -77 -113.834 -137 -147.501s-131.333 -50.5 -214 -50.5c-118.667 0 -213.167 36 -283.5 108s-105.5 170 -105.5 294v696h217v-655c0 -83.333 21.333 -146.833 64 -190.5s103.334 -65.5 182.001 -65.5c81.333 0 146.833 26 196.5 78s74.5 121 74.5 207v626
h217z" />
    <glyph glyph-name="Adieresismacron" unicode="&#x1de;" horiz-adv-x="1336" 
d="M1073 0l-132 390h-550l-132 -390h-233l521 1443h242l521 -1443h-237zM663 1203l-215 -633h436l-215 633h-6zM476 1798c30 0 55.5 -10.668 76.5 -32.001s31.5 -46.666 31.5 -75.999c0 -30 -10.5 -55.5 -31.5 -76.5s-46.5 -31.5 -76.5 -31.5
c-30.667 0 -56.667 10.5 -78 31.5s-32 46.5 -32 76.5s10.667 55.5 32 76.5s47.333 31.5 78 31.5zM341 2042h654v-119h-654v119zM860 1798c30.667 0 56.667 -10.499 78 -31.499s32 -46.5 32 -76.5s-10.667 -55.5 -32 -76.5s-47.333 -31.5 -78 -31.5
c-30 0 -55.5 10.5 -76.5 31.5s-31.5 46.5 -31.5 76.5c0 29.333 10.5 54.666 31.5 75.999s46.5 32 76.5 32z" />
    <glyph glyph-name="adieresismacron" unicode="&#x1df;" horiz-adv-x="1092" 
d="M488 162c80.667 0 148 23.168 202 69.501s81 105.166 81 176.499v85l-264 -18c-150 -9.33301 -225 -62.666 -225 -159.999c0 -46.667 18.667 -83.834 56 -111.501s87.333 -41.5 150 -41.5zM430 -10.999c-108.667 0 -196.999 29.501 -264.999 88.501
s-102 136.833 -102 233.5c0 94.667 35.5 169 106.5 223s173.833 85.333 308.5 94l293 17v84c0 62 -19.833 109.5 -59.5 142.5s-95.834 49.5 -168.501 49.5c-58.667 0 -108.167 -14 -148.5 -42s-65.166 -65.667 -74.499 -113h-203c3.33301 96 45.666 175.667 126.999 239
s183 95 305 95c132.667 0 238.5 -32.333 317.5 -97s118.5 -150.667 118.5 -258v-745h-207v181h-5c-30 -58.667 -76 -105.334 -138 -140.001s-130.333 -52 -205 -52zM346.001 1260c-32 0 -59.167 11 -81.5 33s-33.5 48.667 -33.5 80s11.167 58 33.5 80s49.5 33 81.5 33
s59 -11 81 -33s33 -48.667 33 -80s-11 -58 -33 -80s-49 -33 -81 -33zM744.001 1260c-32 0 -59 11 -81 33s-33 48.667 -33 80s11 58 33 80s49 33 81 33c32.667 0 60 -11 82 -33s33 -48.667 33 -80s-11.167 -58 -33.5 -80s-49.5 -33 -81.5 -33zM868.001 1777v-119h-646v119
h646z" />
    <glyph glyph-name="Adotmacron" unicode="&#x1e0;" horiz-adv-x="1336" 
d="M1073 0l-132 390h-550l-132 -390h-233l521 1443h242l521 -1443h-237zM663 1203l-215 -633h436l-215 633h-6zM668 1567c-34.667 0 -64 12 -88 36s-36 53 -36 87c0 33.333 12 61.833 36 85.5s53.333 35.5 88 35.5s64 -11.833 88 -35.5s36 -52.167 36 -85.5
c0 -34 -12 -63 -36 -87s-53.333 -36 -88 -36zM995 2042v-119h-654v119h654z" />
    <glyph glyph-name="adotmacron" unicode="&#x1e1;" horiz-adv-x="1092" 
d="M488 162c80.667 0 148 23.168 202 69.501s81 105.166 81 176.499v85l-264 -18c-150 -9.33301 -225 -62.666 -225 -159.999c0 -46.667 18.667 -83.834 56 -111.501s87.333 -41.5 150 -41.5zM430 -10.999c-108.667 0 -196.999 29.501 -264.999 88.501
s-102 136.833 -102 233.5c0 94.667 35.5 169 106.5 223s173.833 85.333 308.5 94l293 17v84c0 62 -19.833 109.5 -59.5 142.5s-95.834 49.5 -168.501 49.5c-58.667 0 -108.167 -14 -148.5 -42s-65.166 -65.667 -74.499 -113h-203c3.33301 96 45.666 175.667 126.999 239
s183 95 305 95c132.667 0 238.5 -32.333 317.5 -97s118.5 -150.667 118.5 -258v-745h-207v181h-5c-30 -58.667 -76 -105.334 -138 -140.001s-130.333 -52 -205 -52zM545.001 1258c-36 0 -67 12.833 -93 38.5s-39 56.5 -39 92.5c0 35.333 13 66 39 92s57 39 93 39
s67 -13 93 -39s39 -56.667 39 -92c0 -36 -13 -66.833 -39 -92.5s-57 -38.5 -93 -38.5zM868.001 1779v-119h-646v119h646z" />
    <glyph glyph-name="AEmacron" unicode="&#x1e2;" horiz-adv-x="1997" 
d="M812 1263l-298 -656h449v656h-151zM963 0v428h-527l-196 -428h-227l661 1443h1189v-193h-685v-430h648v-186h-648v-441h685v-193h-900zM1744 1755v-119h-654v119h654z" />
    <glyph glyph-name="aemacron" unicode="&#x1e3;" horiz-adv-x="1796" 
d="M1269 -13c-89.333 0 -168.334 18.835 -237.001 56.502s-120.667 91.167 -156 160.5h-9c-87.333 -143.333 -222.666 -215 -405.999 -215c-120.667 0 -217.167 29 -289.5 87s-108.5 135 -108.5 231c0 95.333 35.667 170.5 107 225.5s173.666 85.833 306.999 92.5l293 15v74
c0 61.333 -21.5 111.166 -64.5 149.499s-99.167 57.5 -168.5 57.5c-64.667 0 -116.834 -14 -156.501 -42s-61.834 -65.667 -66.501 -113h-206c6 98.667 47.833 179 125.5 241s176.834 93 297.501 93c88.667 0 165.5 -17.333 230.5 -52s111.167 -83 138.5 -145h8
c37.333 64 86.833 112.833 148.5 146.5s132.834 50.5 213.501 50.5c142 0 254.833 -48.333 338.5 -145s125.5 -227 125.5 -391v-75h-755v-14c0 -94.667 26.667 -170.334 80 -227.001s124.666 -85 213.999 -85c60.667 0 112.334 13.667 155.001 41s71.667 65.333 87 114h207
c-16 -99.333 -65.667 -179.333 -149 -240s-184.666 -91 -303.999 -91zM1258 923.002c-78 0 -142.334 -25.667 -193.001 -77s-79 -119.333 -85 -204h536c-2 86.667 -26.167 155.167 -72.5 205.5s-108.166 75.5 -185.499 75.5zM479.998 162.002
c81.333 0 149.999 23.6689 205.999 71.002s84 105.666 84 174.999v80l-266 -15c-71.333 -4 -126.166 -19.667 -164.499 -47s-57.5 -64.333 -57.5 -111s18 -83.834 54 -111.501s84 -41.5 144 -41.5zM1223 1431v-119h-646v119h646z" />
    <glyph glyph-name="Gcaron" unicode="&#x1e6;" horiz-adv-x="1462" 
d="M661 1547l-286 306h188l182 -199h4l182 199h188l-286 -306h-172zM1376 600c0 -195.333 -54.834 -348.164 -164.501 -458.497s-262.167 -165.5 -457.5 -165.5c-206.667 0 -370.5 67.5 -491.5 202.5s-181.5 318.167 -181.5 549.5c0 227.333 60.167 407.333 180.5 540
s283.5 199 489.5 199c160.667 0 296.834 -43.667 408.501 -131s180.167 -203 205.5 -347h-230c-26.667 89.333 -73.667 158.666 -141 207.999s-148 74 -242 74c-138 0 -246.167 -47.833 -324.5 -143.5s-117.5 -228.167 -117.5 -397.5c0 -172.667 40 -308.834 120 -408.501
s188.667 -149.5 326 -149.5c116.667 0 212 34.167 286 102.5s111.667 157.166 113 266.499v25h-373v181h594v-147z" />
    <glyph glyph-name="gcaron" unicode="&#x1e7;" horiz-adv-x="1192" 
d="M653 1251h-158l-273 307h185l164 -194h6l164 194h185zM572 183c88 0 158.833 33.1689 212.5 99.502s80.5 154.166 80.5 263.499c0 110 -26.833 198.667 -80.5 266s-124.5 101 -212.5 101c-87.333 0 -157.166 -33.333 -209.499 -100s-78.5 -155.667 -78.5 -267
c0 -110.667 26.167 -198.834 78.5 -264.501s122.166 -98.5 209.499 -98.5zM573 -390.998c-130.667 0 -238.669 28 -324.002 84s-133.333 130.333 -144 223h219c12 -42 41.333 -75.333 88 -100s103.334 -37 170.001 -37c86 0 154.667 21 206 63s77 98.333 77 169v179h-5
c-31.333 -58.667 -77.5 -104.5 -138.5 -137.5s-129.833 -49.5 -206.5 -49.5c-136 0 -245.5 49.5 -328.5 148.5s-124.5 230.833 -124.5 395.5c0 167.333 41.5 300.833 124.5 400.5s194.167 149.5 333.5 149.5c76.667 0 145.334 -16.833 206.001 -50.5
s107.667 -80.5 141 -140.5h4v180h210v-1058c0 -129.333 -45.5 -231.5 -136.5 -306.5s-214.833 -112.5 -371.5 -112.5z" />
    <glyph glyph-name="Kcaron" unicode="&#x1e8;" horiz-adv-x="1293" 
d="M357 0h-224v1443h224v-687h9l603 687h266l-572 -639l620 -804h-278l-500 650l-148 -169v-481zM543 1547l-286 306h188l182 -199h4l182 199h188l-286 -306h-172z" />
    <glyph glyph-name="kcaron" unicode="&#x1e9;" horiz-adv-x="1062" 
d="M338 617l447 469h255l-454 -468l470 -618h-250l-375 486l-94 -92v-394h-217v1508h217v-891h1zM142 1612l-286 306h188l182 -199h4l182 199h188l-286 -306h-172z" />
    <glyph glyph-name="Oogonek" unicode="&#x1ea;" horiz-adv-x="1513" 
d="M1122 -423c-28.667 -11.333 -67.335 -16.999 -116.002 -16.999c-72.667 0 -131.5 19.5 -176.5 58.5s-67.5 89.833 -67.5 152.5c0 88 36.667 160.667 110 218v4c-34.667 -11.333 -72.667 -17 -114 -17c-210.667 0 -376.167 66.5 -496.5 199.5s-180.5 315.167 -180.5 546.5
c0 230 60.5 411.667 181.5 545s286.167 200 495.5 200c208.667 0 373.167 -66.5 493.5 -199.5s180.5 -314.833 180.5 -545.5c0 -78.667 -6.83301 -150.834 -20.5 -216.501s-33.167 -122.667 -58.5 -171s-51.166 -89.333 -77.499 -123s-57.166 -66.167 -92.499 -97.5
c-20 -18 -49.5 -42.833 -88.5 -74.5s-67.5 -55.667 -85.5 -72s-35 -38 -51 -65s-24 -54.833 -24 -83.5c0 -34 11 -61.333 33 -82s51 -31 87 -31c28 0 50.667 2.66699 68 8v-137zM757.999 1270c-138 0 -247.167 -49.166 -327.5 -147.499s-120.5 -231.833 -120.5 -400.5
c0 -170 40 -304 120 -402s189.333 -147 328 -147c137.333 0 245.833 49.167 325.5 147.5s119.5 232.166 119.5 401.499s-39.833 303 -119.5 401s-188.167 147 -325.5 147z" />
    <glyph glyph-name="oogonek" unicode="&#x1eb;" horiz-adv-x="1152" 
d="M780 -440c-69.333 0 -125.831 20.498 -169.498 61.498s-65.5 94.5 -65.5 160.5c0 73.333 34.333 141.333 103 204v3c-21.333 -1.33301 -45.333 -2 -72 -2c-157.333 0 -282.333 50 -375 150s-139 235.333 -139 406s46.333 306.167 139 406.5s217.667 150.5 375 150.5
s282.166 -50.167 374.499 -150.5s138.5 -235.833 138.5 -406.5c0 -100.667 -15 -187.167 -45 -259.5s-79 -139.166 -147 -200.499c-68.667 -63.333 -116 -114.166 -142 -152.499s-39 -76.833 -39 -115.5c0 -33.333 10.833 -60 32.5 -80s50.167 -30 85.5 -30
c28 0 54.667 3 80 9v-134c-36.667 -13.333 -81.334 -20 -134.001 -20zM576.002 166.998c92 0 163.833 33.167 215.5 99.5s77.5 158.5 77.5 276.5c0 118.667 -25.833 211.167 -77.5 277.5s-123.5 99.5 -215.5 99.5s-164 -33.333 -216 -100s-78 -159 -78 -277
s26 -210.167 78 -276.5s124 -99.5 216 -99.5z" />
    <glyph glyph-name="Oogonekmacron" unicode="&#x1ec;" horiz-adv-x="1513" 
d="M1122 -423c-28.667 -11.333 -67.335 -16.999 -116.002 -16.999c-72.667 0 -131.5 19.5 -176.5 58.5s-67.5 89.833 -67.5 152.5c0 88 36.667 160.667 110 218v4c-34.667 -11.333 -72.667 -17 -114 -17c-210.667 0 -376.167 66.5 -496.5 199.5s-180.5 315.167 -180.5 546.5
c0 230 60.5 411.667 181.5 545s286.167 200 495.5 200c208.667 0 373.167 -66.5 493.5 -199.5s180.5 -314.833 180.5 -545.5c0 -78.667 -6.83301 -150.834 -20.5 -216.501s-33.167 -122.667 -58.5 -171s-51.166 -89.333 -77.499 -123s-57.166 -66.167 -92.499 -97.5
c-20 -18 -49.5 -42.833 -88.5 -74.5s-67.5 -55.667 -85.5 -72s-35 -38 -51 -65s-24 -54.833 -24 -83.5c0 -34 11 -61.333 33 -82s51 -31 87 -31c28 0 50.667 2.66699 68 8v-137zM757.999 1270c-138 0 -247.167 -49.166 -327.5 -147.499s-120.5 -231.833 -120.5 -400.5
c0 -170 40 -304 120 -402s189.333 -147 328 -147c137.333 0 245.833 49.167 325.5 147.5s119.5 232.166 119.5 401.499s-39.833 303 -119.5 401s-188.167 147 -325.5 147zM1084 1755v-119h-654v119h654z" />
    <glyph glyph-name="oogonekmacron" unicode="&#x1ed;" horiz-adv-x="1152" 
d="M899 1431v-119h-646v119h646zM780 -440c-69.333 0 -125.831 20.498 -169.498 61.498s-65.5 94.5 -65.5 160.5c0 73.333 34.333 141.333 103 204v3c-21.333 -1.33301 -45.333 -2 -72 -2c-157.333 0 -282.333 50 -375 150s-139 235.333 -139 406s46.333 306.167 139 406.5
s217.667 150.5 375 150.5s282.166 -50.167 374.499 -150.5s138.5 -235.833 138.5 -406.5c0 -100.667 -15 -187.167 -45 -259.5s-79 -139.166 -147 -200.499c-68.667 -63.333 -116 -114.166 -142 -152.499s-39 -76.833 -39 -115.5c0 -33.333 10.833 -60 32.5 -80
s50.167 -30 85.5 -30c28 0 54.667 3 80 9v-134c-36.667 -13.333 -81.334 -20 -134.001 -20zM576.002 166.998c92 0 163.833 33.167 215.5 99.5s77.5 158.5 77.5 276.5c0 118.667 -25.833 211.167 -77.5 277.5s-123.5 99.5 -215.5 99.5s-164 -33.333 -216 -100
s-78 -159 -78 -277s26 -210.167 78 -276.5s124 -99.5 216 -99.5z" />
    <glyph glyph-name="u01F1" unicode="&#x1f1;" horiz-adv-x="2686" 
d="M1508 0v153l790 1089v8h-766v193h1041v-153l-787 -1089v-7h806v-194h-1084zM133 1443h517c215.333 0 383 -63 503 -189s180 -302.667 180 -530c0 -228 -60 -405.667 -180 -533s-287.667 -191 -503 -191h-517v1443zM357 1250v-1056h272c153.333 0 271 45.5 353 136.5
s123 221.5 123 391.5s-41 300.5 -123 391.5s-199.667 136.5 -353 136.5h-272z" />
    <glyph glyph-name="u01F2" unicode="&#x1f2;" horiz-adv-x="2428" 
d="M1502 0v141l584 769v3h-581v173h828v-149l-570 -760v-4h576v-173h-837zM133 1443h517c215.333 0 383 -63 503 -189s180 -302.667 180 -530c0 -228 -60 -405.667 -180 -533s-287.667 -191 -503 -191h-517v1443zM357 1250v-1056h272c153.333 0 271 45.5 353 136.5
s123 221.5 123 391.5s-41 300.5 -123 391.5s-199.667 136.5 -353 136.5h-272z" />
    <glyph glyph-name="u01F3" unicode="&#x1f3;" horiz-adv-x="2215" 
d="M1289 0v141l584 769v3h-581v173h828v-149l-570 -760v-4h576v-173h-837zM520 -11c-136.667 0 -247.166 50.668 -331.499 152.001s-126.5 235.666 -126.5 402.999c0 166 42.167 299.667 126.5 401s194.166 152 329.499 152c77.333 0 145.833 -16.833 205.5 -50.5
s105.167 -80.5 136.5 -140.5h5v602h216v-1508h-210v184h-4c-32 -62 -78.167 -110 -138.5 -144s-129.833 -51 -208.5 -51zM575.001 913.001c-87.333 0 -157.665 -33.667 -210.998 -101s-80 -157 -80 -269c0 -112.667 26.5 -202.5 79.5 -269.5s123.5 -100.5 211.5 -100.5
c87.333 0 157.666 34 210.999 102s80 157.333 80 268s-26.833 200 -80.5 268s-123.834 102 -210.501 102z" />
    <glyph glyph-name="Gacute" unicode="&#x1f4;" horiz-adv-x="1462" 
d="M835 1551h-176l231 303h225zM1376 600c0 -195.333 -54.834 -348.164 -164.501 -458.497s-262.167 -165.5 -457.5 -165.5c-206.667 0 -370.5 67.5 -491.5 202.5s-181.5 318.167 -181.5 549.5c0 227.333 60.167 407.333 180.5 540s283.5 199 489.5 199
c160.667 0 296.834 -43.667 408.501 -131s180.167 -203 205.5 -347h-230c-26.667 89.333 -73.667 158.666 -141 207.999s-148 74 -242 74c-138 0 -246.167 -47.833 -324.5 -143.5s-117.5 -228.167 -117.5 -397.5c0 -172.667 40 -308.834 120 -408.501
s188.667 -149.5 326 -149.5c116.667 0 212 34.167 286 102.5s111.667 157.166 113 266.499v25h-373v181h594v-147z" />
    <glyph glyph-name="gacute" unicode="&#x1f5;" horiz-adv-x="1192" 
d="M661 1255h-178l215 303h225zM572 183c88 0 158.833 33.1689 212.5 99.502s80.5 154.166 80.5 263.499c0 110 -26.833 198.667 -80.5 266s-124.5 101 -212.5 101c-87.333 0 -157.166 -33.333 -209.499 -100s-78.5 -155.667 -78.5 -267
c0 -110.667 26.167 -198.834 78.5 -264.501s122.166 -98.5 209.499 -98.5zM573 -390.998c-130.667 0 -238.669 28 -324.002 84s-133.333 130.333 -144 223h219c12 -42 41.333 -75.333 88 -100s103.334 -37 170.001 -37c86 0 154.667 21 206 63s77 98.333 77 169v179h-5
c-31.333 -58.667 -77.5 -104.5 -138.5 -137.5s-129.833 -49.5 -206.5 -49.5c-136 0 -245.5 49.5 -328.5 148.5s-124.5 230.833 -124.5 395.5c0 167.333 41.5 300.833 124.5 400.5s194.167 149.5 333.5 149.5c76.667 0 145.334 -16.833 206.001 -50.5
s107.667 -80.5 141 -140.5h4v180h210v-1058c0 -129.333 -45.5 -231.5 -136.5 -306.5s-214.833 -112.5 -371.5 -112.5z" />
    <glyph glyph-name="Ngrave" unicode="&#x1f8;" horiz-adv-x="1443" 
d="M635 1553l-280 303h225l231 -303h-176zM351 0h-218v1443h203l748 -1064h8v1064h218v-1443h-202l-748 1063h-9v-1063z" />
    <glyph glyph-name="ngrave" unicode="&#x1f9;" horiz-adv-x="1168" 
d="M671 1255h-178l-262 303h225zM111 0v1086h207v-183h4c67.333 130 185 195 353 195c120 0 214.5 -35.833 283.5 -107.5s103.5 -169.834 103.5 -294.501v-696h-217v655c0 82.667 -21 146.167 -63 190.5s-102.667 66.5 -182 66.5c-82 0 -147.833 -26.167 -197.5 -78.5
s-74.5 -121.166 -74.5 -206.499v-627h-217z" />
    <glyph glyph-name="Aringacute" unicode="&#x1fa;" horiz-adv-x="1336" 
d="M1073 0l-132 390h-550l-132 -390h-233l521 1443h242l521 -1443h-237zM663 1203l-215 -633h436l-215 633h-6zM668 1484c-56 0 -103.667 19.5 -143 58.5s-59 86.167 -59 141.5s19.667 102.5 59 141.5s87 58.5 143 58.5s103.667 -19.5 143 -58.5s59 -86.167 59 -141.5
s-19.667 -102.5 -59 -141.5s-87 -58.5 -143 -58.5zM668 1575c30.667 0 56.5 10.5 77.5 31.5s31.5 46.833 31.5 77.5c0 30 -10.5 55.5 -31.5 76.5s-46.833 31.5 -77.5 31.5s-56.5 -10.5 -77.5 -31.5s-31.5 -46.5 -31.5 -76.5c0 -30.667 10.5 -56.5 31.5 -77.5
s46.833 -31.5 77.5 -31.5zM718 2114h202l-175 -188h-146z" />
    <glyph glyph-name="aringacute" unicode="&#x1fb;" horiz-adv-x="1092" 
d="M488 162c80.667 0 148 23.168 202 69.501s81 105.166 81 176.499v85l-264 -18c-150 -9.33301 -225 -62.666 -225 -159.999c0 -46.667 18.667 -83.834 56 -111.501s87.333 -41.5 150 -41.5zM430 -10.999c-108.667 0 -196.999 29.501 -264.999 88.501
s-102 136.833 -102 233.5c0 94.667 35.5 169 106.5 223s173.833 85.333 308.5 94l293 17v84c0 62 -19.833 109.5 -59.5 142.5s-95.834 49.5 -168.501 49.5c-58.667 0 -108.167 -14 -148.5 -42s-65.166 -65.667 -74.499 -113h-203c3.33301 96 45.666 175.667 126.999 239
s183 95 305 95c132.667 0 238.5 -32.333 317.5 -97s118.5 -150.667 118.5 -258v-745h-207v181h-5c-30 -58.667 -76 -105.334 -138 -140.001s-130.333 -52 -205 -52zM546.001 1193c-57.333 0 -106 19.833 -146 59.5s-60 87.834 -60 144.501c0 57.333 20 105.833 60 145.5
s88.667 59.5 146 59.5s105.833 -20 145.5 -60s59.5 -88.333 59.5 -145s-20 -104.834 -60 -144.501s-88.333 -59.5 -145 -59.5zM436.001 1397c0 -30 10.667 -55.667 32 -77s47.333 -32 78 -32c30 0 55.667 10.667 77 32s32 47 32 77c0 30.667 -10.667 56.667 -32 78
s-47 32 -77 32c-30.667 0 -56.667 -10.667 -78 -32s-32 -47.333 -32 -78zM471.001 1673l125 203h186l-165 -203h-146z" />
    <glyph glyph-name="AEacute" unicode="&#x1fc;" horiz-adv-x="1997" 
d="M1505 1551h-176l231 303h225zM812 1263l-298 -656h449v656h-151zM963 0v428h-527l-196 -428h-227l661 1443h1189v-193h-685v-430h648v-186h-648v-441h685v-193h-900z" />
    <glyph glyph-name="aeacute" unicode="&#x1fd;" horiz-adv-x="1796" 
d="M987 1255h-178l215 303h225zM1269 -13c-89.333 0 -168.334 18.835 -237.001 56.502s-120.667 91.167 -156 160.5h-9c-87.333 -143.333 -222.666 -215 -405.999 -215c-120.667 0 -217.167 29 -289.5 87s-108.5 135 -108.5 231c0 95.333 35.667 170.5 107 225.5
s173.666 85.833 306.999 92.5l293 15v74c0 61.333 -21.5 111.166 -64.5 149.499s-99.167 57.5 -168.5 57.5c-64.667 0 -116.834 -14 -156.501 -42s-61.834 -65.667 -66.501 -113h-206c6 98.667 47.833 179 125.5 241s176.834 93 297.501 93
c88.667 0 165.5 -17.333 230.5 -52s111.167 -83 138.5 -145h8c37.333 64 86.833 112.833 148.5 146.5s132.834 50.5 213.501 50.5c142 0 254.833 -48.333 338.5 -145s125.5 -227 125.5 -391v-75h-755v-14c0 -94.667 26.667 -170.334 80 -227.001s124.666 -85 213.999 -85
c60.667 0 112.334 13.667 155.001 41s71.667 65.333 87 114h207c-16 -99.333 -65.667 -179.333 -149 -240s-184.666 -91 -303.999 -91zM1258 923.002c-78 0 -142.334 -25.667 -193.001 -77s-79 -119.333 -85 -204h536c-2 86.667 -26.167 155.167 -72.5 205.5
s-108.166 75.5 -185.499 75.5zM479.998 162.002c81.333 0 149.999 23.6689 205.999 71.002s84 105.666 84 174.999v80l-266 -15c-71.333 -4 -126.166 -19.667 -164.499 -47s-57.5 -64.333 -57.5 -111s18 -83.834 54 -111.501s84 -41.5 144 -41.5z" />
    <glyph glyph-name="Oslashacute" unicode="&#x1fe;" horiz-adv-x="1513" 
d="M1151 1854l-280 -303h-176l231 303h225zM1114 1078l-605 -830c69.333 -50 152 -75 248 -75c136.667 0 245.167 49.333 325.5 148s120.5 232 120.5 400c0 144 -29.667 263 -89 357zM420 335l613.999 838.001c-74.667 64.667 -167 97 -277 97
c-137.333 0 -246.166 -49.333 -326.499 -148s-120.5 -232.334 -120.5 -401.001c0 -160 36.667 -288.667 110 -386zM1370 1429l-119.001 -163c121.333 -134 182 -315.667 182 -545s-60.667 -410.833 -182 -544.5s-286 -200.5 -494 -200.5c-143.333 0 -268 33 -374 99
l-94 -129l-101 73l98 134c-136.667 134.667 -205 324 -205 568c0 229.333 60.667 411 182 545s286 201 494 201c158.667 0 293.334 -40 404.001 -120l108 147z" />
    <glyph glyph-name="oslashacute" unicode="&#x1ff;" horiz-adv-x="1152" 
d="M945 1558l-262 -303h-178l215 303h225zM814 787l-384 -582.999c42 -24.667 90.667 -37 146 -37c92 0 163.833 33 215.5 99s77.5 158.333 77.5 277c0 99.333 -18.333 180.666 -55 243.999zM341 293.001l389 585c-44.667 28 -96 42 -154 42c-92 0 -164 -33.333 -216 -100
s-78 -159 -78 -277c0 -102.667 19.667 -186 59 -250zM1003 1074l-70.001 -107c104 -100 156 -241.333 156 -424c0 -170.667 -46.167 -306 -138.5 -406s-217.166 -150 -374.499 -150c-94 0 -178 19 -252 57l-61 -93l-104 67l64 97c-107.333 100 -161 242.667 -161 428
c0 170 46.5 305.333 139.5 406s217.833 151 374.5 151c100 0 186.667 -20.667 260 -62l65 98z" />
    <glyph glyph-name="Adblgrave" unicode="&#x200;" horiz-adv-x="1336" 
d="M1073 0l-132 390h-550l-132 -390h-233l521 1443h242l521 -1443h-237zM663 1203l-215 -633h436l-215 633h-6zM755 1551l-279 303h217l231 -303h-169zM415 1551l-280 303h217l231 -303h-168z" />
    <glyph glyph-name="adblgrave" unicode="&#x201;" horiz-adv-x="1092" 
d="M488 162c80.667 0 148 23.168 202 69.501s81 105.166 81 176.499v85l-264 -18c-150 -9.33301 -225 -62.666 -225 -159.999c0 -46.667 18.667 -83.834 56 -111.501s87.333 -41.5 150 -41.5zM430 -10.999c-108.667 0 -196.999 29.501 -264.999 88.501
s-102 136.833 -102 233.5c0 94.667 35.5 169 106.5 223s173.833 85.333 308.5 94l293 17v84c0 62 -19.833 109.5 -59.5 142.5s-95.834 49.5 -168.501 49.5c-58.667 0 -108.167 -14 -148.5 -42s-65.166 -65.667 -74.499 -113h-203c3.33301 96 45.666 175.667 126.999 239
s183 95 305 95c132.667 0 238.5 -32.333 317.5 -97s118.5 -150.667 118.5 -258v-745h-207v181h-5c-30 -58.667 -76 -105.334 -138 -140.001s-130.333 -52 -205 -52zM461.001 1255h-162l-247 303h215zM796.001 1255h-162l-247 303h216z" />
    <glyph glyph-name="Ainvertedbreve" unicode="&#x202;" horiz-adv-x="1336" 
d="M1073 0l-132 390h-550l-132 -390h-233l521 1443h242l521 -1443h-237zM663 1203l-215 -633h436l-215 633h-6zM343 1547c0.666992 89.333 30.8301 162.666 90.4971 219.999s137.834 86 234.501 86s174.834 -28.667 234.501 -86s89.834 -130.666 90.501 -219.999h-140
c0 53.333 -17.5 98 -52.5 134s-79.167 54 -132.5 54s-97.5 -18 -132.5 -54s-52.5 -80.667 -52.5 -134h-140z" />
    <glyph glyph-name="ainvertedbreve" unicode="&#x203;" horiz-adv-x="1092" 
d="M488 162c80.667 0 148 23.168 202 69.501s81 105.166 81 176.499v85l-264 -18c-150 -9.33301 -225 -62.666 -225 -159.999c0 -46.667 18.667 -83.834 56 -111.501s87.333 -41.5 150 -41.5zM430 -10.999c-108.667 0 -196.999 29.501 -264.999 88.501
s-102 136.833 -102 233.5c0 94.667 35.5 169 106.5 223s173.833 85.333 308.5 94l293 17v84c0 62 -19.833 109.5 -59.5 142.5s-95.834 49.5 -168.501 49.5c-58.667 0 -108.167 -14 -148.5 -42s-65.166 -65.667 -74.499 -113h-203c3.33301 96 45.666 175.667 126.999 239
s183 95 305 95c132.667 0 238.5 -32.333 317.5 -97s118.5 -150.667 118.5 -258v-745h-207v181h-5c-30 -58.667 -76 -105.334 -138 -140.001s-130.333 -52 -205 -52zM210.001 1251c0.666992 92.667 31.667 168.167 93 226.5s142 87.5 242 87.5s180.667 -29.167 242 -87.5
s92.333 -133.833 93 -226.5h-143c-0.666992 54.667 -19.167 100.5 -55.5 137.5s-81.833 55.5 -136.5 55.5s-100.167 -18.5 -136.5 -55.5s-54.833 -82.833 -55.5 -137.5h-143z" />
    <glyph glyph-name="Edblgrave" unicode="&#x204;" horiz-adv-x="1146" 
d="M678 1551l-279 303h217l231 -303h-169zM338 1551l-280 303h217l231 -303h-168zM1049 194v-194h-916v1443h916v-193h-692v-422h655v-186h-655v-448h692z" />
    <glyph glyph-name="edblgrave" unicode="&#x205;" horiz-adv-x="1113" 
d="M563 923c-78 0 -142.833 -26 -194.5 -78s-80.5 -119.667 -86.5 -203h551c-2.66699 84.667 -28.667 152.667 -78 204s-113.333 77 -192 77zM832 318h207.001c-15.333 -97.333 -66.333 -176.833 -153 -238.5s-191 -92.5 -313 -92.5c-157.333 0 -281.833 49.5 -373.5 148.5
s-137.5 233.5 -137.5 403.5s45.667 306 137 408s213 153 365 153c149.333 0 267.666 -48.167 354.999 -144.5s131 -226.833 131 -391.5v-76h-769v-13c0 -94 27 -169.5 81 -226.5s125.667 -85.5 215 -85.5c63.333 0 118 14 164 42s76.333 65.667 91 113zM480.001 1255h-162
l-247 303h215zM815.001 1255h-162l-247 303h216z" />
    <glyph glyph-name="Einvertedbreve" unicode="&#x206;" horiz-adv-x="1146" 
d="M1049 194v-194h-916v1443h916v-193h-692v-422h655v-186h-655v-448h692zM266 1547c0.666992 89.333 30.8301 162.666 90.4971 219.999s137.834 86 234.501 86s174.834 -28.667 234.501 -86s89.834 -130.666 90.501 -219.999h-140c0 53.333 -17.5 98 -52.5 134
s-79.167 54 -132.5 54s-97.5 -18 -132.5 -54s-52.5 -80.667 -52.5 -134h-140z" />
    <glyph glyph-name="einvertedbreve" unicode="&#x207;" horiz-adv-x="1113" 
d="M563 923c-78 0 -142.833 -26 -194.5 -78s-80.5 -119.667 -86.5 -203h551c-2.66699 84.667 -28.667 152.667 -78 204s-113.333 77 -192 77zM832 318h207.001c-15.333 -97.333 -66.333 -176.833 -153 -238.5s-191 -92.5 -313 -92.5c-157.333 0 -281.833 49.5 -373.5 148.5
s-137.5 233.5 -137.5 403.5s45.667 306 137 408s213 153 365 153c149.333 0 267.666 -48.167 354.999 -144.5s131 -226.833 131 -391.5v-76h-769v-13c0 -94 27 -169.5 81 -226.5s125.667 -85.5 215 -85.5c63.333 0 118 14 164 42s76.333 65.667 91 113zM229.001 1251
c0.666992 92.667 31.667 168.167 93 226.5s142 87.5 242 87.5s180.667 -29.167 242 -87.5s92.333 -133.833 93 -226.5h-143c-0.666992 54.667 -19.167 100.5 -55.5 137.5s-81.833 55.5 -136.5 55.5s-100.167 -18.5 -136.5 -55.5s-54.833 -82.833 -55.5 -137.5h-143z" />
    <glyph glyph-name="Idblgrave" unicode="&#x208;" horiz-adv-x="490" 
d="M357 0h-224v1443h224v-1443zM332 1551l-279 303h217l231 -303h-169zM-8 1551l-280 303h217l231 -303h-168z" />
    <glyph glyph-name="idblgrave" unicode="&#x209;" horiz-adv-x="455" 
d="M119 0v1086h217v-1086h-217zM144 1255h-162l-247 303h215zM479 1255h-162l-247 303h216z" />
    <glyph glyph-name="Iinvertedbreve" unicode="&#x20a;" horiz-adv-x="490" 
d="M357 0h-224v1443h224v-1443zM-80 1547c0.666992 89.333 30.8301 162.666 90.4971 219.999s137.834 86 234.501 86s174.834 -28.667 234.501 -86s89.834 -130.666 90.501 -219.999h-140c0 53.333 -17.5 98 -52.5 134s-79.167 54 -132.5 54s-97.5 -18 -132.5 -54
s-52.5 -80.667 -52.5 -134h-140z" />
    <glyph glyph-name="iinvertedbreve" unicode="&#x20b;" horiz-adv-x="455" 
d="M119 0v1086h217v-1086h-217zM-107 1251c0.666992 92.667 31.667 168.167 93 226.5s142 87.5 242 87.5s180.667 -29.167 242 -87.5s92.333 -133.833 93 -226.5h-143c-0.666992 54.667 -19.167 100.5 -55.5 137.5s-81.833 55.5 -136.5 55.5s-100.167 -18.5 -136.5 -55.5
s-54.833 -82.833 -55.5 -137.5h-143z" />
    <glyph glyph-name="Odblgrave" unicode="&#x20c;" horiz-adv-x="1513" 
d="M844 1551l-279 303h217l231 -303h-169zM504 1551l-280 303h217l231 -303h-168zM757 1467c207.333 0 371.833 -67 493.5 -201s182.5 -315.667 182.5 -545s-60.667 -410.833 -182 -544.5s-286 -200.5 -494 -200.5s-372.667 66.833 -494 200.5s-182 315.167 -182 544.5
s60.667 411 182 545s286 201 494 201zM757 1270c-137.333 0 -246.166 -49.333 -326.499 -148s-120.5 -232.334 -120.5 -401.001c0 -168 40.167 -301.333 120.5 -400s189.166 -148 326.499 -148c136.667 0 245.167 49.333 325.5 148s120.5 232 120.5 400
c0 168.667 -40.167 302.334 -120.5 401.001s-188.833 148 -325.5 148z" />
    <glyph glyph-name="odblgrave" unicode="&#x20d;" horiz-adv-x="1152" 
d="M576 -13c-157.333 0 -282.335 50 -375.002 150s-139 235.333 -139 406c0 170 46.5 305.333 139.5 406s217.833 151 374.5 151s281.334 -50.167 374.001 -150.5s139 -235.833 139 -406.5s-46.167 -306 -138.5 -406s-217.166 -150 -374.499 -150zM575.998 167
c92 0 163.833 33 215.5 99s77.5 158.333 77.5 277s-25.833 211.167 -77.5 277.5s-123.5 99.5 -215.5 99.5s-164 -33.333 -216 -100s-78 -159 -78 -277s26 -210.167 78 -276.5s124 -99.5 216 -99.5zM491.998 1255h-162l-247 303h215zM826.998 1255h-162l-247 303h216z" />
    <glyph glyph-name="Oinvertedbreve" unicode="&#x20e;" horiz-adv-x="1513" 
d="M432 1547c0.666992 89.333 30.8301 162.666 90.4971 219.999s137.834 86 234.501 86s174.834 -28.667 234.501 -86s89.834 -130.666 90.501 -219.999h-140c0 53.333 -17.5 98 -52.5 134s-79.167 54 -132.5 54s-97.5 -18 -132.5 -54s-52.5 -80.667 -52.5 -134h-140z
M756.996 1467c207.333 0 371.833 -67 493.5 -201s182.5 -315.667 182.5 -545s-60.667 -410.833 -182 -544.5s-286 -200.5 -494 -200.5s-372.667 66.833 -494 200.5s-182 315.167 -182 544.5s60.667 411 182 545s286 201 494 201zM756.996 1270
c-137.333 0 -246.166 -49.333 -326.499 -148s-120.5 -232.334 -120.5 -401.001c0 -168 40.167 -301.333 120.5 -400s189.166 -148 326.499 -148c136.667 0 245.167 49.333 325.5 148s120.5 232 120.5 400c0 168.667 -40.167 302.334 -120.5 401.001s-188.833 148 -325.5 148
z" />
    <glyph glyph-name="oinvertedbreve" unicode="&#x20f;" horiz-adv-x="1152" 
d="M576 -13c-157.333 0 -282.335 50 -375.002 150s-139 235.333 -139 406c0 170 46.5 305.333 139.5 406s217.833 151 374.5 151s281.334 -50.167 374.001 -150.5s139 -235.833 139 -406.5s-46.167 -306 -138.5 -406s-217.166 -150 -374.499 -150zM575.998 167
c92 0 163.833 33 215.5 99s77.5 158.333 77.5 277s-25.833 211.167 -77.5 277.5s-123.5 99.5 -215.5 99.5s-164 -33.333 -216 -100s-78 -159 -78 -277s26 -210.167 78 -276.5s124 -99.5 216 -99.5zM240.998 1251c0.666992 92.667 31.667 168.167 93 226.5s142 87.5 242 87.5
s180.667 -29.167 242 -87.5s92.333 -133.833 93 -226.5h-143c-0.666992 54.667 -19.167 100.5 -55.5 137.5s-81.833 55.5 -136.5 55.5s-100.167 -18.5 -136.5 -55.5s-54.833 -82.833 -55.5 -137.5h-143z" />
    <glyph glyph-name="Rdblgrave" unicode="&#x210;" horiz-adv-x="1265" 
d="M651 1551l-279 303h217l231 -303h-169zM311 1551l-280 303h217l231 -303h-168zM357 1255v-519h322c86.667 0 153.834 22.667 201.501 68s71.5 109.333 71.5 192c0 80.667 -24.833 144 -74.5 190s-117.834 69 -204.501 69h-316zM357 555v-554.999h-224v1443h567
c148 0 265.333 -39.833 352 -119.5s130 -186.834 130 -321.501c0 -98 -24.833 -183.833 -74.5 -257.5s-118.167 -125.167 -205.5 -154.5l324 -590h-259l-294 555h-316z" />
    <glyph glyph-name="rdblgrave" unicode="&#x211;" horiz-adv-x="688" 
d="M111 0v1086h207v-183h4c16.667 60.667 48.5 108.167 95.5 142.5s102.5 51.5 166.5 51.5c30 0 54 -2.66699 72 -8v-203c-24 9.33301 -55.667 14 -95 14c-71.333 0 -128 -22.833 -170 -68.5s-63 -106.834 -63 -183.501v-648h-217zM295 1255h-162l-247 303h215zM630 1255
h-162l-247 303h216z" />
    <glyph glyph-name="Rinvertedbreve" unicode="&#x212;" horiz-adv-x="1265" 
d="M357 1255v-519h322c86.667 0 153.834 22.667 201.501 68s71.5 109.333 71.5 192c0 80.667 -24.833 144 -74.5 190s-117.834 69 -204.501 69h-316zM357 555v-554.999h-224v1443h567c148 0 265.333 -39.833 352 -119.5s130 -186.834 130 -321.501
c0 -98 -24.833 -183.833 -74.5 -257.5s-118.167 -125.167 -205.5 -154.5l324 -590h-259l-294 555h-316zM239 1547c0.666992 89.333 30.8301 162.666 90.4971 219.999s137.834 86 234.501 86s174.834 -28.667 234.501 -86s89.834 -130.666 90.501 -219.999h-140
c0 53.333 -17.5 98 -52.5 134s-79.167 54 -132.5 54s-97.5 -18 -132.5 -54s-52.5 -80.667 -52.5 -134h-140z" />
    <glyph glyph-name="rinvertedbreve" unicode="&#x213;" horiz-adv-x="688" 
d="M111 0v1086h207v-183h4c16.667 60.667 48.5 108.167 95.5 142.5s102.5 51.5 166.5 51.5c30 0 54 -2.66699 72 -8v-203c-24 9.33301 -55.667 14 -95 14c-71.333 0 -128 -22.833 -170 -68.5s-63 -106.834 -63 -183.501v-648h-217zM44 1251
c0.666992 92.667 31.667 168.167 93 226.5s142 87.5 242 87.5s180.667 -29.167 242 -87.5s92.333 -133.833 93 -226.5h-143c-0.666992 54.667 -19.167 100.5 -55.5 137.5s-81.833 55.5 -136.5 55.5s-100.167 -18.5 -136.5 -55.5s-54.833 -82.833 -55.5 -137.5h-143z" />
    <glyph glyph-name="Udblgrave" unicode="&#x214;" horiz-adv-x="1434" 
d="M804 1551l-279 303h217l231 -303h-169zM464 1551l-280 303h217l231 -303h-168zM357 1443l-0.000976562 -917c0 -105.333 31.833 -190.166 95.5 -254.499s151.834 -96.5 264.501 -96.5s201 32.167 265 96.5s96 149.166 96 254.499v917h223v-936
c0 -158 -52.667 -286 -158 -384s-247.333 -147 -426 -147s-320.667 49 -426 147s-158 226 -158 384v936h224z" />
    <glyph glyph-name="udblgrave" unicode="&#x215;" horiz-adv-x="1168" 
d="M1057 1086l-0.000976562 -1086h-207v186h-4c-31.333 -64.667 -77 -113.834 -137 -147.501s-131.333 -50.5 -214 -50.5c-118.667 0 -213.167 36 -283.5 108s-105.5 170 -105.5 294v696h217v-655c0 -83.333 21.333 -146.833 64 -190.5s103.334 -65.5 182.001 -65.5
c81.333 0 146.833 26 196.5 78s74.5 121 74.5 207v626h217zM497.999 1255h-162l-247 303h215zM832.999 1255h-162l-247 303h216z" />
    <glyph glyph-name="Uinvertedbreve" unicode="&#x216;" horiz-adv-x="1434" 
d="M357 1443l-0.000976562 -917c0 -105.333 31.833 -190.166 95.5 -254.499s151.834 -96.5 264.501 -96.5s201 32.167 265 96.5s96 149.166 96 254.499v917h223v-936c0 -158 -52.667 -286 -158 -384s-247.333 -147 -426 -147s-320.667 49 -426 147s-158 226 -158 384v936
h224zM391.999 1547c0.666992 89.333 30.8301 162.666 90.4971 219.999s137.834 86 234.501 86s174.834 -28.667 234.501 -86s89.834 -130.666 90.501 -219.999h-140c0 53.333 -17.5 98 -52.5 134s-79.167 54 -132.5 54s-97.5 -18 -132.5 -54s-52.5 -80.667 -52.5 -134h-140z
" />
    <glyph glyph-name="uinvertedbreve" unicode="&#x217;" horiz-adv-x="1168" 
d="M1057 1086l-0.000976562 -1086h-207v186h-4c-31.333 -64.667 -77 -113.834 -137 -147.501s-131.333 -50.5 -214 -50.5c-118.667 0 -213.167 36 -283.5 108s-105.5 170 -105.5 294v696h217v-655c0 -83.333 21.333 -146.833 64 -190.5s103.334 -65.5 182.001 -65.5
c81.333 0 146.833 26 196.5 78s74.5 121 74.5 207v626h217zM246.999 1251c0.666992 92.667 31.667 168.167 93 226.5s142 87.5 242 87.5s180.667 -29.167 242 -87.5s92.333 -133.833 93 -226.5h-143c-0.666992 54.667 -19.167 100.5 -55.5 137.5s-81.833 55.5 -136.5 55.5
s-100.167 -18.5 -136.5 -55.5s-54.833 -82.833 -55.5 -137.5h-143z" />
    <glyph glyph-name="Scommaaccent" unicode="&#x218;" horiz-adv-x="1244" 
d="M69 402l221.002 -0.000976562c8 -71.333 43.667 -128.666 107 -171.999s142.666 -65 237.999 -65c90.667 0 165.5 21 224.5 63s88.5 95.333 88.5 160c0 56 -21 101.833 -63 137.5s-109.667 64.834 -203 87.501l-187 45c-132.667 32 -230.5 79.667 -293.5 143
s-94.5 145.333 -94.5 246c0 124 48.833 225 146.5 303s223.834 117 378.501 117c152 0 276 -38.833 372 -116.5s145.667 -178.834 149 -303.501h-218c-6.66699 71.333 -37.5 127.666 -92.5 168.999s-126.167 62 -213.5 62c-86.667 0 -157.167 -20 -211.5 -60
s-81.5 -92 -81.5 -156c0 -50.667 20.333 -92.167 61 -124.5s107.667 -60.166 201 -83.499l159 -39c148 -34.667 254.833 -83.5 320.5 -146.5s98.5 -147.5 98.5 -253.5c0 -134.667 -50 -241.5 -150 -320.5s-235.667 -118.5 -407 -118.5
c-160.667 0 -290.834 38.5 -390.501 115.5s-152.834 180.5 -159.501 310.5zM603.002 -526.001h-159l102 360h190z" />
    </font>
</defs>
</svg>
