<?xml version="1.0" encoding="utf-8"?>
<!-- Generator: Adobe Illustrator 17.1.0, SVG Export Plug-In . SVG Version: 6.00 Build 0)  -->
<!DOCTYPE svg PUBLIC "-//W3C//DTD SVG 1.1//EN" "http://www.w3.org/Graphics/SVG/1.1/DTD/svg11.dtd">
<svg version="1.1" id="Layer_1" xmlns="http://www.w3.org/2000/svg" xmlns:xlink="http://www.w3.org/1999/xlink" x="0px" y="0px"
	 viewBox="0 0 100 40" enable-background="new 0 0 100 40" xml:space="preserve">
<path fill="#F1F2F2" d="M82.7,0h-2.8H52.5h-2.2h-0.6h-2.2H20.1h-2.8C17.3,0,0,2.5,0,20.4S18.2,40,18.2,40h1.9h28.3h1.2h0.6h1.2h28.3
	h1.9c0,0,18.2-1.6,18.2-19.5S82.7,0,82.7,0z"/>
<g>
	<path fill="#ADACB2" d="M24.3,23.3l1.7-1c0,0,1.6,2.7,4.9,2.7c3.3,0,4.6-2.8,4.6-2.8l1.8,0.9c0,0-1.8,3.9-6.5,3.9
		C26.5,26.9,24.3,23.3,24.3,23.3z"/>
	<circle fill="#ADACB2" cx="27.4" cy="17.5" r="1.6"/>
	<circle fill="#ADACB2" cx="34.3" cy="17.5" r="1.6"/>
	<path fill="#ADACB2" d="M31,9c-6,0-11,4.9-11,11c0,6,4.9,11,11,11c6,0,11-4.9,11-11C41.9,13.9,37,9,31,9z M31,28.9
		C26,28.9,22,25,22,20c0-4.9,4-8.9,8.9-8.9c4.9,0,8.9,4,8.9,8.9C39.9,25,35.9,28.9,31,28.9z"/>
</g>
</svg>
