<?xml version="1.0" encoding="utf-8"?>
<!-- Generator: Adobe Illustrator 17.1.0, SVG Export Plug-In . SVG Version: 6.00 Build 0)  -->
<!DOCTYPE svg PUBLIC "-//W3C//DTD SVG 1.1//EN" "http://www.w3.org/Graphics/SVG/1.1/DTD/svg11.dtd">
<svg version="1.1" id="Layer_1" xmlns="http://www.w3.org/2000/svg" xmlns:xlink="http://www.w3.org/1999/xlink" x="0px" y="0px"
	 viewBox="0 0 100 40" enable-background="new 0 0 100 40" xml:space="preserve">
<path fill="#F1F2F2" d="M82.7,0h-2.8H52.5h-2.2h-0.6h-2.2H20.1h-2.8C17.3,0,0,2.5,0,20.4S18.2,40,18.2,40h1.9h28.3h1.2h0.6h1.2h28.3
	h1.9c0,0,18.2-1.6,18.2-19.5S82.7,0,82.7,0z"/>
<path fill="#ADACB2" d="M37.7,24L36,25c0,0-1.7-2.7-5-2.7s-4.7,2.8-4.7,2.8l-1.8-0.9c0,0,1.8-3.9,6.6-3.9C35.4,20.3,37.7,24,37.7,24
	z"/>
<circle fill="#ADACB2" cx="27.6" cy="17.4" r="1.6"/>
<circle fill="#ADACB2" cx="34.5" cy="17.4" r="1.6"/>
<path fill="#ADACB2" d="M31.2,8.9c-6.1,0-11,4.9-11,11c0,6.1,4.9,11,11,11c6.1,0,11-4.9,11-11C42.2,13.8,37.3,8.9,31.2,8.9z
	 M31.2,28.9c-5,0-9-4-9-9c0-5,4-9,9-9c5,0,9,4,9,9C40.2,24.9,36.2,28.9,31.2,28.9z"/>
</svg>
