<?xml version="1.0" encoding="utf-8"?>
<!-- Generator: Adobe Illustrator 17.1.0, SVG Export Plug-In . SVG Version: 6.00 Build 0)  -->
<!DOCTYPE svg PUBLIC "-//W3C//DTD SVG 1.1//EN" "http://www.w3.org/Graphics/SVG/1.1/DTD/svg11.dtd">
<svg version="1.1" id="Layer_1" xmlns="http://www.w3.org/2000/svg" xmlns:xlink="http://www.w3.org/1999/xlink" x="0px" y="0px"
	 viewBox="0 0 100 40" enable-background="new 0 0 100 40" xml:space="preserve">
<path fill="#F1F2F2" d="M82.7,0h-2.8H52.5h-2.2h-0.6h-2.2H20.1h-2.8C17.3,0,0,2.5,0,20.5S18.2,40,18.2,40h1.9h28.3h1.2h0.6h1.2h28.3
	h1.9c0,0,18.2-1.6,18.2-19.6S82.7,0,82.7,0z"/>
<g>
	<rect x="26.6" y="14" fill="#ADACB2" width="5" height="2"/>
	<rect x="26.6" y="20" fill="#ADACB2" width="8" height="2"/>
	<path fill="#ADACB2" d="M42.6,10L42.6,10l-2,0v0h-17v0h-2v15.5h0V26h3v2.9l0,0v2l0,0v0h2v0h0.5v0l0,0l5.6-4.9h10v-0.5V24V12h0
		L42.6,10L42.6,10z M40.6,24h-8.7v0l-5.3,4.6V26v-1.2V24h-3V12h17V24z"/>
	<rect x="26.6" y="17" fill="#ADACB2" width="11" height="2"/>
</g>
</svg>
