<?xml version="1.0" encoding="utf-8"?>
<!-- Generator: Adobe Illustrator 17.1.0, SVG Export Plug-In . SVG Version: 6.00 Build 0)  -->
<!DOCTYPE svg PUBLIC "-//W3C//DTD SVG 1.1//EN" "http://www.w3.org/Graphics/SVG/1.1/DTD/svg11.dtd">
<svg version="1.1" id="Layer_1" xmlns="http://www.w3.org/2000/svg" xmlns:xlink="http://www.w3.org/1999/xlink" x="0px" y="0px"
	 viewBox="0 0 52 32" enable-background="new 0 0 52 32" xml:space="preserve">
<path fill="#F1F2F2" d="M39.1,0H37H15h-2.1C12.9,0,0,2,0,16.4S13.6,32,13.6,32H15h22h1.4c0,0,13.6-1.2,13.6-15.6S39.1,0,39.1,0z"/>
<path fill="#D5D4D8" d="M30.1,7.9C27,7.9,26,9.4,26,9.4s-1-1.5-4.1-1.5c-3.1,0-4.9,2.1-4.9,5.6c0,4.5,9,11.2,9,11.2s9-6.7,9-11.2
	C35,10,33.2,7.9,30.1,7.9z"/>
</svg>
