<?xml version="1.0" encoding="utf-8"?>
<!-- Generator: Adobe Illustrator 17.1.0, SVG Export Plug-In . SVG Version: 6.00 Build 0)  -->
<!DOCTYPE svg PUBLIC "-//W3C//DTD SVG 1.1//EN" "http://www.w3.org/Graphics/SVG/1.1/DTD/svg11.dtd">
<svg version="1.1" id="Layer_1" xmlns="http://www.w3.org/2000/svg" xmlns:xlink="http://www.w3.org/1999/xlink" x="0px" y="0px"
	 viewBox="0 0 40 40" enable-background="new 0 0 40 40" xml:space="preserve">
<g>
	<circle fill="#C86396" cx="20" cy="20" r="20"/>
	<g>
		
			<rect x="13.5" y="21.5" transform="matrix(9.007016e-004 1 -1 9.007016e-004 39.4844 4.5155)" fill="#FFFFFF" width="8.1" height="1"/>
		<path fill="#FFFFFF" d="M30.2,13.5l-1.6-1.6l0,0l0,0l-5.8,0l0-1.8l0,0l0,0L21.7,9l0,0l0,0l-3.6,0l0,0l0,0L17,10.2l0,0l0,0l0,1.8
			l-5.7,0l0,0l0,0l-1.6,1.6l0,0l0,0l1.6,1.6l0,0l0.7,0l0,13.8l0,0l2.2,2.2l0,0l11.6,0l0,0l0,0l2.2-2.2l0,0l0-13.8l0.8,0l0,0l0,0
			L30.2,13.5L30.2,13.5L30.2,13.5z M18,10.6l0.6-0.6l2.7,0l0.6,0.6l0,1.4l-3.9,0L18,10.6z M26.9,28.4L25.3,30l-10.8,0L13,28.4L13,15
			l13.9,0L26.9,28.4z M28.3,14l-16.6,0l-0.6-0.6l0.6-0.6l16.6,0l0.6,0.6L28.3,14z"/>
		<rect x="21.9" y="18" fill="#FFFFFF" width="1" height="8.1"/>
	</g>
</g>
</svg>
