<?xml version="1.0" encoding="utf-8"?>
<!-- Generator: Adobe Illustrator 17.1.0, SVG Export Plug-In . SVG Version: 6.00 Build 0)  -->
<!DOCTYPE svg PUBLIC "-//W3C//DTD SVG 1.1//EN" "http://www.w3.org/Graphics/SVG/1.1/DTD/svg11.dtd">
<svg version="1.1" id="Layer_1" xmlns="http://www.w3.org/2000/svg" xmlns:xlink="http://www.w3.org/1999/xlink" x="0px" y="0px"
	 viewBox="0 0 28 28" enable-background="new 0 0 28 28" xml:space="preserve">
<g>
	<path fill="#C86396" d="M19.5,3C14.6,3,14,4.4,14,4.4l0,0l0,0c0,0-0.7-1.4-5.5-1.4C3.3,3,1,6.6,1,6.6v0v0.1v16h0l0,0l12.8,2.1
		l0,0.1l0.2,0l0.2,0l0-0.1l12.8-2.1l0,0h0v-16V6.7v0C26.9,6.6,24.6,3,19.5,3z M14.4,5.2c0,0,0.6-1.4,5-1.4c2,0,3.5,0.6,4.6,1.3v14.9
		c-0.4-0.2-2.5-1.3-4.8-1.3c-2.7,0-4.1,1.5-4.1,1.5h-0.7V5.2z M6,4.2C6.7,4,7.5,3.9,8.5,3.9c0.5,0,1,0,1.4,0.1v7.9l-2-1l0,0l0,0l0,0
		l0,0l-2,1V4.2z M5,4.6v8.3v0v0.5l0.6-0.3l2.4-1.2l2.4,1.2v0l0.5,0.3v-0.5v0V4c2.2,0.4,2.6,1.2,2.6,1.2l0,0v15.2h-0.7
		c0,0-1.5-1.5-4.1-1.5c-2.3,0-4.4,1-4.8,1.3V5.2C4.2,5,4.6,4.8,5,4.6z M26,21.9l-12,2l-12-2v-15c0.2-0.2,0.5-0.6,0.9-1v14.9v0.2v0.7
		c0,0,3.2-1.9,5.8-1.9c2.5,0,3.8,1.6,3.8,1.6h1h0.1h0.8h0.1h1c0,0,1.2-1.6,3.8-1.6c2.5,0,5.8,1.9,5.8,1.9v-0.7v-0.2V5.9
		c0.5,0.4,0.8,0.8,0.9,1V21.9z"/>
	<path fill="#C86396" d="M22,7.9C22.1,7.6,22.4,7,22.4,7s-2.6-1.4-5.8,0L17,7.9C17,7.9,19.3,6.8,22,7.9z"/>
	<path fill="#C86396" d="M22,10.8c0.1-0.3,0.4-0.9,0.4-0.9s-2.6-1.4-5.8,0l0.4,0.9C17,10.8,19.3,9.7,22,10.8z"/>
	<path fill="#C86396" d="M22,13.8c0.1-0.3,0.4-0.9,0.4-0.9s-2.6-1.4-5.8,0l0.4,0.9C17,13.8,19.3,12.7,22,13.8z"/>
	<path fill="#C86396" d="M22,17.1c0.1-0.3,0.4-0.9,0.4-0.9s-2.6-1.4-5.8,0l0.4,0.9C17,17.1,19.3,16,22,17.1z"/>
</g>
</svg>
