<?xml version="1.0" encoding="utf-8"?>
<!-- Generator: Adobe Illustrator 17.1.0, SVG Export Plug-In . SVG Version: 6.00 Build 0)  -->
<!DOCTYPE svg PUBLIC "-//W3C//DTD SVG 1.1//EN" "http://www.w3.org/Graphics/SVG/1.1/DTD/svg11.dtd">
<svg version="1.1" id="Layer_1" xmlns="http://www.w3.org/2000/svg" xmlns:xlink="http://www.w3.org/1999/xlink" x="0px" y="0px"
	 viewBox="0 0 32 32" enable-background="new 0 0 32 32" xml:space="preserve">
<g>
	<rect x="4" y="4.3" fill="#C86396" width="4" height="1"/>
	<rect x="10" y="4.3" fill="#C86396" width="4" height="1"/>
	<rect x="4" y="9.1" fill="#C86396" width="4" height="1"/>
	<rect x="10" y="9.1" fill="#C86396" width="4" height="1"/>
	<rect x="19" y="15" fill="#C86396" width="4" height="1"/>
	<rect x="25" y="15" fill="#C86396" width="4" height="1"/>
	<rect x="19" y="19.8" fill="#C86396" width="4" height="1"/>
	<rect x="25" y="19.8" fill="#C86396" width="4" height="1"/>
	<rect x="4" y="14" fill="#C86396" width="4" height="1"/>
	<rect x="10" y="14" fill="#C86396" width="4" height="1"/>
	<rect x="10" y="18.5" fill="#C86396" width="4" height="1"/>
	<rect x="10" y="23" fill="#C86396" width="4" height="1"/>
	<path fill="#C86396" d="M31.9,10.9l-0.8-0.8v0H17V0.9h0l-0.8-0.8l0,0v0H1.8v0l0,0L1,0.9h0v0l0,0l0,0v15.1h1V1.4l0.3-0.3h13.5
		L16,1.4V31H4.6v-3c0.6-0.1,3.6-0.8,3.6-4c0-3.5-4.1-7.6-4.1-7.7v0c0,0-4.1,4.2-4.1,7.7c0,3.2,3,3.9,3.6,4v3H1v1h30.9v-0.4h0
		L31.9,10.9L31.9,10.9z M1,24.2c0-2.4,2.4-5.8,3.1-6.3v0c0.6,0.5,3.1,3.9,3.1,6.3c0,2-1.9,2.6-2.6,2.8V23h-1v3.9
		C2.9,26.8,1,26.2,1,24.2z M17,11.1h13.7l0.3,0.3V31H27v-6.1h0l0,0L26.2,24l0,0v0h-4.4v0l0,0l-0.8,0.8l0,0h0V31h-4V11.1z M21.9,25.2
		l0.2-0.2h3.6l0.3,0.3V31h-4.1V25.2z"/>
</g>
</svg>
