<?xml version="1.0" encoding="utf-8"?>
<!-- Generator: Adobe Illustrator 17.1.0, SVG Export Plug-In . SVG Version: 6.00 Build 0)  -->
<!DOCTYPE svg PUBLIC "-//W3C//DTD SVG 1.1//EN" "http://www.w3.org/Graphics/SVG/1.1/DTD/svg11.dtd">
<svg version="1.1" id="Layer_1" xmlns="http://www.w3.org/2000/svg" xmlns:xlink="http://www.w3.org/1999/xlink" x="0px" y="0px"
	 viewBox="0 0 32 32" enable-background="new 0 0 32 32" xml:space="preserve">
<g>
	<path fill="#C86396" d="M16.2,2.5C8.6,2.5,2.5,8.6,2.5,16.1s6.1,13.5,13.7,13.5s13.7-6.1,13.7-13.5S23.8,2.5,16.2,2.5z M16.2,28.3
		C9.3,28.3,3.7,22.8,3.7,16c0-6.8,5.6-12.3,12.5-12.3S28.7,9.3,28.7,16C28.7,22.8,23.1,28.3,16.2,28.3z"/>
	<rect x="15.3" y="8" fill="#C86396" width="1.3" height="8.3"/>
	<polygon fill="#C86396" points="21.1,20.3 20.2,21.2 15.3,16.3 16.2,15.4 	"/>
	<polygon fill="#C86396" points="28.5,31.1 27.5,31.9 23.2,26.5 24.2,25.8 	"/>
	<polygon fill="#C86396" points="3.7,31.1 4.7,31.9 9.1,26.5 8.1,25.8 	"/>
	<path fill="#C86396" d="M1.5,8c0,0-3.1-4.2-0.4-6.9s6.1,0,6.8,0.6c-0.3,0.1-2,1-3.4,2.3S2.2,6.5,1.5,8z"/>
	<path fill="#C86396" d="M30.4,8c0,0,3.1-4.2,0.4-6.9s-6.1,0-6.8,0.6c0.3,0.1,2,1,3.4,2.3S29.7,6.5,30.4,8z"/>
</g>
</svg>
