<?xml version="1.0" encoding="utf-8"?>
<!-- Generator: Adobe Illustrator 17.1.0, SVG Export Plug-In . SVG Version: 6.00 Build 0)  -->
<!DOCTYPE svg PUBLIC "-//W3C//DTD SVG 1.1//EN" "http://www.w3.org/Graphics/SVG/1.1/DTD/svg11.dtd">
<svg version="1.1" id="Layer_1" xmlns="http://www.w3.org/2000/svg" xmlns:xlink="http://www.w3.org/1999/xlink" x="0px" y="0px"
	 viewBox="0 0 28 28" enable-background="new 0 0 28 28" xml:space="preserve">
<g>
	<rect x="8.1" y="9.4"  width="9" height="1"/>
	<rect x="8.1" y="13.7"  width="9" height="1"/>
	<rect x="8.1" y="18.1"  width="6" height="1"/>
	<rect x="19.5" y="9.7"  width="1" height="2"/>
	<rect x="19.5" y="13"  width="1" height="2"/>
	<rect x="19.5" y="16.9"  width="1" height="2"/>
	<path  d="M27,16.7h-0.8c0,0-2.2-0.3-2.2-2.7s2.2-2.7,2.2-2.7H27V5.9l0,0l0,0v0h0L26.1,5v0H1.8v0L1,5.9h0v0l0,0l0,0
		v5.3h1c0,0,2.2,0.3,2.2,2.7S2,16.7,2,16.7H1V22l0,0l0,0v0h0l0.8,0.8v0h24.3v0L27,22h0v0l0,0l0,0V16.7z M26,21.6l-0.3,0.3h-5.2v-1.1
		h-1v1.1H2.3L2,21.6v-4c3.2,0,3.1-3.7,3.1-3.7s0.1-3.6-3.1-3.7v-4L2.3,6h17.2v1.9h1V6h5.2L26,6.3v4c-3.1,0.2-3,3.7-3,3.7
		s-0.1,3.5,3,3.7V21.6z"/>
</g>
</svg>
