<?xml version="1.0" encoding="utf-8"?>
<!-- Generator: Adobe Illustrator 17.1.0, SVG Export Plug-In . SVG Version: 6.00 Build 0)  -->
<!DOCTYPE svg PUBLIC "-//W3C//DTD SVG 1.1//EN" "http://www.w3.org/Graphics/SVG/1.1/DTD/svg11.dtd">
<svg version="1.1" id="Layer_1" xmlns="http://www.w3.org/2000/svg" xmlns:xlink="http://www.w3.org/1999/xlink" x="0px" y="0px"
	 viewBox="0 0 43 24" enable-background="new 0 0 43 24" xml:space="preserve">
<polygon fill="#323232" points="35.1,9 39,14.9 42.9,9 "/>
<path fill="#C86396" d="M9.4,16.3c-2.1,0-3.8,1.7-3.8,3.8S7.3,24,9.4,24c2.1,0,3.8-1.7,3.8-3.8S11.5,16.3,9.4,16.3z M9.4,23
	c-1.5,0-2.8-1.3-2.8-2.8c0-1.5,1.2-2.8,2.8-2.8c1.5,0,2.8,1.3,2.8,2.8C12.2,21.7,10.9,23,9.4,23z"/>
<path fill="#C86396" d="M16.7,16.3c-2.1,0-3.8,1.7-3.8,3.8s1.7,3.8,3.8,3.8c2.1,0,3.8-1.7,3.8-3.8S18.8,16.3,16.7,16.3z M16.7,23
	c-1.5,0-2.8-1.3-2.8-2.8c0-1.5,1.2-2.8,2.8-2.8c1.5,0,2.8,1.3,2.8,2.8C19.5,21.7,18.3,23,16.7,23z"/>
<rect x="3.3" y="9.2" fill="#C86396" width="19.9" height="1"/>
<rect x="12.5" y="0" fill="#C86396" width="1" height="9.6"/>
<polygon fill="#C86396" points="19.3,1.7 13.9,9.5 13.1,8.9 18.5,1.1 "/>
<polygon fill="#C86396" points="22.5,5.5 14.1,9.9 13.6,9 22,4.6 "/>
<path fill="#C86396" d="M0,5v1c0,0,1.5,0,2.3,0.4c0.8,0.4,0.7,0.8,0.7,0.8v3.7c0,0-0.1,3.4,2.6,4.9C5.7,15.5,6,14.7,6,14.7
	s-2.1-0.9-2.1-4.2c0-3,0-3.4,0-3.4S4.3,5,0,5z"/>
<path fill="#C86396" d="M21.1,15.9l-0.7-0.8c0,0,1.7-1.7,1.9-3.6s0.2-3.2-0.4-5.3s-2.5-3.8-4.8-4.6S13.3,1,13.3,1l-0.8-1
	c0,0,1.1-0.2,3,0.1s4.4,1.3,5.8,3.1c1.4,1.7,2.2,3.6,2.2,6.9S21.1,15.9,21.1,15.9z"/>
</svg>
