<?xml version="1.0" encoding="utf-8"?>
<!-- Generator: Adobe Illustrator 17.1.0, SVG Export Plug-In . SVG Version: 6.00 Build 0)  -->
<!DOCTYPE svg PUBLIC "-//W3C//DTD SVG 1.1//EN" "http://www.w3.org/Graphics/SVG/1.1/DTD/svg11.dtd">
<svg version="1.1" id="Layer_1" xmlns="http://www.w3.org/2000/svg" xmlns:xlink="http://www.w3.org/1999/xlink" x="0px" y="0px"
	 viewBox="0 0 30 30" enable-background="new 0 0 30 30" xml:space="preserve">
<path fill="#D8D9D9" d="M15,10.1c-3.5,0-6.3,2.8-6.3,6.3c0,3.5,2.8,6.3,6.3,6.3c3.5,0,6.3-2.8,6.3-6.3C21.3,12.9,18.5,10.1,15,10.1z
	 M15,21.7c-3,0-5.4-2.4-5.4-5.4c0-3,2.4-5.4,5.4-5.4s5.4,2.4,5.4,5.4C20.4,19.3,18,21.7,15,21.7z"/>
<path fill="#D8D9D9" d="M30,8.2L30,8.2L27.8,6v0H21l-2.1-3v0h0l0,0l0,0H15H15h-3.8l0,0l0,0h0v0L9,6H2.2v0L0,8.2h0v16.4h0l0,0
	l2.2,2.2v0H15H15h12.7v0l2.2-2.2l0,0h0L30,8.2z M29,24.2l-1.7,1.7H15H15H2.6L1,24.2V8.6l1.7-1.7h6.9v0l2.1-3H15H15h3.4l2.1,3v0h6.9
	L29,8.6L29,24.2z"/>
</svg>
