<?xml version="1.0" encoding="utf-8"?>
<!-- Generator: Adobe Illustrator 17.1.0, SVG Export Plug-In . SVG Version: 6.00 Build 0)  -->
<!DOCTYPE svg PUBLIC "-//W3C//DTD SVG 1.1//EN" "http://www.w3.org/Graphics/SVG/1.1/DTD/svg11.dtd">
<svg version="1.1" id="Layer_1" xmlns="http://www.w3.org/2000/svg" xmlns:xlink="http://www.w3.org/1999/xlink" x="0px" y="0px"
	 viewBox="0 0 28 28" enable-background="new 0 0 28 28" xml:space="preserve">
<g>
	<polygon  points="2.9,11.1 3.9,11.1 3.9,3.9 23.6,3.9 23.6,11.1 24.6,11.1 24.6,3.9 25.7,3.9 25.7,2.9 14.3,2.9
		14.3,1 13.3,1 13.3,2.9 1.9,2.9 1.9,3.9 2.9,3.9 	"/>
	<path  d="M20.2,7.5c0.7,0,1.2-0.5,1.2-1.2S20.9,5,20.2,5C19.5,5,19,5.6,19,6.2c0,0,0,0,0,0.1l-2.8,1.4
		c-0.4-0.6-1.1-1-1.8-1c-0.9,0-1.7,0.6-2,1.4L9.7,7.5c0-0.9-0.8-1.6-1.7-1.6c-0.9,0-1.7,0.7-1.7,1.7c0,0.9,0.7,1.7,1.7,1.7
		c0.6,0,1.1-0.3,1.4-0.7l2.7,0.7c0.1,1.1,1,2,2.2,2c1.2,0,2.2-1,2.2-2.2c0-0.1,0-0.2,0-0.3l2.9-1.5C19.6,7.3,19.9,7.5,20.2,7.5z
		 M8,8.2c-0.4,0-0.7-0.3-0.7-0.7c0-0.4,0.3-0.7,0.7-0.7s0.7,0.3,0.7,0.7C8.7,7.9,8.4,8.2,8,8.2z M14.3,10.2c-0.7,0-1.2-0.5-1.2-1.2
		s0.5-1.2,1.2-1.2s1.2,0.5,1.2,1.2S15,10.2,14.3,10.2z M20.2,6c0.1,0,0.2,0.1,0.2,0.2s-0.1,0.2-0.2,0.2c-0.1,0-0.2-0.1-0.2-0.2
		S20.1,6,20.2,6z"/>
	<path  d="M13.9,12.3c-1.9,0-3.4,1.9-3.4,4.3s1.5,4.3,3.4,4.3c1.9,0,3.4-1.9,3.4-4.3S15.7,12.3,13.9,12.3z M13.9,19.8
		c-1.3,0-2.4-1.5-2.4-3.3c0-1.8,1.1-3.3,2.4-3.3c1.3,0,2.4,1.5,2.4,3.3C16.3,18.3,15.2,19.8,13.9,19.8z"/>
	<path  d="M21.9,19.1c1.6,0,2.9-1.6,2.9-3.5s-1.3-3.5-2.9-3.5c-1.6,0-2.9,1.6-2.9,3.5S20.3,19.1,21.9,19.1z
		 M21.9,13.1c1,0,1.9,1.1,1.9,2.5c0,1.4-0.8,2.5-1.9,2.5c-1,0-1.9-1.1-1.9-2.5C20,14.2,20.9,13.1,21.9,13.1z"/>
	<path  d="M5.8,12.1c-1.6,0-2.9,1.6-2.9,3.5s1.3,3.5,2.9,3.5s2.9-1.6,2.9-3.5S7.4,12.1,5.8,12.1z M5.8,18.2
		c-1,0-1.9-1.1-1.9-2.5c0-1.4,0.8-2.5,1.9-2.5c1,0,1.9,1.1,1.9,2.5C7.7,17,6.8,18.2,5.8,18.2z"/>
	<path  d="M27.9,22.3c-0.2-1.1-0.7-1.4-1.1-1.8c-0.4-0.3-1.1-0.7-1.1-0.7s-0.6-0.3-1.1-0.3c-0.5,0-0.9,0.2-1.1,0.3
		c-0.2,0.1-1.3,1.1-1.4,1.2c-0.6-0.5-1.3-1.2-1.3-1.2s-0.5-0.4-1-0.4c-0.9,0-1.9,0.8-1.9,0.8l0.6,0.8c0,0,0.2-0.1,0.7-0.5
		c0.7-0.4,1-0.1,1.4,0.3c0.5,0.4,1.5,1.4,1.5,1.4s1.6-1.5,1.9-1.8c0.4-0.2,0.6-0.2,0.9-0.1s0.8,0.5,1.1,0.6s0.4,0.2,0.6,0.7
		c0.3,0.4,0.3,1.6,0.3,1.6h1C28,23.6,28,23,27.9,22.3z"/>
	<path  d="M8.8,20.7c0.5,0.3,0.7,0.5,0.7,0.5l0.6-0.8c0,0-1-0.8-1.9-0.8c-0.6,0-1,0.4-1,0.4s-0.8,0.6-1.3,1.2
		C5.7,21,4.6,20,4.4,19.9c-0.2-0.1-0.5-0.3-1.1-0.3s-1.1,0.3-1.1,0.3s-0.7,0.4-1.1,0.7s-0.9,0.7-1.1,1.8C-0.1,23,0,23.6,0,23.6h1
		c0,0,0-1.2,0.3-1.6s0.4-0.5,0.6-0.7s0.7-0.5,1.1-0.6s0.6-0.2,0.9,0.1c0.4,0.2,1.9,1.8,1.9,1.8s1-1,1.5-1.4
		C7.8,20.6,8,20.3,8.8,20.7z"/>
	<path  d="M19.2,22.4c-0.6-0.4-1.4-0.9-2.3-0.9c-0.9,0-1.7,0.8-1.7,0.8l-1.4,1.3l-1.4-1.3c0,0-0.8-0.8-1.7-0.8
		c-0.9,0-1.8,0.6-2.3,0.9c-0.6,0.4-0.9,0.4-1.4,1.4c-0.6,1-0.5,2.9-0.5,2.9h1v-0.4c0,0,0-0.6,0.2-1.5c0.1-0.8,1-1.4,1-1.4
		s0.7-0.6,1.5-0.9c0.8-0.3,1,0,1.5,0.3c0.5,0.3,2.3,2.1,2.3,2.1s1.8-1.8,2.3-2.1c0.5-0.3,0.7-0.5,1.5-0.3c0.8,0.3,1.5,0.9,1.5,0.9
		s0.8,0.6,1,1.4c0.1,0.8,0.2,1.5,0.2,1.5v0.4h1c0,0,0.1-1.9-0.5-2.9C20.1,22.9,19.8,22.8,19.2,22.4z"/>
</g>
</svg>
