<?xml version="1.0" encoding="utf-8"?>
<!-- Generator: Adobe Illustrator 17.1.0, SVG Export Plug-In . SVG Version: 6.00 Build 0)  -->
<!DOCTYPE svg PUBLIC "-//W3C//DTD SVG 1.1//EN" "http://www.w3.org/Graphics/SVG/1.1/DTD/svg11.dtd">
<svg version="1.1" id="Layer_1" xmlns="http://www.w3.org/2000/svg" xmlns:xlink="http://www.w3.org/1999/xlink" x="0px" y="0px"
	 viewBox="0 0 36 36" enable-background="new 0 0 36 36" xml:space="preserve">
<path fill="#C86396" d="M18,0.1C8,0.1,0,8.1,0,18s8,18,18,18s18-8,18-18S27.9,0.1,18,0.1z M18,34C9.1,34,2,26.9,2,18s7.2-16,16-16
	s16,7.2,16,16S26.8,34,18,34z"/>
<polygon fill="#C86396" points="25.1,23.6 19.5,18 25.1,12.3 23.7,10.9 18.1,16.6 12.4,10.9 11,12.3 16.7,18 11,23.6 12.4,25 
	18.1,19.4 23.7,25 "/>
</svg>
