<?xml version="1.0" encoding="utf-8"?>
<!-- Generator: Adobe Illustrator 17.1.0, SVG Export Plug-In . SVG Version: 6.00 Build 0)  -->
<!DOCTYPE svg PUBLIC "-//W3C//DTD SVG 1.1//EN" "http://www.w3.org/Graphics/SVG/1.1/DTD/svg11.dtd">
<svg version="1.1" id="Layer_1" xmlns="http://www.w3.org/2000/svg" xmlns:xlink="http://www.w3.org/1999/xlink" x="0px" y="0px"
	 viewBox="0 0 18 18" enable-background="new 0 0 18 18" xml:space="preserve">
<g>
	<path fill="#B4B3B7" d="M9,0C4,0,0,4,0,9c0,5,4,9,9,9c5,0,9-4,9-9C18,4,13.9,0,9,0z M9,17.1c-4.5,0-8.1-3.6-8.1-8.1
		c0-4.5,3.6-8.1,8.1-8.1c4.5,0,8.1,3.6,8.1,8.1C17.1,13.5,13.5,17.1,9,17.1z"/>
	<polygon fill="#B4B3B7" points="9.4,10 9.4,4.6 8.6,4.6 8.6,10.8 9.4,10.8 9.4,10.8 12.7,10.8 12.7,10 	"/>
</g>
</svg>
