<?xml version="1.0" encoding="utf-8"?>
<!-- Generator: Adobe Illustrator 17.1.0, SVG Export Plug-In . SVG Version: 6.00 Build 0)  -->
<!DOCTYPE svg PUBLIC "-//W3C//DTD SVG 1.1//EN" "http://www.w3.org/Graphics/SVG/1.1/DTD/svg11.dtd">
<svg version="1.1" id="Layer_1" xmlns="http://www.w3.org/2000/svg" xmlns:xlink="http://www.w3.org/1999/xlink" x="0px" y="0px"
	 viewBox="0 0 28 28" enable-background="new 0 0 28 28" xml:space="preserve">
<g>
	<polygon fill="#C86396" points="25,14 19.6,8.6 18.9,9.3 23,13.4 9,13.4 9,14.4 23.1,14.4 18.9,18.6 19.6,19.3 25,14 25,14 	"/>
	<polygon fill="#C86396" points="4,24.7 4,3.3 4.3,3 12,3 12,2 3.9,2 3.9,2 3.9,2 3,2.9 3,2.9 3,25.1 3,25.1 3.9,26 3.9,26 3.9,26 
		12,26 12,25 4.3,25 	"/>
</g>
</svg>
