<?xml version="1.0" encoding="utf-8"?>
<!-- Generator: Adobe Illustrator 17.1.0, SVG Export Plug-In . SVG Version: 6.00 Build 0)  -->
<!DOCTYPE svg PUBLIC "-//W3C//DTD SVG 1.1//EN" "http://www.w3.org/Graphics/SVG/1.1/DTD/svg11.dtd">
<svg version="1.1" id="Layer_1" xmlns="http://www.w3.org/2000/svg" xmlns:xlink="http://www.w3.org/1999/xlink" x="0px" y="0px"
	 viewBox="0 0 30 30" enable-background="new 0 0 30 30" xml:space="preserve">
<g>
	<path fill="#D8D9D9" d="M18.2,17.9l5.5-5.5c0,0,0,0,0,0l0,0l0,0c0.4-0.4,2.2-2.4,0.8-3.9l0,0l-2.3-2.3l0,0c-1.1-1-2.6-1.6-3.8-0.5
		l0,0l-3.5,3.5l0.7,0.7L19,6.4c0,0,1-1,2.6,0.5l2.2,2.2c0.1,0.2,0.8,1-0.8,2.6l-5.5,5.5c-1,1-2,0.1-2,0.1l-1.7-1.7L13,16.3l1.8,1.8
		l0,0C16.3,19.4,17.8,18.2,18.2,17.9L18.2,17.9L18.2,17.9C18.2,17.9,18.2,17.9,18.2,17.9z"/>
	<path fill="#D8D9D9" d="M12.2,12.1l-5.5,5.5c0,0,0,0,0,0l0,0l0,0C6.2,18,4.5,20,5.8,21.5l0,0l2.3,2.3l0,0c1.1,1,2.6,1.6,3.8,0.5
		l0,0l3.5-3.5l-0.7-0.7l-3.4,3.4c0,0-1,1-2.6-0.5l-2.2-2.2c-0.1-0.2-0.8-1,0.8-2.6l5.5-5.5c1-1,2-0.1,2-0.1l1.7,1.7l0.7-0.7
		l-1.8-1.8l0,0C14.1,10.5,12.6,11.7,12.2,12.1L12.2,12.1L12.2,12.1C12.2,12.1,12.2,12.1,12.2,12.1z"/>
</g>
</svg>
