<?xml version="1.0" encoding="utf-8"?>
<!-- Generator: Adobe Illustrator 17.1.0, SVG Export Plug-In . SVG Version: 6.00 Build 0)  -->
<!DOCTYPE svg PUBLIC "-//W3C//DTD SVG 1.1//EN" "http://www.w3.org/Graphics/SVG/1.1/DTD/svg11.dtd">
<svg version="1.1" id="Layer_1" xmlns="http://www.w3.org/2000/svg" xmlns:xlink="http://www.w3.org/1999/xlink" x="0px" y="0px"
	 viewBox="0 0 32 32" enable-background="new 0 0 32 32" xml:space="preserve">
<g>
	<path fill="#C86396" d="M13.4,23.2c0.8,4.7,2.6,6.1,2.6,6.1s1.8-1.4,2.6-6.1c0.4-2.9,0.4-4.8,0.4-4.8s3.6-0.1,6.5-2
		c-0.4-0.3-1.5-1-1.5-1s-1-0.4-1-3.2s0-5.5,0-5.5S22.5,0,17.6,0c-0.7,0-1.2,0-1.6,0s-0.9,0-1.6,0C9.5,0,9.1,6.7,9.1,6.7s0,2.8,0,5.5
		s-1,3.2-1,3.2s-1,0.7-1.5,1c2.8,1.9,6.5,2,6.5,2S13,20.2,13.4,23.2z M12.7,17.2c-1.3-0.2-3.7-0.6-4.2-1c0.3-0.2,1.6-1.1,1.6-3.6
		c0-2.4,0-6.1,0-6.1s0.1-2.3,1.2-3.8S13.6,1,14.3,1C15.1,1,16,1,16,1s0.9,0,1.7,0c0.7,0,2,0.2,3.1,1.8c1.1,1.5,1.2,3.8,1.2,3.8
		s0,3.7,0,6.1c0,2.4,1.3,3.3,1.6,3.6c-0.5,0.4-2.9,0.8-4.2,1C18,17.5,18,17.9,18,17.9s0.2,0.7-0.3,4.4S16,27.7,16,27.7
		s-1.2-1.7-1.7-5.4S14,17.9,14,17.9S14,17.5,12.7,17.2z"/>
	<path fill="#C86396" d="M27.6,22.6c-1.2-1.2-2.8-1.9-5-2.3c-0.6-0.1-1.1-0.1-1.1-0.1s-0.7-0.1-0.7,0.5c0,0.3,0.1,0.5,0.1,0.5
		s0.5,1,0.8,1.4c0.3,0.5,1.4,2.3,1.4,2.3h-2.5L16,31.1L11.3,25H8.8c0,0,1.1-1.9,1.4-2.3c0.3-0.5,0.8-1.4,0.8-1.4s0.2-0.3,0.1-0.5
		c-0.1-0.6-0.7-0.5-0.7-0.5s-0.4,0-1.1,0.1c-2.2,0.4-3.8,1.1-5,2.3S3,25.3,3,26.1s0.2,2.1,1.7,3.2c1.5,1.1,3.5,1.8,6,2.2
		C13.2,31.9,16,32,16,32s2.8-0.1,5.3-0.6c2.5-0.5,4.5-1.1,6-2.2c1.5-1.1,1.7-2.5,1.7-3.2S28.8,23.8,27.6,22.6z M8.2,29.8
		C5.1,28.8,4,27.4,4,26.1c0-1.3,0.5-2.7,2.7-3.9c1.8-0.9,3.3-1,3.3-1L7.1,26h3.8l3.8,4.9C14.6,30.9,11.3,30.7,8.2,29.8z M23.8,29.8
		c-3.1,0.9-6.4,1.1-6.4,1.1l3.8-4.9H25l-2.9-4.8c0,0,1.5,0.1,3.3,1c2.2,1.2,2.7,2.6,2.7,3.9C28,27.4,26.9,28.8,23.8,29.8z"/>
</g>
</svg>
