<?xml version="1.0" encoding="utf-8"?>
<!-- Generator: Adobe Illustrator 17.1.0, SVG Export Plug-In . SVG Version: 6.00 Build 0)  -->
<!DOCTYPE svg PUBLIC "-//W3C//DTD SVG 1.1//EN" "http://www.w3.org/Graphics/SVG/1.1/DTD/svg11.dtd">
<svg version="1.1" id="Layer_1" xmlns="http://www.w3.org/2000/svg" xmlns:xlink="http://www.w3.org/1999/xlink" x="0px" y="0px"
	 viewBox="0 0 32 32" enable-background="new 0 0 32 32" xml:space="preserve">
<path fill="#C86396" d="M29.1,0H2.9L0,2.9v26.2L2.9,32h26.2l2.9-2.9V2.9L29.1,0z M30.7,28.6l-2.1,2.1H3.4l-2.2-2.1V3.4l2.2-2.2h25.2
	l2.1,2.1V28.6z"/>
<path fill="#C86396" d="M16,3.8c-7.7,0-8.2,8.3-8.2,8.3h16.4C24.2,12.1,23.8,3.8,16,3.8z M16.2,10.9h-7c0,0,0.9-5.9,6.8-5.9
	c5.9,0,6.8,5.9,6.8,5.9h-5.2L19.8,8L16.2,10.9z"/>
</svg>
