<?xml version="1.0" encoding="utf-8"?>
<!-- Generator: Adobe Illustrator 17.1.0, SVG Export Plug-In . SVG Version: 6.00 Build 0)  -->
<!DOCTYPE svg PUBLIC "-//W3C//DTD SVG 1.1//EN" "http://www.w3.org/Graphics/SVG/1.1/DTD/svg11.dtd">
<svg version="1.1" id="Layer_1" xmlns="http://www.w3.org/2000/svg" xmlns:xlink="http://www.w3.org/1999/xlink" x="0px" y="0px"
	 viewBox="0 0 28 28" enable-background="new 0 0 28 28" xml:space="preserve">
<g>
	<polygon fill="#C86396" points="27,23 24.1,23 24.1,20.1 23.1,20.1 23.1,23 20.2,23 20.2,24.1 23.1,24.1 23.1,27 24.1,27 
		24.1,24.1 27,24.1 	"/>
	<path fill="#C86396" d="M16,14c0,1.3,0.9,1.8,1.3,1.9c0.4,0.1,4.7,1.9,4.7,1.9l0.4-0.9l-4.8-1.9c0,0-0.6-0.2-0.6-1
		c0-0.7,0.5-1,0.5-1s1.5-1.1,1.5-4.3s-0.2-4.3-1.2-5.5C16.9,1.9,16,1,13.7,1c-0.7,0-1.3,0-1.3,0S10.5,0.9,9,2.7
		C7.4,4.6,7.5,6.1,7.5,6.1s-0.3,3,0.2,4.8c0.5,1.7,1.4,2.3,1.4,2.3s0.3,0.2,0.3,0.9c0,0.6-0.3,0.8-0.6,0.9c-0.3,0.1-4.1,1.6-4.1,1.6
		s-3.1,1-3.2,4.8h0v2.5h0l1,1l0,0v0h14.7v-1H2.9l-0.4-0.4v-2.1h0c0-0.6,0.1-1.8,0.9-2.8c0.5-0.6,1.2-1,1.2-1L6.5,17l2.7-1.1
		c0,0,1.2-0.4,1.2-1.8s-0.8-1.8-0.8-1.8s-1.3-0.7-1.3-4.1c0,0-0.2-3.2,1-4.4C10.5,2.5,11,2,12.6,2C13.8,2,14,2,14,2
		c0,0,1.6-0.1,2.7,1.3c1.1,1.4,1.4,2.4,1.4,4.2s-0.1,3.1-0.6,3.9C16.6,12.7,16,12.7,16,14z"/>
</g>
</svg>
