<?xml version="1.0" encoding="utf-8"?>
<!-- Generator: Adobe Illustrator 17.1.0, SVG Export Plug-In . SVG Version: 6.00 Build 0)  -->
<!DOCTYPE svg PUBLIC "-//W3C//DTD SVG 1.1//EN" "http://www.w3.org/Graphics/SVG/1.1/DTD/svg11.dtd">
<svg version="1.1" id="Layer_1" xmlns="http://www.w3.org/2000/svg" xmlns:xlink="http://www.w3.org/1999/xlink" x="0px" y="0px"
	 viewBox="0 0 28 28" enable-background="new 0 0 28 28" xml:space="preserve">
<g>
	<rect x="2" y="25" fill="#C86396" width="19" height="1"/>
	<path fill="#C86396" d="M25.3,8.1c0,0,1.5-1.6-0.1-3.3l0,0l-2-2l0,0c-1.8-1.6-3.3,0-3.3,0L13.5,9c0,0-4.1,4.2-4.5,4.7
		c-0.5,0.5-2.4,2.2-3.6,4.9s-1.2,5.1-1.2,5.1s2.4,0,5.1-1.2c0.9-0.4,1.6-0.8,2.3-1.3l0,0l0,0c1.4-1,2.3-1.9,2.6-2.2
		c0.5-0.5,4.7-4.5,4.7-4.5L25.3,8.1z M20.6,3.4c0.9-0.9,1.8-0.1,2.1,0.1l1.8,1.8c0.2,0.2,1,1.2,0.1,2.1c-0.3,0.3-0.8,0.8-1.5,1.5
		l-4-4C19.8,4.2,20.3,3.7,20.6,3.4z M18.3,5.6l4,4c-0.5,0.5-1,1-1.5,1.5l-4-4C17.4,6.6,17.9,6.1,18.3,5.6z M10.7,20.8
		c-1.2,0.7-2.2,1.3-5.3,1.9c0.6-3.1,1.2-4.2,1.9-5.3c0.1-0.1,0.1-0.2,0.2-0.3l3.6,3.6C10.9,20.7,10.8,20.8,10.7,20.8z M15.1,16.9
		c0,0-1.9,1.9-3.3,3L8,16.2c1.2-1.4,3-3.3,3-3.3l3.2-3.3c0,0,0.8-0.8,1.9-1.9l4,4c-1,1.1-1.9,1.9-1.9,1.9L15.1,16.9z"/>
</g>
</svg>
