<?xml version="1.0" encoding="utf-8"?>
<!-- Generator: Adobe Illustrator 17.1.0, SVG Export Plug-In . SVG Version: 6.00 Build 0)  -->
<!DOCTYPE svg PUBLIC "-//W3C//DTD SVG 1.1//EN" "http://www.w3.org/Graphics/SVG/1.1/DTD/svg11.dtd">
<svg version="1.1" id="Layer_1" xmlns="http://www.w3.org/2000/svg" xmlns:xlink="http://www.w3.org/1999/xlink" x="0px" y="0px"
	 viewBox="0 0 28 28" enable-background="new 0 0 28 28" xml:space="preserve">
<g>
	<path fill="#C86396" d="M19.4,18.7c-2,0-3.6,1.3-4,3.2c-0.4-1.8-2.1-3.2-4-3.2c-2.3,0-4.2,1.8-4.2,4.1S9,27,11.3,27
		c2,0,3.6-1.3,4-3.2c0.4,1.8,2.1,3.2,4,3.2c2.3,0,4.2-1.8,4.2-4.1S21.7,18.7,19.4,18.7z M11.3,25.9c-1.7,0-3.1-1.4-3.1-3
		c0-1.7,1.4-3,3.1-3c1.7,0,3.1,1.4,3.1,3C14.4,24.5,13,25.9,11.3,25.9z M19.4,25.9c-1.7,0-3.1-1.4-3.1-3c0-1.7,1.4-3,3.1-3
		c1.7,0,3.1,1.4,3.1,3C22.5,24.5,21.1,25.9,19.4,25.9z"/>
	<path fill="#C86396" d="M24.5,4.5c-0.8-1-1.9-1.7-3.1-2.3l0,0l0,0c-1.1-0.5-2.2-0.8-3.2-1c-2.1-0.3-3.3-0.1-3.3-0.1V11H5.3
		c0-1.9,0-2.2,0-2.2S5.7,6.4,1,6.4v1.1c0,0,1.6,0,2.5,0.4c0.9,0.4,0.8,0.8,0.8,0.8v4c0,0-0.1,3.6,2.9,5.3c0.1-0.2,0.5-1,0.5-1
		S5.3,16,5.3,12.4c0-0.1,0-0.2,0-0.3h20.5c0,0.4-0.1,0.9-0.1,1.4c-0.3,2.1-2.1,4-2.1,4l0.7,0.8c0,0,2.7-2.5,2.7-6.2
		C26.9,8.4,26,6.4,24.5,4.5z M25.1,7.7C25.6,9,25.8,10,25.8,11H18l7-3.6C25,7.5,25.1,7.6,25.1,7.7z M24.5,6.4l-7.4,3.8l4.6-6.6
		C22.9,4.3,23.9,5.3,24.5,6.4z M19.9,2.8c0.3,0.1,0.6,0.2,0.9,0.3L15.9,10V2.1C16.4,2.1,17.8,2.1,19.9,2.8z"/>
</g>
</svg>
