<?xml version="1.0" encoding="utf-8"?>
<!-- Generator: Adobe Illustrator 17.1.0, SVG Export Plug-In . SVG Version: 6.00 Build 0)  -->
<!DOCTYPE svg PUBLIC "-//W3C//DTD SVG 1.1//EN" "http://www.w3.org/Graphics/SVG/1.1/DTD/svg11.dtd">
<svg version="1.1" id="Layer_1" xmlns="http://www.w3.org/2000/svg" xmlns:xlink="http://www.w3.org/1999/xlink" x="0px" y="0px"
	 viewBox="0 0 28 28" enable-background="new 0 0 28 28" xml:space="preserve">
<g>
	<path fill="#C86396" d="M16.6,18.9c2.4,0,4.3-1.9,4.3-4.3c0-2.4-1.9-4.3-4.3-4.3s-4.3,1.9-4.3,4.3C12.3,17,14.2,18.9,16.6,18.9z
		 M16.6,11.3c1.8,0,3.3,1.5,3.3,3.3s-1.5,3.3-3.3,3.3c-1.8,0-3.3-1.5-3.3-3.3S14.8,11.3,16.6,11.3z"/>
	<path fill="#C86396" d="M27.9,6.6L27.9,6.6L27.9,6.6l-0.8-0.8v0h-3.3V3.8h0l0,0L23.1,3l0,0v0h-9.3v0l0,0L13,3.8l0,0h0v2.1H0.8v0
		L0,6.6l0,0h0v17.5h0l0,0l0.8,0.8v0h26.4v0l0,0l0.8-0.8l0,0h0V6.6z M14,4.2L14.2,4h8.5l0.2,0.2v1.6H14V4.2z M1,7l0.2-0.2h25.6
		L26.9,7v3h-5.6c-1.2-1.2-2.9-2-4.7-2s-3.5,0.7-4.7,2H1V7z M16.6,9c3.1,0,5.6,2.5,5.6,5.6s-2.5,5.6-5.6,5.6S11,17.8,11,14.7
		S13.5,9,16.6,9z M5,23.9H1.2L1,23.7V11h4V23.9z M26.8,23.9H6V11h5C10.4,12,10,13.3,10,14.7c0,3.7,3,6.6,6.6,6.6s6.6-3,6.6-6.6
		c0-1.4-0.4-2.6-1.1-3.7h4.8v12.7L26.8,23.9z"/>
</g>
</svg>
