<?xml version="1.0" encoding="utf-8"?>
<!-- Generator: Adobe Illustrator 17.1.0, SVG Export Plug-In . SVG Version: 6.00 Build 0)  -->
<!DOCTYPE svg PUBLIC "-//W3C//DTD SVG 1.1//EN" "http://www.w3.org/Graphics/SVG/1.1/DTD/svg11.dtd">
<svg version="1.1" id="Layer_1" xmlns="http://www.w3.org/2000/svg" xmlns:xlink="http://www.w3.org/1999/xlink" x="0px" y="0px"
	 viewBox="0 0 32 32" enable-background="new 0 0 32 32" xml:space="preserve">
<g>
	<path fill="#C86396" d="M23.6,0L0,23.7L8,32L32,7.9L23.6,0z M1.4,23.7l2.4-2.4l1.7,1.7l0.7-0.7l-1.7-1.7l1.2-1.2l3,3l0.7-0.7l-3-3
		l1.2-1.2l1.8,1.8l0.7-0.7l-1.7-1.8l1.2-1.2l3.1,3l0.7-0.7l-3-3l0.9-0.9l1.8,1.8l0.7-0.7l-1.8-1.8l1.2-1.2l3,3l0.7-0.7l-3-3l1-1
		l1.8,1.8l0.7-0.7l-1.8-1.8l1.2-1.2l3,3l0.7-0.7l-3-3l1.1-1.1l1.8,1.8L21,7.6l-1.8-1.8l1.2-1.2l3.1,3l0.3-0.3l-3.4-3.4l3.4,3.4
		l0.3-0.3l-3.1-3l2.5-2.5l6.9,6.6L8,30.6L1.4,23.7z"/>
	<circle fill="#C86396" cx="27.3" cy="8" r="1.1"/>
</g>
</svg>
