<?xml version="1.0" encoding="utf-8"?>
<!-- Generator: Adobe Illustrator 17.1.0, SVG Export Plug-In . SVG Version: 6.00 Build 0)  -->
<!DOCTYPE svg PUBLIC "-//W3C//DTD SVG 1.1//EN" "http://www.w3.org/Graphics/SVG/1.1/DTD/svg11.dtd">
<svg version="1.1" id="Layer_1" xmlns="http://www.w3.org/2000/svg" xmlns:xlink="http://www.w3.org/1999/xlink" x="0px" y="0px"
	 viewBox="0 0 20 20" enable-background="new 0 0 20 20" xml:space="preserve">
<path fill="#C8C8CE" d="M17.9,5.9c-1.3-0.1-4.3-0.3-4.3-0.3l-1.5-3.9c0,0-0.5-1.7-2.1-1.7S7.9,1.7,7.9,1.7L6.4,5.6
	c0,0-3,0.2-4.3,0.3C0.7,6,0,7,0,8.1s0.7,1.7,0.7,1.7l3.4,3L3,17c0,0-0.1,0.6-0.1,0.7C2.9,19.4,4.3,20,5,20s1-0.2,1-0.2l4-2.5l4,2.5
	c0,0,0.3,0.2,1,0.2s2.1-0.6,2.1-2.2c0-0.2-0.1-0.7-0.1-0.7l-1.1-4.3l3.4-3c0,0,0.7-0.6,0.7-1.7S19.3,6,17.9,5.9z M18,8.3l-4.2,3.7
	l1.4,5.6c0,0,0.1,0.2,0,0.3s-0.3,0-0.3,0L10,15l-4.8,3c0,0-0.2,0.1-0.3,0c-0.1-0.1,0-0.3,0-0.3l1.4-5.6L2,8.3c0,0-0.1-0.1-0.1-0.3
	c0-0.2,0.2-0.2,0.2-0.2l5.6-0.4l2-5.2C9.7,2.3,9.8,2,10,2c0.2,0,0.3,0.3,0.3,0.3l2,5.2l5.6,0.4c0,0,0.2,0,0.2,0.2
	C18.1,8.3,18,8.3,18,8.3z"/>
</svg>
