<?xml version="1.0" encoding="utf-8"?>
<!-- Generator: Adobe Illustrator 17.1.0, SVG Export Plug-In . SVG Version: 6.00 Build 0)  -->
<!DOCTYPE svg PUBLIC "-//W3C//DTD SVG 1.1//EN" "http://www.w3.org/Graphics/SVG/1.1/DTD/svg11.dtd">
<svg version="1.1" id="Layer_1" xmlns="http://www.w3.org/2000/svg" xmlns:xlink="http://www.w3.org/1999/xlink" x="0px" y="0px"
	 viewBox="0 0 42 64" enable-background="new 0 0 42 64" xml:space="preserve">
<g>
	<path fill="#CB4A89" d="M19.5,30.8c-0.1,0-0.5,0.1-0.5,0.4c0,0.3,0.3,0.5,0.5,0.5s0.6-0.2,0.6-0.4c0-0.3-0.2-0.4-0.2-0.4s0,0,0,0.1
		c0,0.1-0.1,0.2-0.2,0.2c-0.1,0-0.2-0.1-0.2-0.2C19.4,30.8,19.5,30.8,19.5,30.8z"/>
	<circle fill="#CB4A89" cx="17.2" cy="21.4" r="0.4"/>
	<circle fill="#CB4A89" cx="24.8" cy="21.8" r="0.4"/>
	<path fill="#CB4A89" d="M36.5,34.7c-0.4-0.6-0.9-0.8-1.1-1c-0.2-0.1-1-1.6-1.3-2c-0.2-0.4-1-2.5-1-2.5s-0.6-1.7-1.1-2.4
		c-0.5-0.7-1-1.8-1.2-2.3c-0.2-0.5-0.4-1.6-0.5-2.7c-0.1-1.1-0.4-2.4-0.6-3.2s-0.8-1.5-1.3-1.7c-0.5-0.3-1-0.5-2.2-0.6
		s-1.3-0.3-1.6-0.6c-0.2-0.2-0.3-0.6-0.3-0.7c0.5-0.3,1.1-0.9,1.4-1.2c0.4-0.4,0.7-0.7,0.8-1.1c0.1-0.3,0.2-1.5,0.2-1.9
		c0-0.5,0-0.9,0-1.2c0-0.3-0.1-0.4-0.1-0.6c0-0.3,0.1-0.6,0.2-1c0.1-0.3,0.2-1.4,0.2-1.4s0.1-0.8,0.1-1.4c0-0.6-0.1-0.9-0.3-1.4
		S26.2,3,25.9,2.5s-0.9-0.8-1.2-1S23.8,1,23.4,0.8c-0.4-0.3-1-0.4-1.4-0.5c-0.3-0.1-0.9-0.2-0.9-0.2s-0.1-0.1-0.4-0.1
		c-0.6,0-1.2,0.4-1.3,0.5c-0.1,0.1-0.6,0.1-1.1,0.3c-0.5,0.2-1.2,0.7-1.6,1.1c-0.5,0.4-0.9,0.8-1.2,1.2c-0.3,0.4-0.6,1-0.7,1.3
		s-0.1,1.1,0,1.3C14.9,6,15,6.9,15,7.1c0,0.2,0.2,1.1,0.2,1.4c0.1,0.3,0.2,0.5,0.3,0.6c0,0.1,0,0.4,0,0.8c0,0.3,0.1,0.7,0.3,1.4
		c0.2,0.6,0.4,0.8,0.6,1c0.2,0.2,0.8,0.2,1,0.3c0.2,0.1,0.4,0.4,0.6,0.7c0.2,0.3,0.2,0.4,0.2,0.8c0,0.4-0.1,0.9-0.1,0.9
		s0.3,0.1,0.4,0.1c0-0.1,0.1-0.6,0.1-0.6c0.1-0.5,0-1-0.2-1.7c-0.2-0.7-1.1-1.2-1.5-1.4c-0.4-0.2-0.4-0.8-0.4-0.8s-0.2-0.7-0.1-1.1
		c0-0.2,0-0.4-0.1-0.6c0.1,0,0.4,0,0.5,0.1c0.2,0.2,0.3,0.2,0.3,0.2L17.7,9c0,0-0.3-0.6-0.4-0.8s-0.1-0.3-0.1-0.3s0.1-0.2,0-0.4
		c-0.1-0.2-0.1-0.3-0.1-0.5s0.1-0.7,0.1-0.8s-0.1-0.4,0-0.5s0.1-0.1,0.1-0.1s-0.1,0.2,0,0.5c0.1,0.3,0.3,0.7,0.3,0.7
		s0.4-0.7,0.7-0.8s0.8-0.3,0.9-0.4c0.1-0.1,0.5-0.5,0.8-0.6s1.9-0.4,2.2-0.7s1.1-1.2,1.4-1.3c0.5-0.2,1.4,0.3,1.8,0.5
		c0,0,0,0.1,0,0.1c0.1,0.3,0.3,1.2,0.4,1.7s-0.1,1.8-0.2,2.3c-0.1,0.5-0.1,1.1-0.1,1.1s0,2.1,0,2.9c0,0.8-0.2,1.1-0.5,1.5
		c-0.3,0.4-1.1,1.1-1.5,1.4c-0.4,0.3-2.7,0.1-2.7,0.1s0,0.2-0.1,0.4c0.7,0.2,2,0.2,2.6,0.2c0,0.1,0,0.3,0,0.3
		c0.1,1.2,1.4,1.8,2.3,1.8c0.9,0,1.4,0.2,2,0.5c0.6,0.4,1,1.3,1.2,1.9s0.3,2,0.4,2.7s0.3,2,0.5,3c0.2,1,1.1,2.3,1.5,3
		c0.4,0.7,1.3,2.5,1.3,2.5s0.8,1.9,1.2,2.6c0.4,0.8,1.4,1.5,1.7,1.8s0.5,0.8,0.5,1.7c0,0.9-0.2,1-0.3,1.1c-0.2,0.2-0.7,0.7-0.7,0.7
		S35,38.8,35,38.8c-0.2,0-0.2-0.2-0.2-0.2s-0.1-0.4-0.2-0.5s-0.1-0.5-0.1-0.5s-0.1-0.5-0.2-0.8c-0.2-0.6-0.5-0.7-0.8-0.9
		c-0.3-0.2-0.4-0.5-0.4-0.7c0-0.5-0.2-0.6-0.3-0.7c-0.1-0.1-1-1.3-1-1.3l-1.5-1.9c0,0-0.9-1.6-1.1-1.9c-0.2-0.3-0.7-1.3-1-1.9
		c-0.3-0.6-0.6-1.2-0.6-1.2s-0.1-0.6-0.3-1.3c-0.1-0.3-0.2-0.5-0.2-0.7c0,0,0,0,0,0s0.2-0.4,0.6-1.6s0.3-2.2,0.3-2.2s-0.3,0-0.4,0
		c0,0.6-0.6,1.9-0.8,2.5s-0.7,1.3-1,2.4c-0.3,1.1-0.3,2.8-0.2,4s-0.4,4.9-0.4,4.9s-1.2,0.6-3.7,0.9c-1.8,0.2-3.6,0.1-4.9-0.1
		c-1.3-0.2-2.5-1.2-2.5-1.2s0.1-1.3,0.1-2.3c0-1,0.3-2,0.4-2.7c0.1-0.8,0.2-1.4,0.1-2.2c-0.1-1.3,0-2.2-0.1-2.9
		c0-0.7-0.1-1.7-0.1-1.7H14c0,0.7-0.1,1.9-0.1,2.5c0,0,0,0,0,0.1c-0.1,0.7-0.3,1.7-0.5,2.4c-0.4,1.4-0.9,2.4-1.5,3.3
		c-0.5,0.9-1.2,1.4-1.7,2.2c-0.5,0.8-0.5,2-0.5,2.3c0,0.2-0.1,1-0.1,1s-0.1,0.1-0.1,0.7c0,0.6,0.1,0.9,0.1,0.9s-0.2-0.1-0.6-0.1
		c-0.4,0-0.6,0.3-0.6,1s1,0.9,1,0.9l0,0.1c0,0-0.8,0-1.3-0.4c-0.5-0.4-0.5-1.5-0.5-1.9s0.2-0.9,0.5-1.2s0.5-1,0.6-1.3
		c0.1-0.3,0.2-1.5,0.4-2.3c0.1-0.8,0.7-2.7,0.8-3.2c0.2-0.4,1.1-2.1,1.6-3.1c0.5-1,0.8-3.3,1-4c0.1-0.7,0.7-3,0.7-3s0.2-0.8,0.7-1.4
		c0.8-1,5.2-0.8,5.6-0.9c-1.2-0.5-2.9-0.9-4.8-0.7c-1.9,0.2-2.4,1.7-2.7,2.5c-0.3,0.8-0.7,3.1-0.9,4.3c-0.2,1.2-0.5,1.9-1,2.9
		c-0.8,1.3-1.1,2.4-1.2,2.7S8.3,29.7,8.2,30c-0.1,0.3-0.3,1.7-0.4,1.9s-0.1,0.9-0.2,1.5c0,0.6-0.2,1-0.2,1s-0.1,0.4-0.4,0.7
		c-0.3,0.3-0.3,0.4-0.4,0.7c-0.1,0.3,0,1.3,0,1.5c0,0.2,0,0.8,0.2,1.1C7.4,39.4,8.6,40,9,40c0.5,0,1-0.2,1-0.9
		c0-0.7-0.5-0.7-0.7-0.7c-0.2,0-0.4-0.2-0.4-0.2c0.2-0.1,0.3,0,0.3,0s0.3,0.3,0.5,0.3c0.4,0,0.4-0.4,0.4-0.7c0-0.3,0-0.8,0-0.9
		c0-0.1-0.1-0.2,0.1-0.9c0.2-0.6,0.1-1.9,0.1-1.9s0-0.5,0.3-1c0.3-0.5,0.7-0.8,1.6-2.1c0.4-0.6,0.7-1.2,0.9-1.6
		c0,0.2-0.1,0.3-0.1,0.4c-0.2,1.2-0.3,3.6-0.3,3.7c-0.2,0.1-0.2,0.4-0.2,0.7c0,0,0,0,0,0c0,0,0,0,0,0.1c0,0.4,0,2.2-0.4,2.8
		c-0.4,0.7-0.7,1.2-1,2.5c-0.4,1.3-0.5,2.7-0.5,2.7s-0.2,1.7-0.3,2.3c-0.1,0.6-0.3,1.6-0.3,1.8s-0.1,0.5-0.1,0.7
		c0,0.2,0.1,0.6,0.1,0.7c0,0.1-0.2,0.8-0.4,1.2c-0.2,0.4-0.4,1.1-0.5,1.5c0,0.5-0.2,2.9-0.2,2.9S9,55.3,9,55.7C9,56.1,9,58,9,58
		s-0.1,0.7-0.3,0.9C8.5,59.1,7,60.3,7,60.3s-1.3,0.6-1.3,1.4c0,0.8,0.2,1.3,0.9,1.3c0.7,0,1.5,0,1.8,0.3c0.2,0.1,0.7,0.2,1.3,0.2
		s0.8-0.4,0.9-0.6c0.1-0.2,0.3-0.6,0.8-0.7c0.4-0.1,0.9-0.3,0.9-1c0-0.7,0.2-1.9,0.3-2.7c0.2-0.8,0.9-3.4,1.3-4.3
		c0.4-0.9,1-1.8,1-2.5c0-0.7,0-1-0.1-1.6c0.2-0.2,1.1-1,1.4-1.4c0.4-0.4,0.7-1.2,0.7-1.5c0-0.3,0-0.6,0.1-1c0.1-0.4,0.3-1.1,0.4-1.2
		c0.1,0.1,0.2,0.1,0.4,0.1c0.5,0,1.1,0,1.3,0c0,0.2,0.1,0.5,0.1,1.1c0,0.9,0.1,1.7,0.3,2c0.2,0.4,0.6,0.7,0.6,2.4c0,1.7,0,4.5,0,4.8
		c0,0.3-0.2,1.1-0.4,1.6c-0.1,0.5-0.2,0.7-0.2,1.5c0,0.7-0.3,1.8-0.5,2.3c-0.2,0.5-0.8,1.4-0.8,2c0,0.6,0.4,1,1,1
		c0.6,0,3.1,0.2,4-0.2c0.9-0.4,1.1-0.6,1.1-1.2c0-0.6-0.6-1.4-0.6-2c0-0.7-0.1-2,0.1-2.4s0.6-1,1-2c0.3-1.1,0.8-2.3,0.8-3.9
		c0-1.6,0-3.8,0-4.8c0.1-1,0.4-3.3,0.5-3.8c0.1-0.5,0.5-2.7,0.5-4.9c0-1.3-0.5-2.1-0.5-2.1s-0.1-1.2,0-1.9c0,0,0,0,0,0c0,0,0,0,0,0
		c0-0.4-0.1-0.6-0.1-0.6s0.4-3,0.4-3.6c0-0.6-0.1-2,0-3.6c0-0.4,0-0.7,0.1-1c0.1,0.3,0.3,1,0.5,1.4c0.2,0.6,1.3,2.3,1.3,2.3l0.7,1.2
		l1.5,2l1.6,2c0,0,0.3,0.2,0.2,0.6c0,0.3,0.5,0.8,0.8,1c0.3,0.2,0.5,0.4,0.5,0.6s0,0.5,0,0.8c0,0.3,0.2,0.4,0.3,0.5
		c0.1,0.1,0,0.1,0,0.1s-0.1,0.5,0.4,1c0.7,0.5,1.2,0.1,1.2,0.1s0.8-0.6,1-0.8c0.3-0.2,0.4-0.9,0.4-2.1S36.8,35.3,36.5,34.7z
		 M22.6,2.5c-0.3,0.3-0.8,1-1.4,1.2c-0.6,0.1-1.3,0.3-1.6,0.4c-0.3,0.2-0.7,0.6-1.2,0.7c0-0.1-0.1-0.4-0.7-0.4s-1.1,0.8-1.1,0.8
		S16.5,5.7,16.5,6c0,0.3,0,0.5-0.1,0.8s0,0.6,0.1,0.8c0.1,0.1,0.1,0.3,0.1,0.3l0,0.3l-0.2,0C16.3,7.8,16.1,7.5,16,7
		c-0.2-0.6-0.1-1.6-0.1-2s0.3-0.9,0.5-1.2c0.2-0.3,0.7-0.8,1-1s1.2-1,1.4-1.1s0.4,0,0.7,0c0.2,0,0.8-0.3,1.2-0.5
		c0.4-0.2,0.5,0,0.9,0.1c0.4,0.2,1.2,0.5,1.9,0.8c0,0,0.1,0,0.1,0C23.3,2.2,22.9,2.3,22.6,2.5z M16.6,44.3c-0.3,0.5-0.7,1.3-0.7,1.9
		c0,0.6,0,1.1-0.2,1.5c-0.2,0.3-0.9,1.2-1.1,1.4c-0.2,0.2-0.9,0.9-0.9,1.7c0,0.8,0.3,1.1,0.3,1.1s-1.2,2.5-1.4,2.9
		c-0.2,0.4-0.8,2.1-1,3.1c-0.1,1-0.3,2.5-0.3,2.6c-0.1,0.2-0.1,0.3-0.4,0.6c-0.3,0.2-0.7,0.4-0.8,0.5c-0.1,0.1-0.5,0.8-0.7,0.8
		c-0.2,0-1-0.4-1.5-0.5c-0.5,0-0.9,0-1-0.2c0-0.2,0.3-0.4,0.3-0.4s0.9-0.8,1.2-1c0.2-0.1,1.6-0.7,1.6-2.3c0-1.6,0-2.4,0-3.6
		c0-1.1,0-2.8,0.3-4c0.3-1.1,0.8-2.1,0.8-2.8s-0.1-0.8,0-1.5c0.2-0.7,0.5-3,0.6-3.9s0.4-2.8,1.4-4.4c0.1-0.1,0.1-0.2,0.2-0.3
		c0.2,0.1,0.5,0.4,1,1c0.7,0.8,0.9,1.1,1.3,2.1s0.6,1.1,0.6,1.1s0.5,0.8,0.5,2C16.7,44.1,16.7,44.2,16.6,44.3z M18.9,44.4
		c-0.3,0-1,0.3-1.1-0.4c-0.1-0.7-0.3-1.7-0.6-2.2s-0.5-0.9-0.8-1.6c-0.3-0.6-0.6-1.3-1.3-2c-0.6-0.6-1.2-1.5-1.7-1.7
		c0,0,0-0.1,0-0.1c0.1-0.4,0.2-1.3,0.2-1.9c0,0,0,0,0,0c1.2,0.9,2,1.1,2.9,1.3c0.9,0.2,2.6,0.2,3.9,0.2c1.3,0,2.9-0.3,3.6-0.5
		c0.7-0.2,1.3-0.4,1.3-0.4l0,0c0,0.2,0,0.5,0,0.6c0,0.1,0.1,0.5,0.1,0.9c-0.1,0-0.3,0.1-0.5,0.2c-0.7,0.4-1.7,1.1-2.4,2
		s-1.6,2.3-2.1,3.1C19.8,42.7,19.2,44.4,18.9,44.4z M25.5,42c-0.2,1.6-0.4,2.5-0.5,3.1s-0.2,1.3-0.2,3.1c0,1.8,0,3.8,0,4.6
		c-0.1,0.8-0.4,2.1-0.7,3s-1.1,2.1-1.1,2.4s0,1.6,0.1,2.1c0.1,0.5,0.3,1.5,0.4,1.7c0.1,0.3,0.3,0.9-0.5,0.9c-0.8,0.1-2.3,0.1-2.6,0
		c-0.4-0.1-0.6-0.1-0.5-0.6s0.5-1.5,0.5-1.5s0.4-1.3,0.4-2.6c0.1-0.6,0.3-1.5,0.3-1.5s0.4-0.8,0.4-2.5s0-2.7,0-3.7s-0.2-1.1-0.5-2.5
		c-0.2-1.1-0.6-3.1-0.7-3.6c0,0,0-0.1,0.1-0.1c0.1-0.3,0.9-1.8,1.6-3s1.9-2.7,2.8-3.4c0.6-0.4,0.8-0.6,1-0.6c0,0.2,0.1,0.4,0.1,0.5
		C25.6,38.1,25.7,40.4,25.5,42z"/>
</g>
</svg>
