<?xml version="1.0" encoding="utf-8"?>
<!-- Generator: Adobe Illustrator 17.1.0, SVG Export Plug-In . SVG Version: 6.00 Build 0)  -->
<!DOCTYPE svg PUBLIC "-//W3C//DTD SVG 1.1//EN" "http://www.w3.org/Graphics/SVG/1.1/DTD/svg11.dtd">
<svg version="1.1" id="Layer_1" xmlns="http://www.w3.org/2000/svg" xmlns:xlink="http://www.w3.org/1999/xlink" x="0px" y="0px"
	 viewBox="0 0 42 64" enable-background="new 0 0 42 64" xml:space="preserve">
<path fill="#CB4A89" d="M12,47.8c0,0-2.9,10.1,4.7,16.2C15.6,63.3,4.5,56.8,12,47.8z"/>
<path fill="#CB4A89" d="M15.7,19.1c0,0,0.2-2-0.3-3.1s-2.1-2-2.1-6.6c-0.3-0.5-1.5-1-1.5-3.1s2.2-6.2,6-6.2c3.6,0,3.3,2.9,3.3,2.9
	s4.1-0.8,7.8,2.5c3,2.6,2.7,5,2.7,5s0.1,1.8-1.8,3.1c-0.1,0.8-3,7.8-7.2,7.8c-2.7,0-3.8-3.8-3.8-3.8s1.9,2.8,3.5,2.8s5.4-3.4,5.4-7
	c-0.4,0.2-2.5,1.4-5.4,0.4c0.6-0.1,4.1-0.1,6.4-3.9c-0.1-0.5-2.3-6.2-8.6-5C20.1,4.5,19.8,3,17.9,3s-3.7,2-3.7,4.2
	c0,0.3,0.1,1.4,0.9,2.2c0,0.2-0.2,2.8,0.4,4.2C16.1,15.1,16.4,17.5,15.7,19.1z"/>
<path fill="#CB4A89" d="M16.2,21c0,0-1.1-0.4-2.1,0.7c-1,1.1-2,2.1-3.1,5.2s-2,6-2.6,9c-0.6,3-0.8,6.2-0.8,6.2s-0.6,3.1,2.9,3.1
	s9.3-2.5,9.3-2.5s2.8-1.4,3.4-1.4s1.3,0.8,2.6,0.8s2.7-0.5,3.9,0.7c-0.4-0.1-0.7-0.3-1.4-0.3s-1.8,0.4-2.6,0.4s-2.3-0.7-2.3-0.7
	s-2.7,1.2-3.7,1.7c-1.1,0.5-5.5,2.7-9.3,2.7S6,44.7,6,42.6c0-2.1,0.7-8.3,1.2-10.7s1.8-7.1,3.1-9S12.9,20,14,20S16.2,21,16.2,21z"/>
<path fill="#CB4A89" d="M23.3,35.6c0,0-0.9,1.6-3.2,1.6s-3.9-0.8-5.2-2.9c-0.1,0.6-0.5,2.8-2.5,5.9c1.2-0.4,2.8-0.9,5-1
	s4.2-0.2,5.4-0.4c1.2-0.2,2.3-0.4,3.2-0.4c0.9,0,2.7,0,3.8,2.2c-0.3-0.2-1.4-1.5-3.9-1.5s-5.2,0.8-6.8,0.9s-5.5,0.4-7.2,1.3
	s-2,1-2,1s2.2-3.4,2.9-5.9c0.8-2.5,2.3-8.4,2.3-8.4s0.6,4.2,1.4,5.4c0.8,1.2,2,2.8,3.9,2.8C22.3,36.4,23.3,35.6,23.3,35.6z"/>
<path fill="#CB4A89" d="M23.6,23.1c0,0,4-0.7,4,4c0,1.4,0,1.7,0,1.7s3.7,2.1,3.7,4.7c0,1.8-2.1,3.1-2.1,3.1S36,40.6,36,47.8
	c0,5.7-4.8,8.3-4.8,8.3s0.9,2.8,0.2,6.2c-0.1-0.7-0.5-4.3-1.4-5.5C29.6,57,27.5,58,24.5,58c1.1-0.3,8.7-2.2,8.7-10.6
	c0-6.9-5.5-10.4-5.5-10.4s1.8-0.8,1.8-2.8c0-2-1.4-3.7-4.9-7.3c0.5,0.3,2,1.3,2,1.3S27.2,23.8,23.6,23.1z"/>
</svg>
