<?xml version="1.0" encoding="utf-8"?>
<!-- Generator: Adobe Illustrator 17.1.0, SVG Export Plug-In . SVG Version: 6.00 Build 0)  -->
<!DOCTYPE svg PUBLIC "-//W3C//DTD SVG 1.1//EN" "http://www.w3.org/Graphics/SVG/1.1/DTD/svg11.dtd">
<svg version="1.1" id="Layer_1" xmlns="http://www.w3.org/2000/svg" xmlns:xlink="http://www.w3.org/1999/xlink" x="0px" y="0px"
	 viewBox="0 0 42 64" enable-background="new 0 0 42 64" xml:space="preserve">
<g>
	<circle fill="#CB4A89" cx="17.1" cy="50.1" r="2.3"/>
	<circle fill="#CB4A89" cx="32" cy="50.1" r="2.3"/>
	<path fill="#CB4A89" d="M37.1,11.8C31,7.1,23.1,8.5,23.1,8.5s2.4,12.5,2.5,12.8c0,0,0,0,0,0c-0.7,0.2-1.3,0.7-1.5,1.4
		c0,0,0,0.1,0,0.1c0,0,0,0,0,0c0,0.1-0.1,0.2-0.1,0.2s-15,0-15.5,0c-0.2-0.2-0.4-0.5-0.6-0.8c-1.6-2-3.7-2.9-4.6-3.3
		c0-0.3-0.1-0.6-0.3-0.9c0,0,0,0-0.1-0.1c0,0,0,0,0,0c-0.3-0.3-0.7-0.5-1.2-0.5c0,0,0,0-0.1,0c0,0,0,0,0,0c-0.6,0-1.4,0.5-1.5,1.4
		c0,0.1,0,0.1,0,0.2c0,0.1,0,0.1,0,0.2c0,0.4,0.3,0.8,0.5,1c0,0,0,0,0,0c0,0,0,0,0.1,0.1c0,0,0,0,0.1,0c0,0,0,0,0,0c0,0,0.1,0,0.1,0
		c0,0,0,0,0,0c0,0,0.1,0,0.1,0c0,0,0.1,0,0.1,0c0,0,0,0,0,0c0.1,0,0.3,0.1,0.4,0.1c0,0,0,0,0,0c0,0,0,0,0,0c0.1,0,0.3,0,0.4-0.1
		c0,0,0,0,0,0c0,0,0.1,0,0.1,0c0.3-0.1,0.5-0.3,0.5-0.3c0.3,0.1,0.6,0.2,0.8,0.4c1.6,0.8,2.7,1.9,3.2,2.5c0,0.1,0,0.5,0,1.3
		c0,11.8,9.8,12.5,9.8,12.5l6.9,6.1l-2.8,2.4c-1-0.8-2.3-1.3-3.7-1.3c-3.3,0-5.9,2.6-5.9,5.9c0,3.3,2.6,5.9,5.9,5.9s5.9-2.6,5.9-5.9
		c0-1.4-0.5-2.6-1.3-3.6l2.8-2.5l2.8,2.5c-0.8,1-1.3,2.3-1.3,3.6c0,3.3,2.6,5.9,5.9,5.9s5.9-2.6,5.9-5.9c0-3.3-2.6-5.9-5.9-5.9
		c-1.4,0-2.7,0.5-3.7,1.3l-2.7-2.4c0,0,6.3-5.5,6.9-6c2.1,0,5.5-0.6,7.7-4.5c2.2-3.9,1.6-8.8,1.6-8.8S43.6,17.6,37.1,11.8z
		 M17.1,54.2c-2.3,0-4.1-1.8-4.1-4.1s1.8-4.1,4.1-4.1s4.1,1.8,4.1,4.1S19.4,54.2,17.1,54.2z M32,46c2.3,0,4.1,1.8,4.1,4.1
		s-1.8,4.1-4.1,4.1s-4.1-1.8-4.1-4.1S29.7,46,32,46z M38.6,15.6c-0.3,0.2-10.9,6.3-10.9,6.3L33,11C33,11,36.3,12.1,38.6,15.6z
		 M24.8,9.7c0,0,3.4-0.3,6.9,0.8c-0.1,0.3-4.8,10.1-4.8,10.1L24.8,9.7z M8.3,24.5L8.3,24.5C8.3,24.5,8.3,24.5,8.3,24.5
		C8.3,24.5,8.3,24.5,8.3,24.5z M24.6,42.1l-2.5-2.2h5.1L24.6,42.1z M28.7,38.6h-8.1L18.8,37h11.6L28.7,38.6z M38.6,32.5
		c-2,2.8-4.7,3.1-6,3.1s-14.1,0-14.1,0s-8.8,0.5-10.1-8.9c0.3,0.3,0.6,0.4,1.1,0.4c0.9,0,1.6-0.7,1.6-1.6c0-0.4-0.2-0.8-0.5-1.1
		h13.6c0.4,0.8,1.1,1.3,2.1,1.3c0.9,0,1.7-0.6,2.1-1.3h12.2C40.5,24.5,40.7,29.7,38.6,32.5z M40.5,23.1c-0.8,0-12.1,0-12.1,0
		l10.9-6.3C39.3,16.8,41.1,19.9,40.5,23.1z"/>
	<rect x="17.7" y="28.4" fill="#CB4A89" width="12.7" height="1.4"/>
</g>
</svg>
