<?xml version="1.0" encoding="utf-8"?>
<!-- Generator: Adobe Illustrator 17.1.0, SVG Export Plug-In . SVG Version: 6.00 Build 0)  -->
<!DOCTYPE svg PUBLIC "-//W3C//DTD SVG 1.1//EN" "http://www.w3.org/Graphics/SVG/1.1/DTD/svg11.dtd">
<svg version="1.1" id="Layer_1" xmlns="http://www.w3.org/2000/svg" xmlns:xlink="http://www.w3.org/1999/xlink" x="0px" y="0px"
	 viewBox="0 0 28 28" enable-background="new 0 0 28 28" xml:space="preserve">
<path d="M27.9,9.5L27.9,9.5l-5.3-3.9c0,0-1.7-1.4-3-1.4c-0.8,0-1.4,0-1.8,0C17.6,3.4,16.8,3,16,3c-1.1,0-2,0-2,0
	s-1,0-2,0c-0.8,0-1.6,0.4-1.9,1.2c-0.4,0-1,0-1.8,0c-1.3,0-3,1.4-3,1.4L0,9.5l0,0l0,0l3.6,4.7l0.6-0.4c0,0,1.9-1.3,2.6-1.7v12l0,0
	l0,0v0h0L7.7,25l0,0v0h12.6v0l0.9-0.9h0v0l0,0l0,0v-12c0.7,0.4,2.6,1.7,2.6,1.7l0.6,0.4L27.9,9.5L27.9,9.5z M16.8,4.4
	c0,0,0.2,0.2,0.2,1s-0.3,1.2-0.3,1.2l-1.1,2l-1-1.6h0L16.8,4.4z M14,4h1.8L14,6.1L12.2,4H14z M11.2,4.4L13.4,7h0l-1,1.6l-1.1-2
	c0,0-0.3-0.4-0.3-1.2S11.2,4.4,11.2,4.4z M24.2,12.8l-2.1-1.3c0,0-0.9-0.6-1.5-0.6c-0.4,0-0.5,0.2-0.5,0.4h0v0c0,0,0,0,0,0.1v12.4
	L19.9,24H8.1l-0.3-0.3V11.3c0,0,0.1-0.4-0.5-0.4s-1.5,0.6-1.5,0.6l-2.1,1.3L1.4,9.8L6,6.3c0,0,0.2-0.2,0.9-0.7
	C7.6,5.1,9.4,5.2,10,5.2c0,1.2,0.4,1.7,0.4,1.7l2.1,3.6L14,7.9l1.6,2.6l2.1-3.6c0,0,0.4-0.5,0.4-1.7c0.6,0,2.4,0,3,0.5
	C21.9,6.3,22,6.4,22,6.4l4.5,3.4L24.2,12.8z"/>
</svg>
