<?xml version="1.0" encoding="utf-8"?>
<!-- Generator: Adobe Illustrator 17.1.0, SVG Export Plug-In . SVG Version: 6.00 Build 0)  -->
<!DOCTYPE svg PUBLIC "-//W3C//DTD SVG 1.1//EN" "http://www.w3.org/Graphics/SVG/1.1/DTD/svg11.dtd">
<svg version="1.1" id="Layer_1" xmlns="http://www.w3.org/2000/svg" xmlns:xlink="http://www.w3.org/1999/xlink" x="0px" y="0px"
	 viewBox="0 0 28 28" enable-background="new 0 0 28 28" xml:space="preserve">
<g>
	<rect x="2" y="2" fill="#C86396" width="1" height="24"/>
	<rect x="25" y="2" fill="#C86396" width="1" height="24"/>
	<path fill="#C86396" d="M7.2,3.9L7.2,3.9l-2.3,0l0,0l0,0h0v0L4,4.8l0,0h0v2.4h0l0,0l0.9,0.9v0h2.3v0l0,0l0.9-0.9l0,0h0V4.8h0l0,0
		L7.2,3.9z M7.1,6.8L6.8,7.1H5.3L5,6.8V5.2l0.3-0.3h1.5l0.3,0.3V6.8z"/>
	<path fill="#C86396" d="M7.2,8.9L7.2,8.9l-2.3,0l0,0l0,0h0v0L4,9.8l0,0h0v2.4h0l0,0L4.9,13v0h2.3v0l0,0l0.9-0.9l0,0h0V9.8h0l0,0
		L7.2,8.9z M7.1,11.7L6.8,12H5.3L5,11.7v-1.6l0.3-0.3h1.5l0.3,0.3V11.7z"/>
	<path fill="#C86396" d="M23.1,3.9L23.1,3.9l-2.3,0l0,0l0,0h0v0l-0.9,0.9l0,0h0v2.4h0l0,0l0.9,0.9v0h2.3v0l0,0L24,7.2l0,0h0V4.8h0
		l0,0L23.1,3.9z M23,6.8l-0.3,0.3h-1.5l-0.3-0.3V5.2l0.3-0.3h1.5L23,5.2V6.8z"/>
	<path fill="#C86396" d="M23.1,8.9L23.1,8.9l-2.3,0l0,0l0,0h0v0l-0.9,0.9l0,0h0v2.4h0l0,0l0.9,0.9v0h2.3v0l0,0l0.9-0.9l0,0h0V9.8h0
		l0,0L23.1,8.9z M23,11.7L22.7,12h-1.5l-0.3-0.3v-1.6l0.3-0.3h1.5l0.3,0.3V11.7z"/>
	<path fill="#C86396" d="M19,4.7l-0.8-0.8v0H9.9v0L9,4.8l0,0h0v7.4h0L9.9,13v0h8.3v0l0.8-0.8h0L19,4.7L19,4.7L19,4.7z M18,11.8
		L17.8,12h-7.5L10,11.8V5.2l0.3-0.3h7.5L18,5.2V11.8z"/>
	<path fill="#C86396" d="M7.2,14.9L7.2,14.9l-2.3,0l0,0l0,0h0v0L4,15.8l0,0h0v2.4h0l0,0l0.9,0.9v0h2.3v0l0,0l0.9-0.9l0,0h0v-2.4h0
		l0,0L7.2,14.9z M7.1,17.8l-0.3,0.3H5.3L5,17.8v-1.6l0.3-0.3h1.5l0.3,0.3V17.8z"/>
	<path fill="#C86396" d="M7.2,19.9L7.2,19.9l-2.3,0l0,0l0,0h0v0L4,20.8l0,0h0v2.4h0l0,0l0.9,0.9v0h2.3v0l0,0l0.9-0.9l0,0h0v-2.4h0
		l0,0L7.2,19.9z M7.1,22.8l-0.3,0.3H5.3L5,22.8v-1.6l0.3-0.3h1.5l0.3,0.3V22.8z"/>
	<path fill="#C86396" d="M23.1,14.9L23.1,14.9l-2.3,0l0,0l0,0h0v0l-0.9,0.9l0,0h0v2.4h0l0,0l0.9,0.9v0h2.3v0l0,0l0.9-0.9l0,0h0v-2.4
		h0l0,0L23.1,14.9z M23,17.8l-0.3,0.3h-1.5l-0.3-0.3v-1.6l0.3-0.3h1.5l0.3,0.3V17.8z"/>
	<path fill="#C86396" d="M23.1,19.9L23.1,19.9l-2.3,0l0,0l0,0h0v0l-0.9,0.9l0,0h0v2.4h0l0,0l0.9,0.9v0h2.3v0l0,0l0.9-0.9l0,0h0v-2.4
		h0l0,0L23.1,19.9z M23,22.8l-0.3,0.3h-1.5l-0.3-0.3v-1.6l0.3-0.3h1.5l0.3,0.3V22.8z"/>
	<path fill="#C86396" d="M19,15.8l-0.8-0.8v0H9.9v0L9,15.8l0,0h0v7.4h0l0.8,0.8v0h8.3v0l0.8-0.8h0L19,15.8L19,15.8L19,15.8z
		 M18,22.8l-0.3,0.3h-7.5L10,22.8v-6.6l0.3-0.3h7.5l0.3,0.3V22.8z"/>
</g>
</svg>
