<?xml version="1.0" encoding="utf-8"?>
<!-- Generator: Adobe Illustrator 17.1.0, SVG Export Plug-In . SVG Version: 6.00 Build 0)  -->
<!DOCTYPE svg PUBLIC "-//W3C//DTD SVG 1.1//EN" "http://www.w3.org/Graphics/SVG/1.1/DTD/svg11.dtd">
<svg version="1.1" id="Layer_1" xmlns="http://www.w3.org/2000/svg" xmlns:xlink="http://www.w3.org/1999/xlink" x="0px" y="0px"
	 viewBox="0 0 30 30" enable-background="new 0 0 30 30" xml:space="preserve">
<g>
	<rect x="12" y="21.1" fill="#D8D8D8" width="6" height="1"/>
	<path fill="#D8D8D8" d="M28,14L28,14l-1.6,0l0,0l0,0h0v0L22,17.4v-1.2h0l0,0L20,14.3c1.8-0.9,3-2.7,3-4.8c0-3-2.4-5.4-5.5-5.4
		c-3,0-5.5,2.4-5.5,5.4c0,1.8,0.9,3.5,2.3,4.5H9.5c1.1-0.8,1.8-2.2,1.8-3.6c0-2.5-2.1-4.6-4.6-4.6c-2.5,0-4.6,2-4.6,4.6
		c0,1.5,0.7,2.8,1.8,3.6H3.4v0l-2.3,2.3l0,0h0v7.4h0l0,0l2.3,2.3v0h16.3v0l2.3-2.3h0v0l0,0l0,0v-1.1l4.4,3.4v0H28h1h0V14H28z
		 M13.2,9.4c0-2.4,2-4.3,4.4-4.3c2.4,0,4.4,1.9,4.4,4.3s-2,4.3-4.4,4.3C15.1,13.8,13.2,11.8,13.2,9.4z M17.6,14.9
		C17.6,14.9,17.6,14.9,17.6,14.9l1.7,0l1.8,1.7v6.6l-1.8,1.7H3.8l-1.8-1.7v-6.6l1.8-1.7L17.6,14.9C17.5,14.9,17.5,14.9,17.6,14.9z
		 M3.1,10.2c0-2,1.6-3.6,3.7-3.6c2,0,3.7,1.6,3.7,3.6c0,1.9-1.5,3.5-3.4,3.6H6.6C4.6,13.8,3.1,12.2,3.1,10.2z M26.7,24.9L22,21.3
		v-2.6l4.8-3.7H28v9.9H26.7z"/>
</g>
</svg>
