<?xml version="1.0" encoding="utf-8"?>
<!-- Generator: Adobe Illustrator 17.1.0, SVG Export Plug-In . SVG Version: 6.00 Build 0)  -->
<!DOCTYPE svg PUBLIC "-//W3C//DTD SVG 1.1//EN" "http://www.w3.org/Graphics/SVG/1.1/DTD/svg11.dtd">
<svg version="1.1" id="Layer_1" xmlns="http://www.w3.org/2000/svg" xmlns:xlink="http://www.w3.org/1999/xlink" x="0px" y="0px"
	 viewBox="0 0 32 32" enable-background="new 0 0 32 32" xml:space="preserve">
<path fill="#C86396" d="M24.4,0.1c-0.9,0-4.1,0.1-6.3,3.5c-1.6,2.5-2,4.9-2.1,5.7h0c-0.1-0.8-0.5-3.2-2.1-5.7
	c-2.3-3.4-5.5-3.5-6.3-3.5S0,0.1,0,6.6C0,13.1,6.8,14,6.8,14l0.1-1c0,0-5.9-0.8-5.9-6.4c0-5.8,5.9-5.5,6.5-5.5c0.6,0,3.8-0.2,6,4
	c1.5,2.8,1.8,6.7,1.9,8.9v18h1V15.8h0c0,0,0,0,0,0V14c0.1-2.2,0.4-6.1,1.9-8.9c2.2-4.2,5.5-4,6-4c0.6,0,6.5-0.3,6.5,5.5
	c0,5.6-5.9,6.4-5.9,6.4l0.1,1c0,0,6.8-0.9,6.8-7.4C31.9,0.1,25.3,0.1,24.4,0.1z"/>
</svg>
