<?xml version="1.0" encoding="utf-8"?>
<!-- Generator: Adobe Illustrator 17.1.0, SVG Export Plug-In . SVG Version: 6.00 Build 0)  -->
<!DOCTYPE svg PUBLIC "-//W3C//DTD SVG 1.1//EN" "http://www.w3.org/Graphics/SVG/1.1/DTD/svg11.dtd">
<svg version="1.1" id="Layer_1" xmlns="http://www.w3.org/2000/svg" xmlns:xlink="http://www.w3.org/1999/xlink" x="0px" y="0px"
	 viewBox="0 0 42 64" enable-background="new 0 0 42 64" xml:space="preserve">
<g>
	<path fill="#CB4A89" d="M1.8,36H0v-4.4h1.8c0.4,0,0.7,0.1,1,0.3c0.2,0.2,0.4,0.5,0.4,0.8c0,0.2-0.1,0.4-0.2,0.6
		c-0.1,0.2-0.3,0.3-0.6,0.3v0.1c0.3,0,0.5,0.1,0.7,0.3c0.2,0.2,0.3,0.4,0.3,0.7c0,0.4-0.1,0.7-0.4,0.9C2.7,35.9,2.3,36,1.8,36z
		 M0.7,32.2v1.3h0.8c0.3,0,0.5-0.1,0.7-0.2c0.2-0.1,0.2-0.3,0.2-0.5c0-0.2-0.1-0.4-0.2-0.5c-0.1-0.1-0.3-0.2-0.6-0.2H0.7z M0.7,35.4
		h1c0.3,0,0.5-0.1,0.7-0.2c0.2-0.1,0.2-0.3,0.2-0.5c0-0.2-0.1-0.4-0.3-0.5C2.2,34.1,2,34,1.6,34h-1V35.4z"/>
	<path fill="#CB4A89" d="M5,36.1c-0.3,0-0.6-0.1-0.8-0.3c-0.2-0.2-0.3-0.4-0.3-0.7c0-0.3,0.1-0.5,0.3-0.7c0.2-0.2,0.5-0.3,0.9-0.3
		L6.1,34v-0.3c0-0.2-0.1-0.3-0.2-0.4c-0.1-0.1-0.3-0.1-0.5-0.1c-0.2,0-0.3,0-0.5,0.1c-0.1,0.1-0.2,0.2-0.2,0.3H4.1
		c0-0.3,0.2-0.5,0.4-0.7c0.2-0.2,0.6-0.3,0.9-0.3c0.4,0,0.7,0.1,1,0.3c0.2,0.2,0.3,0.5,0.3,0.8V36H6.1v-0.5H6
		c-0.1,0.2-0.2,0.3-0.4,0.4C5.5,36,5.3,36.1,5,36.1z M5.2,35.5c0.2,0,0.5-0.1,0.6-0.2C6,35.2,6.1,35,6.1,34.8v-0.3l-0.8,0.1
		c-0.2,0-0.4,0.1-0.5,0.1c-0.1,0.1-0.2,0.2-0.2,0.3c0,0.1,0.1,0.3,0.2,0.3C4.9,35.5,5,35.5,5.2,35.5z"/>
	<path fill="#CB4A89" d="M9.4,36.1c-0.2,0-0.4-0.1-0.6-0.2c-0.2-0.1-0.3-0.2-0.4-0.4h0V36H7.7v-4.6h0.7v1.8h0.1
		c0.1-0.2,0.2-0.3,0.4-0.4c0.2-0.1,0.4-0.2,0.6-0.2c0.4,0,0.8,0.2,1,0.5c0.2,0.3,0.4,0.7,0.4,1.3c0,0.5-0.1,0.9-0.4,1.3
		C10.2,35.9,9.8,36.1,9.4,36.1z M9.2,33.2c-0.3,0-0.5,0.1-0.7,0.3c-0.2,0.2-0.2,0.5-0.2,0.8c0,0.3,0.1,0.6,0.2,0.8
		c0.2,0.2,0.4,0.3,0.7,0.3c0.3,0,0.5-0.1,0.7-0.3c0.2-0.2,0.2-0.5,0.2-0.8c0-0.4-0.1-0.6-0.2-0.8C9.7,33.3,9.5,33.2,9.2,33.2z"/>
	<path fill="#CB4A89" d="M11.8,37.2c-0.1,0-0.2,0-0.3,0v-0.6c0,0,0.1,0,0.2,0c0.2,0,0.3,0,0.4-0.1c0.1-0.1,0.2-0.2,0.2-0.4l0-0.2
		l-1.2-3.3h0.7l0.8,2.6h0.1l0.8-2.6h0.7l-1.2,3.5c-0.1,0.4-0.3,0.7-0.5,0.8C12.4,37.2,12.1,37.2,11.8,37.2z"/>
</g>
<g>
	<path fill="#CB4A89" d="M33,36h-1.8v-4.4h1.8c0.4,0,0.7,0.1,1,0.3c0.2,0.2,0.4,0.5,0.4,0.8c0,0.2-0.1,0.4-0.2,0.6
		c-0.1,0.2-0.3,0.3-0.6,0.3v0.1c0.3,0,0.5,0.1,0.7,0.3c0.2,0.2,0.3,0.4,0.3,0.7c0,0.4-0.1,0.7-0.4,0.9C33.8,35.9,33.4,36,33,36z
		 M31.8,32.2v1.3h0.8c0.3,0,0.5-0.1,0.7-0.2c0.2-0.1,0.2-0.3,0.2-0.5c0-0.2-0.1-0.4-0.2-0.5c-0.1-0.1-0.3-0.2-0.6-0.2H31.8z
		 M31.8,35.4h1c0.3,0,0.5-0.1,0.7-0.2c0.2-0.1,0.2-0.3,0.2-0.5c0-0.2-0.1-0.4-0.3-0.5c-0.2-0.1-0.4-0.2-0.7-0.2h-1V35.4z"/>
	<path fill="#CB4A89" d="M36.7,36.1c-0.5,0-0.9-0.2-1.2-0.5c-0.3-0.3-0.4-0.7-0.4-1.3c0-0.5,0.1-1,0.4-1.3c0.3-0.3,0.7-0.5,1.2-0.5
		c0.5,0,0.9,0.2,1.1,0.5c0.3,0.3,0.4,0.7,0.4,1.3c0,0.5-0.1,1-0.4,1.3C37.5,35.9,37.2,36.1,36.7,36.1z M36.7,35.5
		c0.3,0,0.5-0.1,0.7-0.3c0.2-0.2,0.2-0.5,0.2-0.8c0-0.4-0.1-0.6-0.2-0.8c-0.2-0.2-0.4-0.3-0.7-0.3c-0.3,0-0.5,0.1-0.7,0.3
		c-0.2,0.2-0.2,0.5-0.2,0.8c0,0.4,0.1,0.6,0.2,0.8C36.2,35.4,36.4,35.5,36.7,35.5z"/>
	<path fill="#CB4A89" d="M40.4,36.1c-0.5,0-0.9-0.2-1.2-0.5c-0.3-0.3-0.4-0.7-0.4-1.3c0-0.5,0.1-1,0.4-1.3c0.3-0.3,0.7-0.5,1.2-0.5
		c0.5,0,0.9,0.2,1.1,0.5c0.3,0.3,0.4,0.7,0.4,1.3c0,0.5-0.1,1-0.4,1.3C41.3,35.9,40.9,36.1,40.4,36.1z M40.4,35.5
		c0.3,0,0.5-0.1,0.7-0.3c0.2-0.2,0.2-0.5,0.2-0.8c0-0.4-0.1-0.6-0.2-0.8c-0.2-0.2-0.4-0.3-0.7-0.3c-0.3,0-0.5,0.1-0.7,0.3
		c-0.2,0.2-0.2,0.5-0.2,0.8c0,0.4,0.1,0.6,0.2,0.8C39.9,35.4,40.2,35.5,40.4,35.5z"/>
</g>
<path fill="#CB4A89" d="M27.3,32C27.3,32,27.3,31.9,27.3,32c0-0.2-0.1-0.3-0.1-0.3s-0.7-0.8-1.2-1.6c0,0,0,0,0,0s0,0,0,0
	c0,0,0,0,0-0.1c0,0-0.1,0-0.2,0c0,0-0.5,0.1-3-0.5c-0.1,0-0.2-0.1-0.3-0.1c-0.1,0-0.1,0.2-0.1,0.4c0,0.2,0.1,1.8,0.1,2.4
	c0,0-0.1-0.1-0.1,0.1c0,0.2,0,0.5,0.1,0.7c0.1,0.3,0.1,0.3,0.1,0.3s-0.8,0-1.1,0c-0.3,0-1.6,0-1.8,0l0-0.8l0-0.8l0.1-0.4l0.1-0.3
	l0.2-0.3l0.2-0.5l0.3-0.6l0.2-0.4l0.1-0.2l0.3-0.6l0.1-0.3l0.2-0.4l0.1-0.2l0.1-0.3l0.2-0.3l0.1-0.1l0,0l0-0.1c0.1,0,0.1,0,0.2,0
	c0.4-0.1,0.6-0.2,1-0.5c0.4-0.3,0.5-0.9,0.5-1.2c0-0.3-0.1-0.6-0.3-0.9c-0.3-0.3-0.7-0.4-0.7-0.4s-0.3-0.3-0.7-0.3
	c-0.6,0-0.9,0.5-1,0.5c-0.3-0.5-0.7-0.6-1-0.6c-0.3,0-0.5,0.1-0.5,0.2c-0.1-0.1-0.2-0.2-0.2-0.2s0-0.1,0-0.3c0-0.6-0.3-0.9-0.3-0.9
	s-0.3-0.5-0.9-0.4c-1,0.1-1.1,1-1.1,1.3s0.1,0.6,0.1,0.6c-0.1,0-0.1,0.1-0.1,0.1s-0.2-0.2-0.6-0.2c-1,0-1.1,1-1.1,1.3
	s0.1,0.9,0.7,1.3c0.4,0.3,0.8,0.3,1,0.2l0,0.1l0,0l1.4,3l0.5,1.1l0.2,0.3l0.2,0.4l0.2,0.4l0,0.6l0,0.6c-0.1-0.2-0.2-0.4-0.2-0.4
	s-0.1-0.4-0.4-0.7c-0.3-0.3-0.4-0.4-0.7-0.5c-0.3-0.1-1.1-0.3-1.2-0.4c0-0.1-0.1-0.1-0.2-0.1c-0.1,0-0.2,0.1-0.2,0.2
	s0.1,0.2,0.2,0.2c0,0,0.1,0,0.1,0c0.2,0.1,0.5,0.2,0.5,0.2l0.5,0.1c0,0,0.7,0.2,0.9,0.5c0.2,0.3,0.2,0.2,0.3,0.5
	c0.1,0.2,0.3,0.8,0.3,0.8s-1.4,0.1-1.5,0.1c-0.1,0-0.3,0-0.3,0.4c0,0.3,0,0.3,0,0.3s0,0,0,0.1c0,0.1,0,0.1,0,0.1l0,0.1
	c0,0,0,0.4,0.2,0.7c0.2,0.3,0.3,0.7,0.8,0.9s1.3,0.2,1.3,0.2s0,0.1,0.3,0.1c0.3,0,0.5,0,0.5,0l0,0l0.2,0.2l0.4,0.5
	c0,0,0.2,0.2,0.4,0.4c0.1,0.1,0.3,0.2,0.5,0.3c0,0,0,0,0,0c0,0,0,0,0,0c0,0-0.1,0-0.2,0.1c-0.2,0.1-0.3,0.2-0.5,0.3
	c-0.1,0.1-0.4,0.3-0.4,0.3l-0.3,0.3c-0.3-0.2-0.7-0.3-1.1-0.3c-1.1,0-2,0.9-2,2s0.9,2,2,2c1.1,0,2-0.9,2-2c0,0,0,0,0,0l1.1,0
	c0,0,0,0,0,0c0,1.1,0.9,2,2,2s2-0.9,2-2s-0.9-2-2-2c-0.3,0-0.6,0.1-0.9,0.2c-0.1-0.1-0.4-0.4-0.5-0.5c-0.1-0.1-0.3-0.2-0.5-0.3
	c0,0,0,0,0,0c0,0,0,0,0,0c0.1,0,0.3-0.1,0.4-0.1c0.1,0,0.4-0.2,0.5-0.3c0.1-0.1,0.3-0.3,0.5-0.6c0.1-0.1,0.1-0.2,0.1-0.2l0,0
	c0,0,1,0,1.4-0.1c0.4-0.1,0.9-0.3,1.4-1.1c0.3-0.5,0.2-0.9,0.2-1c0.1,0,0.1,0,0.1-0.3c0-0.3,0-1.2,0-1.4S27.3,32.1,27.3,32z
	 M21.1,27.4c0.3-0.3,0.4-0.7,0.4-0.7s0.1,0,0.1,0.1l0,0l0,0L21.5,27l-0.1,0.3l-0.1,0.2l-0.1,0.2L21,28l-0.1,0.3l-0.2,0.4l-0.1,0.2
	l-0.1,0.2l-0.1,0.3l-0.1,0.3L20,30L20,30.2l-0.1,0.2l-0.2,0.4l0-0.3l0.1-0.4l0.1-0.3l0.1-0.3l0.2-0.5l0.1-0.3l0.2-0.6l0.1-0.4
	C20.8,27.6,20.9,27.5,21.1,27.4z M20.1,27.8c0,0,0.1,0,0.1,0c0.1,0,0.2,0,0.3-0.1l-0.1,0.3l-0.1,0.3l-0.1,0.3l-0.1,0.4l-0.1,0.4
	l-0.1,0.4l0-0.3l0.1-0.5l0.1-0.5L20.1,27.8l0,0.1L20.1,27.8z M19.4,27.9C19.5,27.9,19.5,27.9,19.4,27.9l0,0.9L19.4,27.9L19.4,27.9
	L19.4,27.9z M19.4,30.1l0.1-0.9l0.1-0.8l0-0.5c0.2,0,0.4-0.2,0.4-0.2s0.1,0,0.2,0.1l0,0.1l0,0L20,28.6l-0.1,0.3l0,0.4l-0.1,0.3
	l0,0.3l0,0.2l-0.3,0.8L19.4,30.1z M18.9,30.7l-0.3-0.6l-0.3-0.5L18,28.9l-0.1-0.3l-0.5-1.1l-0.3-0.7l-0.2-0.5l0,0l-0.1,0
	c0.2-0.1,0.3-0.2,0.3-0.3c0.1,0.1,0.2,0.2,0.5,0.2c0.1,0,0.2,0,0.2,0l0,0.1l0,0l0.3,1.2l0.2,0.6l0.2,0.7l0.2,0.6l0.1,0.3l0.2,0.9
	l0.1,0.5l0.1,0.3L18.9,30.7z M19.2,30.9l-0.1-0.5l-0.2-0.7L18.7,29l-0.2-0.6L18.4,28l-0.1-0.5L18,26.3l0.1,0L18,26.3
	c0.1,0,0.1,0,0.1-0.1c0.1,0.1,0.2,0.1,0.2,0.1s0,0.2,0.1,0.6c0.1,0.2,0.2,0.4,0.3,0.6l0.1,0.6l0.1,0.7l0.3,1.3l0,0.3L19.2,30.9
	l0.1,0.5L19.2,30.9z M19.4,29.5l0,1.1l-0.2-0.7L19,28.7l-0.2-1l0-0.2c0,0,0.1,0.1,0.1,0.1c0.1,0.1,0.3,0.3,0.5,0.3l0,0.1l0,0l0,0.9
	L19.4,29.5z M19.4,31l0.3-0.6l0,0v0.2l-0.1,0.4l0,0.1l-0.1,0.3l0,0L19.4,31z M19.9,40.2l1.1,0.1c0,0.2-0.1,0.4-0.1,0.6l-1-0.5
	C19.9,40.3,19.9,40.2,19.9,40.2z M17.9,40.1C17.9,40.1,17.9,40.1,17.9,40.1l1.1,0c0,0,0,0,0,0c0,0.1,0,0.1,0,0.2L18,40.6
	C17.9,40.4,17.9,40.3,17.9,40.1z M19.1,40.1l-1.1-0.1c0-0.2,0.1-0.4,0.2-0.6l1.1,0.5C19.1,40,19.1,40,19.1,40.1z M19.1,38.6
	c-0.1,0.1-0.1,0.1-0.2,0.2c0,0-0.2,0.3-0.1,0.5l-0.3-0.4C18.6,38.8,18.8,38.7,19.1,38.6L19.1,38.6z M19.1,38.6c0,0,0.1,0,0.1,0
	C19.2,38.6,19.1,38.6,19.1,38.6L19.1,38.6z M19.3,39.8c-0.2-0.1-0.3-0.3-0.3-0.5c0-0.2,0.1-0.3,0.2-0.4L19.3,39.8
	C19.3,39.7,19.3,39.7,19.3,39.8z M19.5,40.6l-0.1,1.1c-0.2,0-0.4-0.1-0.6-0.1l0.5-1C19.4,40.6,19.4,40.6,19.5,40.6z M19.4,39.7
	l-0.2-0.9c0,0,0.1-0.1,0.1-0.1c0.1,0,0.2-0.1,0.3-0.1l-0.1,1.1c0,0,0,0,0,0C19.5,39.7,19.4,39.7,19.4,39.7z M19.6,38.6
	c0.1,0,0.3,0,0.3,0c0.1,0,0.2,0.1,0.3,0.1l-0.5,1.1c-0.1,0-0.1-0.1-0.2-0.1L19.6,38.6z M19.8,40.5l0.8,0.8c-0.2,0.2-0.4,0.3-0.7,0.4
	l-0.3-1.1C19.7,40.5,19.8,40.5,19.8,40.5z M21.1,39.9l-0.8,0l0.8-0.2C21.1,39.8,21.1,39.9,21.1,39.9z M20.2,39.9l-0.4,0c0,0,0,0,0,0
	l0.9-0.8c0.2,0.2,0.3,0.4,0.3,0.6L20.2,39.9z M19.9,39.9c0,0-0.1-0.1-0.1-0.1l0.5-1.1c0.2,0.1,0.4,0.2,0.5,0.4L19.9,39.9z
	 M18.4,38.9l0.3,0.4c0,0.1,0,0.1,0,0.2c0.1,0.2,0.2,0.3,0.3,0.4c0,0,0,0,0,0l-1.1-0.5C18.2,39.2,18.3,39.1,18.4,38.9z M18,40.6
	l1.1-0.3c0,0.1,0.1,0.1,0.1,0.2l-0.8,0.8C18.2,41.1,18,40.8,18,40.6z M18.4,41.3l0.8-0.8c0,0,0.1,0.1,0.1,0.1l-0.5,1
	C18.7,41.5,18.5,41.4,18.4,41.3z M19.4,41.7l0.1-1.1c0,0,0,0,0,0c0.1,0,0.1,0,0.2,0l0.3,1.1C19.8,41.7,19.6,41.7,19.4,41.7
	C19.5,41.7,19.5,41.7,19.4,41.7z M20.6,41.3l-0.8-0.8c0,0,0.1-0.1,0.1-0.2l1,0.5C20.9,41,20.7,41.1,20.6,41.3z M21.1,40.1
	C21.1,40.2,21.1,40.2,21.1,40.1l-1.1,0c0,0,0,0,0,0c0,0,0,0,0,0L21.1,40.1C21.1,40.1,21.1,40.1,21.1,40.1z M25.4,39.4
	C25.4,39.4,25.4,39.4,25.4,39.4l-0.5,0.5c0,0-0.1-0.1-0.1-0.1l0.4-0.9C25.3,39,25.4,39.1,25.4,39.4z M26.2,40.1
	C26.2,40.2,26.2,40.2,26.2,40.1l-1.1,0c0,0,0,0,0,0c0,0,0,0,0-0.1c0.1,0,0.2-0.1,0.4-0.2l0.7-0.2C26.1,39.9,26.2,40,26.2,40.1z
	 M25,40.2l1.1,0.1c0,0.2-0.1,0.4-0.1,0.6l-1-0.5C25,40.3,25,40.2,25,40.2z M25,39.9C24.9,39.9,24.9,39.9,25,39.9l0.5-0.5
	C25.4,39.8,25.1,39.9,25,39.9z M24.9,40.5l0.8,0.8c-0.2,0.2-0.4,0.3-0.7,0.4l-0.3-1.1C24.8,40.5,24.8,40.5,24.9,40.5z M24.8,39.8
	c-0.1,0-0.1-0.1-0.2-0.1l0.1-1.1c0.2,0,0.3,0.1,0.3,0.1s0.1,0.1,0.3,0.2L24.8,39.8z M25.2,38.7C25.2,38.7,25.3,38.7,25.2,38.7
	L25.2,38.7C25.3,38.7,25.2,38.7,25.2,38.7z M24.4,38.5c0.1,0,0.2,0,0.2,0.1l-0.1,1.1c0,0,0,0,0,0c0,0-0.1,0-0.1,0l-0.3-1.1
	C24.2,38.6,24.3,38.6,24.4,38.5z M24.5,40.6l-0.1,1.1c-0.2,0-0.4-0.1-0.6-0.1l0.5-1C24.5,40.6,24.5,40.6,24.5,40.6z M24.4,39.7
	c-0.1,0-0.1,0-0.1,0.1l-0.8-0.9c0.2-0.2,0.4-0.3,0.6-0.3L24.4,39.7z M24.1,40.1L24.1,40.1L24.1,40.1C24.1,40.1,24.1,40.1,24.1,40.1z
	 M23.5,38.9l0.8,0.9c0,0-0.1,0.1-0.1,0.1l-1.1-0.5C23.2,39.2,23.3,39.1,23.5,38.9z M23.1,39.4l1.1,0.5c0,0,0,0,0,0l-1.2,0
	C23,39.8,23.1,39.6,23.1,39.4z M24,40.1l0.1,0c0,0,0,0,0,0c0,0.1,0,0.1,0,0.2L23,40.6c0-0.1-0.1-0.3-0.1-0.5c0,0,0,0,0,0L24,40.1z
	 M23,40.6l1.1-0.3c0,0.1,0.1,0.1,0.1,0.2l-0.8,0.8C23.2,41.1,23.1,40.8,23,40.6z M23.4,41.3l0.8-0.8c0,0,0.1,0.1,0.1,0.1l-0.5,1
	C23.7,41.5,23.6,41.4,23.4,41.3z M24.5,41.7l0.1-1.1c0,0,0,0,0,0c0.1,0,0.1,0,0.2,0l0.3,1.1C24.9,41.7,24.7,41.7,24.5,41.7
	C24.5,41.7,24.5,41.7,24.5,41.7z M25.7,41.3l-0.8-0.8c0,0,0.1-0.1,0.1-0.2l1,0.5C25.9,41,25.8,41.1,25.7,41.3z M26.1,39.7l-0.7,0.2
	c0.1-0.1,0.2-0.3,0.2-0.6c0,0,0-0.1,0-0.1l0.2-0.2C25.9,39.3,26,39.5,26.1,39.7z M25.8,39.1l-0.2,0.2c0-0.2-0.2-0.4-0.3-0.5l0,0
	C25.5,38.8,25.6,38.9,25.8,39.1z M22.9,37.9c0,0,0.2,0.1,0.3,0.2c0.1,0.1,0.3,0.3,0.3,0.3c-0.5,0.3-0.9,0.9-1,1.5l-1.1,0
	c-0.1-0.5-0.3-1-0.7-1.3l0.4-0.3c0,0,0.3-0.3,0.5-0.4c0.1-0.1,0.3-0.1,0.4-0.1c0.1,0.1,0.2,0.2,0.3,0.2c0.1,0,0.2-0.1,0.3-0.1
	L22.9,37.9z M23.7,36.7c-0.1,0.1-0.2,0.3-0.5,0.5c-0.2,0.1-0.4,0.2-0.5,0.2c-0.1-0.1-0.2-0.2-0.3-0.2c-0.1,0-0.2,0.1-0.3,0.1
	c-0.1,0-0.2-0.1-0.4-0.2c-0.3-0.1-0.4-0.4-0.4-0.4l-0.4-0.6l0.5,0.1l1.1,0c0,0,0,0.1,0.1,0.1c0.1,0,0.8,0,0.8,0s0.1,0,0.1-0.1
	c0,0,0.5,0,0.5,0l0.1,0C23.9,36.4,23.8,36.6,23.7,36.7z"/>
</svg>
