<?xml version="1.0" encoding="utf-8"?>
<!-- Generator: Adobe Illustrator 17.1.0, SVG Export Plug-In . SVG Version: 6.00 Build 0)  -->
<!DOCTYPE svg PUBLIC "-//W3C//DTD SVG 1.1//EN" "http://www.w3.org/Graphics/SVG/1.1/DTD/svg11.dtd">
<svg version="1.1" id="Layer_1" xmlns="http://www.w3.org/2000/svg" xmlns:xlink="http://www.w3.org/1999/xlink" x="0px" y="0px"
	 viewBox="0 0 42 64" enable-background="new 0 0 42 64" xml:space="preserve">
<path fill="#CB4A89" d="M40.2,31.9c0.1,0,0.1-0.1,0.1-0.2c0-0.3-0.6-0.8-0.6-0.8s-2.3-2.6-3.7-4.9c0-0.1-0.1-0.1-0.1-0.1
	s0,0-0.1-0.1c0,0,0.1-0.1-0.1-0.2c-0.1-0.1-0.4-0.1-0.5-0.1c-0.1,0-1.7,0.4-9.5-1.6c-0.3-0.1-0.5-0.4-1-0.4c-0.4,0-0.4,0.5-0.3,1.1
	c0,0.6,0.5,5.7,0.4,7.7c0,0-0.4-0.4-0.4,0.2s0.1,1.5,0.3,2.3c0.2,0.8,0.3,1,0.3,1s-2.6-0.1-3.5-0.1c-0.9,0-5.2,0.1-5.8,0.1l-0.1-2.4
	l0-2.4l0.3-1.2l0.3-0.8l0.5-1.1l0.7-1.6l1-1.9l0.5-1.2l0.2-0.5l0.9-1.9l0.4-0.9l0.6-1.1l0.4-0.7l0.3-0.8l0.5-0.9l0.2-0.3l0.1,0
	l0-0.2c0.2,0.1,0.4,0.1,0.7,0.1c1.3-0.2,2-0.7,3.1-1.7c1.2-1,1.5-2.8,1.5-3.7c0-0.9-0.2-1.8-1-2.9c-0.8-1.1-2-1.2-2-1.2
	s-0.8-1-2.3-1c-1.8,0-2.9,1.5-3,1.7c-1-1.5-2.2-1.8-3.1-1.8c-0.9,0-1.5,0.4-1.7,0.5c-0.2-0.3-0.5-0.5-0.5-0.5s0.1-0.2,0.1-1
	c0-1.8-1-2.8-1-2.8S12.2-0.1,10.5,0C7.4,0.3,7,3,7,4.1s0.4,1.7,0.5,2C7.3,6.1,7.2,6.3,7.2,6.3S6.6,5.7,5.4,5.7c-3,0-3.4,3-3.4,4
	s0.4,2.7,2.2,3.9c1.4,1,2.6,0.8,3.1,0.7l0,0.3l0.1-0.1l4.3,9.4l1.6,3.4l0.5,1.1l0.7,1.2l0.6,1.2l0,2l0.1,1.9
	c-0.3-0.6-0.5-1.2-0.5-1.2s-0.4-1.1-1.4-2.1c-1-0.9-1.4-1.2-2.3-1.5c-0.8-0.3-3.3-1-3.9-1.2c-0.1-0.2-0.3-0.3-0.5-0.3
	c-0.3,0-0.5,0.2-0.5,0.5c0,0.3,0.2,0.5,0.5,0.5c0.1,0,0.2,0,0.3-0.1c0.5,0.2,1.7,0.5,1.7,0.5l1.4,0.5c0,0,2.1,0.6,2.8,1.4
	c0.7,0.8,0.7,0.8,1,1.4c0.3,0.7,1.1,2.6,1.1,2.6S10.6,36,10.3,36C10,36,9.4,36,9.4,37.2c0,0.8,0,0.9,0,0.9s-0.1,0-0.1,0.3
	c0,0.3,0.2,0.3,0.2,0.3l0,0.4c0,0,0,1.2,0.5,2.2c0.5,0.9,1.1,2.1,2.4,2.9s4.2,0.8,4.2,0.8s0.1,0.2,1,0.2c1,0,1.4,0,1.4,0l0,0
	l0.6,0.7l1.3,1.7c0,0,0.6,0.8,1.1,1.1c0.5,0.3,1.1,0.6,1.6,0.8c0,0,0,0.1,0,0.1c0,0,0,0,0,0c-0.1,0-0.4,0.1-0.7,0.2
	c-0.6,0.2-1,0.5-1.5,0.8c-0.4,0.3-1.3,1-1.3,1l-0.9,0.8c-1-0.7-2.2-1.1-3.5-1.1c-3.5,0-6.3,2.8-6.3,6.3c0,3.5,2.8,6.3,6.3,6.3
	s6.3-2.8,6.3-6.3c0,0,0-0.1,0-0.1l3.3,0c0,0,0,0.1,0,0.1c0,3.5,2.8,6.3,6.3,6.3s6.3-2.8,6.3-6.3c0-3.5-2.8-6.3-6.3-6.3
	c-1,0-1.9,0.2-2.7,0.6c-0.3-0.3-1.1-1.2-1.5-1.4c-0.4-0.3-1-0.6-1.6-0.8c0,0,0-0.1,0-0.1c0,0,0-0.1,0-0.1c0.3-0.1,0.9-0.4,1.1-0.5
	c0.3-0.1,1.2-0.6,1.6-1c0.4-0.4,0.9-0.9,1.5-2c0.2-0.3,0.3-0.5,0.4-0.7l0.1,0c0,0,3.1,0.1,4.4-0.3c1.2-0.4,2.9-0.9,4.4-3.4
	c0.9-1.7,0.7-3,0.7-3.1c0.2,0,0.3,0,0.3-0.9c0-0.9,0-3.7,0-4.4C40.4,32.6,40.5,32.4,40.2,31.9z M20.7,17.5c1-1,1.3-2.1,1.3-2.1
	s0.2,0.1,0.4,0.3l-0.1,0.1l0.1,0L22,16.2L21.6,17l-0.3,0.7l-0.3,0.6l-0.4,1l-0.4,0.8l-0.7,1.4l-0.3,0.8l-0.3,0.6l-0.4,0.8L18,24.5
	l-0.5,1.2l-0.2,0.5L16.9,27l-0.5,1.2l0.1-0.9l0.2-1.3l0.4-1l0.4-1l0.6-1.7l0.3-0.8l0.7-1.8l0.4-1.2C19.8,18.2,20.2,17.9,20.7,17.5z
	 M17.8,18.7c0.1,0,0.2,0,0.4,0c0.3,0,0.6-0.1,1-0.2l-0.4,1.1l-0.3,1l-0.3,0.9l-0.5,1.2L17.2,24l-0.4,1.1l0.1-0.9l0.3-1.6l0.3-1.7
	l0.3-1.9l0.1,0L17.8,18.7z M15.6,19.1c0.1,0,0.2,0,0.3,0l-0.2,2.8l-0.1-2.5l0.1,0L15.6,19.1z M15.5,25.9l0.2-2.7l0.2-2.6L16,19
	c0.7-0.1,1.1-0.6,1.1-0.6s0.2,0.1,0.5,0.2l-0.2,0.3l0.1,0l-0.4,2.2l-0.2,1l-0.2,1.4l-0.2,0.9l-0.1,0.9L16.4,26l-1,2.5L15.5,25.9z
	 M13.7,27.9l-0.9-1.8L12,24.5l-1-2.1l-0.4-0.9l-1.4-3.3L8.2,16l-0.8-1.5l0.2-0.1l-0.2-0.1c0.7-0.3,1-0.7,1.1-0.9
	C8.7,13.6,9.2,14,10,14c0.3,0,0.5,0,0.7-0.1l0,0.3l0.1,0l1,3.6l0.5,2l0.5,2.2l0.5,1.8l0.3,0.9l0.7,2.8l0.4,1.5l0.3,1.1L13.7,27.9z
	 M14.8,28.5L14.4,27l-0.7-2.2l-0.5-2.3l-0.5-1.9l-0.4-1.4l-0.4-1.5l-1-3.6l0.2-0.1l-0.2-0.2c0.2-0.1,0.3-0.1,0.3-0.2
	c0.2,0.2,0.5,0.3,0.5,0.3s0.1,0.5,0.4,1.8c0.2,0.8,0.6,1.4,0.9,1.8l0.3,1.9l0.5,2.4l0.8,4.1l0.2,1.1l0.2,1.6l0.1,1.6L14.8,28.5z
	 M15.4,24l-0.1,3.5l-0.5-2.2l-0.7-3.6l-0.6-3.1l-0.1-0.8c0.1,0.1,0.2,0.2,0.3,0.3c0.2,0.2,0.8,0.8,1.7,0.9l-0.1,0.4l0.2,0l0.1,2.7
	L15.4,24z M15.5,28.8l0.8-1.9l0-0.2v0.6l-0.2,1.3L16,29l-0.4,0.8l-0.1-0.1L15.5,28.8z M17.2,57.7l3.6,0.2c0,0.6-0.2,1.2-0.4,1.8
	l-3.3-1.5C17.2,58,17.2,57.8,17.2,57.7z M10.7,57.6c0-0.1,0-0.2,0-0.2l3.6,0.2c0,0,0,0.1,0,0.1c0,0.2,0,0.3,0.1,0.5L11,59
	C10.8,58.6,10.7,58.1,10.7,57.6z M14.4,57.5l-3.6-0.2c0-0.7,0.2-1.4,0.5-2l3.3,1.5C14.5,57.1,14.4,57.3,14.4,57.5z M14.5,52.8
	c-0.3,0.2-0.5,0.4-0.5,0.5c-0.1,0.2-0.5,0.8-0.5,1.6l-1.1-1.1C13,53.3,13.7,53,14.5,52.8L14.5,52.8z M14.5,52.7
	c0.1,0,0.3-0.1,0.4-0.1C14.7,52.7,14.6,52.8,14.5,52.7L14.5,52.7z M15.1,56.5c-0.6-0.3-1-1.1-1-1.6c0-0.6,0.2-1,0.6-1.4l0.7,2.9
	C15.3,56.4,15.2,56.4,15.1,56.5z M15.7,59.1l-0.2,3.5c-0.6,0-1.2-0.2-1.8-0.4l1.5-3.2C15.4,59.1,15.6,59.1,15.7,59.1z M15.4,56.3
	l-0.7-2.9c0.1-0.1,0.2-0.2,0.4-0.3c0.2-0.1,0.6-0.2,1-0.3l-0.2,3.4c0,0-0.1,0-0.1,0C15.6,56.3,15.5,56.3,15.4,56.3z M16,52.9
	c0.4-0.1,0.8-0.1,1.1-0.1c0.3,0.1,0.6,0.2,0.9,0.3l-1.6,3.3c-0.2-0.1-0.4-0.2-0.6-0.2L16,52.9z M16.8,58.6l2.4,2.6
	c-0.6,0.5-1.3,1-2.1,1.2L16.3,59C16.5,58.9,16.7,58.8,16.8,58.6z M20.8,56.9l-2.6,0l2.5-0.6C20.7,56.5,20.7,56.7,20.8,56.9z
	 M18.1,56.9l-1.1,0c0,0-0.1-0.1-0.1-0.1l2.7-2.5c0.5,0.6,0.8,1.2,1,2L18.1,56.9z M16.9,56.8c-0.1-0.1-0.3-0.3-0.4-0.4l1.6-3.3
	c0.6,0.3,1.1,0.7,1.6,1.2L16.9,56.8z M12.4,53.9l1.1,1.2c0,0.2,0.1,0.4,0.2,0.6c0.3,0.6,0.7,1,1,1.2c0,0-0.1,0.1-0.1,0.1l-3.3-1.5
	C11.5,54.8,11.9,54.3,12.4,53.9z M11,59l3.5-0.9c0.1,0.2,0.2,0.4,0.4,0.6l-2.6,2.4C11.6,60.5,11.2,59.8,11,59z M12.2,61.1l2.6-2.4
	c0.1,0.1,0.3,0.2,0.5,0.3l-1.5,3.2C13.2,62,12.6,61.6,12.2,61.1z M15.5,62.6l0.2-3.5c0,0,0,0,0,0c0.2,0,0.3,0,0.5-0.1l0.9,3.4
	c-0.4,0.1-0.9,0.2-1.4,0.2C15.7,62.6,15.6,62.6,15.5,62.6z M19.2,61.3l-2.4-2.6c0.1-0.1,0.2-0.3,0.3-0.5l3.3,1.5
	C20.1,60.3,19.7,60.8,19.2,61.3z M20.8,57.6c0,0.1,0,0.2,0,0.3l-3.6-0.2c0,0,0,0,0,0c0,0,0-0.1,0-0.1L20.8,57.6
	C20.8,57.6,20.8,57.6,20.8,57.6z M34.5,55.2c0,0.1,0,0.1,0,0.2l-1.6,1.5c-0.1-0.1-0.3-0.3-0.4-0.4l1.3-2.8
	C34.1,54,34.4,54.5,34.5,55.2z M36.8,57.6c0,0.1,0,0.2,0,0.3l-3.6-0.2c0,0,0,0,0,0c0-0.1,0-0.1,0-0.2c0.2-0.1,0.7-0.2,1.1-0.6
	l2.3-0.6C36.7,56.7,36.8,57.2,36.8,57.6z M33.1,57.7l3.6,0.2c0,0.6-0.2,1.2-0.4,1.8l-3.3-1.5C33.1,58,33.1,57.8,33.1,57.7z M33,57
	c0-0.1-0.1-0.1-0.1-0.1l1.6-1.5C34.4,56.5,33.3,56.9,33,57z M32.8,58.6l2.4,2.6c-0.6,0.5-1.3,1-2.1,1.2L32.2,59
	C32.4,58.9,32.6,58.8,32.8,58.6z M32.4,56.4c-0.2-0.1-0.4-0.2-0.6-0.2l0.2-3.5c0.5,0.1,0.9,0.3,0.9,0.3s0.4,0.2,0.9,0.6L32.4,56.4z
	 M33.8,53c0.1,0,0.1,0.1,0.2,0.1l0,0C33.9,53.1,33.8,53.1,33.8,53z M31.2,52.6c0.3,0,0.5,0.1,0.8,0.2l-0.2,3.5c0,0-0.1,0-0.1,0
	c-0.1,0-0.3,0-0.4,0.1l-0.9-3.6C30.7,52.7,31,52.6,31.2,52.6z M31.7,59.1l-0.2,3.5c-0.6,0-1.2-0.2-1.8-0.4l1.5-3.2
	C31.4,59.1,31.5,59.1,31.7,59.1z M31.3,56.3c-0.2,0.1-0.3,0.1-0.5,0.2l-2.5-2.7c0.6-0.5,1.3-0.9,2-1.1L31.3,56.3z M30.3,57.5l-0.1,0
	L30.3,57.5C30.3,57.5,30.3,57.5,30.3,57.5z M28.4,53.9l2.5,2.7c-0.1,0.1-0.2,0.2-0.3,0.4l-3.3-1.5C27.5,54.8,27.9,54.3,28.4,53.9z
	 M27.2,55.4l3.3,1.5c0,0,0,0,0,0l-3.8,0C26.8,56.4,27,55.9,27.2,55.4z M30,57.5l0.3,0c0,0,0,0.1,0,0.1c0,0.2,0,0.3,0.1,0.5L26.9,59
	c-0.1-0.5-0.2-0.9-0.2-1.4c0,0,0,0,0-0.1L30,57.5z M26.9,59l3.5-0.9c0.1,0.2,0.2,0.4,0.4,0.6l-2.6,2.4C27.6,60.5,27.1,59.8,26.9,59z
	 M28.1,61.1l2.6-2.4c0.1,0.1,0.3,0.2,0.5,0.3l-1.5,3.2C29.1,62,28.6,61.6,28.1,61.1z M31.5,62.6l0.2-3.5c0,0,0,0,0,0
	c0.2,0,0.3,0,0.5-0.1l0.9,3.4c-0.4,0.1-0.9,0.2-1.4,0.2C31.7,62.6,31.6,62.6,31.5,62.6z M35.2,61.3l-2.4-2.6
	c0.1-0.1,0.2-0.3,0.3-0.5l3.3,1.5C36.1,60.3,35.7,60.8,35.2,61.3z M36.6,56.3l-2.3,0.6c0.4-0.4,0.7-0.9,0.7-1.8c0-0.1,0-0.2,0-0.3
	l0.5-0.5C36,54.9,36.4,55.6,36.6,56.3z M35.5,54.3L35,54.8c-0.1-0.7-0.5-1.3-1.1-1.7l0,0C34.6,53.4,35.1,53.8,35.5,54.3z M26.4,50.6
	c0,0,0.7,0.3,0.9,0.6c0.2,0.3,0.8,0.8,1.1,1c-1.7,1-2.8,2.7-3.1,4.7l-3.4,0c-0.2-1.7-1-3.1-2.3-4.2l1.2-1c0,0,1.1-0.9,1.6-1.2
	c0.4-0.2,1-0.4,1.3-0.4c0.2,0.3,0.6,0.6,1,0.6c0.4,0,0.7-0.2,0.9-0.4L26.4,50.6z M29,46.7c-0.3,0.4-0.7,0.9-1.7,1.5
	c-0.7,0.4-1.3,0.6-1.6,0.7c-0.2-0.3-0.6-0.5-1-0.5c-0.4,0-0.7,0.2-0.9,0.5c-0.2-0.1-0.7-0.3-1.2-0.6c-0.8-0.5-1.3-1.3-1.3-1.3
	L20,45.2l1.5,0.2l3.3,0c0,0,0,0.3,0.3,0.3c0.3,0,2.5,0,2.5,0s0.2,0,0.2-0.2c0.1,0,1.7,0,1.7,0l0.2,0C29.6,45.7,29.3,46.4,29,46.7z"
	/>
</svg>
