<?xml version="1.0" encoding="utf-8"?>
<!-- Generator: Adobe Illustrator 17.1.0, SVG Export Plug-In . SVG Version: 6.00 Build 0)  -->
<!DOCTYPE svg PUBLIC "-//W3C//DTD SVG 1.1//EN" "http://www.w3.org/Graphics/SVG/1.1/DTD/svg11.dtd">
<svg version="1.1" id="Layer_1" xmlns="http://www.w3.org/2000/svg" xmlns:xlink="http://www.w3.org/1999/xlink" x="0px" y="0px"
	 viewBox="0 0 28 22" enable-background="new 0 0 28 22" xml:space="preserve">
<g>
	
		<rect x="7.5" y="12.5" transform="matrix(9.007016e-004 1 -1 9.007016e-004 24.5283 1.4101)" fill="#D8D8D8" width="8" height="1"/>
	<path fill="#D8D8D8" d="M24,4.5l-1.5-1.5l0,0l0,0l-5.7,0l0-1.8l0,0l0,0L15.7,0l0,0l0,0l-3.5,0l0,0l0,0l-1.1,1.2l0,0l0,0l0,1.8
		l-5.6,0l0,0l0,0L4,4.5l0,0l0,0L5.5,6l0,0l0.7,0l0,13.8l0,0L8.3,22l0,0l11.3,0v0l0,0l2.1-2.2l0,0l0-13.8l0.8,0v0l0,0L24,4.5L24,4.5
		L24,4.5z M12,1.6L12.6,1l2.7,0l0.6,0.6l0,1.3l-3.8,0L12,1.6z M20.8,19.4L19.2,21L8.7,21l-1.6-1.6L7.1,6l13.6,0L20.8,19.4z M22.1,5
		L5.9,5L5.4,4.5l0.6-0.6l16.2,0l0.6,0.6L22.1,5z"/>
	<rect x="15.8" y="9" fill="#D8D8D8" width="1" height="8"/>
</g>
</svg>
