<?xml version="1.0" encoding="utf-8"?>
<!-- Generator: Adobe Illustrator 17.1.0, SVG Export Plug-In . SVG Version: 6.00 Build 0)  -->
<!DOCTYPE svg PUBLIC "-//W3C//DTD SVG 1.1//EN" "http://www.w3.org/Graphics/SVG/1.1/DTD/svg11.dtd">
<svg version="1.1" id="Layer_1" xmlns="http://www.w3.org/2000/svg" xmlns:xlink="http://www.w3.org/1999/xlink" x="0px" y="0px"
	 viewBox="0 0 32 32" enable-background="new 0 0 32 32" xml:space="preserve">
<g>
	<polygon fill="#C86497" points="32,31 29.3,28.4 32,25.8 31.1,24.9 28.4,27.5 25.8,24.9 24.8,25.9 27.4,28.5 24.8,31.1 25.7,32 
		28.3,29.4 31,32 	"/>
	<path fill="#C86497" d="M18.6,16.4c0,1.6,1.2,2.3,1.7,2.4c0.5,0.1,6,2.4,6,2.4l0.5-1.1l-6.2-2.4c0,0-0.8-0.3-0.8-1.3
		c0-0.9,0.6-1.3,0.6-1.3s1.9-1.4,1.9-5.4s-0.3-5.4-1.5-6.9C19.8,1.1,18.6,0,15.7,0C14.8,0,14,0,14,0s-2.4-0.1-4.4,2.1
		C7.6,4.5,7.7,6.4,7.7,6.4S7.3,10.2,8,12.5c0.6,2.1,1.8,2.9,1.8,2.9s0.4,0.3,0.4,1.1c0,0.8-0.4,1-0.8,1.1c-0.4,0.1-5.3,2-5.3,2
		s-4,1.3-4.1,6.1l0,0v3.2l0,0l1.3,1.3l0,0l0,0h18.9v-1.3H1.8l-0.5-0.5v-2.6l0,0c0-0.8,0.1-2.3,1.2-3.5C3.1,21.4,4,20.9,4,20.9
		l2.4-0.8l3.5-1.4c0,0,1.5-0.5,1.5-2.3c0-1.8-1-2.3-1-2.3s-1.7-0.9-1.7-5.2c0,0-0.3-4,1.3-5.6c1.5-1.6,2.2-2.3,4.2-2.3
		c1.5,0,1.8,0,1.8,0s2.1-0.1,3.5,1.6c1.4,1.8,1.8,3,1.8,5.3s-0.1,3.9-0.8,4.9C19.4,14.8,18.6,14.8,18.6,16.4z"/>
</g>
</svg>
