<?xml version="1.0" encoding="utf-8"?>
<!-- Generator: Adobe Illustrator 17.1.0, SVG Export Plug-In . SVG Version: 6.00 Build 0)  -->
<!DOCTYPE svg PUBLIC "-//W3C//DTD SVG 1.1//EN" "http://www.w3.org/Graphics/SVG/1.1/DTD/svg11.dtd">
<svg version="1.1" id="Layer_1" xmlns="http://www.w3.org/2000/svg" xmlns:xlink="http://www.w3.org/1999/xlink" x="0px" y="0px"
	 viewBox="0 0 22 26" enable-background="new 0 0 22 26" xml:space="preserve">
<path fill="#D4D4D4" d="M21.6,19.8l-4.5-4.3c0,0-0.3-0.4-1.1-0.4s-1.3,0.6-1.3,0.6s-1.2,1.1-1.4,1.3c-0.3,0.3-0.5,0-0.5,0
	s-0.2-0.1-2-1.7c-2.3-2-3.1-5-3.2-5.4C7.5,9.6,7.8,9.5,7.8,9.5L8,9.4c0,0,0.3-0.2,1.7-1c1.4-0.9,0.6-2.3,0.6-2.3l-2.5-5
	C7.4,0,6.6,0,6.3,0C6,0,4.1,0.4,2.9,1.1C0.1,2.6,0,4.4,0,5.9s0,5,3.3,10.6s8.9,8.2,8.9,8.2s2.4,1.3,4,1.3c1.6,0,2.5-0.8,3.3-1.5
	c0.8-0.7,1.5-1.8,2.2-2.9C22.4,20.6,21.6,19.8,21.6,19.8z M16.3,24.3c-2,0-5.2-2.2-5.2-2.2s-3.5-2.4-5.5-5.2
	c-2-2.8-3.9-6.8-3.9-10.5c0-1.4,0-2.4,1.1-3.1s2.3-1.3,3.4-1.5L8.8,7L6.9,8.1c0,0-0.9,0.5-1,1.4c-0.1,0.5,0,0.7,0.1,1.2
	c0.2,0.4,1.2,3.3,2.2,4.5s2.9,2.8,3.5,3.3c0.4,0.3,0.7,0.5,1.2,0.5s1-0.2,1.5-0.6s1.6-1.5,1.6-1.5l4.2,4
	C20.2,20.9,18.3,24.3,16.3,24.3z"/>
</svg>
