<?xml version="1.0" encoding="utf-8"?>
<!-- Generator: Adobe Illustrator 17.1.0, SVG Export Plug-In . SVG Version: 6.00 Build 0)  -->
<!DOCTYPE svg PUBLIC "-//W3C//DTD SVG 1.1//EN" "http://www.w3.org/Graphics/SVG/1.1/DTD/svg11.dtd">
<svg version="1.1" id="Layer_1" xmlns="http://www.w3.org/2000/svg" xmlns:xlink="http://www.w3.org/1999/xlink" x="0px" y="0px"
	 viewBox="0 0 32 32" enable-background="new 0 0 32 32" xml:space="preserve">
<path fill="#CD6698" d="M16,0C7.2,0,0,7.2,0,16s7.2,16,16,16s16-7.2,16-16S24.8,0,16,0z M16,2c3.5,0,6.7,1.3,9.1,3.4L5.4,25.1
	C3.3,22.7,2,19.5,2,16C2,8.3,8.3,2,16,2z M16,30c-3.5,0-6.7-1.3-9.2-3.4L26.6,6.8C28.7,9.3,30,12.5,30,16C30,23.7,23.7,30,16,30z"/>
</svg>
